M48
; DRILL file {KiCad 7.0.7} date mar 10 sep 2024 18:11:01
; FORMAT={-:-/ absolute / metric / decimal}
; #@! TF.CreationDate,2024-09-10T18:11:01+02:00
; #@! TF.GenerationSoftware,Kicad,Pcbnew,7.0.7
; #@! TF.FileFunction,Plated,1,2,PTH
FMAT,2
METRIC
; #@! TA.AperFunction,Plated,PTH,ComponentDrill
T1C0.500
; #@! TA.AperFunction,Plated,PTH,ComponentDrill
T2C0.700
; #@! TA.AperFunction,Plated,PTH,ComponentDrill
T3C0.900
; #@! TA.AperFunction,Plated,PTH,ComponentDrill
T4C1.000
; #@! TA.AperFunction,Plated,PTH,ComponentDrill
T5C1.016
; #@! TA.AperFunction,Plated,PTH,ComponentDrill
T6C1.090
%
G90
G05
T1
X125.82Y-98.382
X126.82Y-98.382
X127.82Y-98.382
X128.82Y-98.382
X131.5Y-98.382
X132.5Y-98.382
X133.5Y-98.382
X134.5Y-98.382
T2
X106.56Y-60.25
X111.64Y-60.25
X114.873Y-60.25
X119.953Y-60.25
X123.187Y-60.25
X128.267Y-60.25
X131.5Y-60.25
X136.58Y-60.25
T3
X107.0Y-55.0
X109.54Y-55.0
X112.5Y-55.0
X115.04Y-55.0
X118.0Y-55.0
X120.54Y-55.0
T4
X113.6Y-64.64
X113.6Y-87.5
X116.14Y-64.64
X116.14Y-87.5
X116.2Y-91.2
X116.2Y-93.74
X116.2Y-96.28
X116.2Y-98.82
X118.68Y-64.64
X118.68Y-87.5
X121.1Y-91.2
X121.1Y-93.74
X121.1Y-96.28
X121.1Y-98.82
X121.22Y-64.64
X121.22Y-87.5
X123.76Y-64.64
X123.76Y-87.5
X126.3Y-64.64
X126.3Y-87.5
X126.38Y-93.407
X128.84Y-64.64
X128.84Y-87.5
X128.92Y-93.407
X131.38Y-64.64
X131.38Y-87.5
X131.46Y-93.407
X134.0Y-93.407
X139.0Y-92.46
X139.0Y-95.0
X139.5Y-54.92
X139.5Y-57.46
X139.5Y-60.0
T5
X125.984Y-54.864
X128.524Y-54.864
X131.064Y-54.864
X133.604Y-54.864
T6
X108.0Y-92.46
X108.0Y-95.0
T0
M30
