M48
; DRILL file {KiCad 7.0.7} date jue 07 dic 2023 19:45:34
; FORMAT={-:-/ absolute / metric / decimal}
; #@! TF.CreationDate,2023-12-07T19:45:34+01:00
; #@! TF.GenerationSoftware,Kicad,Pcbnew,7.0.7
; #@! TF.FileFunction,Plated,1,2,PTH
FMAT,2
METRIC
; #@! TA.AperFunction,Plated,PTH,ComponentDrill
T1C0.800
; #@! TA.AperFunction,Plated,PTH,ComponentDrill
T2C0.900
; #@! TA.AperFunction,Plated,PTH,ComponentDrill
T3C1.000
; #@! TA.AperFunction,Plated,PTH,ComponentDrill
T4C1.016
%
G90
G05
T1
X107.95Y-60.96
X110.2Y-91.8
X110.2Y-99.42
X115.57Y-60.96
X120.65Y-60.96
X128.27Y-60.96
X132.08Y-60.96
X139.7Y-60.96
T2
X113.96Y-55.0
X116.5Y-55.0
X123.19Y-54.864
X125.73Y-54.864
X132.46Y-55.0
X135.0Y-55.0
T3
X131.2Y-98.0
X133.74Y-98.0
X136.28Y-98.0
X138.82Y-98.0
T4
X115.005Y-65.597
X115.005Y-88.457
X116.39Y-95.6
X117.545Y-65.597
X117.545Y-88.457
X118.93Y-95.6
X120.085Y-65.597
X120.085Y-88.457
X121.47Y-95.6
X122.625Y-65.597
X122.625Y-88.457
X124.01Y-95.6
X125.165Y-65.597
X125.165Y-88.457
X127.705Y-65.597
X127.705Y-88.457
X130.245Y-65.597
X130.245Y-88.457
X132.785Y-65.597
X132.785Y-88.457
T0
M30
