G04 #@! TF.GenerationSoftware,KiCad,Pcbnew,5.1.7-5.1.7*
G04 #@! TF.CreationDate,2020-10-12T00:47:03+02:00*
G04 #@! TF.ProjectId,meteo-home,6d657465-6f2d-4686-9f6d-652e6b696361,rev?*
G04 #@! TF.SameCoordinates,Original*
G04 #@! TF.FileFunction,Legend,Top*
G04 #@! TF.FilePolarity,Positive*
%FSLAX46Y46*%
G04 Gerber Fmt 4.6, Leading zero omitted, Abs format (unit mm)*
G04 Created by KiCad (PCBNEW 5.1.7-5.1.7) date 2020-10-12 00:47:03*
%MOMM*%
%LPD*%
G01*
G04 APERTURE LIST*
%ADD10C,0.150000*%
%ADD11C,0.120000*%
G04 APERTURE END LIST*
D10*
X112595001Y-63697025D02*
X112595001Y-63697025D01*
X112595001Y-64857025D02*
X112595001Y-63697025D01*
X105595001Y-65847025D02*
X111595001Y-65847025D01*
X105595001Y-81927025D02*
X105595001Y-90357024D01*
X106595001Y-81927025D02*
X105595001Y-81927025D01*
X106595001Y-73707025D02*
X106595001Y-81927025D01*
X105595001Y-73707025D02*
X106595001Y-73707025D01*
X105595001Y-65847025D02*
X105595001Y-73707025D01*
X138675001Y-63697025D02*
X112595001Y-63697025D01*
X140675001Y-88357025D02*
X140675001Y-65697025D01*
X105595001Y-90357025D02*
X138675001Y-90357025D01*
X140675001Y-65697025D02*
G75*
G03*
X138675001Y-63697025I-2000000J0D01*
G01*
X138675001Y-90357025D02*
G75*
G03*
X140675001Y-88357025I0J2000000D01*
G01*
X111595001Y-65847025D02*
G75*
G03*
X112595001Y-64847025I0J1000000D01*
G01*
X125730000Y-95885000D02*
X125730000Y-98425000D01*
X118110000Y-95885000D02*
X125730000Y-95885000D01*
X118110000Y-98425000D02*
X118110000Y-95885000D01*
X125730000Y-98425000D02*
X118110000Y-98425000D01*
X128524000Y-95631000D02*
X127000000Y-95631000D01*
X128524000Y-98679000D02*
X128524000Y-95631000D01*
X127000000Y-98679000D02*
X128524000Y-98679000D01*
D11*
X117790000Y-56545000D02*
X117790000Y-53455000D01*
X117730000Y-55000000D02*
G75*
G03*
X117730000Y-55000000I-2500000J0D01*
G01*
X112240000Y-55000462D02*
G75*
G02*
X117790000Y-53455170I2990000J462D01*
G01*
X112240000Y-54999538D02*
G75*
G03*
X117790000Y-56544830I2990000J-462D01*
G01*
X126960000Y-54864000D02*
G75*
G03*
X126960000Y-54864000I-2500000J0D01*
G01*
X127020000Y-56409000D02*
X127020000Y-53319000D01*
X121470000Y-54863538D02*
G75*
G03*
X127020000Y-56408830I2990000J-462D01*
G01*
X121470000Y-54864462D02*
G75*
G02*
X127020000Y-53319170I2990000J462D01*
G01*
X136290000Y-56545000D02*
X136290000Y-53455000D01*
X136230000Y-55000000D02*
G75*
G03*
X136230000Y-55000000I-2500000J0D01*
G01*
X130740000Y-55000462D02*
G75*
G02*
X136290000Y-53455170I2990000J462D01*
G01*
X130740000Y-54999538D02*
G75*
G03*
X136290000Y-56544830I2990000J-462D01*
G01*
X114970000Y-61940000D02*
X114970000Y-62270000D01*
X114970000Y-62270000D02*
X108550000Y-62270000D01*
X108550000Y-62270000D02*
X108550000Y-61940000D01*
X114970000Y-59980000D02*
X114970000Y-59650000D01*
X114970000Y-59650000D02*
X108550000Y-59650000D01*
X108550000Y-59650000D02*
X108550000Y-59980000D01*
X132680000Y-59650000D02*
X132680000Y-59980000D01*
X139100000Y-59650000D02*
X132680000Y-59650000D01*
X139100000Y-59980000D02*
X139100000Y-59650000D01*
X132680000Y-62270000D02*
X132680000Y-61940000D01*
X139100000Y-62270000D02*
X132680000Y-62270000D01*
X139100000Y-61940000D02*
X139100000Y-62270000D01*
X113480000Y-92350000D02*
X113810000Y-92350000D01*
X113810000Y-92350000D02*
X113810000Y-98770000D01*
X113810000Y-98770000D02*
X113480000Y-98770000D01*
X111520000Y-92350000D02*
X111190000Y-92350000D01*
X111190000Y-92350000D02*
X111190000Y-98770000D01*
X111190000Y-98770000D02*
X111520000Y-98770000D01*
X127670000Y-61940000D02*
X127670000Y-62270000D01*
X127670000Y-62270000D02*
X121250000Y-62270000D01*
X121250000Y-62270000D02*
X121250000Y-61940000D01*
X127670000Y-59980000D02*
X127670000Y-59650000D01*
X127670000Y-59650000D02*
X121250000Y-59650000D01*
X121250000Y-59650000D02*
X121250000Y-59980000D01*
X131385000Y-96460000D02*
X131385000Y-99120000D01*
X139065000Y-96460000D02*
X131385000Y-96460000D01*
X139065000Y-99120000D02*
X131385000Y-99120000D01*
X139065000Y-96460000D02*
X139065000Y-99120000D01*
X140335000Y-96460000D02*
X141665000Y-96460000D01*
X141665000Y-96460000D02*
X141665000Y-97790000D01*
D10*
X108238095Y-76452380D02*
X108238095Y-77261904D01*
X108285714Y-77357142D01*
X108333333Y-77404761D01*
X108428571Y-77452380D01*
X108619047Y-77452380D01*
X108714285Y-77404761D01*
X108761904Y-77357142D01*
X108809523Y-77261904D01*
X108809523Y-76452380D01*
X109809523Y-77452380D02*
X109238095Y-77452380D01*
X109523809Y-77452380D02*
X109523809Y-76452380D01*
X109428571Y-76595238D01*
X109333333Y-76690476D01*
X109238095Y-76738095D01*
X120880952Y-94952380D02*
X120880952Y-93952380D01*
X121119047Y-93952380D01*
X121261904Y-94000000D01*
X121357142Y-94095238D01*
X121404761Y-94190476D01*
X121452380Y-94380952D01*
X121452380Y-94523809D01*
X121404761Y-94714285D01*
X121357142Y-94809523D01*
X121261904Y-94904761D01*
X121119047Y-94952380D01*
X120880952Y-94952380D01*
X121880952Y-94952380D02*
X121880952Y-93952380D01*
X121880952Y-94428571D02*
X122452380Y-94428571D01*
X122452380Y-94952380D02*
X122452380Y-93952380D01*
X122785714Y-93952380D02*
X123357142Y-93952380D01*
X123071428Y-94952380D02*
X123071428Y-93952380D01*
X123642857Y-94047619D02*
X123690476Y-94000000D01*
X123785714Y-93952380D01*
X124023809Y-93952380D01*
X124119047Y-94000000D01*
X124166666Y-94047619D01*
X124214285Y-94142857D01*
X124214285Y-94238095D01*
X124166666Y-94380952D01*
X123595238Y-94952380D01*
X124214285Y-94952380D01*
X124595238Y-94047619D02*
X124642857Y-94000000D01*
X124738095Y-93952380D01*
X124976190Y-93952380D01*
X125071428Y-94000000D01*
X125119047Y-94047619D01*
X125166666Y-94142857D01*
X125166666Y-94238095D01*
X125119047Y-94380952D01*
X124547619Y-94952380D01*
X125166666Y-94952380D01*
X114491904Y-59412380D02*
X114491904Y-58412380D01*
X114730000Y-58412380D01*
X114872857Y-58460000D01*
X114968095Y-58555238D01*
X115015714Y-58650476D01*
X115063333Y-58840952D01*
X115063333Y-58983809D01*
X115015714Y-59174285D01*
X114968095Y-59269523D01*
X114872857Y-59364761D01*
X114730000Y-59412380D01*
X114491904Y-59412380D01*
X116015714Y-59412380D02*
X115444285Y-59412380D01*
X115730000Y-59412380D02*
X115730000Y-58412380D01*
X115634761Y-58555238D01*
X115539523Y-58650476D01*
X115444285Y-58698095D01*
X123721904Y-59276380D02*
X123721904Y-58276380D01*
X123960000Y-58276380D01*
X124102857Y-58324000D01*
X124198095Y-58419238D01*
X124245714Y-58514476D01*
X124293333Y-58704952D01*
X124293333Y-58847809D01*
X124245714Y-59038285D01*
X124198095Y-59133523D01*
X124102857Y-59228761D01*
X123960000Y-59276380D01*
X123721904Y-59276380D01*
X124674285Y-58371619D02*
X124721904Y-58324000D01*
X124817142Y-58276380D01*
X125055238Y-58276380D01*
X125150476Y-58324000D01*
X125198095Y-58371619D01*
X125245714Y-58466857D01*
X125245714Y-58562095D01*
X125198095Y-58704952D01*
X124626666Y-59276380D01*
X125245714Y-59276380D01*
X132991904Y-59412380D02*
X132991904Y-58412380D01*
X133230000Y-58412380D01*
X133372857Y-58460000D01*
X133468095Y-58555238D01*
X133515714Y-58650476D01*
X133563333Y-58840952D01*
X133563333Y-58983809D01*
X133515714Y-59174285D01*
X133468095Y-59269523D01*
X133372857Y-59364761D01*
X133230000Y-59412380D01*
X132991904Y-59412380D01*
X133896666Y-58412380D02*
X134515714Y-58412380D01*
X134182380Y-58793333D01*
X134325238Y-58793333D01*
X134420476Y-58840952D01*
X134468095Y-58888571D01*
X134515714Y-58983809D01*
X134515714Y-59221904D01*
X134468095Y-59317142D01*
X134420476Y-59364761D01*
X134325238Y-59412380D01*
X134039523Y-59412380D01*
X133944285Y-59364761D01*
X133896666Y-59317142D01*
X111593333Y-63722380D02*
X111260000Y-63246190D01*
X111021904Y-63722380D02*
X111021904Y-62722380D01*
X111402857Y-62722380D01*
X111498095Y-62770000D01*
X111545714Y-62817619D01*
X111593333Y-62912857D01*
X111593333Y-63055714D01*
X111545714Y-63150952D01*
X111498095Y-63198571D01*
X111402857Y-63246190D01*
X111021904Y-63246190D01*
X112545714Y-63722380D02*
X111974285Y-63722380D01*
X112260000Y-63722380D02*
X112260000Y-62722380D01*
X112164761Y-62865238D01*
X112069523Y-62960476D01*
X111974285Y-63008095D01*
X135723333Y-63722380D02*
X135390000Y-63246190D01*
X135151904Y-63722380D02*
X135151904Y-62722380D01*
X135532857Y-62722380D01*
X135628095Y-62770000D01*
X135675714Y-62817619D01*
X135723333Y-62912857D01*
X135723333Y-63055714D01*
X135675714Y-63150952D01*
X135628095Y-63198571D01*
X135532857Y-63246190D01*
X135151904Y-63246190D01*
X136056666Y-62722380D02*
X136675714Y-62722380D01*
X136342380Y-63103333D01*
X136485238Y-63103333D01*
X136580476Y-63150952D01*
X136628095Y-63198571D01*
X136675714Y-63293809D01*
X136675714Y-63531904D01*
X136628095Y-63627142D01*
X136580476Y-63674761D01*
X136485238Y-63722380D01*
X136199523Y-63722380D01*
X136104285Y-63674761D01*
X136056666Y-63627142D01*
X112333333Y-94742380D02*
X112000000Y-94266190D01*
X111761904Y-94742380D02*
X111761904Y-93742380D01*
X112142857Y-93742380D01*
X112238095Y-93790000D01*
X112285714Y-93837619D01*
X112333333Y-93932857D01*
X112333333Y-94075714D01*
X112285714Y-94170952D01*
X112238095Y-94218571D01*
X112142857Y-94266190D01*
X111761904Y-94266190D01*
X113190476Y-94075714D02*
X113190476Y-94742380D01*
X112952380Y-93694761D02*
X112714285Y-94409047D01*
X113333333Y-94409047D01*
X124293333Y-63722380D02*
X123960000Y-63246190D01*
X123721904Y-63722380D02*
X123721904Y-62722380D01*
X124102857Y-62722380D01*
X124198095Y-62770000D01*
X124245714Y-62817619D01*
X124293333Y-62912857D01*
X124293333Y-63055714D01*
X124245714Y-63150952D01*
X124198095Y-63198571D01*
X124102857Y-63246190D01*
X123721904Y-63246190D01*
X124674285Y-62817619D02*
X124721904Y-62770000D01*
X124817142Y-62722380D01*
X125055238Y-62722380D01*
X125150476Y-62770000D01*
X125198095Y-62817619D01*
X125245714Y-62912857D01*
X125245714Y-63008095D01*
X125198095Y-63150952D01*
X124626666Y-63722380D01*
X125245714Y-63722380D01*
X134493095Y-94702380D02*
X134493095Y-95511904D01*
X134540714Y-95607142D01*
X134588333Y-95654761D01*
X134683571Y-95702380D01*
X134874047Y-95702380D01*
X134969285Y-95654761D01*
X135016904Y-95607142D01*
X135064523Y-95511904D01*
X135064523Y-94702380D01*
X135493095Y-94797619D02*
X135540714Y-94750000D01*
X135635952Y-94702380D01*
X135874047Y-94702380D01*
X135969285Y-94750000D01*
X136016904Y-94797619D01*
X136064523Y-94892857D01*
X136064523Y-94988095D01*
X136016904Y-95130952D01*
X135445476Y-95702380D01*
X136064523Y-95702380D01*
M02*
