G04 #@! TF.GenerationSoftware,KiCad,Pcbnew,7.0.7*
G04 #@! TF.CreationDate,2024-09-10T18:09:56+02:00*
G04 #@! TF.ProjectId,meteo-home,6d657465-6f2d-4686-9f6d-652e6b696361,rev?*
G04 #@! TF.SameCoordinates,Original*
G04 #@! TF.FileFunction,Legend,Top*
G04 #@! TF.FilePolarity,Positive*
%FSLAX46Y46*%
G04 Gerber Fmt 4.6, Leading zero omitted, Abs format (unit mm)*
G04 Created by KiCad (PCBNEW 7.0.7) date 2024-09-10 18:09:56*
%MOMM*%
%LPD*%
G01*
G04 APERTURE LIST*
G04 Aperture macros list*
%AMRoundRect*
0 Rectangle with rounded corners*
0 $1 Rounding radius*
0 $2 $3 $4 $5 $6 $7 $8 $9 X,Y pos of 4 corners*
0 Add a 4 corners polygon primitive as box body*
4,1,4,$2,$3,$4,$5,$6,$7,$8,$9,$2,$3,0*
0 Add four circle primitives for the rounded corners*
1,1,$1+$1,$2,$3*
1,1,$1+$1,$4,$5*
1,1,$1+$1,$6,$7*
1,1,$1+$1,$8,$9*
0 Add four rect primitives between the rounded corners*
20,1,$1+$1,$2,$3,$4,$5,0*
20,1,$1+$1,$4,$5,$6,$7,0*
20,1,$1+$1,$6,$7,$8,$9,0*
20,1,$1+$1,$8,$9,$2,$3,0*%
G04 Aperture macros list end*
%ADD10C,0.150000*%
%ADD11C,0.120000*%
%ADD12R,1.727200X2.032000*%
%ADD13O,1.727200X2.032000*%
%ADD14R,2.000000X2.000000*%
%ADD15O,1.600000X2.000000*%
%ADD16R,1.800000X1.800000*%
%ADD17C,1.800000*%
%ADD18C,1.400000*%
%ADD19O,1.400000X1.400000*%
%ADD20R,0.850000X0.850000*%
%ADD21O,0.850000X0.850000*%
%ADD22R,1.700000X1.700000*%
%ADD23O,1.700000X1.700000*%
%ADD24RoundRect,0.250000X0.620000X-0.620000X0.620000X0.620000X-0.620000X0.620000X-0.620000X-0.620000X0*%
%ADD25C,1.740000*%
G04 APERTURE END LIST*
D10*
X126666667Y-78354819D02*
X126666667Y-77354819D01*
X126666667Y-77354819D02*
X127000000Y-78069104D01*
X127000000Y-78069104D02*
X127333333Y-77354819D01*
X127333333Y-77354819D02*
X127333333Y-78354819D01*
X128380952Y-78259580D02*
X128333333Y-78307200D01*
X128333333Y-78307200D02*
X128190476Y-78354819D01*
X128190476Y-78354819D02*
X128095238Y-78354819D01*
X128095238Y-78354819D02*
X127952381Y-78307200D01*
X127952381Y-78307200D02*
X127857143Y-78211961D01*
X127857143Y-78211961D02*
X127809524Y-78116723D01*
X127809524Y-78116723D02*
X127761905Y-77926247D01*
X127761905Y-77926247D02*
X127761905Y-77783390D01*
X127761905Y-77783390D02*
X127809524Y-77592914D01*
X127809524Y-77592914D02*
X127857143Y-77497676D01*
X127857143Y-77497676D02*
X127952381Y-77402438D01*
X127952381Y-77402438D02*
X128095238Y-77354819D01*
X128095238Y-77354819D02*
X128190476Y-77354819D01*
X128190476Y-77354819D02*
X128333333Y-77402438D01*
X128333333Y-77402438D02*
X128380952Y-77450057D01*
X128809524Y-77354819D02*
X128809524Y-78164342D01*
X128809524Y-78164342D02*
X128857143Y-78259580D01*
X128857143Y-78259580D02*
X128904762Y-78307200D01*
X128904762Y-78307200D02*
X129000000Y-78354819D01*
X129000000Y-78354819D02*
X129190476Y-78354819D01*
X129190476Y-78354819D02*
X129285714Y-78307200D01*
X129285714Y-78307200D02*
X129333333Y-78259580D01*
X129333333Y-78259580D02*
X129380952Y-78164342D01*
X129380952Y-78164342D02*
X129380952Y-77354819D01*
X130380952Y-78354819D02*
X129809524Y-78354819D01*
X130095238Y-78354819D02*
X130095238Y-77354819D01*
X130095238Y-77354819D02*
X130000000Y-77497676D01*
X130000000Y-77497676D02*
X129904762Y-77592914D01*
X129904762Y-77592914D02*
X129809524Y-77640533D01*
X127774952Y-58218819D02*
X127774952Y-57218819D01*
X127774952Y-57218819D02*
X128013047Y-57218819D01*
X128013047Y-57218819D02*
X128155904Y-57266438D01*
X128155904Y-57266438D02*
X128251142Y-57361676D01*
X128251142Y-57361676D02*
X128298761Y-57456914D01*
X128298761Y-57456914D02*
X128346380Y-57647390D01*
X128346380Y-57647390D02*
X128346380Y-57790247D01*
X128346380Y-57790247D02*
X128298761Y-57980723D01*
X128298761Y-57980723D02*
X128251142Y-58075961D01*
X128251142Y-58075961D02*
X128155904Y-58171200D01*
X128155904Y-58171200D02*
X128013047Y-58218819D01*
X128013047Y-58218819D02*
X127774952Y-58218819D01*
X128774952Y-58218819D02*
X128774952Y-57218819D01*
X128774952Y-57695009D02*
X129346380Y-57695009D01*
X129346380Y-58218819D02*
X129346380Y-57218819D01*
X129679714Y-57218819D02*
X130251142Y-57218819D01*
X129965428Y-58218819D02*
X129965428Y-57218819D01*
X130536857Y-57314057D02*
X130584476Y-57266438D01*
X130584476Y-57266438D02*
X130679714Y-57218819D01*
X130679714Y-57218819D02*
X130917809Y-57218819D01*
X130917809Y-57218819D02*
X131013047Y-57266438D01*
X131013047Y-57266438D02*
X131060666Y-57314057D01*
X131060666Y-57314057D02*
X131108285Y-57409295D01*
X131108285Y-57409295D02*
X131108285Y-57504533D01*
X131108285Y-57504533D02*
X131060666Y-57647390D01*
X131060666Y-57647390D02*
X130489238Y-58218819D01*
X130489238Y-58218819D02*
X131108285Y-58218819D01*
X131489238Y-57314057D02*
X131536857Y-57266438D01*
X131536857Y-57266438D02*
X131632095Y-57218819D01*
X131632095Y-57218819D02*
X131870190Y-57218819D01*
X131870190Y-57218819D02*
X131965428Y-57266438D01*
X131965428Y-57266438D02*
X132013047Y-57314057D01*
X132013047Y-57314057D02*
X132060666Y-57409295D01*
X132060666Y-57409295D02*
X132060666Y-57504533D01*
X132060666Y-57504533D02*
X132013047Y-57647390D01*
X132013047Y-57647390D02*
X131441619Y-58218819D01*
X131441619Y-58218819D02*
X132060666Y-58218819D01*
X113031905Y-58414819D02*
X113031905Y-57414819D01*
X113031905Y-57414819D02*
X113270000Y-57414819D01*
X113270000Y-57414819D02*
X113412857Y-57462438D01*
X113412857Y-57462438D02*
X113508095Y-57557676D01*
X113508095Y-57557676D02*
X113555714Y-57652914D01*
X113555714Y-57652914D02*
X113603333Y-57843390D01*
X113603333Y-57843390D02*
X113603333Y-57986247D01*
X113603333Y-57986247D02*
X113555714Y-58176723D01*
X113555714Y-58176723D02*
X113508095Y-58271961D01*
X113508095Y-58271961D02*
X113412857Y-58367200D01*
X113412857Y-58367200D02*
X113270000Y-58414819D01*
X113270000Y-58414819D02*
X113031905Y-58414819D01*
X113984286Y-57510057D02*
X114031905Y-57462438D01*
X114031905Y-57462438D02*
X114127143Y-57414819D01*
X114127143Y-57414819D02*
X114365238Y-57414819D01*
X114365238Y-57414819D02*
X114460476Y-57462438D01*
X114460476Y-57462438D02*
X114508095Y-57510057D01*
X114508095Y-57510057D02*
X114555714Y-57605295D01*
X114555714Y-57605295D02*
X114555714Y-57700533D01*
X114555714Y-57700533D02*
X114508095Y-57843390D01*
X114508095Y-57843390D02*
X113936667Y-58414819D01*
X113936667Y-58414819D02*
X114555714Y-58414819D01*
X118531905Y-58414819D02*
X118531905Y-57414819D01*
X118531905Y-57414819D02*
X118770000Y-57414819D01*
X118770000Y-57414819D02*
X118912857Y-57462438D01*
X118912857Y-57462438D02*
X119008095Y-57557676D01*
X119008095Y-57557676D02*
X119055714Y-57652914D01*
X119055714Y-57652914D02*
X119103333Y-57843390D01*
X119103333Y-57843390D02*
X119103333Y-57986247D01*
X119103333Y-57986247D02*
X119055714Y-58176723D01*
X119055714Y-58176723D02*
X119008095Y-58271961D01*
X119008095Y-58271961D02*
X118912857Y-58367200D01*
X118912857Y-58367200D02*
X118770000Y-58414819D01*
X118770000Y-58414819D02*
X118531905Y-58414819D01*
X119436667Y-57414819D02*
X120055714Y-57414819D01*
X120055714Y-57414819D02*
X119722381Y-57795771D01*
X119722381Y-57795771D02*
X119865238Y-57795771D01*
X119865238Y-57795771D02*
X119960476Y-57843390D01*
X119960476Y-57843390D02*
X120008095Y-57891009D01*
X120008095Y-57891009D02*
X120055714Y-57986247D01*
X120055714Y-57986247D02*
X120055714Y-58224342D01*
X120055714Y-58224342D02*
X120008095Y-58319580D01*
X120008095Y-58319580D02*
X119960476Y-58367200D01*
X119960476Y-58367200D02*
X119865238Y-58414819D01*
X119865238Y-58414819D02*
X119579524Y-58414819D01*
X119579524Y-58414819D02*
X119484286Y-58367200D01*
X119484286Y-58367200D02*
X119436667Y-58319580D01*
X108773333Y-62804819D02*
X108440000Y-62328628D01*
X108201905Y-62804819D02*
X108201905Y-61804819D01*
X108201905Y-61804819D02*
X108582857Y-61804819D01*
X108582857Y-61804819D02*
X108678095Y-61852438D01*
X108678095Y-61852438D02*
X108725714Y-61900057D01*
X108725714Y-61900057D02*
X108773333Y-61995295D01*
X108773333Y-61995295D02*
X108773333Y-62138152D01*
X108773333Y-62138152D02*
X108725714Y-62233390D01*
X108725714Y-62233390D02*
X108678095Y-62281009D01*
X108678095Y-62281009D02*
X108582857Y-62328628D01*
X108582857Y-62328628D02*
X108201905Y-62328628D01*
X109725714Y-62804819D02*
X109154286Y-62804819D01*
X109440000Y-62804819D02*
X109440000Y-61804819D01*
X109440000Y-61804819D02*
X109344762Y-61947676D01*
X109344762Y-61947676D02*
X109249524Y-62042914D01*
X109249524Y-62042914D02*
X109154286Y-62090533D01*
X125259999Y-62804819D02*
X124926666Y-62328628D01*
X124688571Y-62804819D02*
X124688571Y-61804819D01*
X124688571Y-61804819D02*
X125069523Y-61804819D01*
X125069523Y-61804819D02*
X125164761Y-61852438D01*
X125164761Y-61852438D02*
X125212380Y-61900057D01*
X125212380Y-61900057D02*
X125259999Y-61995295D01*
X125259999Y-61995295D02*
X125259999Y-62138152D01*
X125259999Y-62138152D02*
X125212380Y-62233390D01*
X125212380Y-62233390D02*
X125164761Y-62281009D01*
X125164761Y-62281009D02*
X125069523Y-62328628D01*
X125069523Y-62328628D02*
X124688571Y-62328628D01*
X125593333Y-61804819D02*
X126212380Y-61804819D01*
X126212380Y-61804819D02*
X125879047Y-62185771D01*
X125879047Y-62185771D02*
X126021904Y-62185771D01*
X126021904Y-62185771D02*
X126117142Y-62233390D01*
X126117142Y-62233390D02*
X126164761Y-62281009D01*
X126164761Y-62281009D02*
X126212380Y-62376247D01*
X126212380Y-62376247D02*
X126212380Y-62614342D01*
X126212380Y-62614342D02*
X126164761Y-62709580D01*
X126164761Y-62709580D02*
X126117142Y-62757200D01*
X126117142Y-62757200D02*
X126021904Y-62804819D01*
X126021904Y-62804819D02*
X125736190Y-62804819D01*
X125736190Y-62804819D02*
X125640952Y-62757200D01*
X125640952Y-62757200D02*
X125593333Y-62709580D01*
X133573333Y-62684819D02*
X133240000Y-62208628D01*
X133001905Y-62684819D02*
X133001905Y-61684819D01*
X133001905Y-61684819D02*
X133382857Y-61684819D01*
X133382857Y-61684819D02*
X133478095Y-61732438D01*
X133478095Y-61732438D02*
X133525714Y-61780057D01*
X133525714Y-61780057D02*
X133573333Y-61875295D01*
X133573333Y-61875295D02*
X133573333Y-62018152D01*
X133573333Y-62018152D02*
X133525714Y-62113390D01*
X133525714Y-62113390D02*
X133478095Y-62161009D01*
X133478095Y-62161009D02*
X133382857Y-62208628D01*
X133382857Y-62208628D02*
X133001905Y-62208628D01*
X134430476Y-62018152D02*
X134430476Y-62684819D01*
X134192381Y-61637200D02*
X133954286Y-62351485D01*
X133954286Y-62351485D02*
X134573333Y-62351485D01*
X117146666Y-62844819D02*
X116813333Y-62368628D01*
X116575238Y-62844819D02*
X116575238Y-61844819D01*
X116575238Y-61844819D02*
X116956190Y-61844819D01*
X116956190Y-61844819D02*
X117051428Y-61892438D01*
X117051428Y-61892438D02*
X117099047Y-61940057D01*
X117099047Y-61940057D02*
X117146666Y-62035295D01*
X117146666Y-62035295D02*
X117146666Y-62178152D01*
X117146666Y-62178152D02*
X117099047Y-62273390D01*
X117099047Y-62273390D02*
X117051428Y-62321009D01*
X117051428Y-62321009D02*
X116956190Y-62368628D01*
X116956190Y-62368628D02*
X116575238Y-62368628D01*
X117527619Y-61940057D02*
X117575238Y-61892438D01*
X117575238Y-61892438D02*
X117670476Y-61844819D01*
X117670476Y-61844819D02*
X117908571Y-61844819D01*
X117908571Y-61844819D02*
X118003809Y-61892438D01*
X118003809Y-61892438D02*
X118051428Y-61940057D01*
X118051428Y-61940057D02*
X118099047Y-62035295D01*
X118099047Y-62035295D02*
X118099047Y-62130533D01*
X118099047Y-62130533D02*
X118051428Y-62273390D01*
X118051428Y-62273390D02*
X117480000Y-62844819D01*
X117480000Y-62844819D02*
X118099047Y-62844819D01*
X107531905Y-58414819D02*
X107531905Y-57414819D01*
X107531905Y-57414819D02*
X107770000Y-57414819D01*
X107770000Y-57414819D02*
X107912857Y-57462438D01*
X107912857Y-57462438D02*
X108008095Y-57557676D01*
X108008095Y-57557676D02*
X108055714Y-57652914D01*
X108055714Y-57652914D02*
X108103333Y-57843390D01*
X108103333Y-57843390D02*
X108103333Y-57986247D01*
X108103333Y-57986247D02*
X108055714Y-58176723D01*
X108055714Y-58176723D02*
X108008095Y-58271961D01*
X108008095Y-58271961D02*
X107912857Y-58367200D01*
X107912857Y-58367200D02*
X107770000Y-58414819D01*
X107770000Y-58414819D02*
X107531905Y-58414819D01*
X109055714Y-58414819D02*
X108484286Y-58414819D01*
X108770000Y-58414819D02*
X108770000Y-57414819D01*
X108770000Y-57414819D02*
X108674762Y-57557676D01*
X108674762Y-57557676D02*
X108579524Y-57652914D01*
X108579524Y-57652914D02*
X108484286Y-57700533D01*
X125867619Y-96837319D02*
X125867619Y-95837319D01*
X126296190Y-95932557D02*
X126343809Y-95884938D01*
X126343809Y-95884938D02*
X126439047Y-95837319D01*
X126439047Y-95837319D02*
X126677142Y-95837319D01*
X126677142Y-95837319D02*
X126772380Y-95884938D01*
X126772380Y-95884938D02*
X126819999Y-95932557D01*
X126819999Y-95932557D02*
X126867618Y-96027795D01*
X126867618Y-96027795D02*
X126867618Y-96123033D01*
X126867618Y-96123033D02*
X126819999Y-96265890D01*
X126819999Y-96265890D02*
X126248571Y-96837319D01*
X126248571Y-96837319D02*
X126867618Y-96837319D01*
X127867618Y-96742080D02*
X127819999Y-96789700D01*
X127819999Y-96789700D02*
X127677142Y-96837319D01*
X127677142Y-96837319D02*
X127581904Y-96837319D01*
X127581904Y-96837319D02*
X127439047Y-96789700D01*
X127439047Y-96789700D02*
X127343809Y-96694461D01*
X127343809Y-96694461D02*
X127296190Y-96599223D01*
X127296190Y-96599223D02*
X127248571Y-96408747D01*
X127248571Y-96408747D02*
X127248571Y-96265890D01*
X127248571Y-96265890D02*
X127296190Y-96075414D01*
X127296190Y-96075414D02*
X127343809Y-95980176D01*
X127343809Y-95980176D02*
X127439047Y-95884938D01*
X127439047Y-95884938D02*
X127581904Y-95837319D01*
X127581904Y-95837319D02*
X127677142Y-95837319D01*
X127677142Y-95837319D02*
X127819999Y-95884938D01*
X127819999Y-95884938D02*
X127867618Y-95932557D01*
X128200952Y-95837319D02*
X128819999Y-95837319D01*
X128819999Y-95837319D02*
X128486666Y-96218271D01*
X128486666Y-96218271D02*
X128629523Y-96218271D01*
X128629523Y-96218271D02*
X128724761Y-96265890D01*
X128724761Y-96265890D02*
X128772380Y-96313509D01*
X128772380Y-96313509D02*
X128819999Y-96408747D01*
X128819999Y-96408747D02*
X128819999Y-96646842D01*
X128819999Y-96646842D02*
X128772380Y-96742080D01*
X128772380Y-96742080D02*
X128724761Y-96789700D01*
X128724761Y-96789700D02*
X128629523Y-96837319D01*
X128629523Y-96837319D02*
X128343809Y-96837319D01*
X128343809Y-96837319D02*
X128248571Y-96789700D01*
X128248571Y-96789700D02*
X128200952Y-96742080D01*
X138782549Y-62283758D02*
X139258739Y-62283758D01*
X138687311Y-62569473D02*
X139020644Y-61569473D01*
X139020644Y-61569473D02*
X139353977Y-62569473D01*
X140211120Y-62569473D02*
X139639692Y-62569473D01*
X139925406Y-62569473D02*
X139925406Y-61569473D01*
X139925406Y-61569473D02*
X139830168Y-61712330D01*
X139830168Y-61712330D02*
X139734930Y-61807568D01*
X139734930Y-61807568D02*
X139639692Y-61855187D01*
X114254819Y-96592380D02*
X113254819Y-96592380D01*
X113350057Y-96163809D02*
X113302438Y-96116190D01*
X113302438Y-96116190D02*
X113254819Y-96020952D01*
X113254819Y-96020952D02*
X113254819Y-95782857D01*
X113254819Y-95782857D02*
X113302438Y-95687619D01*
X113302438Y-95687619D02*
X113350057Y-95640000D01*
X113350057Y-95640000D02*
X113445295Y-95592381D01*
X113445295Y-95592381D02*
X113540533Y-95592381D01*
X113540533Y-95592381D02*
X113683390Y-95640000D01*
X113683390Y-95640000D02*
X114254819Y-96211428D01*
X114254819Y-96211428D02*
X114254819Y-95592381D01*
X114159580Y-94592381D02*
X114207200Y-94640000D01*
X114207200Y-94640000D02*
X114254819Y-94782857D01*
X114254819Y-94782857D02*
X114254819Y-94878095D01*
X114254819Y-94878095D02*
X114207200Y-95020952D01*
X114207200Y-95020952D02*
X114111961Y-95116190D01*
X114111961Y-95116190D02*
X114016723Y-95163809D01*
X114016723Y-95163809D02*
X113826247Y-95211428D01*
X113826247Y-95211428D02*
X113683390Y-95211428D01*
X113683390Y-95211428D02*
X113492914Y-95163809D01*
X113492914Y-95163809D02*
X113397676Y-95116190D01*
X113397676Y-95116190D02*
X113302438Y-95020952D01*
X113302438Y-95020952D02*
X113254819Y-94878095D01*
X113254819Y-94878095D02*
X113254819Y-94782857D01*
X113254819Y-94782857D02*
X113302438Y-94640000D01*
X113302438Y-94640000D02*
X113350057Y-94592381D01*
X114254819Y-93640000D02*
X114254819Y-94211428D01*
X114254819Y-93925714D02*
X113254819Y-93925714D01*
X113254819Y-93925714D02*
X113397676Y-94020952D01*
X113397676Y-94020952D02*
X113492914Y-94116190D01*
X113492914Y-94116190D02*
X113540533Y-94211428D01*
X129546666Y-89862319D02*
X129546666Y-90576604D01*
X129546666Y-90576604D02*
X129499047Y-90719461D01*
X129499047Y-90719461D02*
X129403809Y-90814700D01*
X129403809Y-90814700D02*
X129260952Y-90862319D01*
X129260952Y-90862319D02*
X129165714Y-90862319D01*
X130546666Y-90862319D02*
X129975238Y-90862319D01*
X130260952Y-90862319D02*
X130260952Y-89862319D01*
X130260952Y-89862319D02*
X130165714Y-90005176D01*
X130165714Y-90005176D02*
X130070476Y-90100414D01*
X130070476Y-90100414D02*
X129975238Y-90148033D01*
X120154819Y-96934880D02*
X119154819Y-96934880D01*
X119250057Y-96506309D02*
X119202438Y-96458690D01*
X119202438Y-96458690D02*
X119154819Y-96363452D01*
X119154819Y-96363452D02*
X119154819Y-96125357D01*
X119154819Y-96125357D02*
X119202438Y-96030119D01*
X119202438Y-96030119D02*
X119250057Y-95982500D01*
X119250057Y-95982500D02*
X119345295Y-95934881D01*
X119345295Y-95934881D02*
X119440533Y-95934881D01*
X119440533Y-95934881D02*
X119583390Y-95982500D01*
X119583390Y-95982500D02*
X120154819Y-96553928D01*
X120154819Y-96553928D02*
X120154819Y-95934881D01*
X120059580Y-94934881D02*
X120107200Y-94982500D01*
X120107200Y-94982500D02*
X120154819Y-95125357D01*
X120154819Y-95125357D02*
X120154819Y-95220595D01*
X120154819Y-95220595D02*
X120107200Y-95363452D01*
X120107200Y-95363452D02*
X120011961Y-95458690D01*
X120011961Y-95458690D02*
X119916723Y-95506309D01*
X119916723Y-95506309D02*
X119726247Y-95553928D01*
X119726247Y-95553928D02*
X119583390Y-95553928D01*
X119583390Y-95553928D02*
X119392914Y-95506309D01*
X119392914Y-95506309D02*
X119297676Y-95458690D01*
X119297676Y-95458690D02*
X119202438Y-95363452D01*
X119202438Y-95363452D02*
X119154819Y-95220595D01*
X119154819Y-95220595D02*
X119154819Y-95125357D01*
X119154819Y-95125357D02*
X119202438Y-94982500D01*
X119202438Y-94982500D02*
X119250057Y-94934881D01*
X119250057Y-94553928D02*
X119202438Y-94506309D01*
X119202438Y-94506309D02*
X119154819Y-94411071D01*
X119154819Y-94411071D02*
X119154819Y-94172976D01*
X119154819Y-94172976D02*
X119202438Y-94077738D01*
X119202438Y-94077738D02*
X119250057Y-94030119D01*
X119250057Y-94030119D02*
X119345295Y-93982500D01*
X119345295Y-93982500D02*
X119440533Y-93982500D01*
X119440533Y-93982500D02*
X119583390Y-94030119D01*
X119583390Y-94030119D02*
X120154819Y-94601547D01*
X120154819Y-94601547D02*
X120154819Y-93982500D01*
X108690476Y-99954819D02*
X108690476Y-98954819D01*
X108690476Y-98954819D02*
X109071428Y-98954819D01*
X109071428Y-98954819D02*
X109166666Y-99002438D01*
X109166666Y-99002438D02*
X109214285Y-99050057D01*
X109214285Y-99050057D02*
X109261904Y-99145295D01*
X109261904Y-99145295D02*
X109261904Y-99288152D01*
X109261904Y-99288152D02*
X109214285Y-99383390D01*
X109214285Y-99383390D02*
X109166666Y-99431009D01*
X109166666Y-99431009D02*
X109071428Y-99478628D01*
X109071428Y-99478628D02*
X108690476Y-99478628D01*
X109595238Y-98954819D02*
X109833333Y-99954819D01*
X109833333Y-99954819D02*
X110023809Y-99240533D01*
X110023809Y-99240533D02*
X110214285Y-99954819D01*
X110214285Y-99954819D02*
X110452381Y-98954819D01*
X111404761Y-99954819D02*
X111071428Y-99478628D01*
X110833333Y-99954819D02*
X110833333Y-98954819D01*
X110833333Y-98954819D02*
X111214285Y-98954819D01*
X111214285Y-98954819D02*
X111309523Y-99002438D01*
X111309523Y-99002438D02*
X111357142Y-99050057D01*
X111357142Y-99050057D02*
X111404761Y-99145295D01*
X111404761Y-99145295D02*
X111404761Y-99288152D01*
X111404761Y-99288152D02*
X111357142Y-99383390D01*
X111357142Y-99383390D02*
X111309523Y-99431009D01*
X111309523Y-99431009D02*
X111214285Y-99478628D01*
X111214285Y-99478628D02*
X110833333Y-99478628D01*
X112357142Y-99954819D02*
X111785714Y-99954819D01*
X112071428Y-99954819D02*
X112071428Y-98954819D01*
X112071428Y-98954819D02*
X111976190Y-99097676D01*
X111976190Y-99097676D02*
X111880952Y-99192914D01*
X111880952Y-99192914D02*
X111785714Y-99240533D01*
X138083333Y-89454819D02*
X138654761Y-89454819D01*
X138369047Y-90454819D02*
X138369047Y-89454819D01*
X138892857Y-90454819D02*
X139416666Y-89788152D01*
X138892857Y-89788152D02*
X139416666Y-90454819D01*
X140321428Y-90454819D02*
X139750000Y-90454819D01*
X140035714Y-90454819D02*
X140035714Y-89454819D01*
X140035714Y-89454819D02*
X139940476Y-89597676D01*
X139940476Y-89597676D02*
X139845238Y-89692914D01*
X139845238Y-89692914D02*
X139750000Y-89740533D01*
X131547619Y-96837319D02*
X131547619Y-95837319D01*
X131976190Y-95932557D02*
X132023809Y-95884938D01*
X132023809Y-95884938D02*
X132119047Y-95837319D01*
X132119047Y-95837319D02*
X132357142Y-95837319D01*
X132357142Y-95837319D02*
X132452380Y-95884938D01*
X132452380Y-95884938D02*
X132499999Y-95932557D01*
X132499999Y-95932557D02*
X132547618Y-96027795D01*
X132547618Y-96027795D02*
X132547618Y-96123033D01*
X132547618Y-96123033D02*
X132499999Y-96265890D01*
X132499999Y-96265890D02*
X131928571Y-96837319D01*
X131928571Y-96837319D02*
X132547618Y-96837319D01*
X133547618Y-96742080D02*
X133499999Y-96789700D01*
X133499999Y-96789700D02*
X133357142Y-96837319D01*
X133357142Y-96837319D02*
X133261904Y-96837319D01*
X133261904Y-96837319D02*
X133119047Y-96789700D01*
X133119047Y-96789700D02*
X133023809Y-96694461D01*
X133023809Y-96694461D02*
X132976190Y-96599223D01*
X132976190Y-96599223D02*
X132928571Y-96408747D01*
X132928571Y-96408747D02*
X132928571Y-96265890D01*
X132928571Y-96265890D02*
X132976190Y-96075414D01*
X132976190Y-96075414D02*
X133023809Y-95980176D01*
X133023809Y-95980176D02*
X133119047Y-95884938D01*
X133119047Y-95884938D02*
X133261904Y-95837319D01*
X133261904Y-95837319D02*
X133357142Y-95837319D01*
X133357142Y-95837319D02*
X133499999Y-95884938D01*
X133499999Y-95884938D02*
X133547618Y-95932557D01*
X134404761Y-96170652D02*
X134404761Y-96837319D01*
X134166666Y-95789700D02*
X133928571Y-96503985D01*
X133928571Y-96503985D02*
X134547618Y-96503985D01*
D11*
X112160000Y-63140000D02*
X137590000Y-63140000D01*
X112160000Y-63140000D02*
X112160000Y-65680000D01*
X112160000Y-65680000D02*
X105260000Y-65680000D01*
X105260000Y-65680000D02*
X105260000Y-89000000D01*
X139720000Y-86880000D02*
X139720000Y-65270000D01*
X105260000Y-89000000D02*
X137590000Y-89000000D01*
X139720000Y-65270000D02*
G75*
G03*
X137590000Y-63140000I-2130002J-2D01*
G01*
X137590000Y-89000000D02*
G75*
G03*
X139720000Y-86870000I0J2130000D01*
G01*
D10*
X131380000Y-62735000D02*
X130745000Y-62100000D01*
X132015000Y-62100000D01*
X131380000Y-62735000D01*
G36*
X131380000Y-62735000D02*
G01*
X130745000Y-62100000D01*
X132015000Y-62100000D01*
X131380000Y-62735000D01*
G37*
X124460000Y-53340000D02*
X124460000Y-56388000D01*
X124460000Y-56388000D02*
X125984000Y-56388000D01*
X125984000Y-53340000D02*
X124460000Y-53340000D01*
X127254000Y-53594000D02*
X134874000Y-53594000D01*
X127254000Y-56134000D02*
X127254000Y-53594000D01*
X134874000Y-53594000D02*
X134874000Y-56134000D01*
X134874000Y-56134000D02*
X127254000Y-56134000D01*
D11*
X115330000Y-56236000D02*
X115330000Y-56080000D01*
X115330000Y-53920000D02*
X115330000Y-53764000D01*
X112097666Y-56078608D02*
G75*
G03*
X115329999Y-56235515I1672334J1078608D01*
G01*
X112728871Y-56079836D02*
G75*
G03*
X114810960Y-56079999I1041129J1079836D01*
G01*
X114810960Y-53920001D02*
G75*
G03*
X112728871Y-53920164I-1040960J-1079999D01*
G01*
X115329999Y-53764485D02*
G75*
G03*
X112097666Y-53921392I-1559999J-1235515D01*
G01*
X120830000Y-56236000D02*
X120830000Y-56080000D01*
X120830000Y-53920000D02*
X120830000Y-53764000D01*
X117597666Y-56078608D02*
G75*
G03*
X120829999Y-56235515I1672334J1078608D01*
G01*
X118228871Y-56079836D02*
G75*
G03*
X120310960Y-56079999I1041129J1079836D01*
G01*
X120310960Y-53920001D02*
G75*
G03*
X118228871Y-53920164I-1040960J-1079999D01*
G01*
X120829999Y-53764485D02*
G75*
G03*
X117597666Y-53921392I-1559999J-1235515D01*
G01*
X111020000Y-61170000D02*
X107180000Y-61170000D01*
X111020000Y-59330000D02*
X107180000Y-59330000D01*
X127646666Y-61170000D02*
X123806666Y-61170000D01*
X127646666Y-59330000D02*
X123806666Y-59330000D01*
X132120000Y-59330000D02*
X135960000Y-59330000D01*
X132120000Y-61170000D02*
X135960000Y-61170000D01*
X119333333Y-61170000D02*
X115493333Y-61170000D01*
X119333333Y-59330000D02*
X115493333Y-59330000D01*
X109830000Y-56236000D02*
X109830000Y-56080000D01*
X109830000Y-53920000D02*
X109830000Y-53764000D01*
X106597666Y-56078608D02*
G75*
G03*
X109829999Y-56235515I1672334J1078608D01*
G01*
X107228871Y-56079836D02*
G75*
G03*
X109310960Y-56079999I1041129J1079836D01*
G01*
X109310960Y-53920001D02*
G75*
G03*
X107228871Y-53920164I-1040960J-1079999D01*
G01*
X109829999Y-53764485D02*
G75*
G03*
X106597666Y-53921392I-1559999J-1235515D01*
G01*
X126320000Y-99482500D02*
X129630000Y-99482500D01*
X126320000Y-99482500D02*
X126320000Y-99067500D01*
X129630000Y-99482500D02*
X129630000Y-97862500D01*
X125010000Y-98382500D02*
X125010000Y-97697500D01*
X127265898Y-97862500D02*
X127374102Y-97862500D01*
X128265898Y-97862500D02*
X128374102Y-97862500D01*
X129265898Y-97862500D02*
X129630000Y-97862500D01*
X125010000Y-97697500D02*
X125820000Y-97697500D01*
X140830000Y-58730000D02*
X140830000Y-53590000D01*
X140830000Y-58730000D02*
X138170000Y-58730000D01*
X140830000Y-53590000D02*
X138170000Y-53590000D01*
X139500000Y-61330000D02*
X138170000Y-61330000D01*
X138170000Y-61330000D02*
X138170000Y-60000000D01*
X138170000Y-58730000D02*
X138170000Y-53590000D01*
X117530000Y-97550000D02*
X117530000Y-89870000D01*
X117530000Y-97550000D02*
X114870000Y-97550000D01*
X117530000Y-89870000D02*
X114870000Y-89870000D01*
X116200000Y-100150000D02*
X114870000Y-100150000D01*
X114870000Y-100150000D02*
X114870000Y-98820000D01*
X114870000Y-97550000D02*
X114870000Y-89870000D01*
X132730000Y-92077500D02*
X125050000Y-92077500D01*
X132730000Y-92077500D02*
X132730000Y-94737500D01*
X125050000Y-92077500D02*
X125050000Y-94737500D01*
X135330000Y-93407500D02*
X135330000Y-94737500D01*
X135330000Y-94737500D02*
X134000000Y-94737500D01*
X132730000Y-94737500D02*
X125050000Y-94737500D01*
X122430000Y-97550000D02*
X122430000Y-89870000D01*
X122430000Y-97550000D02*
X119770000Y-97550000D01*
X122430000Y-89870000D02*
X119770000Y-89870000D01*
X121100000Y-100150000D02*
X119770000Y-100150000D01*
X119770000Y-100150000D02*
X119770000Y-98820000D01*
X119770000Y-97550000D02*
X119770000Y-89870000D01*
X105040000Y-97830000D02*
X105040000Y-95420000D01*
X107450000Y-97830000D02*
X105040000Y-97830000D01*
X105340000Y-97530000D02*
X107870000Y-97530000D01*
X107870000Y-97530000D02*
X107870000Y-97400000D01*
X109680000Y-97530000D02*
X110660000Y-97530000D01*
X110660000Y-97530000D02*
X110660000Y-97270000D01*
X107870000Y-97400000D02*
X109680000Y-97400000D01*
X109680000Y-97400000D02*
X109680000Y-97530000D01*
X110660000Y-97270000D02*
X112160000Y-97270000D01*
X112160000Y-97270000D02*
X112160000Y-90190000D01*
X110660000Y-90190000D02*
X110660000Y-89930000D01*
X112160000Y-90190000D02*
X110660000Y-90190000D01*
X107870000Y-90060000D02*
X107870000Y-89930000D01*
X109680000Y-90060000D02*
X107870000Y-90060000D01*
X105340000Y-89930000D02*
X105340000Y-97530000D01*
X107870000Y-89930000D02*
X105340000Y-89930000D01*
X109680000Y-89930000D02*
X109680000Y-90060000D01*
X110660000Y-89930000D02*
X109680000Y-89930000D01*
X137670000Y-93730000D02*
X137670000Y-96330000D01*
X137670000Y-93730000D02*
X140330000Y-93730000D01*
X137670000Y-96330000D02*
X140330000Y-96330000D01*
X139000000Y-91130000D02*
X140330000Y-91130000D01*
X140330000Y-91130000D02*
X140330000Y-92460000D01*
X140330000Y-93730000D02*
X140330000Y-96330000D01*
X132000000Y-99482500D02*
X135310000Y-99482500D01*
X132000000Y-99482500D02*
X132000000Y-99067500D01*
X135310000Y-99482500D02*
X135310000Y-97862500D01*
X130690000Y-98382500D02*
X130690000Y-97697500D01*
X132945898Y-97862500D02*
X133054102Y-97862500D01*
X133945898Y-97862500D02*
X134054102Y-97862500D01*
X134945898Y-97862500D02*
X135310000Y-97862500D01*
X130690000Y-97697500D02*
X131500000Y-97697500D01*
D12*
X125984000Y-54864000D03*
D13*
X128524000Y-54864000D03*
X131064000Y-54864000D03*
X133604000Y-54864000D03*
%LPC*%
D14*
X131380000Y-64640000D03*
D15*
X128840000Y-64640000D03*
X126300000Y-64640000D03*
X123760000Y-64640000D03*
X121220000Y-64640000D03*
X118680000Y-64640000D03*
X116140000Y-64640000D03*
X113600000Y-64640000D03*
X113600000Y-87500000D03*
X116140000Y-87500000D03*
X118680000Y-87500000D03*
X121220000Y-87500000D03*
X123760000Y-87500000D03*
X126300000Y-87500000D03*
X128840000Y-87500000D03*
X131380000Y-87500000D03*
D12*
X125984000Y-54864000D03*
D13*
X128524000Y-54864000D03*
X131064000Y-54864000D03*
X133604000Y-54864000D03*
D16*
X115040000Y-55000000D03*
D17*
X112500000Y-55000000D03*
D16*
X120540000Y-55000000D03*
D17*
X118000000Y-55000000D03*
D18*
X111640000Y-60250000D03*
D19*
X106560000Y-60250000D03*
D18*
X128266666Y-60250000D03*
D19*
X123186666Y-60250000D03*
D18*
X131500000Y-60250000D03*
D19*
X136580000Y-60250000D03*
D18*
X119953333Y-60250000D03*
D19*
X114873333Y-60250000D03*
D16*
X109540000Y-55000000D03*
D17*
X107000000Y-55000000D03*
D20*
X125820000Y-98382500D03*
D21*
X126820000Y-98382500D03*
X127820000Y-98382500D03*
X128820000Y-98382500D03*
D22*
X139500000Y-60000000D03*
D23*
X139500000Y-57460000D03*
X139500000Y-54920000D03*
D22*
X116200000Y-98820000D03*
D23*
X116200000Y-96280000D03*
X116200000Y-93740000D03*
X116200000Y-91200000D03*
D22*
X134000000Y-93407500D03*
D23*
X131460000Y-93407500D03*
X128920000Y-93407500D03*
X126380000Y-93407500D03*
D22*
X121100000Y-98820000D03*
D23*
X121100000Y-96280000D03*
X121100000Y-93740000D03*
X121100000Y-91200000D03*
D24*
X108000000Y-95000000D03*
D25*
X108000000Y-92460000D03*
D22*
X139000000Y-92460000D03*
D23*
X139000000Y-95000000D03*
D20*
X131500000Y-98382500D03*
D21*
X132500000Y-98382500D03*
X133500000Y-98382500D03*
X134500000Y-98382500D03*
%LPD*%
M02*
