%TF.GenerationSoftware,KiCad,Pcbnew,7.0.7*%
%TF.CreationDate,2024-09-10T18:13:52+02:00*%
%TF.ProjectId,meteo-home,6d657465-6f2d-4686-9f6d-652e6b696361,rev?*%
%TF.SameCoordinates,Original*%
%TF.FileFunction,Drillmap*%
%TF.FilePolarity,Positive*%
%FSLAX45Y45*%
G04 Gerber Fmt 4.5, Leading zero omitted, Abs format (unit mm)*
G04 Created by KiCad (PCBNEW 7.0.7) date 2024-09-10 18:13:52*
%MOMM*%
%LPD*%
G01*
G04 APERTURE LIST*
%ADD10C,0.050000*%
%ADD11C,0.200000*%
G04 APERTURE END LIST*
D10*
X10800000Y-5150000D02*
G75*
G03*
X10800000Y-5150000I-100000J0D01*
G01*
X10800000Y-9900000D02*
G75*
G03*
X10800000Y-9900000I-100000J0D01*
G01*
X14050000Y-9900000D02*
G75*
G03*
X14050000Y-9900000I-100000J0D01*
G01*
X14050000Y-5150000D02*
G75*
G03*
X14050000Y-5150000I-100000J0D01*
G01*
X10500000Y-5000000D02*
X14150000Y-5000000D01*
X14150000Y-10100000D01*
X10500000Y-10100000D01*
X10500000Y-5000000D01*
D11*
X10758277Y-10413984D02*
X10758277Y-10213984D01*
X10758277Y-10213984D02*
X10805896Y-10213984D01*
X10805896Y-10213984D02*
X10834467Y-10223508D01*
X10834467Y-10223508D02*
X10853515Y-10242555D01*
X10853515Y-10242555D02*
X10863039Y-10261603D01*
X10863039Y-10261603D02*
X10872563Y-10299698D01*
X10872563Y-10299698D02*
X10872563Y-10328270D01*
X10872563Y-10328270D02*
X10863039Y-10366365D01*
X10863039Y-10366365D02*
X10853515Y-10385412D01*
X10853515Y-10385412D02*
X10834467Y-10404460D01*
X10834467Y-10404460D02*
X10805896Y-10413984D01*
X10805896Y-10413984D02*
X10758277Y-10413984D01*
X10958277Y-10413984D02*
X10958277Y-10280650D01*
X10958277Y-10318746D02*
X10967801Y-10299698D01*
X10967801Y-10299698D02*
X10977324Y-10290174D01*
X10977324Y-10290174D02*
X10996372Y-10280650D01*
X10996372Y-10280650D02*
X11015420Y-10280650D01*
X11082086Y-10413984D02*
X11082086Y-10280650D01*
X11082086Y-10213984D02*
X11072563Y-10223508D01*
X11072563Y-10223508D02*
X11082086Y-10233031D01*
X11082086Y-10233031D02*
X11091610Y-10223508D01*
X11091610Y-10223508D02*
X11082086Y-10213984D01*
X11082086Y-10213984D02*
X11082086Y-10233031D01*
X11205896Y-10413984D02*
X11186848Y-10404460D01*
X11186848Y-10404460D02*
X11177324Y-10385412D01*
X11177324Y-10385412D02*
X11177324Y-10213984D01*
X11310658Y-10413984D02*
X11291610Y-10404460D01*
X11291610Y-10404460D02*
X11282086Y-10385412D01*
X11282086Y-10385412D02*
X11282086Y-10213984D01*
X11539229Y-10413984D02*
X11539229Y-10213984D01*
X11539229Y-10213984D02*
X11605896Y-10356841D01*
X11605896Y-10356841D02*
X11672562Y-10213984D01*
X11672562Y-10213984D02*
X11672562Y-10413984D01*
X11853515Y-10413984D02*
X11853515Y-10309222D01*
X11853515Y-10309222D02*
X11843991Y-10290174D01*
X11843991Y-10290174D02*
X11824943Y-10280650D01*
X11824943Y-10280650D02*
X11786848Y-10280650D01*
X11786848Y-10280650D02*
X11767801Y-10290174D01*
X11853515Y-10404460D02*
X11834467Y-10413984D01*
X11834467Y-10413984D02*
X11786848Y-10413984D01*
X11786848Y-10413984D02*
X11767801Y-10404460D01*
X11767801Y-10404460D02*
X11758277Y-10385412D01*
X11758277Y-10385412D02*
X11758277Y-10366365D01*
X11758277Y-10366365D02*
X11767801Y-10347317D01*
X11767801Y-10347317D02*
X11786848Y-10337793D01*
X11786848Y-10337793D02*
X11834467Y-10337793D01*
X11834467Y-10337793D02*
X11853515Y-10328270D01*
X11948753Y-10280650D02*
X11948753Y-10480650D01*
X11948753Y-10290174D02*
X11967801Y-10280650D01*
X11967801Y-10280650D02*
X12005896Y-10280650D01*
X12005896Y-10280650D02*
X12024943Y-10290174D01*
X12024943Y-10290174D02*
X12034467Y-10299698D01*
X12034467Y-10299698D02*
X12043991Y-10318746D01*
X12043991Y-10318746D02*
X12043991Y-10375889D01*
X12043991Y-10375889D02*
X12034467Y-10394936D01*
X12034467Y-10394936D02*
X12024943Y-10404460D01*
X12024943Y-10404460D02*
X12005896Y-10413984D01*
X12005896Y-10413984D02*
X11967801Y-10413984D01*
X11967801Y-10413984D02*
X11948753Y-10404460D01*
X12129705Y-10394936D02*
X12139229Y-10404460D01*
X12139229Y-10404460D02*
X12129705Y-10413984D01*
X12129705Y-10413984D02*
X12120182Y-10404460D01*
X12120182Y-10404460D02*
X12129705Y-10394936D01*
X12129705Y-10394936D02*
X12129705Y-10413984D01*
X12129705Y-10290174D02*
X12139229Y-10299698D01*
X12139229Y-10299698D02*
X12129705Y-10309222D01*
X12129705Y-10309222D02*
X12120182Y-10299698D01*
X12120182Y-10299698D02*
X12129705Y-10290174D01*
X12129705Y-10290174D02*
X12129705Y-10309222D01*
M02*
