G04 #@! TF.GenerationSoftware,KiCad,Pcbnew,5.1.7-5.1.7*
G04 #@! TF.CreationDate,2020-10-12T00:47:03+02:00*
G04 #@! TF.ProjectId,meteo-home,6d657465-6f2d-4686-9f6d-652e6b696361,rev?*
G04 #@! TF.SameCoordinates,Original*
G04 #@! TF.FileFunction,Copper,L2,Bot*
G04 #@! TF.FilePolarity,Positive*
%FSLAX46Y46*%
G04 Gerber Fmt 4.6, Leading zero omitted, Abs format (unit mm)*
G04 Created by KiCad (PCBNEW 5.1.7-5.1.7) date 2020-10-12 00:47:03*
%MOMM*%
%LPD*%
G01*
G04 APERTURE LIST*
G04 #@! TA.AperFunction,ComponentPad*
%ADD10C,1.800000*%
G04 #@! TD*
G04 #@! TA.AperFunction,ComponentPad*
%ADD11R,1.727200X2.032000*%
G04 #@! TD*
G04 #@! TA.AperFunction,ComponentPad*
%ADD12O,1.727200X2.032000*%
G04 #@! TD*
G04 #@! TA.AperFunction,ComponentPad*
%ADD13R,1.800000X1.800000*%
G04 #@! TD*
G04 #@! TA.AperFunction,ComponentPad*
%ADD14O,1.600000X1.600000*%
G04 #@! TD*
G04 #@! TA.AperFunction,ComponentPad*
%ADD15C,1.600000*%
G04 #@! TD*
G04 #@! TA.AperFunction,ComponentPad*
%ADD16O,1.700000X1.700000*%
G04 #@! TD*
G04 #@! TA.AperFunction,ComponentPad*
%ADD17R,1.700000X1.700000*%
G04 #@! TD*
G04 #@! TA.AperFunction,Conductor*
%ADD18C,0.250000*%
G04 #@! TD*
G04 #@! TA.AperFunction,Conductor*
%ADD19C,0.254000*%
G04 #@! TD*
G04 #@! TA.AperFunction,Conductor*
%ADD20C,0.100000*%
G04 #@! TD*
G04 APERTURE END LIST*
D10*
X115005001Y-65597025D03*
X115005001Y-88457025D03*
X117545001Y-65597025D03*
X117545001Y-88457025D03*
X120085001Y-65597025D03*
X120085001Y-88457025D03*
X122625001Y-65597025D03*
X122625001Y-88457025D03*
X125165001Y-65597025D03*
X125165001Y-88457025D03*
X127705001Y-65597025D03*
X127705001Y-88457025D03*
X130245001Y-65597025D03*
X130245001Y-88457025D03*
X132785001Y-65597025D03*
X132785001Y-88457025D03*
D11*
X127000000Y-97155000D03*
D12*
X124460000Y-97155000D03*
X121920000Y-97155000D03*
X119380000Y-97155000D03*
D10*
X113960000Y-55000000D03*
D13*
X116500000Y-55000000D03*
X125730000Y-54864000D03*
D10*
X123190000Y-54864000D03*
X132460000Y-55000000D03*
D13*
X135000000Y-55000000D03*
D14*
X107950000Y-60960000D03*
D15*
X115570000Y-60960000D03*
X139700000Y-60960000D03*
D14*
X132080000Y-60960000D03*
X112500000Y-99370000D03*
D15*
X112500000Y-91750000D03*
D14*
X120650000Y-60960000D03*
D15*
X128270000Y-60960000D03*
D16*
X132715000Y-97790000D03*
X135255000Y-97790000D03*
X137795000Y-97790000D03*
D17*
X140335000Y-97790000D03*
D18*
X113030000Y-63500000D02*
X113030000Y-63622024D01*
X128270000Y-92075000D02*
X124714000Y-95631000D01*
X134110002Y-77082026D02*
X134110002Y-85850002D01*
X134110002Y-85850002D02*
X135890000Y-87630000D01*
X124714000Y-95631000D02*
X124714000Y-97155000D01*
X122625001Y-65597025D02*
X134110002Y-77082026D01*
X135890000Y-91440000D02*
X135255000Y-92075000D01*
X135890000Y-87630000D02*
X135890000Y-91440000D01*
X135255000Y-92075000D02*
X128270000Y-92075000D01*
X117545001Y-95066001D02*
X119634000Y-97155000D01*
X117545001Y-88457025D02*
X117545001Y-95066001D01*
X111760000Y-82672024D02*
X117545001Y-88457025D01*
X111760000Y-66040000D02*
X111760000Y-82672024D01*
X114300000Y-63500000D02*
X111760000Y-66040000D01*
X118364000Y-59831002D02*
X118110000Y-60085002D01*
X123190000Y-54864000D02*
X118364000Y-59690000D01*
X118364000Y-59690000D02*
X118364000Y-59831002D01*
X118110000Y-62230000D02*
X116840000Y-63500000D01*
X116840000Y-63500000D02*
X114300000Y-63500000D01*
X118110000Y-59150000D02*
X118110000Y-60390000D01*
X113960000Y-55000000D02*
X118110000Y-59150000D01*
X118110000Y-60085002D02*
X118110000Y-60390000D01*
X118110000Y-60390000D02*
X118110000Y-62230000D01*
D19*
X141555000Y-56325771D02*
X141555001Y-96422189D01*
X141539494Y-96409463D01*
X141429180Y-96350498D01*
X141309482Y-96314188D01*
X141185000Y-96301928D01*
X139485000Y-96301928D01*
X139360518Y-96314188D01*
X139240820Y-96350498D01*
X139130506Y-96409463D01*
X139033815Y-96488815D01*
X138954463Y-96585506D01*
X138895498Y-96695820D01*
X138871034Y-96776466D01*
X138795269Y-96692412D01*
X138561920Y-96518359D01*
X138299099Y-96393175D01*
X138151890Y-96348524D01*
X137922000Y-96469845D01*
X137922000Y-97663000D01*
X137942000Y-97663000D01*
X137942000Y-97917000D01*
X137922000Y-97917000D01*
X137922000Y-99110155D01*
X138151890Y-99231476D01*
X138299099Y-99186825D01*
X138561920Y-99061641D01*
X138795269Y-98887588D01*
X138871034Y-98803534D01*
X138895498Y-98884180D01*
X138954463Y-98994494D01*
X139033815Y-99091185D01*
X139130506Y-99170537D01*
X139240820Y-99229502D01*
X139360518Y-99265812D01*
X139485000Y-99278072D01*
X141185000Y-99278072D01*
X141309482Y-99265812D01*
X141429180Y-99229502D01*
X141539494Y-99170537D01*
X141555001Y-99157811D01*
X141555001Y-100280000D01*
X113617817Y-100280000D01*
X113771680Y-100049727D01*
X113879853Y-99788574D01*
X113935000Y-99511335D01*
X113935000Y-99228665D01*
X113879853Y-98951426D01*
X113771680Y-98690273D01*
X113614637Y-98455241D01*
X113414759Y-98255363D01*
X113179727Y-98098320D01*
X112918574Y-97990147D01*
X112641335Y-97935000D01*
X112358665Y-97935000D01*
X112081426Y-97990147D01*
X111820273Y-98098320D01*
X111585241Y-98255363D01*
X111385363Y-98455241D01*
X111228320Y-98690273D01*
X111120147Y-98951426D01*
X111065000Y-99228665D01*
X111065000Y-99511335D01*
X111120147Y-99788574D01*
X111228320Y-100049727D01*
X111382183Y-100280000D01*
X105537000Y-100280000D01*
X105537000Y-97516914D01*
X117894815Y-97516914D01*
X117964227Y-97802633D01*
X118088046Y-98069321D01*
X118261514Y-98306729D01*
X118477965Y-98505733D01*
X118729081Y-98658686D01*
X119005211Y-98759709D01*
X119020974Y-98762358D01*
X119253000Y-98641217D01*
X119253000Y-97282000D01*
X118039075Y-97282000D01*
X117894815Y-97516914D01*
X105537000Y-97516914D01*
X105537000Y-96793086D01*
X117894815Y-96793086D01*
X118039075Y-97028000D01*
X119253000Y-97028000D01*
X119253000Y-95668783D01*
X119020974Y-95547642D01*
X119005211Y-95550291D01*
X118729081Y-95651314D01*
X118477965Y-95804267D01*
X118261514Y-96003271D01*
X118088046Y-96240679D01*
X117964227Y-96507367D01*
X117894815Y-96793086D01*
X105537000Y-96793086D01*
X105537000Y-92829117D01*
X105765000Y-92829117D01*
X105765000Y-93170883D01*
X105831675Y-93506081D01*
X105962463Y-93821831D01*
X106152337Y-94105998D01*
X106394002Y-94347663D01*
X106678169Y-94537537D01*
X106993919Y-94668325D01*
X107329117Y-94735000D01*
X107670883Y-94735000D01*
X108006081Y-94668325D01*
X108321831Y-94537537D01*
X108605998Y-94347663D01*
X108847663Y-94105998D01*
X109037537Y-93821831D01*
X109168325Y-93506081D01*
X109235000Y-93170883D01*
X109235000Y-92829117D01*
X109168325Y-92493919D01*
X109037537Y-92178169D01*
X108847663Y-91894002D01*
X108605998Y-91652337D01*
X108540639Y-91608665D01*
X111065000Y-91608665D01*
X111065000Y-91891335D01*
X111120147Y-92168574D01*
X111228320Y-92429727D01*
X111385363Y-92664759D01*
X111585241Y-92864637D01*
X111820273Y-93021680D01*
X112081426Y-93129853D01*
X112358665Y-93185000D01*
X112641335Y-93185000D01*
X112918574Y-93129853D01*
X113179727Y-93021680D01*
X113414759Y-92864637D01*
X113614637Y-92664759D01*
X113771680Y-92429727D01*
X113879853Y-92168574D01*
X113935000Y-91891335D01*
X113935000Y-91608665D01*
X113879853Y-91331426D01*
X113771680Y-91070273D01*
X113614637Y-90835241D01*
X113414759Y-90635363D01*
X113179727Y-90478320D01*
X112918574Y-90370147D01*
X112641335Y-90315000D01*
X112358665Y-90315000D01*
X112081426Y-90370147D01*
X111820273Y-90478320D01*
X111585241Y-90635363D01*
X111385363Y-90835241D01*
X111228320Y-91070273D01*
X111120147Y-91331426D01*
X111065000Y-91608665D01*
X108540639Y-91608665D01*
X108321831Y-91462463D01*
X108006081Y-91331675D01*
X107670883Y-91265000D01*
X107329117Y-91265000D01*
X106993919Y-91331675D01*
X106678169Y-91462463D01*
X106394002Y-91652337D01*
X106152337Y-91894002D01*
X105962463Y-92178169D01*
X105831675Y-92493919D01*
X105765000Y-92829117D01*
X105537000Y-92829117D01*
X105537000Y-88305841D01*
X113470001Y-88305841D01*
X113470001Y-88608209D01*
X113528990Y-88904768D01*
X113644702Y-89184120D01*
X113812689Y-89435530D01*
X114026496Y-89649337D01*
X114277906Y-89817324D01*
X114557258Y-89933036D01*
X114853817Y-89992025D01*
X115156185Y-89992025D01*
X115452744Y-89933036D01*
X115732096Y-89817324D01*
X115983506Y-89649337D01*
X116111738Y-89521105D01*
X116660526Y-89521105D01*
X116744209Y-89775286D01*
X117016776Y-89906183D01*
X117309643Y-89981390D01*
X117611554Y-89998016D01*
X117910908Y-89955422D01*
X118196200Y-89855247D01*
X118345793Y-89775286D01*
X118429476Y-89521105D01*
X117545001Y-88636630D01*
X116660526Y-89521105D01*
X116111738Y-89521105D01*
X116197313Y-89435530D01*
X116299952Y-89281920D01*
X116480921Y-89341500D01*
X117365396Y-88457025D01*
X117724606Y-88457025D01*
X118609081Y-89341500D01*
X118790050Y-89281920D01*
X118892689Y-89435530D01*
X119106496Y-89649337D01*
X119357906Y-89817324D01*
X119637258Y-89933036D01*
X119933817Y-89992025D01*
X120236185Y-89992025D01*
X120532744Y-89933036D01*
X120812096Y-89817324D01*
X121063506Y-89649337D01*
X121277313Y-89435530D01*
X121355001Y-89319262D01*
X121432689Y-89435530D01*
X121646496Y-89649337D01*
X121897906Y-89817324D01*
X122177258Y-89933036D01*
X122473817Y-89992025D01*
X122776185Y-89992025D01*
X123072744Y-89933036D01*
X123352096Y-89817324D01*
X123603506Y-89649337D01*
X123817313Y-89435530D01*
X123895001Y-89319262D01*
X123972689Y-89435530D01*
X124186496Y-89649337D01*
X124437906Y-89817324D01*
X124717258Y-89933036D01*
X125013817Y-89992025D01*
X125316185Y-89992025D01*
X125612744Y-89933036D01*
X125892096Y-89817324D01*
X126143506Y-89649337D01*
X126357313Y-89435530D01*
X126435001Y-89319262D01*
X126512689Y-89435530D01*
X126726496Y-89649337D01*
X126977906Y-89817324D01*
X127257258Y-89933036D01*
X127553817Y-89992025D01*
X127856185Y-89992025D01*
X128152744Y-89933036D01*
X128432096Y-89817324D01*
X128683506Y-89649337D01*
X128897313Y-89435530D01*
X128975001Y-89319262D01*
X129052689Y-89435530D01*
X129266496Y-89649337D01*
X129517906Y-89817324D01*
X129797258Y-89933036D01*
X130093817Y-89992025D01*
X130396185Y-89992025D01*
X130692744Y-89933036D01*
X130972096Y-89817324D01*
X131223506Y-89649337D01*
X131437313Y-89435530D01*
X131515001Y-89319262D01*
X131592689Y-89435530D01*
X131806496Y-89649337D01*
X132057906Y-89817324D01*
X132337258Y-89933036D01*
X132633817Y-89992025D01*
X132936185Y-89992025D01*
X133232744Y-89933036D01*
X133512096Y-89817324D01*
X133763506Y-89649337D01*
X133977313Y-89435530D01*
X134145300Y-89184120D01*
X134261012Y-88904768D01*
X134320001Y-88608209D01*
X134320001Y-88305841D01*
X134261012Y-88009282D01*
X134145300Y-87729930D01*
X133977313Y-87478520D01*
X133763506Y-87264713D01*
X133512096Y-87096726D01*
X133232744Y-86981014D01*
X132936185Y-86922025D01*
X132633817Y-86922025D01*
X132337258Y-86981014D01*
X132057906Y-87096726D01*
X131806496Y-87264713D01*
X131592689Y-87478520D01*
X131515001Y-87594788D01*
X131437313Y-87478520D01*
X131223506Y-87264713D01*
X130972096Y-87096726D01*
X130692744Y-86981014D01*
X130396185Y-86922025D01*
X130093817Y-86922025D01*
X129797258Y-86981014D01*
X129517906Y-87096726D01*
X129266496Y-87264713D01*
X129052689Y-87478520D01*
X128975001Y-87594788D01*
X128897313Y-87478520D01*
X128683506Y-87264713D01*
X128432096Y-87096726D01*
X128152744Y-86981014D01*
X127856185Y-86922025D01*
X127553817Y-86922025D01*
X127257258Y-86981014D01*
X126977906Y-87096726D01*
X126726496Y-87264713D01*
X126512689Y-87478520D01*
X126435001Y-87594788D01*
X126357313Y-87478520D01*
X126143506Y-87264713D01*
X125892096Y-87096726D01*
X125612744Y-86981014D01*
X125316185Y-86922025D01*
X125013817Y-86922025D01*
X124717258Y-86981014D01*
X124437906Y-87096726D01*
X124186496Y-87264713D01*
X123972689Y-87478520D01*
X123895001Y-87594788D01*
X123817313Y-87478520D01*
X123603506Y-87264713D01*
X123352096Y-87096726D01*
X123072744Y-86981014D01*
X122776185Y-86922025D01*
X122473817Y-86922025D01*
X122177258Y-86981014D01*
X121897906Y-87096726D01*
X121646496Y-87264713D01*
X121432689Y-87478520D01*
X121355001Y-87594788D01*
X121277313Y-87478520D01*
X121063506Y-87264713D01*
X120812096Y-87096726D01*
X120532744Y-86981014D01*
X120236185Y-86922025D01*
X119933817Y-86922025D01*
X119637258Y-86981014D01*
X119357906Y-87096726D01*
X119106496Y-87264713D01*
X118892689Y-87478520D01*
X118790050Y-87632130D01*
X118609081Y-87572550D01*
X117724606Y-88457025D01*
X117365396Y-88457025D01*
X116480921Y-87572550D01*
X116299952Y-87632130D01*
X116197313Y-87478520D01*
X116111738Y-87392945D01*
X116660526Y-87392945D01*
X117545001Y-88277420D01*
X118429476Y-87392945D01*
X118345793Y-87138764D01*
X118073226Y-87007867D01*
X117780359Y-86932660D01*
X117478448Y-86916034D01*
X117179094Y-86958628D01*
X116893802Y-87058803D01*
X116744209Y-87138764D01*
X116660526Y-87392945D01*
X116111738Y-87392945D01*
X115983506Y-87264713D01*
X115732096Y-87096726D01*
X115452744Y-86981014D01*
X115156185Y-86922025D01*
X114853817Y-86922025D01*
X114557258Y-86981014D01*
X114277906Y-87096726D01*
X114026496Y-87264713D01*
X113812689Y-87478520D01*
X113644702Y-87729930D01*
X113528990Y-88009282D01*
X113470001Y-88305841D01*
X105537000Y-88305841D01*
X105537000Y-65445841D01*
X113470001Y-65445841D01*
X113470001Y-65748209D01*
X113528990Y-66044768D01*
X113644702Y-66324120D01*
X113812689Y-66575530D01*
X114026496Y-66789337D01*
X114277906Y-66957324D01*
X114557258Y-67073036D01*
X114853817Y-67132025D01*
X115156185Y-67132025D01*
X115452744Y-67073036D01*
X115732096Y-66957324D01*
X115983506Y-66789337D01*
X116197313Y-66575530D01*
X116275001Y-66459262D01*
X116352689Y-66575530D01*
X116566496Y-66789337D01*
X116817906Y-66957324D01*
X117097258Y-67073036D01*
X117393817Y-67132025D01*
X117696185Y-67132025D01*
X117992744Y-67073036D01*
X118272096Y-66957324D01*
X118523506Y-66789337D01*
X118737313Y-66575530D01*
X118815001Y-66459262D01*
X118892689Y-66575530D01*
X119106496Y-66789337D01*
X119357906Y-66957324D01*
X119637258Y-67073036D01*
X119933817Y-67132025D01*
X120236185Y-67132025D01*
X120532744Y-67073036D01*
X120812096Y-66957324D01*
X121063506Y-66789337D01*
X121277313Y-66575530D01*
X121355001Y-66459262D01*
X121432689Y-66575530D01*
X121646496Y-66789337D01*
X121897906Y-66957324D01*
X122177258Y-67073036D01*
X122473817Y-67132025D01*
X122776185Y-67132025D01*
X123033931Y-67080756D01*
X133350002Y-77396828D01*
X133350003Y-85812670D01*
X133346326Y-85850002D01*
X133361000Y-85998987D01*
X133404456Y-86142248D01*
X133475028Y-86274278D01*
X133546203Y-86361004D01*
X133570002Y-86390003D01*
X133599000Y-86413801D01*
X135130000Y-87944802D01*
X135130001Y-91125197D01*
X134940199Y-91315000D01*
X128307322Y-91315000D01*
X128269999Y-91311324D01*
X128232676Y-91315000D01*
X128232667Y-91315000D01*
X128121014Y-91325997D01*
X127977753Y-91369454D01*
X127845724Y-91440026D01*
X127845722Y-91440027D01*
X127845723Y-91440027D01*
X127758996Y-91511201D01*
X127758992Y-91511205D01*
X127729999Y-91534999D01*
X127706205Y-91563992D01*
X124203003Y-95067196D01*
X124173999Y-95090999D01*
X124118871Y-95158174D01*
X124079026Y-95206724D01*
X124008455Y-95338753D01*
X124008454Y-95338754D01*
X123964997Y-95482015D01*
X123954366Y-95589950D01*
X123883737Y-95611375D01*
X123623395Y-95750531D01*
X123395203Y-95937803D01*
X123207931Y-96165994D01*
X123190000Y-96199541D01*
X123172069Y-96165994D01*
X122984797Y-95937803D01*
X122756606Y-95750531D01*
X122496264Y-95611375D01*
X122213777Y-95525684D01*
X121920000Y-95496749D01*
X121626224Y-95525684D01*
X121343737Y-95611375D01*
X121083395Y-95750531D01*
X120855203Y-95937803D01*
X120667931Y-96165994D01*
X120646576Y-96205947D01*
X120498486Y-96003271D01*
X120282035Y-95804267D01*
X120030919Y-95651314D01*
X119754789Y-95550291D01*
X119739026Y-95547642D01*
X119507000Y-95668783D01*
X119507000Y-97028000D01*
X119527000Y-97028000D01*
X119527000Y-97282000D01*
X119507000Y-97282000D01*
X119507000Y-98641217D01*
X119739026Y-98762358D01*
X119754789Y-98759709D01*
X120030919Y-98658686D01*
X120282035Y-98505733D01*
X120498486Y-98306729D01*
X120646576Y-98104053D01*
X120667931Y-98144005D01*
X120855203Y-98372197D01*
X121083394Y-98559469D01*
X121343736Y-98698625D01*
X121626223Y-98784316D01*
X121920000Y-98813251D01*
X122213776Y-98784316D01*
X122496263Y-98698625D01*
X122756605Y-98559469D01*
X122984797Y-98372197D01*
X123172069Y-98144006D01*
X123190000Y-98110459D01*
X123207931Y-98144005D01*
X123395203Y-98372197D01*
X123623394Y-98559469D01*
X123883736Y-98698625D01*
X124166223Y-98784316D01*
X124460000Y-98813251D01*
X124753776Y-98784316D01*
X125036263Y-98698625D01*
X125296605Y-98559469D01*
X125524797Y-98372197D01*
X125531414Y-98364135D01*
X125546898Y-98415180D01*
X125605863Y-98525494D01*
X125685215Y-98622185D01*
X125781906Y-98701537D01*
X125892220Y-98760502D01*
X126011918Y-98796812D01*
X126136400Y-98809072D01*
X127863600Y-98809072D01*
X127988082Y-98796812D01*
X128107780Y-98760502D01*
X128218094Y-98701537D01*
X128314785Y-98622185D01*
X128394137Y-98525494D01*
X128453102Y-98415180D01*
X128489412Y-98295482D01*
X128501672Y-98171000D01*
X128501672Y-97643740D01*
X131230000Y-97643740D01*
X131230000Y-97936260D01*
X131287068Y-98223158D01*
X131399010Y-98493411D01*
X131561525Y-98736632D01*
X131768368Y-98943475D01*
X132011589Y-99105990D01*
X132281842Y-99217932D01*
X132568740Y-99275000D01*
X132861260Y-99275000D01*
X133148158Y-99217932D01*
X133418411Y-99105990D01*
X133661632Y-98943475D01*
X133868475Y-98736632D01*
X133985000Y-98562240D01*
X134101525Y-98736632D01*
X134308368Y-98943475D01*
X134551589Y-99105990D01*
X134821842Y-99217932D01*
X135108740Y-99275000D01*
X135401260Y-99275000D01*
X135688158Y-99217932D01*
X135958411Y-99105990D01*
X136201632Y-98943475D01*
X136408475Y-98736632D01*
X136530195Y-98554466D01*
X136599822Y-98671355D01*
X136794731Y-98887588D01*
X137028080Y-99061641D01*
X137290901Y-99186825D01*
X137438110Y-99231476D01*
X137668000Y-99110155D01*
X137668000Y-97917000D01*
X137648000Y-97917000D01*
X137648000Y-97663000D01*
X137668000Y-97663000D01*
X137668000Y-96469845D01*
X137438110Y-96348524D01*
X137290901Y-96393175D01*
X137028080Y-96518359D01*
X136794731Y-96692412D01*
X136599822Y-96908645D01*
X136530195Y-97025534D01*
X136408475Y-96843368D01*
X136201632Y-96636525D01*
X135958411Y-96474010D01*
X135688158Y-96362068D01*
X135401260Y-96305000D01*
X135108740Y-96305000D01*
X134821842Y-96362068D01*
X134551589Y-96474010D01*
X134308368Y-96636525D01*
X134101525Y-96843368D01*
X133985000Y-97017760D01*
X133868475Y-96843368D01*
X133661632Y-96636525D01*
X133418411Y-96474010D01*
X133148158Y-96362068D01*
X132861260Y-96305000D01*
X132568740Y-96305000D01*
X132281842Y-96362068D01*
X132011589Y-96474010D01*
X131768368Y-96636525D01*
X131561525Y-96843368D01*
X131399010Y-97086589D01*
X131287068Y-97356842D01*
X131230000Y-97643740D01*
X128501672Y-97643740D01*
X128501672Y-96139000D01*
X128489412Y-96014518D01*
X128453102Y-95894820D01*
X128394137Y-95784506D01*
X128314785Y-95687815D01*
X128218094Y-95608463D01*
X128107780Y-95549498D01*
X127988082Y-95513188D01*
X127863600Y-95500928D01*
X126136400Y-95500928D01*
X126011918Y-95513188D01*
X125892220Y-95549498D01*
X125845136Y-95574665D01*
X128584803Y-92835000D01*
X135217678Y-92835000D01*
X135255000Y-92838676D01*
X135292322Y-92835000D01*
X135292333Y-92835000D01*
X135352063Y-92829117D01*
X137765000Y-92829117D01*
X137765000Y-93170883D01*
X137831675Y-93506081D01*
X137962463Y-93821831D01*
X138152337Y-94105998D01*
X138394002Y-94347663D01*
X138678169Y-94537537D01*
X138993919Y-94668325D01*
X139329117Y-94735000D01*
X139670883Y-94735000D01*
X140006081Y-94668325D01*
X140321831Y-94537537D01*
X140605998Y-94347663D01*
X140847663Y-94105998D01*
X141037537Y-93821831D01*
X141168325Y-93506081D01*
X141235000Y-93170883D01*
X141235000Y-92829117D01*
X141168325Y-92493919D01*
X141037537Y-92178169D01*
X140847663Y-91894002D01*
X140605998Y-91652337D01*
X140321831Y-91462463D01*
X140006081Y-91331675D01*
X139670883Y-91265000D01*
X139329117Y-91265000D01*
X138993919Y-91331675D01*
X138678169Y-91462463D01*
X138394002Y-91652337D01*
X138152337Y-91894002D01*
X137962463Y-92178169D01*
X137831675Y-92493919D01*
X137765000Y-92829117D01*
X135352063Y-92829117D01*
X135403986Y-92824003D01*
X135547247Y-92780546D01*
X135679276Y-92709974D01*
X135795001Y-92615001D01*
X135818803Y-92585998D01*
X136401002Y-92003800D01*
X136430001Y-91980001D01*
X136524974Y-91864276D01*
X136595546Y-91732247D01*
X136639003Y-91588986D01*
X136650000Y-91477333D01*
X136653677Y-91440000D01*
X136650000Y-91402667D01*
X136650000Y-87667322D01*
X136653676Y-87629999D01*
X136650000Y-87592676D01*
X136650000Y-87592667D01*
X136639003Y-87481014D01*
X136595546Y-87337753D01*
X136524974Y-87205724D01*
X136430001Y-87089999D01*
X136401004Y-87066202D01*
X134870002Y-85535201D01*
X134870002Y-77119348D01*
X134873678Y-77082025D01*
X134870002Y-77044702D01*
X134870002Y-77044693D01*
X134859005Y-76933040D01*
X134815548Y-76789779D01*
X134744976Y-76657750D01*
X134650003Y-76542025D01*
X134621006Y-76518228D01*
X125234802Y-67132025D01*
X125316185Y-67132025D01*
X125612744Y-67073036D01*
X125892096Y-66957324D01*
X126143506Y-66789337D01*
X126357313Y-66575530D01*
X126435001Y-66459262D01*
X126512689Y-66575530D01*
X126726496Y-66789337D01*
X126977906Y-66957324D01*
X127257258Y-67073036D01*
X127553817Y-67132025D01*
X127856185Y-67132025D01*
X128152744Y-67073036D01*
X128432096Y-66957324D01*
X128683506Y-66789337D01*
X128897313Y-66575530D01*
X128975001Y-66459262D01*
X129052689Y-66575530D01*
X129266496Y-66789337D01*
X129517906Y-66957324D01*
X129797258Y-67073036D01*
X130093817Y-67132025D01*
X130396185Y-67132025D01*
X130692744Y-67073036D01*
X130972096Y-66957324D01*
X131223506Y-66789337D01*
X131437313Y-66575530D01*
X131515001Y-66459262D01*
X131592689Y-66575530D01*
X131806496Y-66789337D01*
X132057906Y-66957324D01*
X132337258Y-67073036D01*
X132633817Y-67132025D01*
X132936185Y-67132025D01*
X133232744Y-67073036D01*
X133512096Y-66957324D01*
X133763506Y-66789337D01*
X133977313Y-66575530D01*
X134145300Y-66324120D01*
X134261012Y-66044768D01*
X134320001Y-65748209D01*
X134320001Y-65445841D01*
X134261012Y-65149282D01*
X134145300Y-64869930D01*
X133977313Y-64618520D01*
X133763506Y-64404713D01*
X133512096Y-64236726D01*
X133232744Y-64121014D01*
X132936185Y-64062025D01*
X132633817Y-64062025D01*
X132337258Y-64121014D01*
X132057906Y-64236726D01*
X131806496Y-64404713D01*
X131592689Y-64618520D01*
X131515001Y-64734788D01*
X131437313Y-64618520D01*
X131223506Y-64404713D01*
X130972096Y-64236726D01*
X130692744Y-64121014D01*
X130396185Y-64062025D01*
X130093817Y-64062025D01*
X129797258Y-64121014D01*
X129517906Y-64236726D01*
X129266496Y-64404713D01*
X129052689Y-64618520D01*
X128975001Y-64734788D01*
X128897313Y-64618520D01*
X128683506Y-64404713D01*
X128432096Y-64236726D01*
X128152744Y-64121014D01*
X127856185Y-64062025D01*
X127553817Y-64062025D01*
X127257258Y-64121014D01*
X126977906Y-64236726D01*
X126726496Y-64404713D01*
X126512689Y-64618520D01*
X126435001Y-64734788D01*
X126357313Y-64618520D01*
X126143506Y-64404713D01*
X125892096Y-64236726D01*
X125612744Y-64121014D01*
X125316185Y-64062025D01*
X125013817Y-64062025D01*
X124717258Y-64121014D01*
X124437906Y-64236726D01*
X124186496Y-64404713D01*
X123972689Y-64618520D01*
X123895001Y-64734788D01*
X123817313Y-64618520D01*
X123603506Y-64404713D01*
X123352096Y-64236726D01*
X123072744Y-64121014D01*
X122776185Y-64062025D01*
X122473817Y-64062025D01*
X122177258Y-64121014D01*
X121897906Y-64236726D01*
X121646496Y-64404713D01*
X121432689Y-64618520D01*
X121355001Y-64734788D01*
X121277313Y-64618520D01*
X121063506Y-64404713D01*
X120812096Y-64236726D01*
X120532744Y-64121014D01*
X120236185Y-64062025D01*
X119933817Y-64062025D01*
X119637258Y-64121014D01*
X119357906Y-64236726D01*
X119106496Y-64404713D01*
X118892689Y-64618520D01*
X118815001Y-64734788D01*
X118737313Y-64618520D01*
X118523506Y-64404713D01*
X118272096Y-64236726D01*
X117992744Y-64121014D01*
X117696185Y-64062025D01*
X117393817Y-64062025D01*
X117097258Y-64121014D01*
X116817906Y-64236726D01*
X116566496Y-64404713D01*
X116352689Y-64618520D01*
X116275001Y-64734788D01*
X116197313Y-64618520D01*
X115983506Y-64404713D01*
X115732096Y-64236726D01*
X115452744Y-64121014D01*
X115156185Y-64062025D01*
X114853817Y-64062025D01*
X114557258Y-64121014D01*
X114277906Y-64236726D01*
X114026496Y-64404713D01*
X113812689Y-64618520D01*
X113644702Y-64869930D01*
X113528990Y-65149282D01*
X113470001Y-65445841D01*
X105537000Y-65445841D01*
X105537000Y-63462668D01*
X112270000Y-63462668D01*
X112270000Y-63659357D01*
X112280997Y-63771010D01*
X112324454Y-63914271D01*
X112395026Y-64046300D01*
X112489999Y-64162025D01*
X112605725Y-64256998D01*
X112737754Y-64327570D01*
X112881015Y-64371027D01*
X113030000Y-64385701D01*
X113178986Y-64371027D01*
X113322247Y-64327570D01*
X113454276Y-64256998D01*
X113570001Y-64162025D01*
X113664974Y-64046300D01*
X113735546Y-63914270D01*
X113779003Y-63771009D01*
X113790000Y-63659356D01*
X113790000Y-63462667D01*
X113779003Y-63351014D01*
X113735546Y-63207753D01*
X113664974Y-63075724D01*
X113570001Y-62959999D01*
X113454275Y-62865026D01*
X113322246Y-62794454D01*
X113178985Y-62750997D01*
X113030000Y-62736323D01*
X112881014Y-62750997D01*
X112737753Y-62794454D01*
X112605724Y-62865026D01*
X112489999Y-62959999D01*
X112395026Y-63075725D01*
X112324454Y-63207754D01*
X112280997Y-63351015D01*
X112270000Y-63462668D01*
X105537000Y-63462668D01*
X105537000Y-60818665D01*
X106515000Y-60818665D01*
X106515000Y-61101335D01*
X106570147Y-61378574D01*
X106678320Y-61639727D01*
X106835363Y-61874759D01*
X107035241Y-62074637D01*
X107270273Y-62231680D01*
X107531426Y-62339853D01*
X107808665Y-62395000D01*
X108091335Y-62395000D01*
X108368574Y-62339853D01*
X108629727Y-62231680D01*
X108864759Y-62074637D01*
X109064637Y-61874759D01*
X109221680Y-61639727D01*
X109329853Y-61378574D01*
X109385000Y-61101335D01*
X109385000Y-60818665D01*
X114135000Y-60818665D01*
X114135000Y-61101335D01*
X114190147Y-61378574D01*
X114298320Y-61639727D01*
X114455363Y-61874759D01*
X114655241Y-62074637D01*
X114890273Y-62231680D01*
X115151426Y-62339853D01*
X115428665Y-62395000D01*
X115711335Y-62395000D01*
X115988574Y-62339853D01*
X116249727Y-62231680D01*
X116484759Y-62074637D01*
X116684637Y-61874759D01*
X116841680Y-61639727D01*
X116949853Y-61378574D01*
X117005000Y-61101335D01*
X117005000Y-60818665D01*
X119215000Y-60818665D01*
X119215000Y-61101335D01*
X119270147Y-61378574D01*
X119378320Y-61639727D01*
X119535363Y-61874759D01*
X119735241Y-62074637D01*
X119970273Y-62231680D01*
X120231426Y-62339853D01*
X120508665Y-62395000D01*
X120791335Y-62395000D01*
X121068574Y-62339853D01*
X121329727Y-62231680D01*
X121564759Y-62074637D01*
X121764637Y-61874759D01*
X121921680Y-61639727D01*
X122029853Y-61378574D01*
X122085000Y-61101335D01*
X122085000Y-60818665D01*
X126835000Y-60818665D01*
X126835000Y-61101335D01*
X126890147Y-61378574D01*
X126998320Y-61639727D01*
X127155363Y-61874759D01*
X127355241Y-62074637D01*
X127590273Y-62231680D01*
X127851426Y-62339853D01*
X128128665Y-62395000D01*
X128411335Y-62395000D01*
X128688574Y-62339853D01*
X128949727Y-62231680D01*
X129184759Y-62074637D01*
X129384637Y-61874759D01*
X129541680Y-61639727D01*
X129649853Y-61378574D01*
X129705000Y-61101335D01*
X129705000Y-60818665D01*
X130645000Y-60818665D01*
X130645000Y-61101335D01*
X130700147Y-61378574D01*
X130808320Y-61639727D01*
X130965363Y-61874759D01*
X131165241Y-62074637D01*
X131400273Y-62231680D01*
X131661426Y-62339853D01*
X131938665Y-62395000D01*
X132221335Y-62395000D01*
X132498574Y-62339853D01*
X132759727Y-62231680D01*
X132994759Y-62074637D01*
X133194637Y-61874759D01*
X133351680Y-61639727D01*
X133459853Y-61378574D01*
X133515000Y-61101335D01*
X133515000Y-60818665D01*
X138265000Y-60818665D01*
X138265000Y-61101335D01*
X138320147Y-61378574D01*
X138428320Y-61639727D01*
X138585363Y-61874759D01*
X138785241Y-62074637D01*
X139020273Y-62231680D01*
X139281426Y-62339853D01*
X139558665Y-62395000D01*
X139841335Y-62395000D01*
X140118574Y-62339853D01*
X140379727Y-62231680D01*
X140614759Y-62074637D01*
X140814637Y-61874759D01*
X140971680Y-61639727D01*
X141079853Y-61378574D01*
X141135000Y-61101335D01*
X141135000Y-60818665D01*
X141079853Y-60541426D01*
X140971680Y-60280273D01*
X140814637Y-60045241D01*
X140614759Y-59845363D01*
X140379727Y-59688320D01*
X140118574Y-59580147D01*
X139841335Y-59525000D01*
X139558665Y-59525000D01*
X139281426Y-59580147D01*
X139020273Y-59688320D01*
X138785241Y-59845363D01*
X138585363Y-60045241D01*
X138428320Y-60280273D01*
X138320147Y-60541426D01*
X138265000Y-60818665D01*
X133515000Y-60818665D01*
X133459853Y-60541426D01*
X133351680Y-60280273D01*
X133194637Y-60045241D01*
X132994759Y-59845363D01*
X132759727Y-59688320D01*
X132498574Y-59580147D01*
X132221335Y-59525000D01*
X131938665Y-59525000D01*
X131661426Y-59580147D01*
X131400273Y-59688320D01*
X131165241Y-59845363D01*
X130965363Y-60045241D01*
X130808320Y-60280273D01*
X130700147Y-60541426D01*
X130645000Y-60818665D01*
X129705000Y-60818665D01*
X129649853Y-60541426D01*
X129541680Y-60280273D01*
X129384637Y-60045241D01*
X129184759Y-59845363D01*
X128949727Y-59688320D01*
X128688574Y-59580147D01*
X128411335Y-59525000D01*
X128128665Y-59525000D01*
X127851426Y-59580147D01*
X127590273Y-59688320D01*
X127355241Y-59845363D01*
X127155363Y-60045241D01*
X126998320Y-60280273D01*
X126890147Y-60541426D01*
X126835000Y-60818665D01*
X122085000Y-60818665D01*
X122029853Y-60541426D01*
X121921680Y-60280273D01*
X121764637Y-60045241D01*
X121564759Y-59845363D01*
X121329727Y-59688320D01*
X121068574Y-59580147D01*
X120791335Y-59525000D01*
X120508665Y-59525000D01*
X120231426Y-59580147D01*
X119970273Y-59688320D01*
X119735241Y-59845363D01*
X119535363Y-60045241D01*
X119378320Y-60280273D01*
X119270147Y-60541426D01*
X119215000Y-60818665D01*
X117005000Y-60818665D01*
X116949853Y-60541426D01*
X116841680Y-60280273D01*
X116684637Y-60045241D01*
X116484759Y-59845363D01*
X116249727Y-59688320D01*
X115988574Y-59580147D01*
X115711335Y-59525000D01*
X115428665Y-59525000D01*
X115151426Y-59580147D01*
X114890273Y-59688320D01*
X114655241Y-59845363D01*
X114455363Y-60045241D01*
X114298320Y-60280273D01*
X114190147Y-60541426D01*
X114135000Y-60818665D01*
X109385000Y-60818665D01*
X109329853Y-60541426D01*
X109221680Y-60280273D01*
X109064637Y-60045241D01*
X108864759Y-59845363D01*
X108629727Y-59688320D01*
X108368574Y-59580147D01*
X108091335Y-59525000D01*
X107808665Y-59525000D01*
X107531426Y-59580147D01*
X107270273Y-59688320D01*
X107035241Y-59845363D01*
X106835363Y-60045241D01*
X106678320Y-60280273D01*
X106570147Y-60541426D01*
X106515000Y-60818665D01*
X105537000Y-60818665D01*
X105537000Y-55066553D01*
X112419009Y-55066553D01*
X112461603Y-55365907D01*
X112561778Y-55651199D01*
X112641739Y-55800792D01*
X112895920Y-55884475D01*
X113780395Y-55000000D01*
X112895920Y-54115525D01*
X112641739Y-54199208D01*
X112510842Y-54471775D01*
X112435635Y-54764642D01*
X112419009Y-55066553D01*
X105537000Y-55066553D01*
X105537000Y-52329117D01*
X105765000Y-52329117D01*
X105765000Y-52670883D01*
X105831675Y-53006081D01*
X105962463Y-53321831D01*
X106152337Y-53605998D01*
X106394002Y-53847663D01*
X106678169Y-54037537D01*
X106993919Y-54168325D01*
X107329117Y-54235000D01*
X107670883Y-54235000D01*
X108006081Y-54168325D01*
X108321831Y-54037537D01*
X108473911Y-53935920D01*
X113075525Y-53935920D01*
X113960000Y-54820395D01*
X113974143Y-54806253D01*
X114153748Y-54985858D01*
X114139605Y-55000000D01*
X114153748Y-55014143D01*
X113974143Y-55193748D01*
X113960000Y-55179605D01*
X113075525Y-56064080D01*
X113159208Y-56318261D01*
X113431775Y-56449158D01*
X113724642Y-56524365D01*
X114026553Y-56540991D01*
X114325907Y-56498397D01*
X114611199Y-56398222D01*
X114760792Y-56318261D01*
X114844474Y-56064082D01*
X114960422Y-56180030D01*
X115007187Y-56133265D01*
X115010498Y-56144180D01*
X115069463Y-56254494D01*
X115148815Y-56351185D01*
X115245506Y-56430537D01*
X115355820Y-56489502D01*
X115475518Y-56525812D01*
X115600000Y-56538072D01*
X117400000Y-56538072D01*
X117524482Y-56525812D01*
X117644180Y-56489502D01*
X117754494Y-56430537D01*
X117851185Y-56351185D01*
X117930537Y-56254494D01*
X117989502Y-56144180D01*
X118025812Y-56024482D01*
X118038072Y-55900000D01*
X118038072Y-54930553D01*
X121649009Y-54930553D01*
X121691603Y-55229907D01*
X121791778Y-55515199D01*
X121871739Y-55664792D01*
X122125920Y-55748475D01*
X123010395Y-54864000D01*
X122125920Y-53979525D01*
X121871739Y-54063208D01*
X121740842Y-54335775D01*
X121665635Y-54628642D01*
X121649009Y-54930553D01*
X118038072Y-54930553D01*
X118038072Y-54100000D01*
X118025812Y-53975518D01*
X117989502Y-53855820D01*
X117959623Y-53799920D01*
X122305525Y-53799920D01*
X123190000Y-54684395D01*
X123204143Y-54670253D01*
X123383748Y-54849858D01*
X123369605Y-54864000D01*
X123383748Y-54878143D01*
X123204143Y-55057748D01*
X123190000Y-55043605D01*
X122305525Y-55928080D01*
X122389208Y-56182261D01*
X122661775Y-56313158D01*
X122954642Y-56388365D01*
X123256553Y-56404991D01*
X123555907Y-56362397D01*
X123841199Y-56262222D01*
X123990792Y-56182261D01*
X124074474Y-55928082D01*
X124190422Y-56044030D01*
X124237187Y-55997265D01*
X124240498Y-56008180D01*
X124299463Y-56118494D01*
X124378815Y-56215185D01*
X124475506Y-56294537D01*
X124585820Y-56353502D01*
X124705518Y-56389812D01*
X124830000Y-56402072D01*
X126630000Y-56402072D01*
X126754482Y-56389812D01*
X126874180Y-56353502D01*
X126984494Y-56294537D01*
X127081185Y-56215185D01*
X127160537Y-56118494D01*
X127219502Y-56008180D01*
X127255812Y-55888482D01*
X127268072Y-55764000D01*
X127268072Y-55066553D01*
X130919009Y-55066553D01*
X130961603Y-55365907D01*
X131061778Y-55651199D01*
X131141739Y-55800792D01*
X131395920Y-55884475D01*
X132280395Y-55000000D01*
X131395920Y-54115525D01*
X131141739Y-54199208D01*
X131010842Y-54471775D01*
X130935635Y-54764642D01*
X130919009Y-55066553D01*
X127268072Y-55066553D01*
X127268072Y-53964000D01*
X127265307Y-53935920D01*
X131575525Y-53935920D01*
X132460000Y-54820395D01*
X132474143Y-54806253D01*
X132653748Y-54985858D01*
X132639605Y-55000000D01*
X132653748Y-55014143D01*
X132474143Y-55193748D01*
X132460000Y-55179605D01*
X131575525Y-56064080D01*
X131659208Y-56318261D01*
X131931775Y-56449158D01*
X132224642Y-56524365D01*
X132526553Y-56540991D01*
X132825907Y-56498397D01*
X133111199Y-56398222D01*
X133260792Y-56318261D01*
X133344474Y-56064082D01*
X133460422Y-56180030D01*
X133507187Y-56133265D01*
X133510498Y-56144180D01*
X133569463Y-56254494D01*
X133648815Y-56351185D01*
X133745506Y-56430537D01*
X133855820Y-56489502D01*
X133975518Y-56525812D01*
X134100000Y-56538072D01*
X135900000Y-56538072D01*
X136024482Y-56525812D01*
X136144180Y-56489502D01*
X136254494Y-56430537D01*
X136351185Y-56351185D01*
X136430537Y-56254494D01*
X136489502Y-56144180D01*
X136525812Y-56024482D01*
X136538072Y-55900000D01*
X136538072Y-54100000D01*
X136525812Y-53975518D01*
X136489502Y-53855820D01*
X136430537Y-53745506D01*
X136351185Y-53648815D01*
X136254494Y-53569463D01*
X136144180Y-53510498D01*
X136024482Y-53474188D01*
X135900000Y-53461928D01*
X134100000Y-53461928D01*
X133975518Y-53474188D01*
X133855820Y-53510498D01*
X133745506Y-53569463D01*
X133648815Y-53648815D01*
X133569463Y-53745506D01*
X133510498Y-53855820D01*
X133507187Y-53866735D01*
X133460422Y-53819970D01*
X133344474Y-53935918D01*
X133260792Y-53681739D01*
X132988225Y-53550842D01*
X132695358Y-53475635D01*
X132393447Y-53459009D01*
X132094093Y-53501603D01*
X131808801Y-53601778D01*
X131659208Y-53681739D01*
X131575525Y-53935920D01*
X127265307Y-53935920D01*
X127255812Y-53839518D01*
X127219502Y-53719820D01*
X127160537Y-53609506D01*
X127081185Y-53512815D01*
X126984494Y-53433463D01*
X126874180Y-53374498D01*
X126754482Y-53338188D01*
X126630000Y-53325928D01*
X124830000Y-53325928D01*
X124705518Y-53338188D01*
X124585820Y-53374498D01*
X124475506Y-53433463D01*
X124378815Y-53512815D01*
X124299463Y-53609506D01*
X124240498Y-53719820D01*
X124237187Y-53730735D01*
X124190422Y-53683970D01*
X124074474Y-53799918D01*
X123990792Y-53545739D01*
X123718225Y-53414842D01*
X123425358Y-53339635D01*
X123123447Y-53323009D01*
X122824093Y-53365603D01*
X122538801Y-53465778D01*
X122389208Y-53545739D01*
X122305525Y-53799920D01*
X117959623Y-53799920D01*
X117930537Y-53745506D01*
X117851185Y-53648815D01*
X117754494Y-53569463D01*
X117644180Y-53510498D01*
X117524482Y-53474188D01*
X117400000Y-53461928D01*
X115600000Y-53461928D01*
X115475518Y-53474188D01*
X115355820Y-53510498D01*
X115245506Y-53569463D01*
X115148815Y-53648815D01*
X115069463Y-53745506D01*
X115010498Y-53855820D01*
X115007187Y-53866735D01*
X114960422Y-53819970D01*
X114844474Y-53935918D01*
X114760792Y-53681739D01*
X114488225Y-53550842D01*
X114195358Y-53475635D01*
X113893447Y-53459009D01*
X113594093Y-53501603D01*
X113308801Y-53601778D01*
X113159208Y-53681739D01*
X113075525Y-53935920D01*
X108473911Y-53935920D01*
X108605998Y-53847663D01*
X108847663Y-53605998D01*
X109037537Y-53321831D01*
X109168325Y-53006081D01*
X109235000Y-52670883D01*
X109235000Y-52329117D01*
X137765000Y-52329117D01*
X137765000Y-52670883D01*
X137831675Y-53006081D01*
X137962463Y-53321831D01*
X138152337Y-53605998D01*
X138394002Y-53847663D01*
X138678169Y-54037537D01*
X138993919Y-54168325D01*
X139329117Y-54235000D01*
X139670883Y-54235000D01*
X140006081Y-54168325D01*
X140321831Y-54037537D01*
X140605998Y-53847663D01*
X140847663Y-53605998D01*
X141037537Y-53321831D01*
X141168325Y-53006081D01*
X141235000Y-52670883D01*
X141235000Y-52329117D01*
X141168325Y-51993919D01*
X141037537Y-51678169D01*
X140847663Y-51394002D01*
X140605998Y-51152337D01*
X140321831Y-50962463D01*
X140006081Y-50831675D01*
X139670883Y-50765000D01*
X139329117Y-50765000D01*
X138993919Y-50831675D01*
X138678169Y-50962463D01*
X138394002Y-51152337D01*
X138152337Y-51394002D01*
X137962463Y-51678169D01*
X137831675Y-51993919D01*
X137765000Y-52329117D01*
X109235000Y-52329117D01*
X109168325Y-51993919D01*
X109037537Y-51678169D01*
X108847663Y-51394002D01*
X108605998Y-51152337D01*
X108321831Y-50962463D01*
X108006081Y-50831675D01*
X107670883Y-50765000D01*
X107329117Y-50765000D01*
X106993919Y-50831675D01*
X106678169Y-50962463D01*
X106394002Y-51152337D01*
X106152337Y-51394002D01*
X105962463Y-51678169D01*
X105831675Y-51993919D01*
X105765000Y-52329117D01*
X105537000Y-52329117D01*
X105537000Y-50292000D01*
X141479578Y-50292000D01*
X141555000Y-56325771D01*
G04 #@! TA.AperFunction,Conductor*
D20*
G36*
X141555000Y-56325771D02*
G01*
X141555001Y-96422189D01*
X141539494Y-96409463D01*
X141429180Y-96350498D01*
X141309482Y-96314188D01*
X141185000Y-96301928D01*
X139485000Y-96301928D01*
X139360518Y-96314188D01*
X139240820Y-96350498D01*
X139130506Y-96409463D01*
X139033815Y-96488815D01*
X138954463Y-96585506D01*
X138895498Y-96695820D01*
X138871034Y-96776466D01*
X138795269Y-96692412D01*
X138561920Y-96518359D01*
X138299099Y-96393175D01*
X138151890Y-96348524D01*
X137922000Y-96469845D01*
X137922000Y-97663000D01*
X137942000Y-97663000D01*
X137942000Y-97917000D01*
X137922000Y-97917000D01*
X137922000Y-99110155D01*
X138151890Y-99231476D01*
X138299099Y-99186825D01*
X138561920Y-99061641D01*
X138795269Y-98887588D01*
X138871034Y-98803534D01*
X138895498Y-98884180D01*
X138954463Y-98994494D01*
X139033815Y-99091185D01*
X139130506Y-99170537D01*
X139240820Y-99229502D01*
X139360518Y-99265812D01*
X139485000Y-99278072D01*
X141185000Y-99278072D01*
X141309482Y-99265812D01*
X141429180Y-99229502D01*
X141539494Y-99170537D01*
X141555001Y-99157811D01*
X141555001Y-100280000D01*
X113617817Y-100280000D01*
X113771680Y-100049727D01*
X113879853Y-99788574D01*
X113935000Y-99511335D01*
X113935000Y-99228665D01*
X113879853Y-98951426D01*
X113771680Y-98690273D01*
X113614637Y-98455241D01*
X113414759Y-98255363D01*
X113179727Y-98098320D01*
X112918574Y-97990147D01*
X112641335Y-97935000D01*
X112358665Y-97935000D01*
X112081426Y-97990147D01*
X111820273Y-98098320D01*
X111585241Y-98255363D01*
X111385363Y-98455241D01*
X111228320Y-98690273D01*
X111120147Y-98951426D01*
X111065000Y-99228665D01*
X111065000Y-99511335D01*
X111120147Y-99788574D01*
X111228320Y-100049727D01*
X111382183Y-100280000D01*
X105537000Y-100280000D01*
X105537000Y-97516914D01*
X117894815Y-97516914D01*
X117964227Y-97802633D01*
X118088046Y-98069321D01*
X118261514Y-98306729D01*
X118477965Y-98505733D01*
X118729081Y-98658686D01*
X119005211Y-98759709D01*
X119020974Y-98762358D01*
X119253000Y-98641217D01*
X119253000Y-97282000D01*
X118039075Y-97282000D01*
X117894815Y-97516914D01*
X105537000Y-97516914D01*
X105537000Y-96793086D01*
X117894815Y-96793086D01*
X118039075Y-97028000D01*
X119253000Y-97028000D01*
X119253000Y-95668783D01*
X119020974Y-95547642D01*
X119005211Y-95550291D01*
X118729081Y-95651314D01*
X118477965Y-95804267D01*
X118261514Y-96003271D01*
X118088046Y-96240679D01*
X117964227Y-96507367D01*
X117894815Y-96793086D01*
X105537000Y-96793086D01*
X105537000Y-92829117D01*
X105765000Y-92829117D01*
X105765000Y-93170883D01*
X105831675Y-93506081D01*
X105962463Y-93821831D01*
X106152337Y-94105998D01*
X106394002Y-94347663D01*
X106678169Y-94537537D01*
X106993919Y-94668325D01*
X107329117Y-94735000D01*
X107670883Y-94735000D01*
X108006081Y-94668325D01*
X108321831Y-94537537D01*
X108605998Y-94347663D01*
X108847663Y-94105998D01*
X109037537Y-93821831D01*
X109168325Y-93506081D01*
X109235000Y-93170883D01*
X109235000Y-92829117D01*
X109168325Y-92493919D01*
X109037537Y-92178169D01*
X108847663Y-91894002D01*
X108605998Y-91652337D01*
X108540639Y-91608665D01*
X111065000Y-91608665D01*
X111065000Y-91891335D01*
X111120147Y-92168574D01*
X111228320Y-92429727D01*
X111385363Y-92664759D01*
X111585241Y-92864637D01*
X111820273Y-93021680D01*
X112081426Y-93129853D01*
X112358665Y-93185000D01*
X112641335Y-93185000D01*
X112918574Y-93129853D01*
X113179727Y-93021680D01*
X113414759Y-92864637D01*
X113614637Y-92664759D01*
X113771680Y-92429727D01*
X113879853Y-92168574D01*
X113935000Y-91891335D01*
X113935000Y-91608665D01*
X113879853Y-91331426D01*
X113771680Y-91070273D01*
X113614637Y-90835241D01*
X113414759Y-90635363D01*
X113179727Y-90478320D01*
X112918574Y-90370147D01*
X112641335Y-90315000D01*
X112358665Y-90315000D01*
X112081426Y-90370147D01*
X111820273Y-90478320D01*
X111585241Y-90635363D01*
X111385363Y-90835241D01*
X111228320Y-91070273D01*
X111120147Y-91331426D01*
X111065000Y-91608665D01*
X108540639Y-91608665D01*
X108321831Y-91462463D01*
X108006081Y-91331675D01*
X107670883Y-91265000D01*
X107329117Y-91265000D01*
X106993919Y-91331675D01*
X106678169Y-91462463D01*
X106394002Y-91652337D01*
X106152337Y-91894002D01*
X105962463Y-92178169D01*
X105831675Y-92493919D01*
X105765000Y-92829117D01*
X105537000Y-92829117D01*
X105537000Y-88305841D01*
X113470001Y-88305841D01*
X113470001Y-88608209D01*
X113528990Y-88904768D01*
X113644702Y-89184120D01*
X113812689Y-89435530D01*
X114026496Y-89649337D01*
X114277906Y-89817324D01*
X114557258Y-89933036D01*
X114853817Y-89992025D01*
X115156185Y-89992025D01*
X115452744Y-89933036D01*
X115732096Y-89817324D01*
X115983506Y-89649337D01*
X116111738Y-89521105D01*
X116660526Y-89521105D01*
X116744209Y-89775286D01*
X117016776Y-89906183D01*
X117309643Y-89981390D01*
X117611554Y-89998016D01*
X117910908Y-89955422D01*
X118196200Y-89855247D01*
X118345793Y-89775286D01*
X118429476Y-89521105D01*
X117545001Y-88636630D01*
X116660526Y-89521105D01*
X116111738Y-89521105D01*
X116197313Y-89435530D01*
X116299952Y-89281920D01*
X116480921Y-89341500D01*
X117365396Y-88457025D01*
X117724606Y-88457025D01*
X118609081Y-89341500D01*
X118790050Y-89281920D01*
X118892689Y-89435530D01*
X119106496Y-89649337D01*
X119357906Y-89817324D01*
X119637258Y-89933036D01*
X119933817Y-89992025D01*
X120236185Y-89992025D01*
X120532744Y-89933036D01*
X120812096Y-89817324D01*
X121063506Y-89649337D01*
X121277313Y-89435530D01*
X121355001Y-89319262D01*
X121432689Y-89435530D01*
X121646496Y-89649337D01*
X121897906Y-89817324D01*
X122177258Y-89933036D01*
X122473817Y-89992025D01*
X122776185Y-89992025D01*
X123072744Y-89933036D01*
X123352096Y-89817324D01*
X123603506Y-89649337D01*
X123817313Y-89435530D01*
X123895001Y-89319262D01*
X123972689Y-89435530D01*
X124186496Y-89649337D01*
X124437906Y-89817324D01*
X124717258Y-89933036D01*
X125013817Y-89992025D01*
X125316185Y-89992025D01*
X125612744Y-89933036D01*
X125892096Y-89817324D01*
X126143506Y-89649337D01*
X126357313Y-89435530D01*
X126435001Y-89319262D01*
X126512689Y-89435530D01*
X126726496Y-89649337D01*
X126977906Y-89817324D01*
X127257258Y-89933036D01*
X127553817Y-89992025D01*
X127856185Y-89992025D01*
X128152744Y-89933036D01*
X128432096Y-89817324D01*
X128683506Y-89649337D01*
X128897313Y-89435530D01*
X128975001Y-89319262D01*
X129052689Y-89435530D01*
X129266496Y-89649337D01*
X129517906Y-89817324D01*
X129797258Y-89933036D01*
X130093817Y-89992025D01*
X130396185Y-89992025D01*
X130692744Y-89933036D01*
X130972096Y-89817324D01*
X131223506Y-89649337D01*
X131437313Y-89435530D01*
X131515001Y-89319262D01*
X131592689Y-89435530D01*
X131806496Y-89649337D01*
X132057906Y-89817324D01*
X132337258Y-89933036D01*
X132633817Y-89992025D01*
X132936185Y-89992025D01*
X133232744Y-89933036D01*
X133512096Y-89817324D01*
X133763506Y-89649337D01*
X133977313Y-89435530D01*
X134145300Y-89184120D01*
X134261012Y-88904768D01*
X134320001Y-88608209D01*
X134320001Y-88305841D01*
X134261012Y-88009282D01*
X134145300Y-87729930D01*
X133977313Y-87478520D01*
X133763506Y-87264713D01*
X133512096Y-87096726D01*
X133232744Y-86981014D01*
X132936185Y-86922025D01*
X132633817Y-86922025D01*
X132337258Y-86981014D01*
X132057906Y-87096726D01*
X131806496Y-87264713D01*
X131592689Y-87478520D01*
X131515001Y-87594788D01*
X131437313Y-87478520D01*
X131223506Y-87264713D01*
X130972096Y-87096726D01*
X130692744Y-86981014D01*
X130396185Y-86922025D01*
X130093817Y-86922025D01*
X129797258Y-86981014D01*
X129517906Y-87096726D01*
X129266496Y-87264713D01*
X129052689Y-87478520D01*
X128975001Y-87594788D01*
X128897313Y-87478520D01*
X128683506Y-87264713D01*
X128432096Y-87096726D01*
X128152744Y-86981014D01*
X127856185Y-86922025D01*
X127553817Y-86922025D01*
X127257258Y-86981014D01*
X126977906Y-87096726D01*
X126726496Y-87264713D01*
X126512689Y-87478520D01*
X126435001Y-87594788D01*
X126357313Y-87478520D01*
X126143506Y-87264713D01*
X125892096Y-87096726D01*
X125612744Y-86981014D01*
X125316185Y-86922025D01*
X125013817Y-86922025D01*
X124717258Y-86981014D01*
X124437906Y-87096726D01*
X124186496Y-87264713D01*
X123972689Y-87478520D01*
X123895001Y-87594788D01*
X123817313Y-87478520D01*
X123603506Y-87264713D01*
X123352096Y-87096726D01*
X123072744Y-86981014D01*
X122776185Y-86922025D01*
X122473817Y-86922025D01*
X122177258Y-86981014D01*
X121897906Y-87096726D01*
X121646496Y-87264713D01*
X121432689Y-87478520D01*
X121355001Y-87594788D01*
X121277313Y-87478520D01*
X121063506Y-87264713D01*
X120812096Y-87096726D01*
X120532744Y-86981014D01*
X120236185Y-86922025D01*
X119933817Y-86922025D01*
X119637258Y-86981014D01*
X119357906Y-87096726D01*
X119106496Y-87264713D01*
X118892689Y-87478520D01*
X118790050Y-87632130D01*
X118609081Y-87572550D01*
X117724606Y-88457025D01*
X117365396Y-88457025D01*
X116480921Y-87572550D01*
X116299952Y-87632130D01*
X116197313Y-87478520D01*
X116111738Y-87392945D01*
X116660526Y-87392945D01*
X117545001Y-88277420D01*
X118429476Y-87392945D01*
X118345793Y-87138764D01*
X118073226Y-87007867D01*
X117780359Y-86932660D01*
X117478448Y-86916034D01*
X117179094Y-86958628D01*
X116893802Y-87058803D01*
X116744209Y-87138764D01*
X116660526Y-87392945D01*
X116111738Y-87392945D01*
X115983506Y-87264713D01*
X115732096Y-87096726D01*
X115452744Y-86981014D01*
X115156185Y-86922025D01*
X114853817Y-86922025D01*
X114557258Y-86981014D01*
X114277906Y-87096726D01*
X114026496Y-87264713D01*
X113812689Y-87478520D01*
X113644702Y-87729930D01*
X113528990Y-88009282D01*
X113470001Y-88305841D01*
X105537000Y-88305841D01*
X105537000Y-65445841D01*
X113470001Y-65445841D01*
X113470001Y-65748209D01*
X113528990Y-66044768D01*
X113644702Y-66324120D01*
X113812689Y-66575530D01*
X114026496Y-66789337D01*
X114277906Y-66957324D01*
X114557258Y-67073036D01*
X114853817Y-67132025D01*
X115156185Y-67132025D01*
X115452744Y-67073036D01*
X115732096Y-66957324D01*
X115983506Y-66789337D01*
X116197313Y-66575530D01*
X116275001Y-66459262D01*
X116352689Y-66575530D01*
X116566496Y-66789337D01*
X116817906Y-66957324D01*
X117097258Y-67073036D01*
X117393817Y-67132025D01*
X117696185Y-67132025D01*
X117992744Y-67073036D01*
X118272096Y-66957324D01*
X118523506Y-66789337D01*
X118737313Y-66575530D01*
X118815001Y-66459262D01*
X118892689Y-66575530D01*
X119106496Y-66789337D01*
X119357906Y-66957324D01*
X119637258Y-67073036D01*
X119933817Y-67132025D01*
X120236185Y-67132025D01*
X120532744Y-67073036D01*
X120812096Y-66957324D01*
X121063506Y-66789337D01*
X121277313Y-66575530D01*
X121355001Y-66459262D01*
X121432689Y-66575530D01*
X121646496Y-66789337D01*
X121897906Y-66957324D01*
X122177258Y-67073036D01*
X122473817Y-67132025D01*
X122776185Y-67132025D01*
X123033931Y-67080756D01*
X133350002Y-77396828D01*
X133350003Y-85812670D01*
X133346326Y-85850002D01*
X133361000Y-85998987D01*
X133404456Y-86142248D01*
X133475028Y-86274278D01*
X133546203Y-86361004D01*
X133570002Y-86390003D01*
X133599000Y-86413801D01*
X135130000Y-87944802D01*
X135130001Y-91125197D01*
X134940199Y-91315000D01*
X128307322Y-91315000D01*
X128269999Y-91311324D01*
X128232676Y-91315000D01*
X128232667Y-91315000D01*
X128121014Y-91325997D01*
X127977753Y-91369454D01*
X127845724Y-91440026D01*
X127845722Y-91440027D01*
X127845723Y-91440027D01*
X127758996Y-91511201D01*
X127758992Y-91511205D01*
X127729999Y-91534999D01*
X127706205Y-91563992D01*
X124203003Y-95067196D01*
X124173999Y-95090999D01*
X124118871Y-95158174D01*
X124079026Y-95206724D01*
X124008455Y-95338753D01*
X124008454Y-95338754D01*
X123964997Y-95482015D01*
X123954366Y-95589950D01*
X123883737Y-95611375D01*
X123623395Y-95750531D01*
X123395203Y-95937803D01*
X123207931Y-96165994D01*
X123190000Y-96199541D01*
X123172069Y-96165994D01*
X122984797Y-95937803D01*
X122756606Y-95750531D01*
X122496264Y-95611375D01*
X122213777Y-95525684D01*
X121920000Y-95496749D01*
X121626224Y-95525684D01*
X121343737Y-95611375D01*
X121083395Y-95750531D01*
X120855203Y-95937803D01*
X120667931Y-96165994D01*
X120646576Y-96205947D01*
X120498486Y-96003271D01*
X120282035Y-95804267D01*
X120030919Y-95651314D01*
X119754789Y-95550291D01*
X119739026Y-95547642D01*
X119507000Y-95668783D01*
X119507000Y-97028000D01*
X119527000Y-97028000D01*
X119527000Y-97282000D01*
X119507000Y-97282000D01*
X119507000Y-98641217D01*
X119739026Y-98762358D01*
X119754789Y-98759709D01*
X120030919Y-98658686D01*
X120282035Y-98505733D01*
X120498486Y-98306729D01*
X120646576Y-98104053D01*
X120667931Y-98144005D01*
X120855203Y-98372197D01*
X121083394Y-98559469D01*
X121343736Y-98698625D01*
X121626223Y-98784316D01*
X121920000Y-98813251D01*
X122213776Y-98784316D01*
X122496263Y-98698625D01*
X122756605Y-98559469D01*
X122984797Y-98372197D01*
X123172069Y-98144006D01*
X123190000Y-98110459D01*
X123207931Y-98144005D01*
X123395203Y-98372197D01*
X123623394Y-98559469D01*
X123883736Y-98698625D01*
X124166223Y-98784316D01*
X124460000Y-98813251D01*
X124753776Y-98784316D01*
X125036263Y-98698625D01*
X125296605Y-98559469D01*
X125524797Y-98372197D01*
X125531414Y-98364135D01*
X125546898Y-98415180D01*
X125605863Y-98525494D01*
X125685215Y-98622185D01*
X125781906Y-98701537D01*
X125892220Y-98760502D01*
X126011918Y-98796812D01*
X126136400Y-98809072D01*
X127863600Y-98809072D01*
X127988082Y-98796812D01*
X128107780Y-98760502D01*
X128218094Y-98701537D01*
X128314785Y-98622185D01*
X128394137Y-98525494D01*
X128453102Y-98415180D01*
X128489412Y-98295482D01*
X128501672Y-98171000D01*
X128501672Y-97643740D01*
X131230000Y-97643740D01*
X131230000Y-97936260D01*
X131287068Y-98223158D01*
X131399010Y-98493411D01*
X131561525Y-98736632D01*
X131768368Y-98943475D01*
X132011589Y-99105990D01*
X132281842Y-99217932D01*
X132568740Y-99275000D01*
X132861260Y-99275000D01*
X133148158Y-99217932D01*
X133418411Y-99105990D01*
X133661632Y-98943475D01*
X133868475Y-98736632D01*
X133985000Y-98562240D01*
X134101525Y-98736632D01*
X134308368Y-98943475D01*
X134551589Y-99105990D01*
X134821842Y-99217932D01*
X135108740Y-99275000D01*
X135401260Y-99275000D01*
X135688158Y-99217932D01*
X135958411Y-99105990D01*
X136201632Y-98943475D01*
X136408475Y-98736632D01*
X136530195Y-98554466D01*
X136599822Y-98671355D01*
X136794731Y-98887588D01*
X137028080Y-99061641D01*
X137290901Y-99186825D01*
X137438110Y-99231476D01*
X137668000Y-99110155D01*
X137668000Y-97917000D01*
X137648000Y-97917000D01*
X137648000Y-97663000D01*
X137668000Y-97663000D01*
X137668000Y-96469845D01*
X137438110Y-96348524D01*
X137290901Y-96393175D01*
X137028080Y-96518359D01*
X136794731Y-96692412D01*
X136599822Y-96908645D01*
X136530195Y-97025534D01*
X136408475Y-96843368D01*
X136201632Y-96636525D01*
X135958411Y-96474010D01*
X135688158Y-96362068D01*
X135401260Y-96305000D01*
X135108740Y-96305000D01*
X134821842Y-96362068D01*
X134551589Y-96474010D01*
X134308368Y-96636525D01*
X134101525Y-96843368D01*
X133985000Y-97017760D01*
X133868475Y-96843368D01*
X133661632Y-96636525D01*
X133418411Y-96474010D01*
X133148158Y-96362068D01*
X132861260Y-96305000D01*
X132568740Y-96305000D01*
X132281842Y-96362068D01*
X132011589Y-96474010D01*
X131768368Y-96636525D01*
X131561525Y-96843368D01*
X131399010Y-97086589D01*
X131287068Y-97356842D01*
X131230000Y-97643740D01*
X128501672Y-97643740D01*
X128501672Y-96139000D01*
X128489412Y-96014518D01*
X128453102Y-95894820D01*
X128394137Y-95784506D01*
X128314785Y-95687815D01*
X128218094Y-95608463D01*
X128107780Y-95549498D01*
X127988082Y-95513188D01*
X127863600Y-95500928D01*
X126136400Y-95500928D01*
X126011918Y-95513188D01*
X125892220Y-95549498D01*
X125845136Y-95574665D01*
X128584803Y-92835000D01*
X135217678Y-92835000D01*
X135255000Y-92838676D01*
X135292322Y-92835000D01*
X135292333Y-92835000D01*
X135352063Y-92829117D01*
X137765000Y-92829117D01*
X137765000Y-93170883D01*
X137831675Y-93506081D01*
X137962463Y-93821831D01*
X138152337Y-94105998D01*
X138394002Y-94347663D01*
X138678169Y-94537537D01*
X138993919Y-94668325D01*
X139329117Y-94735000D01*
X139670883Y-94735000D01*
X140006081Y-94668325D01*
X140321831Y-94537537D01*
X140605998Y-94347663D01*
X140847663Y-94105998D01*
X141037537Y-93821831D01*
X141168325Y-93506081D01*
X141235000Y-93170883D01*
X141235000Y-92829117D01*
X141168325Y-92493919D01*
X141037537Y-92178169D01*
X140847663Y-91894002D01*
X140605998Y-91652337D01*
X140321831Y-91462463D01*
X140006081Y-91331675D01*
X139670883Y-91265000D01*
X139329117Y-91265000D01*
X138993919Y-91331675D01*
X138678169Y-91462463D01*
X138394002Y-91652337D01*
X138152337Y-91894002D01*
X137962463Y-92178169D01*
X137831675Y-92493919D01*
X137765000Y-92829117D01*
X135352063Y-92829117D01*
X135403986Y-92824003D01*
X135547247Y-92780546D01*
X135679276Y-92709974D01*
X135795001Y-92615001D01*
X135818803Y-92585998D01*
X136401002Y-92003800D01*
X136430001Y-91980001D01*
X136524974Y-91864276D01*
X136595546Y-91732247D01*
X136639003Y-91588986D01*
X136650000Y-91477333D01*
X136653677Y-91440000D01*
X136650000Y-91402667D01*
X136650000Y-87667322D01*
X136653676Y-87629999D01*
X136650000Y-87592676D01*
X136650000Y-87592667D01*
X136639003Y-87481014D01*
X136595546Y-87337753D01*
X136524974Y-87205724D01*
X136430001Y-87089999D01*
X136401004Y-87066202D01*
X134870002Y-85535201D01*
X134870002Y-77119348D01*
X134873678Y-77082025D01*
X134870002Y-77044702D01*
X134870002Y-77044693D01*
X134859005Y-76933040D01*
X134815548Y-76789779D01*
X134744976Y-76657750D01*
X134650003Y-76542025D01*
X134621006Y-76518228D01*
X125234802Y-67132025D01*
X125316185Y-67132025D01*
X125612744Y-67073036D01*
X125892096Y-66957324D01*
X126143506Y-66789337D01*
X126357313Y-66575530D01*
X126435001Y-66459262D01*
X126512689Y-66575530D01*
X126726496Y-66789337D01*
X126977906Y-66957324D01*
X127257258Y-67073036D01*
X127553817Y-67132025D01*
X127856185Y-67132025D01*
X128152744Y-67073036D01*
X128432096Y-66957324D01*
X128683506Y-66789337D01*
X128897313Y-66575530D01*
X128975001Y-66459262D01*
X129052689Y-66575530D01*
X129266496Y-66789337D01*
X129517906Y-66957324D01*
X129797258Y-67073036D01*
X130093817Y-67132025D01*
X130396185Y-67132025D01*
X130692744Y-67073036D01*
X130972096Y-66957324D01*
X131223506Y-66789337D01*
X131437313Y-66575530D01*
X131515001Y-66459262D01*
X131592689Y-66575530D01*
X131806496Y-66789337D01*
X132057906Y-66957324D01*
X132337258Y-67073036D01*
X132633817Y-67132025D01*
X132936185Y-67132025D01*
X133232744Y-67073036D01*
X133512096Y-66957324D01*
X133763506Y-66789337D01*
X133977313Y-66575530D01*
X134145300Y-66324120D01*
X134261012Y-66044768D01*
X134320001Y-65748209D01*
X134320001Y-65445841D01*
X134261012Y-65149282D01*
X134145300Y-64869930D01*
X133977313Y-64618520D01*
X133763506Y-64404713D01*
X133512096Y-64236726D01*
X133232744Y-64121014D01*
X132936185Y-64062025D01*
X132633817Y-64062025D01*
X132337258Y-64121014D01*
X132057906Y-64236726D01*
X131806496Y-64404713D01*
X131592689Y-64618520D01*
X131515001Y-64734788D01*
X131437313Y-64618520D01*
X131223506Y-64404713D01*
X130972096Y-64236726D01*
X130692744Y-64121014D01*
X130396185Y-64062025D01*
X130093817Y-64062025D01*
X129797258Y-64121014D01*
X129517906Y-64236726D01*
X129266496Y-64404713D01*
X129052689Y-64618520D01*
X128975001Y-64734788D01*
X128897313Y-64618520D01*
X128683506Y-64404713D01*
X128432096Y-64236726D01*
X128152744Y-64121014D01*
X127856185Y-64062025D01*
X127553817Y-64062025D01*
X127257258Y-64121014D01*
X126977906Y-64236726D01*
X126726496Y-64404713D01*
X126512689Y-64618520D01*
X126435001Y-64734788D01*
X126357313Y-64618520D01*
X126143506Y-64404713D01*
X125892096Y-64236726D01*
X125612744Y-64121014D01*
X125316185Y-64062025D01*
X125013817Y-64062025D01*
X124717258Y-64121014D01*
X124437906Y-64236726D01*
X124186496Y-64404713D01*
X123972689Y-64618520D01*
X123895001Y-64734788D01*
X123817313Y-64618520D01*
X123603506Y-64404713D01*
X123352096Y-64236726D01*
X123072744Y-64121014D01*
X122776185Y-64062025D01*
X122473817Y-64062025D01*
X122177258Y-64121014D01*
X121897906Y-64236726D01*
X121646496Y-64404713D01*
X121432689Y-64618520D01*
X121355001Y-64734788D01*
X121277313Y-64618520D01*
X121063506Y-64404713D01*
X120812096Y-64236726D01*
X120532744Y-64121014D01*
X120236185Y-64062025D01*
X119933817Y-64062025D01*
X119637258Y-64121014D01*
X119357906Y-64236726D01*
X119106496Y-64404713D01*
X118892689Y-64618520D01*
X118815001Y-64734788D01*
X118737313Y-64618520D01*
X118523506Y-64404713D01*
X118272096Y-64236726D01*
X117992744Y-64121014D01*
X117696185Y-64062025D01*
X117393817Y-64062025D01*
X117097258Y-64121014D01*
X116817906Y-64236726D01*
X116566496Y-64404713D01*
X116352689Y-64618520D01*
X116275001Y-64734788D01*
X116197313Y-64618520D01*
X115983506Y-64404713D01*
X115732096Y-64236726D01*
X115452744Y-64121014D01*
X115156185Y-64062025D01*
X114853817Y-64062025D01*
X114557258Y-64121014D01*
X114277906Y-64236726D01*
X114026496Y-64404713D01*
X113812689Y-64618520D01*
X113644702Y-64869930D01*
X113528990Y-65149282D01*
X113470001Y-65445841D01*
X105537000Y-65445841D01*
X105537000Y-63462668D01*
X112270000Y-63462668D01*
X112270000Y-63659357D01*
X112280997Y-63771010D01*
X112324454Y-63914271D01*
X112395026Y-64046300D01*
X112489999Y-64162025D01*
X112605725Y-64256998D01*
X112737754Y-64327570D01*
X112881015Y-64371027D01*
X113030000Y-64385701D01*
X113178986Y-64371027D01*
X113322247Y-64327570D01*
X113454276Y-64256998D01*
X113570001Y-64162025D01*
X113664974Y-64046300D01*
X113735546Y-63914270D01*
X113779003Y-63771009D01*
X113790000Y-63659356D01*
X113790000Y-63462667D01*
X113779003Y-63351014D01*
X113735546Y-63207753D01*
X113664974Y-63075724D01*
X113570001Y-62959999D01*
X113454275Y-62865026D01*
X113322246Y-62794454D01*
X113178985Y-62750997D01*
X113030000Y-62736323D01*
X112881014Y-62750997D01*
X112737753Y-62794454D01*
X112605724Y-62865026D01*
X112489999Y-62959999D01*
X112395026Y-63075725D01*
X112324454Y-63207754D01*
X112280997Y-63351015D01*
X112270000Y-63462668D01*
X105537000Y-63462668D01*
X105537000Y-60818665D01*
X106515000Y-60818665D01*
X106515000Y-61101335D01*
X106570147Y-61378574D01*
X106678320Y-61639727D01*
X106835363Y-61874759D01*
X107035241Y-62074637D01*
X107270273Y-62231680D01*
X107531426Y-62339853D01*
X107808665Y-62395000D01*
X108091335Y-62395000D01*
X108368574Y-62339853D01*
X108629727Y-62231680D01*
X108864759Y-62074637D01*
X109064637Y-61874759D01*
X109221680Y-61639727D01*
X109329853Y-61378574D01*
X109385000Y-61101335D01*
X109385000Y-60818665D01*
X114135000Y-60818665D01*
X114135000Y-61101335D01*
X114190147Y-61378574D01*
X114298320Y-61639727D01*
X114455363Y-61874759D01*
X114655241Y-62074637D01*
X114890273Y-62231680D01*
X115151426Y-62339853D01*
X115428665Y-62395000D01*
X115711335Y-62395000D01*
X115988574Y-62339853D01*
X116249727Y-62231680D01*
X116484759Y-62074637D01*
X116684637Y-61874759D01*
X116841680Y-61639727D01*
X116949853Y-61378574D01*
X117005000Y-61101335D01*
X117005000Y-60818665D01*
X119215000Y-60818665D01*
X119215000Y-61101335D01*
X119270147Y-61378574D01*
X119378320Y-61639727D01*
X119535363Y-61874759D01*
X119735241Y-62074637D01*
X119970273Y-62231680D01*
X120231426Y-62339853D01*
X120508665Y-62395000D01*
X120791335Y-62395000D01*
X121068574Y-62339853D01*
X121329727Y-62231680D01*
X121564759Y-62074637D01*
X121764637Y-61874759D01*
X121921680Y-61639727D01*
X122029853Y-61378574D01*
X122085000Y-61101335D01*
X122085000Y-60818665D01*
X126835000Y-60818665D01*
X126835000Y-61101335D01*
X126890147Y-61378574D01*
X126998320Y-61639727D01*
X127155363Y-61874759D01*
X127355241Y-62074637D01*
X127590273Y-62231680D01*
X127851426Y-62339853D01*
X128128665Y-62395000D01*
X128411335Y-62395000D01*
X128688574Y-62339853D01*
X128949727Y-62231680D01*
X129184759Y-62074637D01*
X129384637Y-61874759D01*
X129541680Y-61639727D01*
X129649853Y-61378574D01*
X129705000Y-61101335D01*
X129705000Y-60818665D01*
X130645000Y-60818665D01*
X130645000Y-61101335D01*
X130700147Y-61378574D01*
X130808320Y-61639727D01*
X130965363Y-61874759D01*
X131165241Y-62074637D01*
X131400273Y-62231680D01*
X131661426Y-62339853D01*
X131938665Y-62395000D01*
X132221335Y-62395000D01*
X132498574Y-62339853D01*
X132759727Y-62231680D01*
X132994759Y-62074637D01*
X133194637Y-61874759D01*
X133351680Y-61639727D01*
X133459853Y-61378574D01*
X133515000Y-61101335D01*
X133515000Y-60818665D01*
X138265000Y-60818665D01*
X138265000Y-61101335D01*
X138320147Y-61378574D01*
X138428320Y-61639727D01*
X138585363Y-61874759D01*
X138785241Y-62074637D01*
X139020273Y-62231680D01*
X139281426Y-62339853D01*
X139558665Y-62395000D01*
X139841335Y-62395000D01*
X140118574Y-62339853D01*
X140379727Y-62231680D01*
X140614759Y-62074637D01*
X140814637Y-61874759D01*
X140971680Y-61639727D01*
X141079853Y-61378574D01*
X141135000Y-61101335D01*
X141135000Y-60818665D01*
X141079853Y-60541426D01*
X140971680Y-60280273D01*
X140814637Y-60045241D01*
X140614759Y-59845363D01*
X140379727Y-59688320D01*
X140118574Y-59580147D01*
X139841335Y-59525000D01*
X139558665Y-59525000D01*
X139281426Y-59580147D01*
X139020273Y-59688320D01*
X138785241Y-59845363D01*
X138585363Y-60045241D01*
X138428320Y-60280273D01*
X138320147Y-60541426D01*
X138265000Y-60818665D01*
X133515000Y-60818665D01*
X133459853Y-60541426D01*
X133351680Y-60280273D01*
X133194637Y-60045241D01*
X132994759Y-59845363D01*
X132759727Y-59688320D01*
X132498574Y-59580147D01*
X132221335Y-59525000D01*
X131938665Y-59525000D01*
X131661426Y-59580147D01*
X131400273Y-59688320D01*
X131165241Y-59845363D01*
X130965363Y-60045241D01*
X130808320Y-60280273D01*
X130700147Y-60541426D01*
X130645000Y-60818665D01*
X129705000Y-60818665D01*
X129649853Y-60541426D01*
X129541680Y-60280273D01*
X129384637Y-60045241D01*
X129184759Y-59845363D01*
X128949727Y-59688320D01*
X128688574Y-59580147D01*
X128411335Y-59525000D01*
X128128665Y-59525000D01*
X127851426Y-59580147D01*
X127590273Y-59688320D01*
X127355241Y-59845363D01*
X127155363Y-60045241D01*
X126998320Y-60280273D01*
X126890147Y-60541426D01*
X126835000Y-60818665D01*
X122085000Y-60818665D01*
X122029853Y-60541426D01*
X121921680Y-60280273D01*
X121764637Y-60045241D01*
X121564759Y-59845363D01*
X121329727Y-59688320D01*
X121068574Y-59580147D01*
X120791335Y-59525000D01*
X120508665Y-59525000D01*
X120231426Y-59580147D01*
X119970273Y-59688320D01*
X119735241Y-59845363D01*
X119535363Y-60045241D01*
X119378320Y-60280273D01*
X119270147Y-60541426D01*
X119215000Y-60818665D01*
X117005000Y-60818665D01*
X116949853Y-60541426D01*
X116841680Y-60280273D01*
X116684637Y-60045241D01*
X116484759Y-59845363D01*
X116249727Y-59688320D01*
X115988574Y-59580147D01*
X115711335Y-59525000D01*
X115428665Y-59525000D01*
X115151426Y-59580147D01*
X114890273Y-59688320D01*
X114655241Y-59845363D01*
X114455363Y-60045241D01*
X114298320Y-60280273D01*
X114190147Y-60541426D01*
X114135000Y-60818665D01*
X109385000Y-60818665D01*
X109329853Y-60541426D01*
X109221680Y-60280273D01*
X109064637Y-60045241D01*
X108864759Y-59845363D01*
X108629727Y-59688320D01*
X108368574Y-59580147D01*
X108091335Y-59525000D01*
X107808665Y-59525000D01*
X107531426Y-59580147D01*
X107270273Y-59688320D01*
X107035241Y-59845363D01*
X106835363Y-60045241D01*
X106678320Y-60280273D01*
X106570147Y-60541426D01*
X106515000Y-60818665D01*
X105537000Y-60818665D01*
X105537000Y-55066553D01*
X112419009Y-55066553D01*
X112461603Y-55365907D01*
X112561778Y-55651199D01*
X112641739Y-55800792D01*
X112895920Y-55884475D01*
X113780395Y-55000000D01*
X112895920Y-54115525D01*
X112641739Y-54199208D01*
X112510842Y-54471775D01*
X112435635Y-54764642D01*
X112419009Y-55066553D01*
X105537000Y-55066553D01*
X105537000Y-52329117D01*
X105765000Y-52329117D01*
X105765000Y-52670883D01*
X105831675Y-53006081D01*
X105962463Y-53321831D01*
X106152337Y-53605998D01*
X106394002Y-53847663D01*
X106678169Y-54037537D01*
X106993919Y-54168325D01*
X107329117Y-54235000D01*
X107670883Y-54235000D01*
X108006081Y-54168325D01*
X108321831Y-54037537D01*
X108473911Y-53935920D01*
X113075525Y-53935920D01*
X113960000Y-54820395D01*
X113974143Y-54806253D01*
X114153748Y-54985858D01*
X114139605Y-55000000D01*
X114153748Y-55014143D01*
X113974143Y-55193748D01*
X113960000Y-55179605D01*
X113075525Y-56064080D01*
X113159208Y-56318261D01*
X113431775Y-56449158D01*
X113724642Y-56524365D01*
X114026553Y-56540991D01*
X114325907Y-56498397D01*
X114611199Y-56398222D01*
X114760792Y-56318261D01*
X114844474Y-56064082D01*
X114960422Y-56180030D01*
X115007187Y-56133265D01*
X115010498Y-56144180D01*
X115069463Y-56254494D01*
X115148815Y-56351185D01*
X115245506Y-56430537D01*
X115355820Y-56489502D01*
X115475518Y-56525812D01*
X115600000Y-56538072D01*
X117400000Y-56538072D01*
X117524482Y-56525812D01*
X117644180Y-56489502D01*
X117754494Y-56430537D01*
X117851185Y-56351185D01*
X117930537Y-56254494D01*
X117989502Y-56144180D01*
X118025812Y-56024482D01*
X118038072Y-55900000D01*
X118038072Y-54930553D01*
X121649009Y-54930553D01*
X121691603Y-55229907D01*
X121791778Y-55515199D01*
X121871739Y-55664792D01*
X122125920Y-55748475D01*
X123010395Y-54864000D01*
X122125920Y-53979525D01*
X121871739Y-54063208D01*
X121740842Y-54335775D01*
X121665635Y-54628642D01*
X121649009Y-54930553D01*
X118038072Y-54930553D01*
X118038072Y-54100000D01*
X118025812Y-53975518D01*
X117989502Y-53855820D01*
X117959623Y-53799920D01*
X122305525Y-53799920D01*
X123190000Y-54684395D01*
X123204143Y-54670253D01*
X123383748Y-54849858D01*
X123369605Y-54864000D01*
X123383748Y-54878143D01*
X123204143Y-55057748D01*
X123190000Y-55043605D01*
X122305525Y-55928080D01*
X122389208Y-56182261D01*
X122661775Y-56313158D01*
X122954642Y-56388365D01*
X123256553Y-56404991D01*
X123555907Y-56362397D01*
X123841199Y-56262222D01*
X123990792Y-56182261D01*
X124074474Y-55928082D01*
X124190422Y-56044030D01*
X124237187Y-55997265D01*
X124240498Y-56008180D01*
X124299463Y-56118494D01*
X124378815Y-56215185D01*
X124475506Y-56294537D01*
X124585820Y-56353502D01*
X124705518Y-56389812D01*
X124830000Y-56402072D01*
X126630000Y-56402072D01*
X126754482Y-56389812D01*
X126874180Y-56353502D01*
X126984494Y-56294537D01*
X127081185Y-56215185D01*
X127160537Y-56118494D01*
X127219502Y-56008180D01*
X127255812Y-55888482D01*
X127268072Y-55764000D01*
X127268072Y-55066553D01*
X130919009Y-55066553D01*
X130961603Y-55365907D01*
X131061778Y-55651199D01*
X131141739Y-55800792D01*
X131395920Y-55884475D01*
X132280395Y-55000000D01*
X131395920Y-54115525D01*
X131141739Y-54199208D01*
X131010842Y-54471775D01*
X130935635Y-54764642D01*
X130919009Y-55066553D01*
X127268072Y-55066553D01*
X127268072Y-53964000D01*
X127265307Y-53935920D01*
X131575525Y-53935920D01*
X132460000Y-54820395D01*
X132474143Y-54806253D01*
X132653748Y-54985858D01*
X132639605Y-55000000D01*
X132653748Y-55014143D01*
X132474143Y-55193748D01*
X132460000Y-55179605D01*
X131575525Y-56064080D01*
X131659208Y-56318261D01*
X131931775Y-56449158D01*
X132224642Y-56524365D01*
X132526553Y-56540991D01*
X132825907Y-56498397D01*
X133111199Y-56398222D01*
X133260792Y-56318261D01*
X133344474Y-56064082D01*
X133460422Y-56180030D01*
X133507187Y-56133265D01*
X133510498Y-56144180D01*
X133569463Y-56254494D01*
X133648815Y-56351185D01*
X133745506Y-56430537D01*
X133855820Y-56489502D01*
X133975518Y-56525812D01*
X134100000Y-56538072D01*
X135900000Y-56538072D01*
X136024482Y-56525812D01*
X136144180Y-56489502D01*
X136254494Y-56430537D01*
X136351185Y-56351185D01*
X136430537Y-56254494D01*
X136489502Y-56144180D01*
X136525812Y-56024482D01*
X136538072Y-55900000D01*
X136538072Y-54100000D01*
X136525812Y-53975518D01*
X136489502Y-53855820D01*
X136430537Y-53745506D01*
X136351185Y-53648815D01*
X136254494Y-53569463D01*
X136144180Y-53510498D01*
X136024482Y-53474188D01*
X135900000Y-53461928D01*
X134100000Y-53461928D01*
X133975518Y-53474188D01*
X133855820Y-53510498D01*
X133745506Y-53569463D01*
X133648815Y-53648815D01*
X133569463Y-53745506D01*
X133510498Y-53855820D01*
X133507187Y-53866735D01*
X133460422Y-53819970D01*
X133344474Y-53935918D01*
X133260792Y-53681739D01*
X132988225Y-53550842D01*
X132695358Y-53475635D01*
X132393447Y-53459009D01*
X132094093Y-53501603D01*
X131808801Y-53601778D01*
X131659208Y-53681739D01*
X131575525Y-53935920D01*
X127265307Y-53935920D01*
X127255812Y-53839518D01*
X127219502Y-53719820D01*
X127160537Y-53609506D01*
X127081185Y-53512815D01*
X126984494Y-53433463D01*
X126874180Y-53374498D01*
X126754482Y-53338188D01*
X126630000Y-53325928D01*
X124830000Y-53325928D01*
X124705518Y-53338188D01*
X124585820Y-53374498D01*
X124475506Y-53433463D01*
X124378815Y-53512815D01*
X124299463Y-53609506D01*
X124240498Y-53719820D01*
X124237187Y-53730735D01*
X124190422Y-53683970D01*
X124074474Y-53799918D01*
X123990792Y-53545739D01*
X123718225Y-53414842D01*
X123425358Y-53339635D01*
X123123447Y-53323009D01*
X122824093Y-53365603D01*
X122538801Y-53465778D01*
X122389208Y-53545739D01*
X122305525Y-53799920D01*
X117959623Y-53799920D01*
X117930537Y-53745506D01*
X117851185Y-53648815D01*
X117754494Y-53569463D01*
X117644180Y-53510498D01*
X117524482Y-53474188D01*
X117400000Y-53461928D01*
X115600000Y-53461928D01*
X115475518Y-53474188D01*
X115355820Y-53510498D01*
X115245506Y-53569463D01*
X115148815Y-53648815D01*
X115069463Y-53745506D01*
X115010498Y-53855820D01*
X115007187Y-53866735D01*
X114960422Y-53819970D01*
X114844474Y-53935918D01*
X114760792Y-53681739D01*
X114488225Y-53550842D01*
X114195358Y-53475635D01*
X113893447Y-53459009D01*
X113594093Y-53501603D01*
X113308801Y-53601778D01*
X113159208Y-53681739D01*
X113075525Y-53935920D01*
X108473911Y-53935920D01*
X108605998Y-53847663D01*
X108847663Y-53605998D01*
X109037537Y-53321831D01*
X109168325Y-53006081D01*
X109235000Y-52670883D01*
X109235000Y-52329117D01*
X137765000Y-52329117D01*
X137765000Y-52670883D01*
X137831675Y-53006081D01*
X137962463Y-53321831D01*
X138152337Y-53605998D01*
X138394002Y-53847663D01*
X138678169Y-54037537D01*
X138993919Y-54168325D01*
X139329117Y-54235000D01*
X139670883Y-54235000D01*
X140006081Y-54168325D01*
X140321831Y-54037537D01*
X140605998Y-53847663D01*
X140847663Y-53605998D01*
X141037537Y-53321831D01*
X141168325Y-53006081D01*
X141235000Y-52670883D01*
X141235000Y-52329117D01*
X141168325Y-51993919D01*
X141037537Y-51678169D01*
X140847663Y-51394002D01*
X140605998Y-51152337D01*
X140321831Y-50962463D01*
X140006081Y-50831675D01*
X139670883Y-50765000D01*
X139329117Y-50765000D01*
X138993919Y-50831675D01*
X138678169Y-50962463D01*
X138394002Y-51152337D01*
X138152337Y-51394002D01*
X137962463Y-51678169D01*
X137831675Y-51993919D01*
X137765000Y-52329117D01*
X109235000Y-52329117D01*
X109168325Y-51993919D01*
X109037537Y-51678169D01*
X108847663Y-51394002D01*
X108605998Y-51152337D01*
X108321831Y-50962463D01*
X108006081Y-50831675D01*
X107670883Y-50765000D01*
X107329117Y-50765000D01*
X106993919Y-50831675D01*
X106678169Y-50962463D01*
X106394002Y-51152337D01*
X106152337Y-51394002D01*
X105962463Y-51678169D01*
X105831675Y-51993919D01*
X105765000Y-52329117D01*
X105537000Y-52329117D01*
X105537000Y-50292000D01*
X141479578Y-50292000D01*
X141555000Y-56325771D01*
G37*
G04 #@! TD.AperFunction*
M02*
