G04 #@! TF.GenerationSoftware,KiCad,Pcbnew,7.0.7*
G04 #@! TF.CreationDate,2024-09-10T18:09:56+02:00*
G04 #@! TF.ProjectId,meteo-home,6d657465-6f2d-4686-9f6d-652e6b696361,rev?*
G04 #@! TF.SameCoordinates,Original*
G04 #@! TF.FileFunction,Legend,Bot*
G04 #@! TF.FilePolarity,Positive*
%FSLAX46Y46*%
G04 Gerber Fmt 4.6, Leading zero omitted, Abs format (unit mm)*
G04 Created by KiCad (PCBNEW 7.0.7) date 2024-09-10 18:09:56*
%MOMM*%
%LPD*%
G01*
G04 APERTURE LIST*
G04 Aperture macros list*
%AMRoundRect*
0 Rectangle with rounded corners*
0 $1 Rounding radius*
0 $2 $3 $4 $5 $6 $7 $8 $9 X,Y pos of 4 corners*
0 Add a 4 corners polygon primitive as box body*
4,1,4,$2,$3,$4,$5,$6,$7,$8,$9,$2,$3,0*
0 Add four circle primitives for the rounded corners*
1,1,$1+$1,$2,$3*
1,1,$1+$1,$4,$5*
1,1,$1+$1,$6,$7*
1,1,$1+$1,$8,$9*
0 Add four rect primitives between the rounded corners*
20,1,$1+$1,$2,$3,$4,$5,0*
20,1,$1+$1,$4,$5,$6,$7,0*
20,1,$1+$1,$6,$7,$8,$9,0*
20,1,$1+$1,$8,$9,$2,$3,0*%
G04 Aperture macros list end*
%ADD10C,0.100000*%
%ADD11C,0.150000*%
%ADD12R,2.000000X2.000000*%
%ADD13O,1.600000X2.000000*%
%ADD14R,1.727200X2.032000*%
%ADD15O,1.727200X2.032000*%
%ADD16R,1.800000X1.800000*%
%ADD17C,1.800000*%
%ADD18C,1.400000*%
%ADD19O,1.400000X1.400000*%
%ADD20R,0.850000X0.850000*%
%ADD21O,0.850000X0.850000*%
%ADD22R,1.700000X1.700000*%
%ADD23O,1.700000X1.700000*%
%ADD24RoundRect,0.250000X0.620000X-0.620000X0.620000X0.620000X-0.620000X0.620000X-0.620000X-0.620000X0*%
%ADD25C,1.740000*%
G04 APERTURE END LIST*
D10*
X133803258Y-56457419D02*
X133850877Y-56433609D01*
X133850877Y-56433609D02*
X133922306Y-56433609D01*
X133922306Y-56433609D02*
X133993734Y-56457419D01*
X133993734Y-56457419D02*
X134041353Y-56505038D01*
X134041353Y-56505038D02*
X134065163Y-56552657D01*
X134065163Y-56552657D02*
X134088972Y-56647895D01*
X134088972Y-56647895D02*
X134088972Y-56719323D01*
X134088972Y-56719323D02*
X134065163Y-56814561D01*
X134065163Y-56814561D02*
X134041353Y-56862180D01*
X134041353Y-56862180D02*
X133993734Y-56909800D01*
X133993734Y-56909800D02*
X133922306Y-56933609D01*
X133922306Y-56933609D02*
X133874687Y-56933609D01*
X133874687Y-56933609D02*
X133803258Y-56909800D01*
X133803258Y-56909800D02*
X133779449Y-56885990D01*
X133779449Y-56885990D02*
X133779449Y-56719323D01*
X133779449Y-56719323D02*
X133874687Y-56719323D01*
X133565163Y-56933609D02*
X133565163Y-56433609D01*
X133565163Y-56433609D02*
X133279449Y-56933609D01*
X133279449Y-56933609D02*
X133279449Y-56433609D01*
X133041353Y-56933609D02*
X133041353Y-56433609D01*
X133041353Y-56433609D02*
X132922305Y-56433609D01*
X132922305Y-56433609D02*
X132850877Y-56457419D01*
X132850877Y-56457419D02*
X132803258Y-56505038D01*
X132803258Y-56505038D02*
X132779448Y-56552657D01*
X132779448Y-56552657D02*
X132755639Y-56647895D01*
X132755639Y-56647895D02*
X132755639Y-56719323D01*
X132755639Y-56719323D02*
X132779448Y-56814561D01*
X132779448Y-56814561D02*
X132803258Y-56862180D01*
X132803258Y-56862180D02*
X132850877Y-56909800D01*
X132850877Y-56909800D02*
X132922305Y-56933609D01*
X132922305Y-56933609D02*
X133041353Y-56933609D01*
X127153258Y-97157419D02*
X127200877Y-97133609D01*
X127200877Y-97133609D02*
X127272306Y-97133609D01*
X127272306Y-97133609D02*
X127343734Y-97157419D01*
X127343734Y-97157419D02*
X127391353Y-97205038D01*
X127391353Y-97205038D02*
X127415163Y-97252657D01*
X127415163Y-97252657D02*
X127438972Y-97347895D01*
X127438972Y-97347895D02*
X127438972Y-97419323D01*
X127438972Y-97419323D02*
X127415163Y-97514561D01*
X127415163Y-97514561D02*
X127391353Y-97562180D01*
X127391353Y-97562180D02*
X127343734Y-97609800D01*
X127343734Y-97609800D02*
X127272306Y-97633609D01*
X127272306Y-97633609D02*
X127224687Y-97633609D01*
X127224687Y-97633609D02*
X127153258Y-97609800D01*
X127153258Y-97609800D02*
X127129449Y-97585990D01*
X127129449Y-97585990D02*
X127129449Y-97419323D01*
X127129449Y-97419323D02*
X127224687Y-97419323D01*
X126915163Y-97633609D02*
X126915163Y-97133609D01*
X126915163Y-97133609D02*
X126629449Y-97633609D01*
X126629449Y-97633609D02*
X126629449Y-97133609D01*
X126391353Y-97633609D02*
X126391353Y-97133609D01*
X126391353Y-97133609D02*
X126272305Y-97133609D01*
X126272305Y-97133609D02*
X126200877Y-97157419D01*
X126200877Y-97157419D02*
X126153258Y-97205038D01*
X126153258Y-97205038D02*
X126129448Y-97252657D01*
X126129448Y-97252657D02*
X126105639Y-97347895D01*
X126105639Y-97347895D02*
X126105639Y-97419323D01*
X126105639Y-97419323D02*
X126129448Y-97514561D01*
X126129448Y-97514561D02*
X126153258Y-97562180D01*
X126153258Y-97562180D02*
X126200877Y-97609800D01*
X126200877Y-97609800D02*
X126272305Y-97633609D01*
X126272305Y-97633609D02*
X126391353Y-97633609D01*
X114462782Y-98733609D02*
X114153258Y-98733609D01*
X114153258Y-98733609D02*
X114319925Y-98924085D01*
X114319925Y-98924085D02*
X114248496Y-98924085D01*
X114248496Y-98924085D02*
X114200877Y-98947895D01*
X114200877Y-98947895D02*
X114177068Y-98971704D01*
X114177068Y-98971704D02*
X114153258Y-99019323D01*
X114153258Y-99019323D02*
X114153258Y-99138371D01*
X114153258Y-99138371D02*
X114177068Y-99185990D01*
X114177068Y-99185990D02*
X114200877Y-99209800D01*
X114200877Y-99209800D02*
X114248496Y-99233609D01*
X114248496Y-99233609D02*
X114391353Y-99233609D01*
X114391353Y-99233609D02*
X114438972Y-99209800D01*
X114438972Y-99209800D02*
X114462782Y-99185990D01*
X113938973Y-99185990D02*
X113915163Y-99209800D01*
X113915163Y-99209800D02*
X113938973Y-99233609D01*
X113938973Y-99233609D02*
X113962782Y-99209800D01*
X113962782Y-99209800D02*
X113938973Y-99185990D01*
X113938973Y-99185990D02*
X113938973Y-99233609D01*
X113748497Y-98733609D02*
X113438973Y-98733609D01*
X113438973Y-98733609D02*
X113605640Y-98924085D01*
X113605640Y-98924085D02*
X113534211Y-98924085D01*
X113534211Y-98924085D02*
X113486592Y-98947895D01*
X113486592Y-98947895D02*
X113462783Y-98971704D01*
X113462783Y-98971704D02*
X113438973Y-99019323D01*
X113438973Y-99019323D02*
X113438973Y-99138371D01*
X113438973Y-99138371D02*
X113462783Y-99185990D01*
X113462783Y-99185990D02*
X113486592Y-99209800D01*
X113486592Y-99209800D02*
X113534211Y-99233609D01*
X113534211Y-99233609D02*
X113677068Y-99233609D01*
X113677068Y-99233609D02*
X113724687Y-99209800D01*
X113724687Y-99209800D02*
X113748497Y-99185990D01*
X113296116Y-98733609D02*
X113129450Y-99233609D01*
X113129450Y-99233609D02*
X112962783Y-98733609D01*
X114538972Y-94069800D02*
X114467544Y-94093609D01*
X114467544Y-94093609D02*
X114348496Y-94093609D01*
X114348496Y-94093609D02*
X114300877Y-94069800D01*
X114300877Y-94069800D02*
X114277068Y-94045990D01*
X114277068Y-94045990D02*
X114253258Y-93998371D01*
X114253258Y-93998371D02*
X114253258Y-93950752D01*
X114253258Y-93950752D02*
X114277068Y-93903133D01*
X114277068Y-93903133D02*
X114300877Y-93879323D01*
X114300877Y-93879323D02*
X114348496Y-93855514D01*
X114348496Y-93855514D02*
X114443734Y-93831704D01*
X114443734Y-93831704D02*
X114491353Y-93807895D01*
X114491353Y-93807895D02*
X114515163Y-93784085D01*
X114515163Y-93784085D02*
X114538972Y-93736466D01*
X114538972Y-93736466D02*
X114538972Y-93688847D01*
X114538972Y-93688847D02*
X114515163Y-93641228D01*
X114515163Y-93641228D02*
X114491353Y-93617419D01*
X114491353Y-93617419D02*
X114443734Y-93593609D01*
X114443734Y-93593609D02*
X114324687Y-93593609D01*
X114324687Y-93593609D02*
X114253258Y-93617419D01*
X113753259Y-94045990D02*
X113777068Y-94069800D01*
X113777068Y-94069800D02*
X113848497Y-94093609D01*
X113848497Y-94093609D02*
X113896116Y-94093609D01*
X113896116Y-94093609D02*
X113967544Y-94069800D01*
X113967544Y-94069800D02*
X114015163Y-94022180D01*
X114015163Y-94022180D02*
X114038973Y-93974561D01*
X114038973Y-93974561D02*
X114062782Y-93879323D01*
X114062782Y-93879323D02*
X114062782Y-93807895D01*
X114062782Y-93807895D02*
X114038973Y-93712657D01*
X114038973Y-93712657D02*
X114015163Y-93665038D01*
X114015163Y-93665038D02*
X113967544Y-93617419D01*
X113967544Y-93617419D02*
X113896116Y-93593609D01*
X113896116Y-93593609D02*
X113848497Y-93593609D01*
X113848497Y-93593609D02*
X113777068Y-93617419D01*
X113777068Y-93617419D02*
X113753259Y-93641228D01*
X113300878Y-94093609D02*
X113538973Y-94093609D01*
X113538973Y-94093609D02*
X113538973Y-93593609D01*
X129065163Y-56933609D02*
X129065163Y-56433609D01*
X129065163Y-56433609D02*
X128946115Y-56433609D01*
X128946115Y-56433609D02*
X128874687Y-56457419D01*
X128874687Y-56457419D02*
X128827068Y-56505038D01*
X128827068Y-56505038D02*
X128803258Y-56552657D01*
X128803258Y-56552657D02*
X128779449Y-56647895D01*
X128779449Y-56647895D02*
X128779449Y-56719323D01*
X128779449Y-56719323D02*
X128803258Y-56814561D01*
X128803258Y-56814561D02*
X128827068Y-56862180D01*
X128827068Y-56862180D02*
X128874687Y-56909800D01*
X128874687Y-56909800D02*
X128946115Y-56933609D01*
X128946115Y-56933609D02*
X129065163Y-56933609D01*
X128588972Y-56790752D02*
X128350877Y-56790752D01*
X128636591Y-56933609D02*
X128469925Y-56433609D01*
X128469925Y-56433609D02*
X128303258Y-56933609D01*
X128208020Y-56433609D02*
X127922306Y-56433609D01*
X128065163Y-56933609D02*
X128065163Y-56433609D01*
X127779449Y-56790752D02*
X127541354Y-56790752D01*
X127827068Y-56933609D02*
X127660402Y-56433609D01*
X127660402Y-56433609D02*
X127493735Y-56933609D01*
X114438972Y-91469800D02*
X114367544Y-91493609D01*
X114367544Y-91493609D02*
X114248496Y-91493609D01*
X114248496Y-91493609D02*
X114200877Y-91469800D01*
X114200877Y-91469800D02*
X114177068Y-91445990D01*
X114177068Y-91445990D02*
X114153258Y-91398371D01*
X114153258Y-91398371D02*
X114153258Y-91350752D01*
X114153258Y-91350752D02*
X114177068Y-91303133D01*
X114177068Y-91303133D02*
X114200877Y-91279323D01*
X114200877Y-91279323D02*
X114248496Y-91255514D01*
X114248496Y-91255514D02*
X114343734Y-91231704D01*
X114343734Y-91231704D02*
X114391353Y-91207895D01*
X114391353Y-91207895D02*
X114415163Y-91184085D01*
X114415163Y-91184085D02*
X114438972Y-91136466D01*
X114438972Y-91136466D02*
X114438972Y-91088847D01*
X114438972Y-91088847D02*
X114415163Y-91041228D01*
X114415163Y-91041228D02*
X114391353Y-91017419D01*
X114391353Y-91017419D02*
X114343734Y-90993609D01*
X114343734Y-90993609D02*
X114224687Y-90993609D01*
X114224687Y-90993609D02*
X114153258Y-91017419D01*
X113938973Y-91493609D02*
X113938973Y-90993609D01*
X113938973Y-90993609D02*
X113819925Y-90993609D01*
X113819925Y-90993609D02*
X113748497Y-91017419D01*
X113748497Y-91017419D02*
X113700878Y-91065038D01*
X113700878Y-91065038D02*
X113677068Y-91112657D01*
X113677068Y-91112657D02*
X113653259Y-91207895D01*
X113653259Y-91207895D02*
X113653259Y-91279323D01*
X113653259Y-91279323D02*
X113677068Y-91374561D01*
X113677068Y-91374561D02*
X113700878Y-91422180D01*
X113700878Y-91422180D02*
X113748497Y-91469800D01*
X113748497Y-91469800D02*
X113819925Y-91493609D01*
X113819925Y-91493609D02*
X113938973Y-91493609D01*
X113462782Y-91350752D02*
X113224687Y-91350752D01*
X113510401Y-91493609D02*
X113343735Y-90993609D01*
X113343735Y-90993609D02*
X113177068Y-91493609D01*
X133838972Y-96742300D02*
X133767544Y-96766109D01*
X133767544Y-96766109D02*
X133648496Y-96766109D01*
X133648496Y-96766109D02*
X133600877Y-96742300D01*
X133600877Y-96742300D02*
X133577068Y-96718490D01*
X133577068Y-96718490D02*
X133553258Y-96670871D01*
X133553258Y-96670871D02*
X133553258Y-96623252D01*
X133553258Y-96623252D02*
X133577068Y-96575633D01*
X133577068Y-96575633D02*
X133600877Y-96551823D01*
X133600877Y-96551823D02*
X133648496Y-96528014D01*
X133648496Y-96528014D02*
X133743734Y-96504204D01*
X133743734Y-96504204D02*
X133791353Y-96480395D01*
X133791353Y-96480395D02*
X133815163Y-96456585D01*
X133815163Y-96456585D02*
X133838972Y-96408966D01*
X133838972Y-96408966D02*
X133838972Y-96361347D01*
X133838972Y-96361347D02*
X133815163Y-96313728D01*
X133815163Y-96313728D02*
X133791353Y-96289919D01*
X133791353Y-96289919D02*
X133743734Y-96266109D01*
X133743734Y-96266109D02*
X133624687Y-96266109D01*
X133624687Y-96266109D02*
X133553258Y-96289919D01*
X133053259Y-96718490D02*
X133077068Y-96742300D01*
X133077068Y-96742300D02*
X133148497Y-96766109D01*
X133148497Y-96766109D02*
X133196116Y-96766109D01*
X133196116Y-96766109D02*
X133267544Y-96742300D01*
X133267544Y-96742300D02*
X133315163Y-96694680D01*
X133315163Y-96694680D02*
X133338973Y-96647061D01*
X133338973Y-96647061D02*
X133362782Y-96551823D01*
X133362782Y-96551823D02*
X133362782Y-96480395D01*
X133362782Y-96480395D02*
X133338973Y-96385157D01*
X133338973Y-96385157D02*
X133315163Y-96337538D01*
X133315163Y-96337538D02*
X133267544Y-96289919D01*
X133267544Y-96289919D02*
X133196116Y-96266109D01*
X133196116Y-96266109D02*
X133148497Y-96266109D01*
X133148497Y-96266109D02*
X133077068Y-96289919D01*
X133077068Y-96289919D02*
X133053259Y-96313728D01*
X132600878Y-96766109D02*
X132838973Y-96766109D01*
X132838973Y-96766109D02*
X132838973Y-96266109D01*
X140062782Y-58433609D02*
X139753258Y-58433609D01*
X139753258Y-58433609D02*
X139919925Y-58624085D01*
X139919925Y-58624085D02*
X139848496Y-58624085D01*
X139848496Y-58624085D02*
X139800877Y-58647895D01*
X139800877Y-58647895D02*
X139777068Y-58671704D01*
X139777068Y-58671704D02*
X139753258Y-58719323D01*
X139753258Y-58719323D02*
X139753258Y-58838371D01*
X139753258Y-58838371D02*
X139777068Y-58885990D01*
X139777068Y-58885990D02*
X139800877Y-58909800D01*
X139800877Y-58909800D02*
X139848496Y-58933609D01*
X139848496Y-58933609D02*
X139991353Y-58933609D01*
X139991353Y-58933609D02*
X140038972Y-58909800D01*
X140038972Y-58909800D02*
X140062782Y-58885990D01*
X139586592Y-58600276D02*
X139467544Y-58933609D01*
X139467544Y-58933609D02*
X139348497Y-58600276D01*
X139205640Y-58433609D02*
X138896116Y-58433609D01*
X138896116Y-58433609D02*
X139062783Y-58624085D01*
X139062783Y-58624085D02*
X138991354Y-58624085D01*
X138991354Y-58624085D02*
X138943735Y-58647895D01*
X138943735Y-58647895D02*
X138919926Y-58671704D01*
X138919926Y-58671704D02*
X138896116Y-58719323D01*
X138896116Y-58719323D02*
X138896116Y-58838371D01*
X138896116Y-58838371D02*
X138919926Y-58885990D01*
X138919926Y-58885990D02*
X138943735Y-58909800D01*
X138943735Y-58909800D02*
X138991354Y-58933609D01*
X138991354Y-58933609D02*
X139134211Y-58933609D01*
X139134211Y-58933609D02*
X139181830Y-58909800D01*
X139181830Y-58909800D02*
X139205640Y-58885990D01*
X134077068Y-91616109D02*
X134315163Y-91616109D01*
X134315163Y-91616109D02*
X134338972Y-91854204D01*
X134338972Y-91854204D02*
X134315163Y-91830395D01*
X134315163Y-91830395D02*
X134267544Y-91806585D01*
X134267544Y-91806585D02*
X134148496Y-91806585D01*
X134148496Y-91806585D02*
X134100877Y-91830395D01*
X134100877Y-91830395D02*
X134077068Y-91854204D01*
X134077068Y-91854204D02*
X134053258Y-91901823D01*
X134053258Y-91901823D02*
X134053258Y-92020871D01*
X134053258Y-92020871D02*
X134077068Y-92068490D01*
X134077068Y-92068490D02*
X134100877Y-92092300D01*
X134100877Y-92092300D02*
X134148496Y-92116109D01*
X134148496Y-92116109D02*
X134267544Y-92116109D01*
X134267544Y-92116109D02*
X134315163Y-92092300D01*
X134315163Y-92092300D02*
X134338972Y-92068490D01*
X133910401Y-91616109D02*
X133743735Y-92116109D01*
X133743735Y-92116109D02*
X133577068Y-91616109D01*
X119463972Y-94029800D02*
X119392544Y-94053609D01*
X119392544Y-94053609D02*
X119273496Y-94053609D01*
X119273496Y-94053609D02*
X119225877Y-94029800D01*
X119225877Y-94029800D02*
X119202068Y-94005990D01*
X119202068Y-94005990D02*
X119178258Y-93958371D01*
X119178258Y-93958371D02*
X119178258Y-93910752D01*
X119178258Y-93910752D02*
X119202068Y-93863133D01*
X119202068Y-93863133D02*
X119225877Y-93839323D01*
X119225877Y-93839323D02*
X119273496Y-93815514D01*
X119273496Y-93815514D02*
X119368734Y-93791704D01*
X119368734Y-93791704D02*
X119416353Y-93767895D01*
X119416353Y-93767895D02*
X119440163Y-93744085D01*
X119440163Y-93744085D02*
X119463972Y-93696466D01*
X119463972Y-93696466D02*
X119463972Y-93648847D01*
X119463972Y-93648847D02*
X119440163Y-93601228D01*
X119440163Y-93601228D02*
X119416353Y-93577419D01*
X119416353Y-93577419D02*
X119368734Y-93553609D01*
X119368734Y-93553609D02*
X119249687Y-93553609D01*
X119249687Y-93553609D02*
X119178258Y-93577419D01*
X118678259Y-94005990D02*
X118702068Y-94029800D01*
X118702068Y-94029800D02*
X118773497Y-94053609D01*
X118773497Y-94053609D02*
X118821116Y-94053609D01*
X118821116Y-94053609D02*
X118892544Y-94029800D01*
X118892544Y-94029800D02*
X118940163Y-93982180D01*
X118940163Y-93982180D02*
X118963973Y-93934561D01*
X118963973Y-93934561D02*
X118987782Y-93839323D01*
X118987782Y-93839323D02*
X118987782Y-93767895D01*
X118987782Y-93767895D02*
X118963973Y-93672657D01*
X118963973Y-93672657D02*
X118940163Y-93625038D01*
X118940163Y-93625038D02*
X118892544Y-93577419D01*
X118892544Y-93577419D02*
X118821116Y-93553609D01*
X118821116Y-93553609D02*
X118773497Y-93553609D01*
X118773497Y-93553609D02*
X118702068Y-93577419D01*
X118702068Y-93577419D02*
X118678259Y-93601228D01*
X118225878Y-94053609D02*
X118463973Y-94053609D01*
X118463973Y-94053609D02*
X118463973Y-93553609D01*
X126653258Y-91589119D02*
X126700877Y-91565309D01*
X126700877Y-91565309D02*
X126772306Y-91565309D01*
X126772306Y-91565309D02*
X126843734Y-91589119D01*
X126843734Y-91589119D02*
X126891353Y-91636738D01*
X126891353Y-91636738D02*
X126915163Y-91684357D01*
X126915163Y-91684357D02*
X126938972Y-91779595D01*
X126938972Y-91779595D02*
X126938972Y-91851023D01*
X126938972Y-91851023D02*
X126915163Y-91946261D01*
X126915163Y-91946261D02*
X126891353Y-91993880D01*
X126891353Y-91993880D02*
X126843734Y-92041500D01*
X126843734Y-92041500D02*
X126772306Y-92065309D01*
X126772306Y-92065309D02*
X126724687Y-92065309D01*
X126724687Y-92065309D02*
X126653258Y-92041500D01*
X126653258Y-92041500D02*
X126629449Y-92017690D01*
X126629449Y-92017690D02*
X126629449Y-91851023D01*
X126629449Y-91851023D02*
X126724687Y-91851023D01*
X126415163Y-92065309D02*
X126415163Y-91565309D01*
X126415163Y-91565309D02*
X126129449Y-92065309D01*
X126129449Y-92065309D02*
X126129449Y-91565309D01*
X125891353Y-92065309D02*
X125891353Y-91565309D01*
X125891353Y-91565309D02*
X125772305Y-91565309D01*
X125772305Y-91565309D02*
X125700877Y-91589119D01*
X125700877Y-91589119D02*
X125653258Y-91636738D01*
X125653258Y-91636738D02*
X125629448Y-91684357D01*
X125629448Y-91684357D02*
X125605639Y-91779595D01*
X125605639Y-91779595D02*
X125605639Y-91851023D01*
X125605639Y-91851023D02*
X125629448Y-91946261D01*
X125629448Y-91946261D02*
X125653258Y-91993880D01*
X125653258Y-91993880D02*
X125700877Y-92041500D01*
X125700877Y-92041500D02*
X125772305Y-92065309D01*
X125772305Y-92065309D02*
X125891353Y-92065309D01*
X114153258Y-95957419D02*
X114200877Y-95933609D01*
X114200877Y-95933609D02*
X114272306Y-95933609D01*
X114272306Y-95933609D02*
X114343734Y-95957419D01*
X114343734Y-95957419D02*
X114391353Y-96005038D01*
X114391353Y-96005038D02*
X114415163Y-96052657D01*
X114415163Y-96052657D02*
X114438972Y-96147895D01*
X114438972Y-96147895D02*
X114438972Y-96219323D01*
X114438972Y-96219323D02*
X114415163Y-96314561D01*
X114415163Y-96314561D02*
X114391353Y-96362180D01*
X114391353Y-96362180D02*
X114343734Y-96409800D01*
X114343734Y-96409800D02*
X114272306Y-96433609D01*
X114272306Y-96433609D02*
X114224687Y-96433609D01*
X114224687Y-96433609D02*
X114153258Y-96409800D01*
X114153258Y-96409800D02*
X114129449Y-96385990D01*
X114129449Y-96385990D02*
X114129449Y-96219323D01*
X114129449Y-96219323D02*
X114224687Y-96219323D01*
X113915163Y-96433609D02*
X113915163Y-95933609D01*
X113915163Y-95933609D02*
X113629449Y-96433609D01*
X113629449Y-96433609D02*
X113629449Y-95933609D01*
X113391353Y-96433609D02*
X113391353Y-95933609D01*
X113391353Y-95933609D02*
X113272305Y-95933609D01*
X113272305Y-95933609D02*
X113200877Y-95957419D01*
X113200877Y-95957419D02*
X113153258Y-96005038D01*
X113153258Y-96005038D02*
X113129448Y-96052657D01*
X113129448Y-96052657D02*
X113105639Y-96147895D01*
X113105639Y-96147895D02*
X113105639Y-96219323D01*
X113105639Y-96219323D02*
X113129448Y-96314561D01*
X113129448Y-96314561D02*
X113153258Y-96362180D01*
X113153258Y-96362180D02*
X113200877Y-96409800D01*
X113200877Y-96409800D02*
X113272305Y-96433609D01*
X113272305Y-96433609D02*
X113391353Y-96433609D01*
X139738972Y-61490752D02*
X139500877Y-61490752D01*
X139786591Y-61633609D02*
X139619925Y-61133609D01*
X139619925Y-61133609D02*
X139453258Y-61633609D01*
X139191354Y-61133609D02*
X139143735Y-61133609D01*
X139143735Y-61133609D02*
X139096116Y-61157419D01*
X139096116Y-61157419D02*
X139072306Y-61181228D01*
X139072306Y-61181228D02*
X139048497Y-61228847D01*
X139048497Y-61228847D02*
X139024687Y-61324085D01*
X139024687Y-61324085D02*
X139024687Y-61443133D01*
X139024687Y-61443133D02*
X139048497Y-61538371D01*
X139048497Y-61538371D02*
X139072306Y-61585990D01*
X139072306Y-61585990D02*
X139096116Y-61609800D01*
X139096116Y-61609800D02*
X139143735Y-61633609D01*
X139143735Y-61633609D02*
X139191354Y-61633609D01*
X139191354Y-61633609D02*
X139238973Y-61609800D01*
X139238973Y-61609800D02*
X139262782Y-61585990D01*
X139262782Y-61585990D02*
X139286592Y-61538371D01*
X139286592Y-61538371D02*
X139310401Y-61443133D01*
X139310401Y-61443133D02*
X139310401Y-61324085D01*
X139310401Y-61324085D02*
X139286592Y-61228847D01*
X139286592Y-61228847D02*
X139262782Y-61181228D01*
X139262782Y-61181228D02*
X139238973Y-61157419D01*
X139238973Y-61157419D02*
X139191354Y-61133609D01*
X128238972Y-96792300D02*
X128167544Y-96816109D01*
X128167544Y-96816109D02*
X128048496Y-96816109D01*
X128048496Y-96816109D02*
X128000877Y-96792300D01*
X128000877Y-96792300D02*
X127977068Y-96768490D01*
X127977068Y-96768490D02*
X127953258Y-96720871D01*
X127953258Y-96720871D02*
X127953258Y-96673252D01*
X127953258Y-96673252D02*
X127977068Y-96625633D01*
X127977068Y-96625633D02*
X128000877Y-96601823D01*
X128000877Y-96601823D02*
X128048496Y-96578014D01*
X128048496Y-96578014D02*
X128143734Y-96554204D01*
X128143734Y-96554204D02*
X128191353Y-96530395D01*
X128191353Y-96530395D02*
X128215163Y-96506585D01*
X128215163Y-96506585D02*
X128238972Y-96458966D01*
X128238972Y-96458966D02*
X128238972Y-96411347D01*
X128238972Y-96411347D02*
X128215163Y-96363728D01*
X128215163Y-96363728D02*
X128191353Y-96339919D01*
X128191353Y-96339919D02*
X128143734Y-96316109D01*
X128143734Y-96316109D02*
X128024687Y-96316109D01*
X128024687Y-96316109D02*
X127953258Y-96339919D01*
X127453259Y-96768490D02*
X127477068Y-96792300D01*
X127477068Y-96792300D02*
X127548497Y-96816109D01*
X127548497Y-96816109D02*
X127596116Y-96816109D01*
X127596116Y-96816109D02*
X127667544Y-96792300D01*
X127667544Y-96792300D02*
X127715163Y-96744680D01*
X127715163Y-96744680D02*
X127738973Y-96697061D01*
X127738973Y-96697061D02*
X127762782Y-96601823D01*
X127762782Y-96601823D02*
X127762782Y-96530395D01*
X127762782Y-96530395D02*
X127738973Y-96435157D01*
X127738973Y-96435157D02*
X127715163Y-96387538D01*
X127715163Y-96387538D02*
X127667544Y-96339919D01*
X127667544Y-96339919D02*
X127596116Y-96316109D01*
X127596116Y-96316109D02*
X127548497Y-96316109D01*
X127548497Y-96316109D02*
X127477068Y-96339919D01*
X127477068Y-96339919D02*
X127453259Y-96363728D01*
X127000878Y-96816109D02*
X127238973Y-96816109D01*
X127238973Y-96816109D02*
X127238973Y-96316109D01*
X139953258Y-55957419D02*
X140000877Y-55933609D01*
X140000877Y-55933609D02*
X140072306Y-55933609D01*
X140072306Y-55933609D02*
X140143734Y-55957419D01*
X140143734Y-55957419D02*
X140191353Y-56005038D01*
X140191353Y-56005038D02*
X140215163Y-56052657D01*
X140215163Y-56052657D02*
X140238972Y-56147895D01*
X140238972Y-56147895D02*
X140238972Y-56219323D01*
X140238972Y-56219323D02*
X140215163Y-56314561D01*
X140215163Y-56314561D02*
X140191353Y-56362180D01*
X140191353Y-56362180D02*
X140143734Y-56409800D01*
X140143734Y-56409800D02*
X140072306Y-56433609D01*
X140072306Y-56433609D02*
X140024687Y-56433609D01*
X140024687Y-56433609D02*
X139953258Y-56409800D01*
X139953258Y-56409800D02*
X139929449Y-56385990D01*
X139929449Y-56385990D02*
X139929449Y-56219323D01*
X139929449Y-56219323D02*
X140024687Y-56219323D01*
X139715163Y-56433609D02*
X139715163Y-55933609D01*
X139715163Y-55933609D02*
X139429449Y-56433609D01*
X139429449Y-56433609D02*
X139429449Y-55933609D01*
X139191353Y-56433609D02*
X139191353Y-55933609D01*
X139191353Y-55933609D02*
X139072305Y-55933609D01*
X139072305Y-55933609D02*
X139000877Y-55957419D01*
X139000877Y-55957419D02*
X138953258Y-56005038D01*
X138953258Y-56005038D02*
X138929448Y-56052657D01*
X138929448Y-56052657D02*
X138905639Y-56147895D01*
X138905639Y-56147895D02*
X138905639Y-56219323D01*
X138905639Y-56219323D02*
X138929448Y-56314561D01*
X138929448Y-56314561D02*
X138953258Y-56362180D01*
X138953258Y-56362180D02*
X139000877Y-56409800D01*
X139000877Y-56409800D02*
X139072305Y-56433609D01*
X139072305Y-56433609D02*
X139191353Y-56433609D01*
X129215163Y-92065309D02*
X129215163Y-91565309D01*
X129215163Y-91565309D02*
X129096115Y-91565309D01*
X129096115Y-91565309D02*
X129024687Y-91589119D01*
X129024687Y-91589119D02*
X128977068Y-91636738D01*
X128977068Y-91636738D02*
X128953258Y-91684357D01*
X128953258Y-91684357D02*
X128929449Y-91779595D01*
X128929449Y-91779595D02*
X128929449Y-91851023D01*
X128929449Y-91851023D02*
X128953258Y-91946261D01*
X128953258Y-91946261D02*
X128977068Y-91993880D01*
X128977068Y-91993880D02*
X129024687Y-92041500D01*
X129024687Y-92041500D02*
X129096115Y-92065309D01*
X129096115Y-92065309D02*
X129215163Y-92065309D01*
X128500877Y-91731976D02*
X128500877Y-92065309D01*
X128619925Y-91541500D02*
X128738972Y-91898642D01*
X128738972Y-91898642D02*
X128429449Y-91898642D01*
X119327458Y-95957419D02*
X119375077Y-95933609D01*
X119375077Y-95933609D02*
X119446506Y-95933609D01*
X119446506Y-95933609D02*
X119517934Y-95957419D01*
X119517934Y-95957419D02*
X119565553Y-96005038D01*
X119565553Y-96005038D02*
X119589363Y-96052657D01*
X119589363Y-96052657D02*
X119613172Y-96147895D01*
X119613172Y-96147895D02*
X119613172Y-96219323D01*
X119613172Y-96219323D02*
X119589363Y-96314561D01*
X119589363Y-96314561D02*
X119565553Y-96362180D01*
X119565553Y-96362180D02*
X119517934Y-96409800D01*
X119517934Y-96409800D02*
X119446506Y-96433609D01*
X119446506Y-96433609D02*
X119398887Y-96433609D01*
X119398887Y-96433609D02*
X119327458Y-96409800D01*
X119327458Y-96409800D02*
X119303649Y-96385990D01*
X119303649Y-96385990D02*
X119303649Y-96219323D01*
X119303649Y-96219323D02*
X119398887Y-96219323D01*
X119089363Y-96433609D02*
X119089363Y-95933609D01*
X119089363Y-95933609D02*
X118803649Y-96433609D01*
X118803649Y-96433609D02*
X118803649Y-95933609D01*
X118565553Y-96433609D02*
X118565553Y-95933609D01*
X118565553Y-95933609D02*
X118446505Y-95933609D01*
X118446505Y-95933609D02*
X118375077Y-95957419D01*
X118375077Y-95957419D02*
X118327458Y-96005038D01*
X118327458Y-96005038D02*
X118303648Y-96052657D01*
X118303648Y-96052657D02*
X118279839Y-96147895D01*
X118279839Y-96147895D02*
X118279839Y-96219323D01*
X118279839Y-96219323D02*
X118303648Y-96314561D01*
X118303648Y-96314561D02*
X118327458Y-96362180D01*
X118327458Y-96362180D02*
X118375077Y-96409800D01*
X118375077Y-96409800D02*
X118446505Y-96433609D01*
X118446505Y-96433609D02*
X118565553Y-96433609D01*
X125677068Y-96333609D02*
X125915163Y-96333609D01*
X125915163Y-96333609D02*
X125938972Y-96571704D01*
X125938972Y-96571704D02*
X125915163Y-96547895D01*
X125915163Y-96547895D02*
X125867544Y-96524085D01*
X125867544Y-96524085D02*
X125748496Y-96524085D01*
X125748496Y-96524085D02*
X125700877Y-96547895D01*
X125700877Y-96547895D02*
X125677068Y-96571704D01*
X125677068Y-96571704D02*
X125653258Y-96619323D01*
X125653258Y-96619323D02*
X125653258Y-96738371D01*
X125653258Y-96738371D02*
X125677068Y-96785990D01*
X125677068Y-96785990D02*
X125700877Y-96809800D01*
X125700877Y-96809800D02*
X125748496Y-96833609D01*
X125748496Y-96833609D02*
X125867544Y-96833609D01*
X125867544Y-96833609D02*
X125915163Y-96809800D01*
X125915163Y-96809800D02*
X125938972Y-96785990D01*
X125510401Y-96333609D02*
X125343735Y-96833609D01*
X125343735Y-96833609D02*
X125177068Y-96333609D01*
X119462782Y-98733609D02*
X119153258Y-98733609D01*
X119153258Y-98733609D02*
X119319925Y-98924085D01*
X119319925Y-98924085D02*
X119248496Y-98924085D01*
X119248496Y-98924085D02*
X119200877Y-98947895D01*
X119200877Y-98947895D02*
X119177068Y-98971704D01*
X119177068Y-98971704D02*
X119153258Y-99019323D01*
X119153258Y-99019323D02*
X119153258Y-99138371D01*
X119153258Y-99138371D02*
X119177068Y-99185990D01*
X119177068Y-99185990D02*
X119200877Y-99209800D01*
X119200877Y-99209800D02*
X119248496Y-99233609D01*
X119248496Y-99233609D02*
X119391353Y-99233609D01*
X119391353Y-99233609D02*
X119438972Y-99209800D01*
X119438972Y-99209800D02*
X119462782Y-99185990D01*
X118938973Y-99185990D02*
X118915163Y-99209800D01*
X118915163Y-99209800D02*
X118938973Y-99233609D01*
X118938973Y-99233609D02*
X118962782Y-99209800D01*
X118962782Y-99209800D02*
X118938973Y-99185990D01*
X118938973Y-99185990D02*
X118938973Y-99233609D01*
X118748497Y-98733609D02*
X118438973Y-98733609D01*
X118438973Y-98733609D02*
X118605640Y-98924085D01*
X118605640Y-98924085D02*
X118534211Y-98924085D01*
X118534211Y-98924085D02*
X118486592Y-98947895D01*
X118486592Y-98947895D02*
X118462783Y-98971704D01*
X118462783Y-98971704D02*
X118438973Y-99019323D01*
X118438973Y-99019323D02*
X118438973Y-99138371D01*
X118438973Y-99138371D02*
X118462783Y-99185990D01*
X118462783Y-99185990D02*
X118486592Y-99209800D01*
X118486592Y-99209800D02*
X118534211Y-99233609D01*
X118534211Y-99233609D02*
X118677068Y-99233609D01*
X118677068Y-99233609D02*
X118724687Y-99209800D01*
X118724687Y-99209800D02*
X118748497Y-99185990D01*
X118296116Y-98733609D02*
X118129450Y-99233609D01*
X118129450Y-99233609D02*
X117962783Y-98733609D01*
X131715163Y-92116109D02*
X131715163Y-91616109D01*
X131715163Y-91616109D02*
X131596115Y-91616109D01*
X131596115Y-91616109D02*
X131524687Y-91639919D01*
X131524687Y-91639919D02*
X131477068Y-91687538D01*
X131477068Y-91687538D02*
X131453258Y-91735157D01*
X131453258Y-91735157D02*
X131429449Y-91830395D01*
X131429449Y-91830395D02*
X131429449Y-91901823D01*
X131429449Y-91901823D02*
X131453258Y-91997061D01*
X131453258Y-91997061D02*
X131477068Y-92044680D01*
X131477068Y-92044680D02*
X131524687Y-92092300D01*
X131524687Y-92092300D02*
X131596115Y-92116109D01*
X131596115Y-92116109D02*
X131715163Y-92116109D01*
X131262782Y-91616109D02*
X130953258Y-91616109D01*
X130953258Y-91616109D02*
X131119925Y-91806585D01*
X131119925Y-91806585D02*
X131048496Y-91806585D01*
X131048496Y-91806585D02*
X131000877Y-91830395D01*
X131000877Y-91830395D02*
X130977068Y-91854204D01*
X130977068Y-91854204D02*
X130953258Y-91901823D01*
X130953258Y-91901823D02*
X130953258Y-92020871D01*
X130953258Y-92020871D02*
X130977068Y-92068490D01*
X130977068Y-92068490D02*
X131000877Y-92092300D01*
X131000877Y-92092300D02*
X131048496Y-92116109D01*
X131048496Y-92116109D02*
X131191353Y-92116109D01*
X131191353Y-92116109D02*
X131238972Y-92092300D01*
X131238972Y-92092300D02*
X131262782Y-92068490D01*
X125827068Y-56433609D02*
X126065163Y-56433609D01*
X126065163Y-56433609D02*
X126088972Y-56671704D01*
X126088972Y-56671704D02*
X126065163Y-56647895D01*
X126065163Y-56647895D02*
X126017544Y-56624085D01*
X126017544Y-56624085D02*
X125898496Y-56624085D01*
X125898496Y-56624085D02*
X125850877Y-56647895D01*
X125850877Y-56647895D02*
X125827068Y-56671704D01*
X125827068Y-56671704D02*
X125803258Y-56719323D01*
X125803258Y-56719323D02*
X125803258Y-56838371D01*
X125803258Y-56838371D02*
X125827068Y-56885990D01*
X125827068Y-56885990D02*
X125850877Y-56909800D01*
X125850877Y-56909800D02*
X125898496Y-56933609D01*
X125898496Y-56933609D02*
X126017544Y-56933609D01*
X126017544Y-56933609D02*
X126065163Y-56909800D01*
X126065163Y-56909800D02*
X126088972Y-56885990D01*
X125636592Y-56600276D02*
X125517544Y-56933609D01*
X125517544Y-56933609D02*
X125398497Y-56600276D01*
D11*
X127109523Y-73218295D02*
X127109523Y-72418295D01*
X127109523Y-72418295D02*
X126842857Y-72989723D01*
X126842857Y-72989723D02*
X126576190Y-72418295D01*
X126576190Y-72418295D02*
X126576190Y-73218295D01*
X125890475Y-73180200D02*
X125966666Y-73218295D01*
X125966666Y-73218295D02*
X126119047Y-73218295D01*
X126119047Y-73218295D02*
X126195237Y-73180200D01*
X126195237Y-73180200D02*
X126233333Y-73104009D01*
X126233333Y-73104009D02*
X126233333Y-72799247D01*
X126233333Y-72799247D02*
X126195237Y-72723057D01*
X126195237Y-72723057D02*
X126119047Y-72684961D01*
X126119047Y-72684961D02*
X125966666Y-72684961D01*
X125966666Y-72684961D02*
X125890475Y-72723057D01*
X125890475Y-72723057D02*
X125852380Y-72799247D01*
X125852380Y-72799247D02*
X125852380Y-72875438D01*
X125852380Y-72875438D02*
X126233333Y-72951628D01*
X125623809Y-72684961D02*
X125319047Y-72684961D01*
X125509523Y-72418295D02*
X125509523Y-73104009D01*
X125509523Y-73104009D02*
X125471428Y-73180200D01*
X125471428Y-73180200D02*
X125395238Y-73218295D01*
X125395238Y-73218295D02*
X125319047Y-73218295D01*
X124747618Y-73180200D02*
X124823809Y-73218295D01*
X124823809Y-73218295D02*
X124976190Y-73218295D01*
X124976190Y-73218295D02*
X125052380Y-73180200D01*
X125052380Y-73180200D02*
X125090476Y-73104009D01*
X125090476Y-73104009D02*
X125090476Y-72799247D01*
X125090476Y-72799247D02*
X125052380Y-72723057D01*
X125052380Y-72723057D02*
X124976190Y-72684961D01*
X124976190Y-72684961D02*
X124823809Y-72684961D01*
X124823809Y-72684961D02*
X124747618Y-72723057D01*
X124747618Y-72723057D02*
X124709523Y-72799247D01*
X124709523Y-72799247D02*
X124709523Y-72875438D01*
X124709523Y-72875438D02*
X125090476Y-72951628D01*
X124252381Y-73218295D02*
X124328571Y-73180200D01*
X124328571Y-73180200D02*
X124366666Y-73142104D01*
X124366666Y-73142104D02*
X124404762Y-73065914D01*
X124404762Y-73065914D02*
X124404762Y-72837342D01*
X124404762Y-72837342D02*
X124366666Y-72761152D01*
X124366666Y-72761152D02*
X124328571Y-72723057D01*
X124328571Y-72723057D02*
X124252381Y-72684961D01*
X124252381Y-72684961D02*
X124138095Y-72684961D01*
X124138095Y-72684961D02*
X124061904Y-72723057D01*
X124061904Y-72723057D02*
X124023809Y-72761152D01*
X124023809Y-72761152D02*
X123985714Y-72837342D01*
X123985714Y-72837342D02*
X123985714Y-73065914D01*
X123985714Y-73065914D02*
X124023809Y-73142104D01*
X124023809Y-73142104D02*
X124061904Y-73180200D01*
X124061904Y-73180200D02*
X124138095Y-73218295D01*
X124138095Y-73218295D02*
X124252381Y-73218295D01*
X123642856Y-73218295D02*
X123642856Y-72418295D01*
X123642856Y-72799247D02*
X123185713Y-72799247D01*
X123185713Y-73218295D02*
X123185713Y-72418295D01*
X122690476Y-73218295D02*
X122766666Y-73180200D01*
X122766666Y-73180200D02*
X122804761Y-73142104D01*
X122804761Y-73142104D02*
X122842857Y-73065914D01*
X122842857Y-73065914D02*
X122842857Y-72837342D01*
X122842857Y-72837342D02*
X122804761Y-72761152D01*
X122804761Y-72761152D02*
X122766666Y-72723057D01*
X122766666Y-72723057D02*
X122690476Y-72684961D01*
X122690476Y-72684961D02*
X122576190Y-72684961D01*
X122576190Y-72684961D02*
X122499999Y-72723057D01*
X122499999Y-72723057D02*
X122461904Y-72761152D01*
X122461904Y-72761152D02*
X122423809Y-72837342D01*
X122423809Y-72837342D02*
X122423809Y-73065914D01*
X122423809Y-73065914D02*
X122461904Y-73142104D01*
X122461904Y-73142104D02*
X122499999Y-73180200D01*
X122499999Y-73180200D02*
X122576190Y-73218295D01*
X122576190Y-73218295D02*
X122690476Y-73218295D01*
X122080951Y-73218295D02*
X122080951Y-72684961D01*
X122080951Y-72761152D02*
X122042856Y-72723057D01*
X122042856Y-72723057D02*
X121966666Y-72684961D01*
X121966666Y-72684961D02*
X121852380Y-72684961D01*
X121852380Y-72684961D02*
X121776189Y-72723057D01*
X121776189Y-72723057D02*
X121738094Y-72799247D01*
X121738094Y-72799247D02*
X121738094Y-73218295D01*
X121738094Y-72799247D02*
X121699999Y-72723057D01*
X121699999Y-72723057D02*
X121623808Y-72684961D01*
X121623808Y-72684961D02*
X121509523Y-72684961D01*
X121509523Y-72684961D02*
X121433332Y-72723057D01*
X121433332Y-72723057D02*
X121395237Y-72799247D01*
X121395237Y-72799247D02*
X121395237Y-73218295D01*
X120709522Y-73180200D02*
X120785713Y-73218295D01*
X120785713Y-73218295D02*
X120938094Y-73218295D01*
X120938094Y-73218295D02*
X121014284Y-73180200D01*
X121014284Y-73180200D02*
X121052380Y-73104009D01*
X121052380Y-73104009D02*
X121052380Y-72799247D01*
X121052380Y-72799247D02*
X121014284Y-72723057D01*
X121014284Y-72723057D02*
X120938094Y-72684961D01*
X120938094Y-72684961D02*
X120785713Y-72684961D01*
X120785713Y-72684961D02*
X120709522Y-72723057D01*
X120709522Y-72723057D02*
X120671427Y-72799247D01*
X120671427Y-72799247D02*
X120671427Y-72875438D01*
X120671427Y-72875438D02*
X121052380Y-72951628D01*
X119261903Y-73218295D02*
X119528570Y-72837342D01*
X119719046Y-73218295D02*
X119719046Y-72418295D01*
X119719046Y-72418295D02*
X119414284Y-72418295D01*
X119414284Y-72418295D02*
X119338094Y-72456390D01*
X119338094Y-72456390D02*
X119299999Y-72494485D01*
X119299999Y-72494485D02*
X119261903Y-72570676D01*
X119261903Y-72570676D02*
X119261903Y-72684961D01*
X119261903Y-72684961D02*
X119299999Y-72761152D01*
X119299999Y-72761152D02*
X119338094Y-72799247D01*
X119338094Y-72799247D02*
X119414284Y-72837342D01*
X119414284Y-72837342D02*
X119719046Y-72837342D01*
X118614284Y-73180200D02*
X118690475Y-73218295D01*
X118690475Y-73218295D02*
X118842856Y-73218295D01*
X118842856Y-73218295D02*
X118919046Y-73180200D01*
X118919046Y-73180200D02*
X118957142Y-73104009D01*
X118957142Y-73104009D02*
X118957142Y-72799247D01*
X118957142Y-72799247D02*
X118919046Y-72723057D01*
X118919046Y-72723057D02*
X118842856Y-72684961D01*
X118842856Y-72684961D02*
X118690475Y-72684961D01*
X118690475Y-72684961D02*
X118614284Y-72723057D01*
X118614284Y-72723057D02*
X118576189Y-72799247D01*
X118576189Y-72799247D02*
X118576189Y-72875438D01*
X118576189Y-72875438D02*
X118957142Y-72951628D01*
X118309523Y-72684961D02*
X118119047Y-73218295D01*
X118119047Y-73218295D02*
X117928570Y-72684961D01*
X117052380Y-72494485D02*
X117014284Y-72456390D01*
X117014284Y-72456390D02*
X116938094Y-72418295D01*
X116938094Y-72418295D02*
X116747618Y-72418295D01*
X116747618Y-72418295D02*
X116671427Y-72456390D01*
X116671427Y-72456390D02*
X116633332Y-72494485D01*
X116633332Y-72494485D02*
X116595237Y-72570676D01*
X116595237Y-72570676D02*
X116595237Y-72646866D01*
X116595237Y-72646866D02*
X116633332Y-72761152D01*
X116633332Y-72761152D02*
X117090475Y-73218295D01*
X117090475Y-73218295D02*
X116595237Y-73218295D01*
X116252379Y-73142104D02*
X116214284Y-73180200D01*
X116214284Y-73180200D02*
X116252379Y-73218295D01*
X116252379Y-73218295D02*
X116290475Y-73180200D01*
X116290475Y-73180200D02*
X116252379Y-73142104D01*
X116252379Y-73142104D02*
X116252379Y-73218295D01*
X115719046Y-72418295D02*
X115642856Y-72418295D01*
X115642856Y-72418295D02*
X115566665Y-72456390D01*
X115566665Y-72456390D02*
X115528570Y-72494485D01*
X115528570Y-72494485D02*
X115490475Y-72570676D01*
X115490475Y-72570676D02*
X115452380Y-72723057D01*
X115452380Y-72723057D02*
X115452380Y-72913533D01*
X115452380Y-72913533D02*
X115490475Y-73065914D01*
X115490475Y-73065914D02*
X115528570Y-73142104D01*
X115528570Y-73142104D02*
X115566665Y-73180200D01*
X115566665Y-73180200D02*
X115642856Y-73218295D01*
X115642856Y-73218295D02*
X115719046Y-73218295D01*
X115719046Y-73218295D02*
X115795237Y-73180200D01*
X115795237Y-73180200D02*
X115833332Y-73142104D01*
X115833332Y-73142104D02*
X115871427Y-73065914D01*
X115871427Y-73065914D02*
X115909523Y-72913533D01*
X115909523Y-72913533D02*
X115909523Y-72723057D01*
X115909523Y-72723057D02*
X115871427Y-72570676D01*
X115871427Y-72570676D02*
X115833332Y-72494485D01*
X115833332Y-72494485D02*
X115795237Y-72456390D01*
X115795237Y-72456390D02*
X115719046Y-72418295D01*
X135014287Y-74506295D02*
X135014287Y-73706295D01*
X134671430Y-74506295D02*
X134671430Y-74087247D01*
X134671430Y-74087247D02*
X134709525Y-74011057D01*
X134709525Y-74011057D02*
X134785716Y-73972961D01*
X134785716Y-73972961D02*
X134900002Y-73972961D01*
X134900002Y-73972961D02*
X134976192Y-74011057D01*
X134976192Y-74011057D02*
X135014287Y-74049152D01*
X134404763Y-73972961D02*
X134100001Y-73972961D01*
X134290477Y-73706295D02*
X134290477Y-74392009D01*
X134290477Y-74392009D02*
X134252382Y-74468200D01*
X134252382Y-74468200D02*
X134176192Y-74506295D01*
X134176192Y-74506295D02*
X134100001Y-74506295D01*
X133947620Y-73972961D02*
X133642858Y-73972961D01*
X133833334Y-73706295D02*
X133833334Y-74392009D01*
X133833334Y-74392009D02*
X133795239Y-74468200D01*
X133795239Y-74468200D02*
X133719049Y-74506295D01*
X133719049Y-74506295D02*
X133642858Y-74506295D01*
X133376191Y-73972961D02*
X133376191Y-74772961D01*
X133376191Y-74011057D02*
X133300001Y-73972961D01*
X133300001Y-73972961D02*
X133147620Y-73972961D01*
X133147620Y-73972961D02*
X133071429Y-74011057D01*
X133071429Y-74011057D02*
X133033334Y-74049152D01*
X133033334Y-74049152D02*
X132995239Y-74125342D01*
X132995239Y-74125342D02*
X132995239Y-74353914D01*
X132995239Y-74353914D02*
X133033334Y-74430104D01*
X133033334Y-74430104D02*
X133071429Y-74468200D01*
X133071429Y-74468200D02*
X133147620Y-74506295D01*
X133147620Y-74506295D02*
X133300001Y-74506295D01*
X133300001Y-74506295D02*
X133376191Y-74468200D01*
X132690477Y-74468200D02*
X132614286Y-74506295D01*
X132614286Y-74506295D02*
X132461905Y-74506295D01*
X132461905Y-74506295D02*
X132385715Y-74468200D01*
X132385715Y-74468200D02*
X132347619Y-74392009D01*
X132347619Y-74392009D02*
X132347619Y-74353914D01*
X132347619Y-74353914D02*
X132385715Y-74277723D01*
X132385715Y-74277723D02*
X132461905Y-74239628D01*
X132461905Y-74239628D02*
X132576191Y-74239628D01*
X132576191Y-74239628D02*
X132652381Y-74201533D01*
X132652381Y-74201533D02*
X132690477Y-74125342D01*
X132690477Y-74125342D02*
X132690477Y-74087247D01*
X132690477Y-74087247D02*
X132652381Y-74011057D01*
X132652381Y-74011057D02*
X132576191Y-73972961D01*
X132576191Y-73972961D02*
X132461905Y-73972961D01*
X132461905Y-73972961D02*
X132385715Y-74011057D01*
X132004762Y-74430104D02*
X131966667Y-74468200D01*
X131966667Y-74468200D02*
X132004762Y-74506295D01*
X132004762Y-74506295D02*
X132042858Y-74468200D01*
X132042858Y-74468200D02*
X132004762Y-74430104D01*
X132004762Y-74430104D02*
X132004762Y-74506295D01*
X132004762Y-74011057D02*
X131966667Y-74049152D01*
X131966667Y-74049152D02*
X132004762Y-74087247D01*
X132004762Y-74087247D02*
X132042858Y-74049152D01*
X132042858Y-74049152D02*
X132004762Y-74011057D01*
X132004762Y-74011057D02*
X132004762Y-74087247D01*
X131052382Y-73668200D02*
X131738096Y-74696771D01*
X130214287Y-73668200D02*
X130900001Y-74696771D01*
X129604763Y-73972961D02*
X129604763Y-74620580D01*
X129604763Y-74620580D02*
X129642858Y-74696771D01*
X129642858Y-74696771D02*
X129680954Y-74734866D01*
X129680954Y-74734866D02*
X129757144Y-74772961D01*
X129757144Y-74772961D02*
X129871430Y-74772961D01*
X129871430Y-74772961D02*
X129947620Y-74734866D01*
X129604763Y-74468200D02*
X129680954Y-74506295D01*
X129680954Y-74506295D02*
X129833335Y-74506295D01*
X129833335Y-74506295D02*
X129909525Y-74468200D01*
X129909525Y-74468200D02*
X129947620Y-74430104D01*
X129947620Y-74430104D02*
X129985716Y-74353914D01*
X129985716Y-74353914D02*
X129985716Y-74125342D01*
X129985716Y-74125342D02*
X129947620Y-74049152D01*
X129947620Y-74049152D02*
X129909525Y-74011057D01*
X129909525Y-74011057D02*
X129833335Y-73972961D01*
X129833335Y-73972961D02*
X129680954Y-73972961D01*
X129680954Y-73972961D02*
X129604763Y-74011057D01*
X129223810Y-74506295D02*
X129223810Y-73972961D01*
X129223810Y-73706295D02*
X129261906Y-73744390D01*
X129261906Y-73744390D02*
X129223810Y-73782485D01*
X129223810Y-73782485D02*
X129185715Y-73744390D01*
X129185715Y-73744390D02*
X129223810Y-73706295D01*
X129223810Y-73706295D02*
X129223810Y-73782485D01*
X128957144Y-73972961D02*
X128652382Y-73972961D01*
X128842858Y-73706295D02*
X128842858Y-74392009D01*
X128842858Y-74392009D02*
X128804763Y-74468200D01*
X128804763Y-74468200D02*
X128728573Y-74506295D01*
X128728573Y-74506295D02*
X128652382Y-74506295D01*
X128385715Y-74506295D02*
X128385715Y-73706295D01*
X128042858Y-74506295D02*
X128042858Y-74087247D01*
X128042858Y-74087247D02*
X128080953Y-74011057D01*
X128080953Y-74011057D02*
X128157144Y-73972961D01*
X128157144Y-73972961D02*
X128271430Y-73972961D01*
X128271430Y-73972961D02*
X128347620Y-74011057D01*
X128347620Y-74011057D02*
X128385715Y-74049152D01*
X127319048Y-73972961D02*
X127319048Y-74506295D01*
X127661905Y-73972961D02*
X127661905Y-74392009D01*
X127661905Y-74392009D02*
X127623810Y-74468200D01*
X127623810Y-74468200D02*
X127547620Y-74506295D01*
X127547620Y-74506295D02*
X127433334Y-74506295D01*
X127433334Y-74506295D02*
X127357143Y-74468200D01*
X127357143Y-74468200D02*
X127319048Y-74430104D01*
X126938095Y-74506295D02*
X126938095Y-73706295D01*
X126938095Y-74011057D02*
X126861905Y-73972961D01*
X126861905Y-73972961D02*
X126709524Y-73972961D01*
X126709524Y-73972961D02*
X126633333Y-74011057D01*
X126633333Y-74011057D02*
X126595238Y-74049152D01*
X126595238Y-74049152D02*
X126557143Y-74125342D01*
X126557143Y-74125342D02*
X126557143Y-74353914D01*
X126557143Y-74353914D02*
X126595238Y-74430104D01*
X126595238Y-74430104D02*
X126633333Y-74468200D01*
X126633333Y-74468200D02*
X126709524Y-74506295D01*
X126709524Y-74506295D02*
X126861905Y-74506295D01*
X126861905Y-74506295D02*
X126938095Y-74468200D01*
X126214285Y-74430104D02*
X126176190Y-74468200D01*
X126176190Y-74468200D02*
X126214285Y-74506295D01*
X126214285Y-74506295D02*
X126252381Y-74468200D01*
X126252381Y-74468200D02*
X126214285Y-74430104D01*
X126214285Y-74430104D02*
X126214285Y-74506295D01*
X125490476Y-74468200D02*
X125566667Y-74506295D01*
X125566667Y-74506295D02*
X125719048Y-74506295D01*
X125719048Y-74506295D02*
X125795238Y-74468200D01*
X125795238Y-74468200D02*
X125833333Y-74430104D01*
X125833333Y-74430104D02*
X125871429Y-74353914D01*
X125871429Y-74353914D02*
X125871429Y-74125342D01*
X125871429Y-74125342D02*
X125833333Y-74049152D01*
X125833333Y-74049152D02*
X125795238Y-74011057D01*
X125795238Y-74011057D02*
X125719048Y-73972961D01*
X125719048Y-73972961D02*
X125566667Y-73972961D01*
X125566667Y-73972961D02*
X125490476Y-74011057D01*
X125033334Y-74506295D02*
X125109524Y-74468200D01*
X125109524Y-74468200D02*
X125147619Y-74430104D01*
X125147619Y-74430104D02*
X125185715Y-74353914D01*
X125185715Y-74353914D02*
X125185715Y-74125342D01*
X125185715Y-74125342D02*
X125147619Y-74049152D01*
X125147619Y-74049152D02*
X125109524Y-74011057D01*
X125109524Y-74011057D02*
X125033334Y-73972961D01*
X125033334Y-73972961D02*
X124919048Y-73972961D01*
X124919048Y-73972961D02*
X124842857Y-74011057D01*
X124842857Y-74011057D02*
X124804762Y-74049152D01*
X124804762Y-74049152D02*
X124766667Y-74125342D01*
X124766667Y-74125342D02*
X124766667Y-74353914D01*
X124766667Y-74353914D02*
X124804762Y-74430104D01*
X124804762Y-74430104D02*
X124842857Y-74468200D01*
X124842857Y-74468200D02*
X124919048Y-74506295D01*
X124919048Y-74506295D02*
X125033334Y-74506295D01*
X124423809Y-74506295D02*
X124423809Y-73972961D01*
X124423809Y-74049152D02*
X124385714Y-74011057D01*
X124385714Y-74011057D02*
X124309524Y-73972961D01*
X124309524Y-73972961D02*
X124195238Y-73972961D01*
X124195238Y-73972961D02*
X124119047Y-74011057D01*
X124119047Y-74011057D02*
X124080952Y-74087247D01*
X124080952Y-74087247D02*
X124080952Y-74506295D01*
X124080952Y-74087247D02*
X124042857Y-74011057D01*
X124042857Y-74011057D02*
X123966666Y-73972961D01*
X123966666Y-73972961D02*
X123852381Y-73972961D01*
X123852381Y-73972961D02*
X123776190Y-74011057D01*
X123776190Y-74011057D02*
X123738095Y-74087247D01*
X123738095Y-74087247D02*
X123738095Y-74506295D01*
X122785714Y-73668200D02*
X123471428Y-74696771D01*
X122176190Y-74506295D02*
X122176190Y-73706295D01*
X122176190Y-74468200D02*
X122252381Y-74506295D01*
X122252381Y-74506295D02*
X122404762Y-74506295D01*
X122404762Y-74506295D02*
X122480952Y-74468200D01*
X122480952Y-74468200D02*
X122519047Y-74430104D01*
X122519047Y-74430104D02*
X122557143Y-74353914D01*
X122557143Y-74353914D02*
X122557143Y-74125342D01*
X122557143Y-74125342D02*
X122519047Y-74049152D01*
X122519047Y-74049152D02*
X122480952Y-74011057D01*
X122480952Y-74011057D02*
X122404762Y-73972961D01*
X122404762Y-73972961D02*
X122252381Y-73972961D01*
X122252381Y-73972961D02*
X122176190Y-74011057D01*
X121490475Y-74468200D02*
X121566666Y-74506295D01*
X121566666Y-74506295D02*
X121719047Y-74506295D01*
X121719047Y-74506295D02*
X121795237Y-74468200D01*
X121795237Y-74468200D02*
X121833333Y-74392009D01*
X121833333Y-74392009D02*
X121833333Y-74087247D01*
X121833333Y-74087247D02*
X121795237Y-74011057D01*
X121795237Y-74011057D02*
X121719047Y-73972961D01*
X121719047Y-73972961D02*
X121566666Y-73972961D01*
X121566666Y-73972961D02*
X121490475Y-74011057D01*
X121490475Y-74011057D02*
X121452380Y-74087247D01*
X121452380Y-74087247D02*
X121452380Y-74163438D01*
X121452380Y-74163438D02*
X121833333Y-74239628D01*
X120766666Y-73972961D02*
X120766666Y-74506295D01*
X121109523Y-73972961D02*
X121109523Y-74392009D01*
X121109523Y-74392009D02*
X121071428Y-74468200D01*
X121071428Y-74468200D02*
X120995238Y-74506295D01*
X120995238Y-74506295D02*
X120880952Y-74506295D01*
X120880952Y-74506295D02*
X120804761Y-74468200D01*
X120804761Y-74468200D02*
X120766666Y-74430104D01*
X120499999Y-73972961D02*
X120195237Y-73972961D01*
X120385713Y-73706295D02*
X120385713Y-74392009D01*
X120385713Y-74392009D02*
X120347618Y-74468200D01*
X120347618Y-74468200D02*
X120271428Y-74506295D01*
X120271428Y-74506295D02*
X120195237Y-74506295D01*
X119623808Y-74468200D02*
X119699999Y-74506295D01*
X119699999Y-74506295D02*
X119852380Y-74506295D01*
X119852380Y-74506295D02*
X119928570Y-74468200D01*
X119928570Y-74468200D02*
X119966666Y-74392009D01*
X119966666Y-74392009D02*
X119966666Y-74087247D01*
X119966666Y-74087247D02*
X119928570Y-74011057D01*
X119928570Y-74011057D02*
X119852380Y-73972961D01*
X119852380Y-73972961D02*
X119699999Y-73972961D01*
X119699999Y-73972961D02*
X119623808Y-74011057D01*
X119623808Y-74011057D02*
X119585713Y-74087247D01*
X119585713Y-74087247D02*
X119585713Y-74163438D01*
X119585713Y-74163438D02*
X119966666Y-74239628D01*
X119242856Y-74506295D02*
X119242856Y-73972961D01*
X119242856Y-74125342D02*
X119204761Y-74049152D01*
X119204761Y-74049152D02*
X119166666Y-74011057D01*
X119166666Y-74011057D02*
X119090475Y-73972961D01*
X119090475Y-73972961D02*
X119014285Y-73972961D01*
X118633333Y-74506295D02*
X118709523Y-74468200D01*
X118709523Y-74468200D02*
X118747618Y-74430104D01*
X118747618Y-74430104D02*
X118785714Y-74353914D01*
X118785714Y-74353914D02*
X118785714Y-74125342D01*
X118785714Y-74125342D02*
X118747618Y-74049152D01*
X118747618Y-74049152D02*
X118709523Y-74011057D01*
X118709523Y-74011057D02*
X118633333Y-73972961D01*
X118633333Y-73972961D02*
X118519047Y-73972961D01*
X118519047Y-73972961D02*
X118442856Y-74011057D01*
X118442856Y-74011057D02*
X118404761Y-74049152D01*
X118404761Y-74049152D02*
X118366666Y-74125342D01*
X118366666Y-74125342D02*
X118366666Y-74353914D01*
X118366666Y-74353914D02*
X118404761Y-74430104D01*
X118404761Y-74430104D02*
X118442856Y-74468200D01*
X118442856Y-74468200D02*
X118519047Y-74506295D01*
X118519047Y-74506295D02*
X118633333Y-74506295D01*
X118061904Y-74468200D02*
X117985713Y-74506295D01*
X117985713Y-74506295D02*
X117833332Y-74506295D01*
X117833332Y-74506295D02*
X117757142Y-74468200D01*
X117757142Y-74468200D02*
X117719046Y-74392009D01*
X117719046Y-74392009D02*
X117719046Y-74353914D01*
X117719046Y-74353914D02*
X117757142Y-74277723D01*
X117757142Y-74277723D02*
X117833332Y-74239628D01*
X117833332Y-74239628D02*
X117947618Y-74239628D01*
X117947618Y-74239628D02*
X118023808Y-74201533D01*
X118023808Y-74201533D02*
X118061904Y-74125342D01*
X118061904Y-74125342D02*
X118061904Y-74087247D01*
X118061904Y-74087247D02*
X118023808Y-74011057D01*
X118023808Y-74011057D02*
X117947618Y-73972961D01*
X117947618Y-73972961D02*
X117833332Y-73972961D01*
X117833332Y-73972961D02*
X117757142Y-74011057D01*
X117452380Y-73706295D02*
X116919046Y-73706295D01*
X116919046Y-73706295D02*
X117261904Y-74506295D01*
X116271427Y-73706295D02*
X116423808Y-73706295D01*
X116423808Y-73706295D02*
X116499999Y-73744390D01*
X116499999Y-73744390D02*
X116538094Y-73782485D01*
X116538094Y-73782485D02*
X116614284Y-73896771D01*
X116614284Y-73896771D02*
X116652380Y-74049152D01*
X116652380Y-74049152D02*
X116652380Y-74353914D01*
X116652380Y-74353914D02*
X116614284Y-74430104D01*
X116614284Y-74430104D02*
X116576189Y-74468200D01*
X116576189Y-74468200D02*
X116499999Y-74506295D01*
X116499999Y-74506295D02*
X116347618Y-74506295D01*
X116347618Y-74506295D02*
X116271427Y-74468200D01*
X116271427Y-74468200D02*
X116233332Y-74430104D01*
X116233332Y-74430104D02*
X116195237Y-74353914D01*
X116195237Y-74353914D02*
X116195237Y-74163438D01*
X116195237Y-74163438D02*
X116233332Y-74087247D01*
X116233332Y-74087247D02*
X116271427Y-74049152D01*
X116271427Y-74049152D02*
X116347618Y-74011057D01*
X116347618Y-74011057D02*
X116499999Y-74011057D01*
X116499999Y-74011057D02*
X116576189Y-74049152D01*
X116576189Y-74049152D02*
X116614284Y-74087247D01*
X116614284Y-74087247D02*
X116652380Y-74163438D01*
X115280951Y-73668200D02*
X115966665Y-74696771D01*
X115014284Y-74506295D02*
X115014284Y-73972961D01*
X115014284Y-74049152D02*
X114976189Y-74011057D01*
X114976189Y-74011057D02*
X114899999Y-73972961D01*
X114899999Y-73972961D02*
X114785713Y-73972961D01*
X114785713Y-73972961D02*
X114709522Y-74011057D01*
X114709522Y-74011057D02*
X114671427Y-74087247D01*
X114671427Y-74087247D02*
X114671427Y-74506295D01*
X114671427Y-74087247D02*
X114633332Y-74011057D01*
X114633332Y-74011057D02*
X114557141Y-73972961D01*
X114557141Y-73972961D02*
X114442856Y-73972961D01*
X114442856Y-73972961D02*
X114366665Y-74011057D01*
X114366665Y-74011057D02*
X114328570Y-74087247D01*
X114328570Y-74087247D02*
X114328570Y-74506295D01*
X113642855Y-74468200D02*
X113719046Y-74506295D01*
X113719046Y-74506295D02*
X113871427Y-74506295D01*
X113871427Y-74506295D02*
X113947617Y-74468200D01*
X113947617Y-74468200D02*
X113985713Y-74392009D01*
X113985713Y-74392009D02*
X113985713Y-74087247D01*
X113985713Y-74087247D02*
X113947617Y-74011057D01*
X113947617Y-74011057D02*
X113871427Y-73972961D01*
X113871427Y-73972961D02*
X113719046Y-73972961D01*
X113719046Y-73972961D02*
X113642855Y-74011057D01*
X113642855Y-74011057D02*
X113604760Y-74087247D01*
X113604760Y-74087247D02*
X113604760Y-74163438D01*
X113604760Y-74163438D02*
X113985713Y-74239628D01*
X113376189Y-73972961D02*
X113071427Y-73972961D01*
X113261903Y-73706295D02*
X113261903Y-74392009D01*
X113261903Y-74392009D02*
X113223808Y-74468200D01*
X113223808Y-74468200D02*
X113147618Y-74506295D01*
X113147618Y-74506295D02*
X113071427Y-74506295D01*
X112499998Y-74468200D02*
X112576189Y-74506295D01*
X112576189Y-74506295D02*
X112728570Y-74506295D01*
X112728570Y-74506295D02*
X112804760Y-74468200D01*
X112804760Y-74468200D02*
X112842856Y-74392009D01*
X112842856Y-74392009D02*
X112842856Y-74087247D01*
X112842856Y-74087247D02*
X112804760Y-74011057D01*
X112804760Y-74011057D02*
X112728570Y-73972961D01*
X112728570Y-73972961D02*
X112576189Y-73972961D01*
X112576189Y-73972961D02*
X112499998Y-74011057D01*
X112499998Y-74011057D02*
X112461903Y-74087247D01*
X112461903Y-74087247D02*
X112461903Y-74163438D01*
X112461903Y-74163438D02*
X112842856Y-74239628D01*
X112004761Y-74506295D02*
X112080951Y-74468200D01*
X112080951Y-74468200D02*
X112119046Y-74430104D01*
X112119046Y-74430104D02*
X112157142Y-74353914D01*
X112157142Y-74353914D02*
X112157142Y-74125342D01*
X112157142Y-74125342D02*
X112119046Y-74049152D01*
X112119046Y-74049152D02*
X112080951Y-74011057D01*
X112080951Y-74011057D02*
X112004761Y-73972961D01*
X112004761Y-73972961D02*
X111890475Y-73972961D01*
X111890475Y-73972961D02*
X111814284Y-74011057D01*
X111814284Y-74011057D02*
X111776189Y-74049152D01*
X111776189Y-74049152D02*
X111738094Y-74125342D01*
X111738094Y-74125342D02*
X111738094Y-74353914D01*
X111738094Y-74353914D02*
X111776189Y-74430104D01*
X111776189Y-74430104D02*
X111814284Y-74468200D01*
X111814284Y-74468200D02*
X111890475Y-74506295D01*
X111890475Y-74506295D02*
X112004761Y-74506295D01*
X111395236Y-74201533D02*
X110785713Y-74201533D01*
X110404760Y-74506295D02*
X110404760Y-73706295D01*
X110061903Y-74506295D02*
X110061903Y-74087247D01*
X110061903Y-74087247D02*
X110099998Y-74011057D01*
X110099998Y-74011057D02*
X110176189Y-73972961D01*
X110176189Y-73972961D02*
X110290475Y-73972961D01*
X110290475Y-73972961D02*
X110366665Y-74011057D01*
X110366665Y-74011057D02*
X110404760Y-74049152D01*
X109566665Y-74506295D02*
X109642855Y-74468200D01*
X109642855Y-74468200D02*
X109680950Y-74430104D01*
X109680950Y-74430104D02*
X109719046Y-74353914D01*
X109719046Y-74353914D02*
X109719046Y-74125342D01*
X109719046Y-74125342D02*
X109680950Y-74049152D01*
X109680950Y-74049152D02*
X109642855Y-74011057D01*
X109642855Y-74011057D02*
X109566665Y-73972961D01*
X109566665Y-73972961D02*
X109452379Y-73972961D01*
X109452379Y-73972961D02*
X109376188Y-74011057D01*
X109376188Y-74011057D02*
X109338093Y-74049152D01*
X109338093Y-74049152D02*
X109299998Y-74125342D01*
X109299998Y-74125342D02*
X109299998Y-74353914D01*
X109299998Y-74353914D02*
X109338093Y-74430104D01*
X109338093Y-74430104D02*
X109376188Y-74468200D01*
X109376188Y-74468200D02*
X109452379Y-74506295D01*
X109452379Y-74506295D02*
X109566665Y-74506295D01*
X108957140Y-74506295D02*
X108957140Y-73972961D01*
X108957140Y-74049152D02*
X108919045Y-74011057D01*
X108919045Y-74011057D02*
X108842855Y-73972961D01*
X108842855Y-73972961D02*
X108728569Y-73972961D01*
X108728569Y-73972961D02*
X108652378Y-74011057D01*
X108652378Y-74011057D02*
X108614283Y-74087247D01*
X108614283Y-74087247D02*
X108614283Y-74506295D01*
X108614283Y-74087247D02*
X108576188Y-74011057D01*
X108576188Y-74011057D02*
X108499997Y-73972961D01*
X108499997Y-73972961D02*
X108385712Y-73972961D01*
X108385712Y-73972961D02*
X108309521Y-74011057D01*
X108309521Y-74011057D02*
X108271426Y-74087247D01*
X108271426Y-74087247D02*
X108271426Y-74506295D01*
X107585711Y-74468200D02*
X107661902Y-74506295D01*
X107661902Y-74506295D02*
X107814283Y-74506295D01*
X107814283Y-74506295D02*
X107890473Y-74468200D01*
X107890473Y-74468200D02*
X107928569Y-74392009D01*
X107928569Y-74392009D02*
X107928569Y-74087247D01*
X107928569Y-74087247D02*
X107890473Y-74011057D01*
X107890473Y-74011057D02*
X107814283Y-73972961D01*
X107814283Y-73972961D02*
X107661902Y-73972961D01*
X107661902Y-73972961D02*
X107585711Y-74011057D01*
X107585711Y-74011057D02*
X107547616Y-74087247D01*
X107547616Y-74087247D02*
X107547616Y-74163438D01*
X107547616Y-74163438D02*
X107928569Y-74239628D01*
D10*
X139029449Y-93933609D02*
X139196115Y-93695514D01*
X139315163Y-93933609D02*
X139315163Y-93433609D01*
X139315163Y-93433609D02*
X139124687Y-93433609D01*
X139124687Y-93433609D02*
X139077068Y-93457419D01*
X139077068Y-93457419D02*
X139053258Y-93481228D01*
X139053258Y-93481228D02*
X139029449Y-93528847D01*
X139029449Y-93528847D02*
X139029449Y-93600276D01*
X139029449Y-93600276D02*
X139053258Y-93647895D01*
X139053258Y-93647895D02*
X139077068Y-93671704D01*
X139077068Y-93671704D02*
X139124687Y-93695514D01*
X139124687Y-93695514D02*
X139315163Y-93695514D01*
X138862782Y-93433609D02*
X138529449Y-93933609D01*
X138529449Y-93433609D02*
X138862782Y-93933609D01*
X135138972Y-97542300D02*
X135067544Y-97566109D01*
X135067544Y-97566109D02*
X134948496Y-97566109D01*
X134948496Y-97566109D02*
X134900877Y-97542300D01*
X134900877Y-97542300D02*
X134877068Y-97518490D01*
X134877068Y-97518490D02*
X134853258Y-97470871D01*
X134853258Y-97470871D02*
X134853258Y-97423252D01*
X134853258Y-97423252D02*
X134877068Y-97375633D01*
X134877068Y-97375633D02*
X134900877Y-97351823D01*
X134900877Y-97351823D02*
X134948496Y-97328014D01*
X134948496Y-97328014D02*
X135043734Y-97304204D01*
X135043734Y-97304204D02*
X135091353Y-97280395D01*
X135091353Y-97280395D02*
X135115163Y-97256585D01*
X135115163Y-97256585D02*
X135138972Y-97208966D01*
X135138972Y-97208966D02*
X135138972Y-97161347D01*
X135138972Y-97161347D02*
X135115163Y-97113728D01*
X135115163Y-97113728D02*
X135091353Y-97089919D01*
X135091353Y-97089919D02*
X135043734Y-97066109D01*
X135043734Y-97066109D02*
X134924687Y-97066109D01*
X134924687Y-97066109D02*
X134853258Y-97089919D01*
X134638973Y-97566109D02*
X134638973Y-97066109D01*
X134638973Y-97066109D02*
X134519925Y-97066109D01*
X134519925Y-97066109D02*
X134448497Y-97089919D01*
X134448497Y-97089919D02*
X134400878Y-97137538D01*
X134400878Y-97137538D02*
X134377068Y-97185157D01*
X134377068Y-97185157D02*
X134353259Y-97280395D01*
X134353259Y-97280395D02*
X134353259Y-97351823D01*
X134353259Y-97351823D02*
X134377068Y-97447061D01*
X134377068Y-97447061D02*
X134400878Y-97494680D01*
X134400878Y-97494680D02*
X134448497Y-97542300D01*
X134448497Y-97542300D02*
X134519925Y-97566109D01*
X134519925Y-97566109D02*
X134638973Y-97566109D01*
X134162782Y-97423252D02*
X133924687Y-97423252D01*
X134210401Y-97566109D02*
X134043735Y-97066109D01*
X134043735Y-97066109D02*
X133877068Y-97566109D01*
X108077068Y-95933609D02*
X108315163Y-95933609D01*
X108315163Y-95933609D02*
X108338972Y-96171704D01*
X108338972Y-96171704D02*
X108315163Y-96147895D01*
X108315163Y-96147895D02*
X108267544Y-96124085D01*
X108267544Y-96124085D02*
X108148496Y-96124085D01*
X108148496Y-96124085D02*
X108100877Y-96147895D01*
X108100877Y-96147895D02*
X108077068Y-96171704D01*
X108077068Y-96171704D02*
X108053258Y-96219323D01*
X108053258Y-96219323D02*
X108053258Y-96338371D01*
X108053258Y-96338371D02*
X108077068Y-96385990D01*
X108077068Y-96385990D02*
X108100877Y-96409800D01*
X108100877Y-96409800D02*
X108148496Y-96433609D01*
X108148496Y-96433609D02*
X108267544Y-96433609D01*
X108267544Y-96433609D02*
X108315163Y-96409800D01*
X108315163Y-96409800D02*
X108338972Y-96385990D01*
X107910401Y-95933609D02*
X107743735Y-96433609D01*
X107743735Y-96433609D02*
X107577068Y-95933609D01*
X132853258Y-97057419D02*
X132900877Y-97033609D01*
X132900877Y-97033609D02*
X132972306Y-97033609D01*
X132972306Y-97033609D02*
X133043734Y-97057419D01*
X133043734Y-97057419D02*
X133091353Y-97105038D01*
X133091353Y-97105038D02*
X133115163Y-97152657D01*
X133115163Y-97152657D02*
X133138972Y-97247895D01*
X133138972Y-97247895D02*
X133138972Y-97319323D01*
X133138972Y-97319323D02*
X133115163Y-97414561D01*
X133115163Y-97414561D02*
X133091353Y-97462180D01*
X133091353Y-97462180D02*
X133043734Y-97509800D01*
X133043734Y-97509800D02*
X132972306Y-97533609D01*
X132972306Y-97533609D02*
X132924687Y-97533609D01*
X132924687Y-97533609D02*
X132853258Y-97509800D01*
X132853258Y-97509800D02*
X132829449Y-97485990D01*
X132829449Y-97485990D02*
X132829449Y-97319323D01*
X132829449Y-97319323D02*
X132924687Y-97319323D01*
X132615163Y-97533609D02*
X132615163Y-97033609D01*
X132615163Y-97033609D02*
X132329449Y-97533609D01*
X132329449Y-97533609D02*
X132329449Y-97033609D01*
X132091353Y-97533609D02*
X132091353Y-97033609D01*
X132091353Y-97033609D02*
X131972305Y-97033609D01*
X131972305Y-97033609D02*
X131900877Y-97057419D01*
X131900877Y-97057419D02*
X131853258Y-97105038D01*
X131853258Y-97105038D02*
X131829448Y-97152657D01*
X131829448Y-97152657D02*
X131805639Y-97247895D01*
X131805639Y-97247895D02*
X131805639Y-97319323D01*
X131805639Y-97319323D02*
X131829448Y-97414561D01*
X131829448Y-97414561D02*
X131853258Y-97462180D01*
X131853258Y-97462180D02*
X131900877Y-97509800D01*
X131900877Y-97509800D02*
X131972305Y-97533609D01*
X131972305Y-97533609D02*
X132091353Y-97533609D01*
X119463972Y-91429800D02*
X119392544Y-91453609D01*
X119392544Y-91453609D02*
X119273496Y-91453609D01*
X119273496Y-91453609D02*
X119225877Y-91429800D01*
X119225877Y-91429800D02*
X119202068Y-91405990D01*
X119202068Y-91405990D02*
X119178258Y-91358371D01*
X119178258Y-91358371D02*
X119178258Y-91310752D01*
X119178258Y-91310752D02*
X119202068Y-91263133D01*
X119202068Y-91263133D02*
X119225877Y-91239323D01*
X119225877Y-91239323D02*
X119273496Y-91215514D01*
X119273496Y-91215514D02*
X119368734Y-91191704D01*
X119368734Y-91191704D02*
X119416353Y-91167895D01*
X119416353Y-91167895D02*
X119440163Y-91144085D01*
X119440163Y-91144085D02*
X119463972Y-91096466D01*
X119463972Y-91096466D02*
X119463972Y-91048847D01*
X119463972Y-91048847D02*
X119440163Y-91001228D01*
X119440163Y-91001228D02*
X119416353Y-90977419D01*
X119416353Y-90977419D02*
X119368734Y-90953609D01*
X119368734Y-90953609D02*
X119249687Y-90953609D01*
X119249687Y-90953609D02*
X119178258Y-90977419D01*
X118963973Y-91453609D02*
X118963973Y-90953609D01*
X118963973Y-90953609D02*
X118844925Y-90953609D01*
X118844925Y-90953609D02*
X118773497Y-90977419D01*
X118773497Y-90977419D02*
X118725878Y-91025038D01*
X118725878Y-91025038D02*
X118702068Y-91072657D01*
X118702068Y-91072657D02*
X118678259Y-91167895D01*
X118678259Y-91167895D02*
X118678259Y-91239323D01*
X118678259Y-91239323D02*
X118702068Y-91334561D01*
X118702068Y-91334561D02*
X118725878Y-91382180D01*
X118725878Y-91382180D02*
X118773497Y-91429800D01*
X118773497Y-91429800D02*
X118844925Y-91453609D01*
X118844925Y-91453609D02*
X118963973Y-91453609D01*
X118487782Y-91310752D02*
X118249687Y-91310752D01*
X118535401Y-91453609D02*
X118368735Y-90953609D01*
X118368735Y-90953609D02*
X118202068Y-91453609D01*
X131477068Y-96233609D02*
X131715163Y-96233609D01*
X131715163Y-96233609D02*
X131738972Y-96471704D01*
X131738972Y-96471704D02*
X131715163Y-96447895D01*
X131715163Y-96447895D02*
X131667544Y-96424085D01*
X131667544Y-96424085D02*
X131548496Y-96424085D01*
X131548496Y-96424085D02*
X131500877Y-96447895D01*
X131500877Y-96447895D02*
X131477068Y-96471704D01*
X131477068Y-96471704D02*
X131453258Y-96519323D01*
X131453258Y-96519323D02*
X131453258Y-96638371D01*
X131453258Y-96638371D02*
X131477068Y-96685990D01*
X131477068Y-96685990D02*
X131500877Y-96709800D01*
X131500877Y-96709800D02*
X131548496Y-96733609D01*
X131548496Y-96733609D02*
X131667544Y-96733609D01*
X131667544Y-96733609D02*
X131715163Y-96709800D01*
X131715163Y-96709800D02*
X131738972Y-96685990D01*
X131310401Y-96233609D02*
X131143735Y-96733609D01*
X131143735Y-96733609D02*
X130977068Y-96233609D01*
X108303258Y-93457419D02*
X108350877Y-93433609D01*
X108350877Y-93433609D02*
X108422306Y-93433609D01*
X108422306Y-93433609D02*
X108493734Y-93457419D01*
X108493734Y-93457419D02*
X108541353Y-93505038D01*
X108541353Y-93505038D02*
X108565163Y-93552657D01*
X108565163Y-93552657D02*
X108588972Y-93647895D01*
X108588972Y-93647895D02*
X108588972Y-93719323D01*
X108588972Y-93719323D02*
X108565163Y-93814561D01*
X108565163Y-93814561D02*
X108541353Y-93862180D01*
X108541353Y-93862180D02*
X108493734Y-93909800D01*
X108493734Y-93909800D02*
X108422306Y-93933609D01*
X108422306Y-93933609D02*
X108374687Y-93933609D01*
X108374687Y-93933609D02*
X108303258Y-93909800D01*
X108303258Y-93909800D02*
X108279449Y-93885990D01*
X108279449Y-93885990D02*
X108279449Y-93719323D01*
X108279449Y-93719323D02*
X108374687Y-93719323D01*
X108065163Y-93933609D02*
X108065163Y-93433609D01*
X108065163Y-93433609D02*
X107779449Y-93933609D01*
X107779449Y-93933609D02*
X107779449Y-93433609D01*
X107541353Y-93933609D02*
X107541353Y-93433609D01*
X107541353Y-93433609D02*
X107422305Y-93433609D01*
X107422305Y-93433609D02*
X107350877Y-93457419D01*
X107350877Y-93457419D02*
X107303258Y-93505038D01*
X107303258Y-93505038D02*
X107279448Y-93552657D01*
X107279448Y-93552657D02*
X107255639Y-93647895D01*
X107255639Y-93647895D02*
X107255639Y-93719323D01*
X107255639Y-93719323D02*
X107279448Y-93814561D01*
X107279448Y-93814561D02*
X107303258Y-93862180D01*
X107303258Y-93862180D02*
X107350877Y-93909800D01*
X107350877Y-93909800D02*
X107422305Y-93933609D01*
X107422305Y-93933609D02*
X107541353Y-93933609D01*
X139386591Y-90683609D02*
X139100877Y-90683609D01*
X139243734Y-91183609D02*
X139243734Y-90683609D01*
X138981830Y-90683609D02*
X138648497Y-91183609D01*
X138648497Y-90683609D02*
X138981830Y-91183609D01*
X129438972Y-97592300D02*
X129367544Y-97616109D01*
X129367544Y-97616109D02*
X129248496Y-97616109D01*
X129248496Y-97616109D02*
X129200877Y-97592300D01*
X129200877Y-97592300D02*
X129177068Y-97568490D01*
X129177068Y-97568490D02*
X129153258Y-97520871D01*
X129153258Y-97520871D02*
X129153258Y-97473252D01*
X129153258Y-97473252D02*
X129177068Y-97425633D01*
X129177068Y-97425633D02*
X129200877Y-97401823D01*
X129200877Y-97401823D02*
X129248496Y-97378014D01*
X129248496Y-97378014D02*
X129343734Y-97354204D01*
X129343734Y-97354204D02*
X129391353Y-97330395D01*
X129391353Y-97330395D02*
X129415163Y-97306585D01*
X129415163Y-97306585D02*
X129438972Y-97258966D01*
X129438972Y-97258966D02*
X129438972Y-97211347D01*
X129438972Y-97211347D02*
X129415163Y-97163728D01*
X129415163Y-97163728D02*
X129391353Y-97139919D01*
X129391353Y-97139919D02*
X129343734Y-97116109D01*
X129343734Y-97116109D02*
X129224687Y-97116109D01*
X129224687Y-97116109D02*
X129153258Y-97139919D01*
X128938973Y-97616109D02*
X128938973Y-97116109D01*
X128938973Y-97116109D02*
X128819925Y-97116109D01*
X128819925Y-97116109D02*
X128748497Y-97139919D01*
X128748497Y-97139919D02*
X128700878Y-97187538D01*
X128700878Y-97187538D02*
X128677068Y-97235157D01*
X128677068Y-97235157D02*
X128653259Y-97330395D01*
X128653259Y-97330395D02*
X128653259Y-97401823D01*
X128653259Y-97401823D02*
X128677068Y-97497061D01*
X128677068Y-97497061D02*
X128700878Y-97544680D01*
X128700878Y-97544680D02*
X128748497Y-97592300D01*
X128748497Y-97592300D02*
X128819925Y-97616109D01*
X128819925Y-97616109D02*
X128938973Y-97616109D01*
X128462782Y-97473252D02*
X128224687Y-97473252D01*
X128510401Y-97616109D02*
X128343735Y-97116109D01*
X128343735Y-97116109D02*
X128177068Y-97616109D01*
%LPC*%
D12*
X131380000Y-64640000D03*
D13*
X128840000Y-64640000D03*
X126300000Y-64640000D03*
X123760000Y-64640000D03*
X121220000Y-64640000D03*
X118680000Y-64640000D03*
X116140000Y-64640000D03*
X113600000Y-64640000D03*
X113600000Y-87500000D03*
X116140000Y-87500000D03*
X118680000Y-87500000D03*
X121220000Y-87500000D03*
X123760000Y-87500000D03*
X126300000Y-87500000D03*
X128840000Y-87500000D03*
X131380000Y-87500000D03*
D14*
X125984000Y-54864000D03*
D15*
X128524000Y-54864000D03*
X131064000Y-54864000D03*
X133604000Y-54864000D03*
D16*
X115040000Y-55000000D03*
D17*
X112500000Y-55000000D03*
D16*
X120540000Y-55000000D03*
D17*
X118000000Y-55000000D03*
D18*
X111640000Y-60250000D03*
D19*
X106560000Y-60250000D03*
D18*
X128266666Y-60250000D03*
D19*
X123186666Y-60250000D03*
D18*
X131500000Y-60250000D03*
D19*
X136580000Y-60250000D03*
D18*
X119953333Y-60250000D03*
D19*
X114873333Y-60250000D03*
D16*
X109540000Y-55000000D03*
D17*
X107000000Y-55000000D03*
D20*
X125820000Y-98382500D03*
D21*
X126820000Y-98382500D03*
X127820000Y-98382500D03*
X128820000Y-98382500D03*
D22*
X139500000Y-60000000D03*
D23*
X139500000Y-57460000D03*
X139500000Y-54920000D03*
D22*
X116200000Y-98820000D03*
D23*
X116200000Y-96280000D03*
X116200000Y-93740000D03*
X116200000Y-91200000D03*
D22*
X134000000Y-93407500D03*
D23*
X131460000Y-93407500D03*
X128920000Y-93407500D03*
X126380000Y-93407500D03*
D22*
X121100000Y-98820000D03*
D23*
X121100000Y-96280000D03*
X121100000Y-93740000D03*
X121100000Y-91200000D03*
D24*
X108000000Y-95000000D03*
D25*
X108000000Y-92460000D03*
D22*
X139000000Y-92460000D03*
D23*
X139000000Y-95000000D03*
D20*
X131500000Y-98382500D03*
D21*
X132500000Y-98382500D03*
X133500000Y-98382500D03*
X134500000Y-98382500D03*
%LPD*%
M02*
