G04 #@! TF.GenerationSoftware,KiCad,Pcbnew,7.0.7*
G04 #@! TF.CreationDate,2024-09-10T18:09:55+02:00*
G04 #@! TF.ProjectId,meteo-home,6d657465-6f2d-4686-9f6d-652e6b696361,rev?*
G04 #@! TF.SameCoordinates,Original*
G04 #@! TF.FileFunction,Copper,L1,Top*
G04 #@! TF.FilePolarity,Positive*
%FSLAX46Y46*%
G04 Gerber Fmt 4.6, Leading zero omitted, Abs format (unit mm)*
G04 Created by KiCad (PCBNEW 7.0.7) date 2024-09-10 18:09:55*
%MOMM*%
%LPD*%
G01*
G04 APERTURE LIST*
G04 Aperture macros list*
%AMRoundRect*
0 Rectangle with rounded corners*
0 $1 Rounding radius*
0 $2 $3 $4 $5 $6 $7 $8 $9 X,Y pos of 4 corners*
0 Add a 4 corners polygon primitive as box body*
4,1,4,$2,$3,$4,$5,$6,$7,$8,$9,$2,$3,0*
0 Add four circle primitives for the rounded corners*
1,1,$1+$1,$2,$3*
1,1,$1+$1,$4,$5*
1,1,$1+$1,$6,$7*
1,1,$1+$1,$8,$9*
0 Add four rect primitives between the rounded corners*
20,1,$1+$1,$2,$3,$4,$5,0*
20,1,$1+$1,$4,$5,$6,$7,0*
20,1,$1+$1,$6,$7,$8,$9,0*
20,1,$1+$1,$8,$9,$2,$3,0*%
G04 Aperture macros list end*
G04 #@! TA.AperFunction,ComponentPad*
%ADD10R,2.000000X2.000000*%
G04 #@! TD*
G04 #@! TA.AperFunction,ComponentPad*
%ADD11O,1.600000X2.000000*%
G04 #@! TD*
G04 #@! TA.AperFunction,ComponentPad*
%ADD12R,1.727200X2.032000*%
G04 #@! TD*
G04 #@! TA.AperFunction,ComponentPad*
%ADD13O,1.727200X2.032000*%
G04 #@! TD*
G04 #@! TA.AperFunction,ComponentPad*
%ADD14R,1.800000X1.800000*%
G04 #@! TD*
G04 #@! TA.AperFunction,ComponentPad*
%ADD15C,1.800000*%
G04 #@! TD*
G04 #@! TA.AperFunction,ComponentPad*
%ADD16C,1.400000*%
G04 #@! TD*
G04 #@! TA.AperFunction,ComponentPad*
%ADD17O,1.400000X1.400000*%
G04 #@! TD*
G04 #@! TA.AperFunction,ComponentPad*
%ADD18R,0.850000X0.850000*%
G04 #@! TD*
G04 #@! TA.AperFunction,ComponentPad*
%ADD19O,0.850000X0.850000*%
G04 #@! TD*
G04 #@! TA.AperFunction,ComponentPad*
%ADD20R,1.700000X1.700000*%
G04 #@! TD*
G04 #@! TA.AperFunction,ComponentPad*
%ADD21O,1.700000X1.700000*%
G04 #@! TD*
G04 #@! TA.AperFunction,ComponentPad*
%ADD22RoundRect,0.250000X0.620000X-0.620000X0.620000X0.620000X-0.620000X0.620000X-0.620000X-0.620000X0*%
G04 #@! TD*
G04 #@! TA.AperFunction,ComponentPad*
%ADD23C,1.740000*%
G04 #@! TD*
G04 #@! TA.AperFunction,Conductor*
%ADD24C,0.250000*%
G04 #@! TD*
G04 APERTURE END LIST*
D10*
X131380000Y-64640000D03*
D11*
X128840000Y-64640000D03*
X126300000Y-64640000D03*
X123760000Y-64640000D03*
X121220000Y-64640000D03*
X118680000Y-64640000D03*
X116140000Y-64640000D03*
X113600000Y-64640000D03*
X113600000Y-87500000D03*
X116140000Y-87500000D03*
X118680000Y-87500000D03*
X121220000Y-87500000D03*
X123760000Y-87500000D03*
X126300000Y-87500000D03*
X128840000Y-87500000D03*
X131380000Y-87500000D03*
D12*
X125984000Y-54864000D03*
D13*
X128524000Y-54864000D03*
X131064000Y-54864000D03*
X133604000Y-54864000D03*
D14*
X115040000Y-55000000D03*
D15*
X112500000Y-55000000D03*
D14*
X120540000Y-55000000D03*
D15*
X118000000Y-55000000D03*
D16*
X111640000Y-60250000D03*
D17*
X106560000Y-60250000D03*
D16*
X128266666Y-60250000D03*
D17*
X123186666Y-60250000D03*
D16*
X131500000Y-60250000D03*
D17*
X136580000Y-60250000D03*
D16*
X119953333Y-60250000D03*
D17*
X114873333Y-60250000D03*
D14*
X109540000Y-55000000D03*
D15*
X107000000Y-55000000D03*
D18*
X125820000Y-98382500D03*
D19*
X126820000Y-98382500D03*
X127820000Y-98382500D03*
X128820000Y-98382500D03*
D20*
X139500000Y-60000000D03*
D21*
X139500000Y-57460000D03*
X139500000Y-54920000D03*
D20*
X116200000Y-98820000D03*
D21*
X116200000Y-96280000D03*
X116200000Y-93740000D03*
X116200000Y-91200000D03*
D20*
X134000000Y-93407500D03*
D21*
X131460000Y-93407500D03*
X128920000Y-93407500D03*
X126380000Y-93407500D03*
D20*
X121100000Y-98820000D03*
D21*
X121100000Y-96280000D03*
X121100000Y-93740000D03*
X121100000Y-91200000D03*
D22*
X108000000Y-95000000D03*
D23*
X108000000Y-92460000D03*
D20*
X139000000Y-92460000D03*
D21*
X139000000Y-95000000D03*
D18*
X131500000Y-98382500D03*
D19*
X132500000Y-98382500D03*
X133500000Y-98382500D03*
X134500000Y-98382500D03*
D24*
X131280000Y-62000000D02*
X128840000Y-64440000D01*
X137500000Y-62000000D02*
X131280000Y-62000000D01*
X139500000Y-60000000D02*
X137500000Y-62000000D01*
X128840000Y-64440000D02*
X128840000Y-64640000D01*
X109540000Y-58150000D02*
X111640000Y-60250000D01*
X109540000Y-55000000D02*
X109540000Y-58150000D01*
X115040000Y-55000000D02*
X115040000Y-55336667D01*
X115040000Y-55336667D02*
X119953333Y-60250000D01*
X128266666Y-60250000D02*
X125790000Y-60250000D01*
X125790000Y-60250000D02*
X120540000Y-55000000D01*
X125203187Y-95200000D02*
X127800000Y-95200000D01*
X128820000Y-96220000D02*
X128820000Y-98382500D01*
X121203187Y-91200000D02*
X125203187Y-95200000D01*
X121100000Y-91200000D02*
X121637500Y-91200000D01*
X116200000Y-91200000D02*
X121100000Y-91200000D01*
X127800000Y-95200000D02*
X128820000Y-96220000D01*
X121100000Y-91200000D02*
X121203187Y-91200000D01*
X121100000Y-93740000D02*
X123177501Y-93740000D01*
X116200000Y-93740000D02*
X121100000Y-93740000D01*
X127820000Y-99320000D02*
X128900000Y-100400000D01*
X133500000Y-99700000D02*
X133500000Y-98382500D01*
X127200000Y-95600000D02*
X127820000Y-96220000D01*
X128900000Y-100400000D02*
X132800000Y-100400000D01*
X127820000Y-98382500D02*
X127820000Y-99320000D01*
X127820000Y-96220000D02*
X127820000Y-98382500D01*
X123177501Y-93740000D02*
X125037502Y-95600000D01*
X125037502Y-95600000D02*
X127200000Y-95600000D01*
X132800000Y-100400000D02*
X133500000Y-99700000D01*
X108000000Y-95000000D02*
X113600000Y-89400000D01*
X125984000Y-54864000D02*
X126114000Y-54864000D01*
X126114000Y-54864000D02*
X131500000Y-60250000D01*
X125984000Y-54864000D02*
X125984000Y-54991000D01*
X113600000Y-89400000D02*
X113600000Y-89300000D01*
X113600000Y-89300000D02*
X113600000Y-87500000D01*
X131460000Y-92060000D02*
X129100000Y-89700000D01*
X131460000Y-93407500D02*
X131460000Y-92060000D01*
X123420000Y-89700000D02*
X121220000Y-87500000D01*
X129100000Y-89700000D02*
X123420000Y-89700000D01*
X131380000Y-64640000D02*
X129955000Y-66065000D01*
X126300000Y-65300000D02*
X126300000Y-64640000D01*
X127065000Y-66065000D02*
X126300000Y-65300000D01*
X129955000Y-66065000D02*
X127065000Y-66065000D01*
X123186666Y-64066666D02*
X123760000Y-64640000D01*
X123186666Y-60250000D02*
X123186666Y-64066666D01*
X128524000Y-54864000D02*
X133910000Y-60250000D01*
X133910000Y-60250000D02*
X136580000Y-60250000D01*
X118680000Y-64640000D02*
X118680000Y-64056667D01*
X118680000Y-64056667D02*
X114873333Y-60250000D01*
X116140000Y-64640000D02*
X113250000Y-61750000D01*
X108060000Y-61750000D02*
X106560000Y-60250000D01*
X113250000Y-61750000D02*
X108060000Y-61750000D01*
X139000000Y-91000000D02*
X139000000Y-92460000D01*
X131900000Y-89500000D02*
X137500000Y-89500000D01*
X131380000Y-87500000D02*
X131380000Y-88980000D01*
X131380000Y-88980000D02*
X131900000Y-89500000D01*
X137500000Y-89500000D02*
X139000000Y-91000000D01*
G04 #@! TA.AperFunction,Conductor*
G36*
X106343998Y-50469685D02*
G01*
X106389753Y-50522489D01*
X106399697Y-50591647D01*
X106370672Y-50655203D01*
X106355623Y-50669854D01*
X106253589Y-50753589D01*
X106122317Y-50913547D01*
X106024769Y-51096043D01*
X105964699Y-51294067D01*
X105944417Y-51499999D01*
X105964699Y-51705932D01*
X105964700Y-51705934D01*
X106024768Y-51903954D01*
X106122315Y-52086450D01*
X106122317Y-52086452D01*
X106253589Y-52246410D01*
X106306071Y-52289480D01*
X106413550Y-52377685D01*
X106596046Y-52475232D01*
X106794066Y-52535300D01*
X106794065Y-52535300D01*
X106814347Y-52537297D01*
X107000000Y-52555583D01*
X107205934Y-52535300D01*
X107403954Y-52475232D01*
X107586450Y-52377685D01*
X107746410Y-52246410D01*
X107877685Y-52086450D01*
X107975232Y-51903954D01*
X108035300Y-51705934D01*
X108055583Y-51500000D01*
X108035300Y-51294066D01*
X107975232Y-51096046D01*
X107877685Y-50913550D01*
X107825702Y-50850209D01*
X107746410Y-50753589D01*
X107644377Y-50669854D01*
X107605042Y-50612108D01*
X107603171Y-50542263D01*
X107639358Y-50482495D01*
X107702114Y-50451779D01*
X107723041Y-50450000D01*
X138776959Y-50450000D01*
X138843998Y-50469685D01*
X138889753Y-50522489D01*
X138899697Y-50591647D01*
X138870672Y-50655203D01*
X138855623Y-50669854D01*
X138753589Y-50753589D01*
X138622317Y-50913547D01*
X138524769Y-51096043D01*
X138464699Y-51294067D01*
X138444417Y-51499999D01*
X138464699Y-51705932D01*
X138464700Y-51705934D01*
X138524768Y-51903954D01*
X138622315Y-52086450D01*
X138622317Y-52086452D01*
X138753589Y-52246410D01*
X138806071Y-52289480D01*
X138913550Y-52377685D01*
X139096046Y-52475232D01*
X139294066Y-52535300D01*
X139294065Y-52535300D01*
X139312529Y-52537118D01*
X139500000Y-52555583D01*
X139705934Y-52535300D01*
X139903954Y-52475232D01*
X140086450Y-52377685D01*
X140246410Y-52246410D01*
X140377685Y-52086450D01*
X140475232Y-51903954D01*
X140535300Y-51705934D01*
X140555583Y-51500000D01*
X140535300Y-51294066D01*
X140475232Y-51096046D01*
X140377685Y-50913550D01*
X140325702Y-50850209D01*
X140246410Y-50753589D01*
X140144377Y-50669854D01*
X140105042Y-50612108D01*
X140103171Y-50542263D01*
X140139358Y-50482495D01*
X140202114Y-50451779D01*
X140223041Y-50450000D01*
X141276000Y-50450000D01*
X141343039Y-50469685D01*
X141388794Y-50522489D01*
X141400000Y-50574000D01*
X141400000Y-100576000D01*
X141380315Y-100643039D01*
X141327511Y-100688794D01*
X141276000Y-100700000D01*
X133695265Y-100700000D01*
X133628226Y-100680315D01*
X133582471Y-100627511D01*
X133572527Y-100558353D01*
X133601552Y-100494797D01*
X133607584Y-100488319D01*
X133607584Y-100488318D01*
X133888815Y-100207087D01*
X133901180Y-100197183D01*
X133901006Y-100196973D01*
X133907012Y-100192003D01*
X133907018Y-100192000D01*
X133954999Y-100140904D01*
X133976134Y-100119770D01*
X133980463Y-100114187D01*
X133984242Y-100109763D01*
X134016586Y-100075321D01*
X134026423Y-100057424D01*
X134037097Y-100041174D01*
X134049613Y-100025041D01*
X134068372Y-99981689D01*
X134070933Y-99976462D01*
X134093695Y-99935060D01*
X134098774Y-99915274D01*
X134105072Y-99896882D01*
X134113181Y-99878145D01*
X134120568Y-99831501D01*
X134121750Y-99825790D01*
X134133500Y-99780030D01*
X134133499Y-99759612D01*
X134135027Y-99740209D01*
X134138218Y-99720062D01*
X134138219Y-99720058D01*
X134137397Y-99711366D01*
X134133775Y-99673041D01*
X134133500Y-99667204D01*
X134133500Y-99412080D01*
X134153185Y-99345041D01*
X134205989Y-99299286D01*
X134275147Y-99289342D01*
X134283276Y-99290789D01*
X134401885Y-99316000D01*
X134401886Y-99316000D01*
X134598113Y-99316000D01*
X134598115Y-99316000D01*
X134790056Y-99275202D01*
X134790058Y-99275200D01*
X134790061Y-99275200D01*
X134945634Y-99205934D01*
X134969321Y-99195388D01*
X135128074Y-99080047D01*
X135200149Y-99000000D01*
X138444417Y-99000000D01*
X138464699Y-99205932D01*
X138480612Y-99258389D01*
X138524768Y-99403954D01*
X138622315Y-99586450D01*
X138640522Y-99608635D01*
X138753589Y-99746410D01*
X138805579Y-99789076D01*
X138913550Y-99877685D01*
X139096046Y-99975232D01*
X139294066Y-100035300D01*
X139294065Y-100035300D01*
X139312529Y-100037118D01*
X139500000Y-100055583D01*
X139705934Y-100035300D01*
X139903954Y-99975232D01*
X140086450Y-99877685D01*
X140246410Y-99746410D01*
X140377685Y-99586450D01*
X140475232Y-99403954D01*
X140535300Y-99205934D01*
X140555583Y-99000000D01*
X140535300Y-98794066D01*
X140475232Y-98596046D01*
X140377685Y-98413550D01*
X140325702Y-98350209D01*
X140246410Y-98253589D01*
X140116535Y-98147005D01*
X140086450Y-98122315D01*
X139903954Y-98024768D01*
X139705934Y-97964700D01*
X139705932Y-97964699D01*
X139705934Y-97964699D01*
X139518463Y-97946235D01*
X139500000Y-97944417D01*
X139499999Y-97944417D01*
X139294067Y-97964699D01*
X139096043Y-98024769D01*
X139047905Y-98050500D01*
X138913550Y-98122315D01*
X138913548Y-98122316D01*
X138913547Y-98122317D01*
X138753589Y-98253589D01*
X138622317Y-98413547D01*
X138524769Y-98596043D01*
X138464699Y-98794067D01*
X138444417Y-99000000D01*
X135200149Y-99000000D01*
X135259377Y-98934220D01*
X135357492Y-98764280D01*
X135418130Y-98577655D01*
X135438642Y-98382500D01*
X135418130Y-98187345D01*
X135379594Y-98068744D01*
X135357494Y-98000725D01*
X135357491Y-98000719D01*
X135259377Y-97830780D01*
X135128074Y-97684953D01*
X134993039Y-97586844D01*
X134969320Y-97569611D01*
X134790061Y-97489799D01*
X134790055Y-97489797D01*
X134628742Y-97455510D01*
X134598115Y-97449000D01*
X134401885Y-97449000D01*
X134371258Y-97455510D01*
X134209944Y-97489797D01*
X134209942Y-97489798D01*
X134050435Y-97560815D01*
X133981185Y-97570099D01*
X133949565Y-97560815D01*
X133790057Y-97489798D01*
X133790055Y-97489797D01*
X133628742Y-97455510D01*
X133598115Y-97449000D01*
X133401885Y-97449000D01*
X133371258Y-97455510D01*
X133209944Y-97489797D01*
X133209942Y-97489798D01*
X133039985Y-97565468D01*
X132970735Y-97574752D01*
X132939115Y-97565468D01*
X132787414Y-97497926D01*
X132749999Y-97489973D01*
X132749999Y-97781313D01*
X132733386Y-97843313D01*
X132664613Y-97962432D01*
X132614046Y-98010647D01*
X132545439Y-98023871D01*
X132480575Y-97997903D01*
X132440046Y-97940989D01*
X132434396Y-97912106D01*
X132433856Y-97912165D01*
X132430184Y-97878025D01*
X132426989Y-97848299D01*
X132425129Y-97843313D01*
X132402004Y-97781313D01*
X132375889Y-97711296D01*
X132288261Y-97594239D01*
X132288259Y-97594237D01*
X132288258Y-97594236D01*
X132286318Y-97592296D01*
X132285003Y-97589887D01*
X132282946Y-97587140D01*
X132283341Y-97586844D01*
X132252833Y-97530973D01*
X132249999Y-97504612D01*
X132249999Y-97489973D01*
X132206696Y-97499178D01*
X132137580Y-97494069D01*
X132034207Y-97455512D01*
X132034202Y-97455511D01*
X131973654Y-97449000D01*
X131973638Y-97449000D01*
X131026362Y-97449000D01*
X131026345Y-97449000D01*
X130965797Y-97455511D01*
X130965795Y-97455511D01*
X130828795Y-97506611D01*
X130711739Y-97594239D01*
X130624111Y-97711295D01*
X130573011Y-97848295D01*
X130573011Y-97848297D01*
X130566500Y-97908845D01*
X130566500Y-98856154D01*
X130573011Y-98916702D01*
X130573011Y-98916704D01*
X130604080Y-99000000D01*
X130624111Y-99053704D01*
X130711739Y-99170761D01*
X130828796Y-99258389D01*
X130965799Y-99309489D01*
X130993050Y-99312418D01*
X131026345Y-99315999D01*
X131026362Y-99316000D01*
X131973638Y-99316000D01*
X131973654Y-99315999D01*
X132034201Y-99309489D01*
X132034204Y-99309488D01*
X132137581Y-99270929D01*
X132206692Y-99265820D01*
X132249999Y-99275024D01*
X132249999Y-99260387D01*
X132269682Y-99193347D01*
X132286328Y-99172692D01*
X132288249Y-99170769D01*
X132288261Y-99170761D01*
X132375889Y-99053704D01*
X132426989Y-98916701D01*
X132430404Y-98884928D01*
X132433856Y-98852835D01*
X132435165Y-98852975D01*
X132456616Y-98792086D01*
X132511774Y-98749198D01*
X132581362Y-98742939D01*
X132643288Y-98775296D01*
X132664613Y-98802567D01*
X132733387Y-98921687D01*
X132750000Y-98983687D01*
X132750000Y-99275024D01*
X132795963Y-99312245D01*
X132794199Y-99314422D01*
X132820312Y-99334153D01*
X132844435Y-99399726D01*
X132829278Y-99467932D01*
X132808394Y-99495699D01*
X132573912Y-99730182D01*
X132512592Y-99763666D01*
X132486233Y-99766500D01*
X129213766Y-99766500D01*
X129146727Y-99746815D01*
X129126085Y-99730181D01*
X128969496Y-99573592D01*
X128909539Y-99513634D01*
X128876055Y-99452313D01*
X128881039Y-99382621D01*
X128922911Y-99326688D01*
X128971439Y-99304665D01*
X129110056Y-99275202D01*
X129110059Y-99275200D01*
X129110061Y-99275200D01*
X129265634Y-99205934D01*
X129289321Y-99195388D01*
X129448074Y-99080047D01*
X129579377Y-98934220D01*
X129677492Y-98764280D01*
X129738130Y-98577655D01*
X129758642Y-98382500D01*
X129738130Y-98187345D01*
X129699594Y-98068744D01*
X129677494Y-98000725D01*
X129677491Y-98000719D01*
X129579377Y-97830780D01*
X129485350Y-97726352D01*
X129455120Y-97663360D01*
X129453500Y-97643380D01*
X129453500Y-96303631D01*
X129455239Y-96287879D01*
X129454968Y-96287854D01*
X129455700Y-96280098D01*
X129455702Y-96280091D01*
X129453500Y-96210028D01*
X129453500Y-96180144D01*
X129452614Y-96173141D01*
X129452157Y-96167322D01*
X129450674Y-96120111D01*
X129444976Y-96100499D01*
X129441033Y-96081466D01*
X129438474Y-96061203D01*
X129421085Y-96017286D01*
X129419196Y-96011766D01*
X129406018Y-95966407D01*
X129395626Y-95948835D01*
X129387066Y-95931362D01*
X129379552Y-95912383D01*
X129351794Y-95874179D01*
X129348587Y-95869296D01*
X129329650Y-95837276D01*
X129324542Y-95828638D01*
X129310108Y-95814204D01*
X129297471Y-95799409D01*
X129285472Y-95782893D01*
X129285470Y-95782890D01*
X129249073Y-95752781D01*
X129244751Y-95748847D01*
X128415376Y-94919472D01*
X128381891Y-94858149D01*
X128386875Y-94788457D01*
X128428747Y-94732524D01*
X128494211Y-94708107D01*
X128543319Y-94714509D01*
X128562451Y-94721077D01*
X128585364Y-94728944D01*
X128807431Y-94766000D01*
X129032569Y-94766000D01*
X129254635Y-94728944D01*
X129467574Y-94655842D01*
X129665576Y-94548689D01*
X129843240Y-94410406D01*
X129995722Y-94244768D01*
X130086193Y-94106290D01*
X130139338Y-94060937D01*
X130208569Y-94051513D01*
X130271905Y-94081015D01*
X130293804Y-94106287D01*
X130384278Y-94244768D01*
X130384283Y-94244773D01*
X130384284Y-94244776D01*
X130536756Y-94410402D01*
X130536760Y-94410406D01*
X130714424Y-94548689D01*
X130714425Y-94548689D01*
X130714427Y-94548691D01*
X130767248Y-94577276D01*
X130912426Y-94655842D01*
X131125365Y-94728944D01*
X131347431Y-94766000D01*
X131572569Y-94766000D01*
X131794635Y-94728944D01*
X132007574Y-94655842D01*
X132205576Y-94548689D01*
X132383240Y-94410406D01*
X132446452Y-94341739D01*
X132506337Y-94305750D01*
X132576175Y-94307849D01*
X132633791Y-94347373D01*
X132653861Y-94382388D01*
X132671500Y-94429678D01*
X132699111Y-94503704D01*
X132786739Y-94620761D01*
X132903796Y-94708389D01*
X133040799Y-94759489D01*
X133068050Y-94762418D01*
X133101345Y-94765999D01*
X133101362Y-94766000D01*
X134898638Y-94766000D01*
X134898654Y-94765999D01*
X134925692Y-94763091D01*
X134959201Y-94759489D01*
X135096204Y-94708389D01*
X135213261Y-94620761D01*
X135300889Y-94503704D01*
X135351989Y-94366701D01*
X135355994Y-94329447D01*
X135358499Y-94306154D01*
X135358500Y-94306137D01*
X135358500Y-92508862D01*
X135358499Y-92508845D01*
X135353246Y-92459994D01*
X135351989Y-92448299D01*
X135349705Y-92442176D01*
X135322559Y-92369394D01*
X135300889Y-92311296D01*
X135213261Y-92194239D01*
X135096204Y-92106611D01*
X135096203Y-92106610D01*
X134959203Y-92055511D01*
X134898654Y-92049000D01*
X134898638Y-92049000D01*
X133101362Y-92049000D01*
X133101345Y-92049000D01*
X133040797Y-92055511D01*
X133040795Y-92055511D01*
X132903795Y-92106611D01*
X132786739Y-92194239D01*
X132699111Y-92311295D01*
X132653861Y-92432611D01*
X132611989Y-92488544D01*
X132546524Y-92512960D01*
X132478252Y-92498107D01*
X132446454Y-92473262D01*
X132383240Y-92404594D01*
X132205576Y-92266311D01*
X132205575Y-92266310D01*
X132205572Y-92266308D01*
X132160053Y-92241675D01*
X132110462Y-92192456D01*
X132096161Y-92127886D01*
X132095947Y-92127893D01*
X132095911Y-92126755D01*
X132095354Y-92124239D01*
X132095622Y-92120938D01*
X132095701Y-92120094D01*
X132095702Y-92120091D01*
X132093500Y-92050042D01*
X132093500Y-92020144D01*
X132092614Y-92013136D01*
X132092156Y-92007314D01*
X132090673Y-91960111D01*
X132090672Y-91960109D01*
X132084979Y-91940515D01*
X132081032Y-91921459D01*
X132078474Y-91901203D01*
X132061084Y-91857283D01*
X132059195Y-91851763D01*
X132049047Y-91816834D01*
X132046018Y-91806407D01*
X132035622Y-91788829D01*
X132027066Y-91771362D01*
X132019552Y-91752383D01*
X131991794Y-91714179D01*
X131988587Y-91709296D01*
X131973650Y-91684039D01*
X131964542Y-91668638D01*
X131950108Y-91654204D01*
X131937471Y-91639409D01*
X131925472Y-91622893D01*
X131925470Y-91622890D01*
X131889073Y-91592781D01*
X131884751Y-91588847D01*
X129607088Y-89311183D01*
X129597187Y-89298823D01*
X129596977Y-89298998D01*
X129592002Y-89292986D01*
X129592000Y-89292982D01*
X129556412Y-89259563D01*
X129540922Y-89245016D01*
X129519768Y-89223863D01*
X129517792Y-89222331D01*
X129514183Y-89219531D01*
X129509750Y-89215744D01*
X129475321Y-89183414D01*
X129475319Y-89183412D01*
X129457431Y-89173578D01*
X129441170Y-89162897D01*
X129425039Y-89150384D01*
X129381693Y-89131627D01*
X129376443Y-89129055D01*
X129358914Y-89119418D01*
X129309651Y-89069871D01*
X129294995Y-89001556D01*
X129319600Y-88936162D01*
X129366243Y-88898378D01*
X129496749Y-88837523D01*
X129684300Y-88706198D01*
X129846198Y-88544300D01*
X129977523Y-88356749D01*
X129997618Y-88313654D01*
X130043787Y-88261216D01*
X130110980Y-88242063D01*
X130177862Y-88262277D01*
X130222380Y-88313653D01*
X130242474Y-88356743D01*
X130242477Y-88356749D01*
X130373802Y-88544300D01*
X130535700Y-88706198D01*
X130691260Y-88815123D01*
X130734884Y-88869698D01*
X130744074Y-88912799D01*
X130746500Y-88989957D01*
X130746500Y-89019859D01*
X130747384Y-89026856D01*
X130747842Y-89032679D01*
X130749326Y-89079889D01*
X130749327Y-89079891D01*
X130755022Y-89099495D01*
X130758967Y-89118542D01*
X130761526Y-89138797D01*
X130761527Y-89138800D01*
X130761528Y-89138803D01*
X130778914Y-89182716D01*
X130780806Y-89188244D01*
X130793981Y-89233592D01*
X130804372Y-89251162D01*
X130812932Y-89268635D01*
X130820447Y-89287617D01*
X130848209Y-89325827D01*
X130851418Y-89330712D01*
X130872993Y-89367195D01*
X130875458Y-89371362D01*
X130875462Y-89371366D01*
X130889889Y-89385793D01*
X130902527Y-89400589D01*
X130914528Y-89417107D01*
X130914531Y-89417110D01*
X130950920Y-89447213D01*
X130955231Y-89451135D01*
X131313840Y-89809745D01*
X131392913Y-89888818D01*
X131402822Y-89901185D01*
X131403032Y-89901012D01*
X131408005Y-89907024D01*
X131459079Y-89954984D01*
X131480224Y-89976130D01*
X131485813Y-89980466D01*
X131490245Y-89984252D01*
X131522159Y-90014220D01*
X131524680Y-90016587D01*
X131542562Y-90026417D01*
X131558829Y-90037102D01*
X131574960Y-90049615D01*
X131596206Y-90058808D01*
X131618307Y-90068371D01*
X131623533Y-90070931D01*
X131664940Y-90093695D01*
X131684716Y-90098772D01*
X131703124Y-90105075D01*
X131721850Y-90113179D01*
X131721852Y-90113180D01*
X131721853Y-90113180D01*
X131721855Y-90113181D01*
X131762784Y-90119663D01*
X131768503Y-90120569D01*
X131774212Y-90121751D01*
X131819970Y-90133500D01*
X131840384Y-90133500D01*
X131859783Y-90135027D01*
X131879943Y-90138220D01*
X131926965Y-90133775D01*
X131932804Y-90133500D01*
X137186234Y-90133500D01*
X137253273Y-90153185D01*
X137273915Y-90169819D01*
X138029135Y-90925039D01*
X138062620Y-90986362D01*
X138057636Y-91056054D01*
X138015764Y-91111987D01*
X137984789Y-91128901D01*
X137903795Y-91159111D01*
X137786739Y-91246739D01*
X137699111Y-91363795D01*
X137648011Y-91500795D01*
X137648011Y-91500797D01*
X137641500Y-91561345D01*
X137641500Y-93358654D01*
X137648011Y-93419202D01*
X137648011Y-93419204D01*
X137683978Y-93515632D01*
X137699111Y-93556204D01*
X137786739Y-93673261D01*
X137903796Y-93760889D01*
X137955737Y-93780262D01*
X138021595Y-93804827D01*
X138077528Y-93846699D01*
X138101944Y-93912163D01*
X138087092Y-93980436D01*
X138069490Y-94004991D01*
X137924279Y-94162730D01*
X137924276Y-94162734D01*
X137801140Y-94351207D01*
X137710703Y-94557385D01*
X137655436Y-94775628D01*
X137655434Y-94775640D01*
X137636844Y-94999994D01*
X137636844Y-95000005D01*
X137655434Y-95224359D01*
X137655436Y-95224371D01*
X137710703Y-95442614D01*
X137801140Y-95648792D01*
X137924276Y-95837265D01*
X137924284Y-95837276D01*
X138063790Y-95988817D01*
X138076760Y-96002906D01*
X138254424Y-96141189D01*
X138254425Y-96141189D01*
X138254427Y-96141191D01*
X138326412Y-96180147D01*
X138452426Y-96248342D01*
X138665365Y-96321444D01*
X138887431Y-96358500D01*
X139112569Y-96358500D01*
X139334635Y-96321444D01*
X139547574Y-96248342D01*
X139745576Y-96141189D01*
X139923240Y-96002906D01*
X140041741Y-95874181D01*
X140075715Y-95837276D01*
X140075716Y-95837274D01*
X140075722Y-95837268D01*
X140198860Y-95648791D01*
X140289296Y-95442616D01*
X140344564Y-95224368D01*
X140354994Y-95098500D01*
X140363156Y-95000005D01*
X140363156Y-94999994D01*
X140344565Y-94775640D01*
X140344563Y-94775628D01*
X140305345Y-94620760D01*
X140289296Y-94557384D01*
X140198860Y-94351209D01*
X140192674Y-94341741D01*
X140088713Y-94182616D01*
X140075722Y-94162732D01*
X140075719Y-94162729D01*
X140075715Y-94162723D01*
X139930510Y-94004991D01*
X139899587Y-93942337D01*
X139907447Y-93872911D01*
X139951594Y-93818755D01*
X139978405Y-93804827D01*
X140058584Y-93774920D01*
X140096204Y-93760889D01*
X140213261Y-93673261D01*
X140300889Y-93556204D01*
X140351989Y-93419201D01*
X140355591Y-93385692D01*
X140358499Y-93358654D01*
X140358500Y-93358637D01*
X140358500Y-91561362D01*
X140358499Y-91561345D01*
X140352924Y-91509499D01*
X140351989Y-91500799D01*
X140300889Y-91363796D01*
X140213261Y-91246739D01*
X140096204Y-91159111D01*
X140096203Y-91159110D01*
X139959203Y-91108011D01*
X139898654Y-91101500D01*
X139898638Y-91101500D01*
X139757500Y-91101500D01*
X139690461Y-91081815D01*
X139644706Y-91029011D01*
X139633500Y-90977500D01*
X139633500Y-90960150D01*
X139633500Y-90960144D01*
X139632615Y-90953140D01*
X139632156Y-90947311D01*
X139630673Y-90900109D01*
X139624979Y-90880514D01*
X139621032Y-90861457D01*
X139618474Y-90841203D01*
X139601084Y-90797284D01*
X139599193Y-90791757D01*
X139586018Y-90746408D01*
X139586018Y-90746407D01*
X139575624Y-90728832D01*
X139567064Y-90711356D01*
X139559554Y-90692388D01*
X139559554Y-90692387D01*
X139559553Y-90692385D01*
X139559552Y-90692383D01*
X139531789Y-90654171D01*
X139528587Y-90649297D01*
X139504542Y-90608637D01*
X139490106Y-90594201D01*
X139477469Y-90579406D01*
X139465472Y-90562893D01*
X139429084Y-90532790D01*
X139424762Y-90528857D01*
X138007088Y-89111183D01*
X137997187Y-89098823D01*
X137996977Y-89098998D01*
X137992002Y-89092986D01*
X137992000Y-89092982D01*
X137956552Y-89059694D01*
X137940922Y-89045016D01*
X137919768Y-89023863D01*
X137917792Y-89022331D01*
X137914183Y-89019531D01*
X137909750Y-89015744D01*
X137875321Y-88983414D01*
X137875319Y-88983412D01*
X137857431Y-88973578D01*
X137841170Y-88962897D01*
X137825039Y-88950384D01*
X137781693Y-88931627D01*
X137776445Y-88929056D01*
X137746872Y-88912799D01*
X137735060Y-88906305D01*
X137731660Y-88905432D01*
X137715287Y-88901228D01*
X137696881Y-88894926D01*
X137678144Y-88886818D01*
X137678146Y-88886818D01*
X137631496Y-88879430D01*
X137625781Y-88878246D01*
X137605612Y-88873068D01*
X137580032Y-88866500D01*
X137580030Y-88866500D01*
X137559616Y-88866500D01*
X137540217Y-88864973D01*
X137520058Y-88861780D01*
X137520057Y-88861780D01*
X137473034Y-88866225D01*
X137467196Y-88866500D01*
X132363361Y-88866500D01*
X132296322Y-88846815D01*
X132250567Y-88794011D01*
X132240623Y-88724853D01*
X132269648Y-88661297D01*
X132275679Y-88654819D01*
X132275678Y-88654819D01*
X132386198Y-88544300D01*
X132517523Y-88356749D01*
X132614284Y-88149243D01*
X132673543Y-87928087D01*
X132688500Y-87757127D01*
X132688500Y-87242873D01*
X132673543Y-87071913D01*
X132614284Y-86850757D01*
X132517523Y-86643251D01*
X132386198Y-86455700D01*
X132224300Y-86293802D01*
X132036749Y-86162477D01*
X132036745Y-86162475D01*
X131829249Y-86065718D01*
X131829238Y-86065714D01*
X131608089Y-86006457D01*
X131608081Y-86006456D01*
X131380002Y-85986502D01*
X131379998Y-85986502D01*
X131151918Y-86006456D01*
X131151910Y-86006457D01*
X130930761Y-86065714D01*
X130930750Y-86065718D01*
X130723254Y-86162475D01*
X130723252Y-86162476D01*
X130723249Y-86162477D01*
X130723251Y-86162477D01*
X130535700Y-86293802D01*
X130535698Y-86293803D01*
X130535695Y-86293806D01*
X130373806Y-86455695D01*
X130242476Y-86643252D01*
X130222380Y-86686347D01*
X130176207Y-86738785D01*
X130109013Y-86757936D01*
X130042132Y-86737719D01*
X129997618Y-86686345D01*
X129977523Y-86643251D01*
X129846198Y-86455700D01*
X129684300Y-86293802D01*
X129496749Y-86162477D01*
X129496745Y-86162475D01*
X129289249Y-86065718D01*
X129289238Y-86065714D01*
X129068089Y-86006457D01*
X129068081Y-86006456D01*
X128840002Y-85986502D01*
X128839998Y-85986502D01*
X128611918Y-86006456D01*
X128611910Y-86006457D01*
X128390761Y-86065714D01*
X128390750Y-86065718D01*
X128183254Y-86162475D01*
X128183252Y-86162476D01*
X128183249Y-86162477D01*
X128183251Y-86162477D01*
X127995700Y-86293802D01*
X127995698Y-86293803D01*
X127995695Y-86293806D01*
X127833806Y-86455695D01*
X127702476Y-86643252D01*
X127682380Y-86686347D01*
X127636207Y-86738785D01*
X127569013Y-86757936D01*
X127502132Y-86737719D01*
X127457618Y-86686345D01*
X127437523Y-86643251D01*
X127306198Y-86455700D01*
X127144300Y-86293802D01*
X126956749Y-86162477D01*
X126956745Y-86162475D01*
X126749249Y-86065718D01*
X126749238Y-86065714D01*
X126528089Y-86006457D01*
X126528081Y-86006456D01*
X126300002Y-85986502D01*
X126299998Y-85986502D01*
X126071918Y-86006456D01*
X126071910Y-86006457D01*
X125850761Y-86065714D01*
X125850750Y-86065718D01*
X125643254Y-86162475D01*
X125643252Y-86162476D01*
X125643249Y-86162477D01*
X125643251Y-86162477D01*
X125455700Y-86293802D01*
X125455698Y-86293803D01*
X125455695Y-86293806D01*
X125293806Y-86455695D01*
X125162476Y-86643251D01*
X125142382Y-86686345D01*
X125096209Y-86738784D01*
X125029016Y-86757936D01*
X124962135Y-86737720D01*
X124917618Y-86686345D01*
X124897523Y-86643251D01*
X124766198Y-86455700D01*
X124604300Y-86293802D01*
X124416749Y-86162477D01*
X124416745Y-86162475D01*
X124209249Y-86065718D01*
X124209238Y-86065714D01*
X123988089Y-86006457D01*
X123988081Y-86006456D01*
X123760002Y-85986502D01*
X123759998Y-85986502D01*
X123531918Y-86006456D01*
X123531910Y-86006457D01*
X123310761Y-86065714D01*
X123310750Y-86065718D01*
X123103254Y-86162475D01*
X123103252Y-86162476D01*
X123103249Y-86162477D01*
X123103251Y-86162477D01*
X122915700Y-86293802D01*
X122915698Y-86293803D01*
X122915695Y-86293806D01*
X122753806Y-86455695D01*
X122622476Y-86643251D01*
X122602382Y-86686345D01*
X122556209Y-86738784D01*
X122489016Y-86757936D01*
X122422135Y-86737720D01*
X122377618Y-86686345D01*
X122357523Y-86643251D01*
X122357522Y-86643250D01*
X122226198Y-86455700D01*
X122064300Y-86293802D01*
X121876749Y-86162477D01*
X121876745Y-86162475D01*
X121669249Y-86065718D01*
X121669238Y-86065714D01*
X121448089Y-86006457D01*
X121448081Y-86006456D01*
X121220002Y-85986502D01*
X121219998Y-85986502D01*
X120991918Y-86006456D01*
X120991910Y-86006457D01*
X120770761Y-86065714D01*
X120770750Y-86065718D01*
X120563254Y-86162475D01*
X120563252Y-86162476D01*
X120563249Y-86162477D01*
X120563251Y-86162477D01*
X120375700Y-86293802D01*
X120375698Y-86293803D01*
X120375695Y-86293806D01*
X120213806Y-86455695D01*
X120082476Y-86643251D01*
X120062382Y-86686345D01*
X120016209Y-86738784D01*
X119949016Y-86757936D01*
X119882135Y-86737720D01*
X119837618Y-86686345D01*
X119817523Y-86643251D01*
X119686198Y-86455700D01*
X119524300Y-86293802D01*
X119336749Y-86162477D01*
X119336745Y-86162475D01*
X119129249Y-86065718D01*
X119129238Y-86065714D01*
X118908089Y-86006457D01*
X118908081Y-86006456D01*
X118680002Y-85986502D01*
X118679998Y-85986502D01*
X118451918Y-86006456D01*
X118451910Y-86006457D01*
X118230761Y-86065714D01*
X118230750Y-86065718D01*
X118023254Y-86162475D01*
X118023252Y-86162476D01*
X118023249Y-86162477D01*
X118023251Y-86162477D01*
X117835700Y-86293802D01*
X117835698Y-86293803D01*
X117835695Y-86293806D01*
X117673806Y-86455695D01*
X117542476Y-86643252D01*
X117542474Y-86643256D01*
X117517691Y-86696402D01*
X117471518Y-86748841D01*
X117404324Y-86767992D01*
X117337444Y-86747775D01*
X117292927Y-86696399D01*
X117270133Y-86647517D01*
X117139657Y-86461179D01*
X116978820Y-86300342D01*
X116792482Y-86169865D01*
X116586328Y-86073734D01*
X116389999Y-86021127D01*
X116390000Y-86887698D01*
X116370315Y-86954737D01*
X116317511Y-87000492D01*
X116248355Y-87010436D01*
X116175766Y-87000000D01*
X116175763Y-87000000D01*
X116104237Y-87000000D01*
X116104233Y-87000000D01*
X116031645Y-87010436D01*
X115962487Y-87000492D01*
X115909684Y-86954736D01*
X115890000Y-86887698D01*
X115890000Y-86021127D01*
X115693671Y-86073734D01*
X115487517Y-86169865D01*
X115301179Y-86300342D01*
X115140342Y-86461179D01*
X115009865Y-86647517D01*
X114987071Y-86696401D01*
X114940898Y-86748840D01*
X114873705Y-86767992D01*
X114806824Y-86747776D01*
X114762307Y-86696401D01*
X114737523Y-86643251D01*
X114606198Y-86455700D01*
X114444300Y-86293802D01*
X114256749Y-86162477D01*
X114256745Y-86162475D01*
X114049249Y-86065718D01*
X114049238Y-86065714D01*
X113828089Y-86006457D01*
X113828081Y-86006456D01*
X113600002Y-85986502D01*
X113599998Y-85986502D01*
X113371918Y-86006456D01*
X113371910Y-86006457D01*
X113150761Y-86065714D01*
X113150750Y-86065718D01*
X112943254Y-86162475D01*
X112943252Y-86162476D01*
X112943249Y-86162477D01*
X112943251Y-86162477D01*
X112755700Y-86293802D01*
X112755698Y-86293803D01*
X112755695Y-86293806D01*
X112593806Y-86455695D01*
X112462476Y-86643252D01*
X112462475Y-86643254D01*
X112365718Y-86850750D01*
X112365714Y-86850761D01*
X112306457Y-87071910D01*
X112306456Y-87071918D01*
X112291500Y-87242873D01*
X112291500Y-87757127D01*
X112306456Y-87928081D01*
X112306457Y-87928089D01*
X112365714Y-88149238D01*
X112365718Y-88149249D01*
X112437692Y-88303597D01*
X112462477Y-88356749D01*
X112593802Y-88544300D01*
X112755700Y-88706198D01*
X112913625Y-88816779D01*
X112957249Y-88871354D01*
X112966500Y-88918352D01*
X112966500Y-89086232D01*
X112946815Y-89153271D01*
X112930181Y-89173913D01*
X109584475Y-92519618D01*
X109523152Y-92553103D01*
X109453460Y-92548119D01*
X109397527Y-92506247D01*
X109373217Y-92442176D01*
X109355945Y-92233729D01*
X109300210Y-92013638D01*
X109209009Y-91805720D01*
X109129511Y-91684039D01*
X108644808Y-92168743D01*
X108583485Y-92202228D01*
X108513793Y-92197244D01*
X108457860Y-92155372D01*
X108454000Y-92149221D01*
X108449435Y-92142753D01*
X108347178Y-92033263D01*
X108311660Y-92011664D01*
X108264609Y-91960012D01*
X108252952Y-91891121D01*
X108280391Y-91826865D01*
X108288409Y-91818036D01*
X108777420Y-91329025D01*
X108751884Y-91309149D01*
X108751881Y-91309147D01*
X108552215Y-91201094D01*
X108552201Y-91201088D01*
X108337471Y-91127370D01*
X108113520Y-91090000D01*
X107886480Y-91090000D01*
X107662528Y-91127370D01*
X107447798Y-91201088D01*
X107447789Y-91201091D01*
X107248112Y-91309151D01*
X107222577Y-91329025D01*
X107710387Y-91816834D01*
X107743872Y-91878157D01*
X107738888Y-91947848D01*
X107700962Y-92000702D01*
X107597954Y-92084507D01*
X107597948Y-92084513D01*
X107547535Y-92155931D01*
X107492792Y-92199348D01*
X107423267Y-92206277D01*
X107361032Y-92174518D01*
X107358550Y-92172103D01*
X106870486Y-91684039D01*
X106790991Y-91805717D01*
X106699789Y-92013638D01*
X106644054Y-92233729D01*
X106644052Y-92233741D01*
X106625305Y-92459994D01*
X106625305Y-92460005D01*
X106644052Y-92686258D01*
X106644054Y-92686270D01*
X106699789Y-92906361D01*
X106790990Y-93114279D01*
X106870487Y-93235959D01*
X107355191Y-92751255D01*
X107416514Y-92717770D01*
X107486205Y-92722754D01*
X107542139Y-92764625D01*
X107546003Y-92770784D01*
X107550564Y-92777246D01*
X107629941Y-92862237D01*
X107652823Y-92886737D01*
X107688338Y-92908334D01*
X107735389Y-92959985D01*
X107747046Y-93028875D01*
X107719608Y-93093132D01*
X107711589Y-93101962D01*
X107183032Y-93630520D01*
X107180425Y-93627913D01*
X107153853Y-93653987D01*
X107134464Y-93662303D01*
X107057264Y-93687884D01*
X107057259Y-93687886D01*
X106906346Y-93780971D01*
X106780971Y-93906346D01*
X106687886Y-94057259D01*
X106687884Y-94057264D01*
X106632113Y-94225572D01*
X106621500Y-94329447D01*
X106621500Y-95670537D01*
X106621501Y-95670553D01*
X106632113Y-95774427D01*
X106687884Y-95942735D01*
X106687886Y-95942740D01*
X106691872Y-95949202D01*
X106780970Y-96093652D01*
X106906348Y-96219030D01*
X107057262Y-96312115D01*
X107225574Y-96367887D01*
X107329455Y-96378500D01*
X108670544Y-96378499D01*
X108774426Y-96367887D01*
X108942738Y-96312115D01*
X109093652Y-96219030D01*
X109219030Y-96093652D01*
X109312115Y-95942738D01*
X109367887Y-95774426D01*
X109378500Y-95670545D01*
X109378499Y-94568765D01*
X109398184Y-94501727D01*
X109414813Y-94481090D01*
X113988817Y-89907086D01*
X114001178Y-89897185D01*
X114001004Y-89896975D01*
X114007013Y-89892002D01*
X114007018Y-89892000D01*
X114054983Y-89840921D01*
X114076135Y-89819770D01*
X114080461Y-89814192D01*
X114084250Y-89809755D01*
X114116586Y-89775321D01*
X114126419Y-89757432D01*
X114137102Y-89741169D01*
X114149614Y-89725041D01*
X114168371Y-89681691D01*
X114170941Y-89676447D01*
X114193693Y-89635064D01*
X114193693Y-89635063D01*
X114193695Y-89635060D01*
X114198774Y-89615273D01*
X114205070Y-89596885D01*
X114213181Y-89578145D01*
X114220569Y-89531497D01*
X114221751Y-89525786D01*
X114233500Y-89480030D01*
X114233500Y-89459614D01*
X114235027Y-89440214D01*
X114238220Y-89420057D01*
X114233775Y-89373033D01*
X114233500Y-89367195D01*
X114233500Y-88918352D01*
X114253185Y-88851313D01*
X114286373Y-88816779D01*
X114444300Y-88706198D01*
X114606198Y-88544300D01*
X114737523Y-88356749D01*
X114762307Y-88303598D01*
X114808479Y-88251159D01*
X114875672Y-88232007D01*
X114942553Y-88252222D01*
X114987071Y-88303599D01*
X115009864Y-88352479D01*
X115009865Y-88352481D01*
X115140342Y-88538820D01*
X115301179Y-88699657D01*
X115487517Y-88830134D01*
X115693673Y-88926265D01*
X115693682Y-88926269D01*
X115889999Y-88978872D01*
X115890000Y-88978871D01*
X115890000Y-88112301D01*
X115909685Y-88045262D01*
X115962489Y-87999507D01*
X116031647Y-87989563D01*
X116104237Y-88000000D01*
X116104238Y-88000000D01*
X116175762Y-88000000D01*
X116175763Y-88000000D01*
X116248353Y-87989563D01*
X116317512Y-87999507D01*
X116370315Y-88045262D01*
X116390000Y-88112301D01*
X116390000Y-88978872D01*
X116586317Y-88926269D01*
X116586326Y-88926265D01*
X116792482Y-88830134D01*
X116978820Y-88699657D01*
X117139657Y-88538820D01*
X117270133Y-88352483D01*
X117292927Y-88303600D01*
X117339098Y-88251160D01*
X117406292Y-88232007D01*
X117473173Y-88252221D01*
X117517691Y-88303596D01*
X117542477Y-88356749D01*
X117673802Y-88544300D01*
X117835700Y-88706198D01*
X118023251Y-88837523D01*
X118126608Y-88885719D01*
X118230750Y-88934281D01*
X118230752Y-88934281D01*
X118230757Y-88934284D01*
X118451913Y-88993543D01*
X118614832Y-89007796D01*
X118679998Y-89013498D01*
X118680000Y-89013498D01*
X118680002Y-89013498D01*
X118737021Y-89008509D01*
X118908087Y-88993543D01*
X119129243Y-88934284D01*
X119336749Y-88837523D01*
X119524300Y-88706198D01*
X119686198Y-88544300D01*
X119817523Y-88356749D01*
X119837617Y-88313655D01*
X119883790Y-88261215D01*
X119950983Y-88242063D01*
X120017864Y-88262278D01*
X120062382Y-88313655D01*
X120082477Y-88356749D01*
X120213802Y-88544300D01*
X120375700Y-88706198D01*
X120563251Y-88837523D01*
X120666608Y-88885719D01*
X120770750Y-88934281D01*
X120770752Y-88934281D01*
X120770757Y-88934284D01*
X120991913Y-88993543D01*
X121154832Y-89007796D01*
X121219998Y-89013498D01*
X121220000Y-89013498D01*
X121220002Y-89013498D01*
X121277021Y-89008509D01*
X121448087Y-88993543D01*
X121669243Y-88934284D01*
X121669254Y-88934278D01*
X121670388Y-88933975D01*
X121740238Y-88935638D01*
X121790164Y-88966069D01*
X122912912Y-90088817D01*
X122922819Y-90101182D01*
X122923029Y-90101009D01*
X122928000Y-90107018D01*
X122979079Y-90154983D01*
X122989653Y-90165558D01*
X123000228Y-90176134D01*
X123000231Y-90176136D01*
X123005818Y-90180471D01*
X123010255Y-90184261D01*
X123044680Y-90216587D01*
X123062562Y-90226417D01*
X123078829Y-90237102D01*
X123094960Y-90249615D01*
X123116838Y-90259081D01*
X123138307Y-90268371D01*
X123143533Y-90270931D01*
X123184940Y-90293695D01*
X123204716Y-90298772D01*
X123223124Y-90305075D01*
X123241850Y-90313179D01*
X123241852Y-90313180D01*
X123241853Y-90313180D01*
X123241855Y-90313181D01*
X123282784Y-90319663D01*
X123288503Y-90320569D01*
X123294212Y-90321751D01*
X123339970Y-90333500D01*
X123360384Y-90333500D01*
X123379783Y-90335027D01*
X123399943Y-90338220D01*
X123446965Y-90333775D01*
X123452804Y-90333500D01*
X128786234Y-90333500D01*
X128853273Y-90353185D01*
X128873915Y-90369819D01*
X130646615Y-92142520D01*
X130680100Y-92203843D01*
X130675116Y-92273535D01*
X130635097Y-92328054D01*
X130536761Y-92404592D01*
X130536756Y-92404597D01*
X130384284Y-92570223D01*
X130384276Y-92570234D01*
X130293808Y-92708706D01*
X130240662Y-92754062D01*
X130171431Y-92763486D01*
X130108095Y-92733984D01*
X130086192Y-92708706D01*
X130014394Y-92598812D01*
X129995722Y-92570232D01*
X129995719Y-92570229D01*
X129995715Y-92570223D01*
X129843243Y-92404597D01*
X129843238Y-92404592D01*
X129665577Y-92266312D01*
X129665572Y-92266308D01*
X129467580Y-92159161D01*
X129467577Y-92159159D01*
X129467574Y-92159158D01*
X129467571Y-92159157D01*
X129467569Y-92159156D01*
X129254637Y-92086056D01*
X129032569Y-92049000D01*
X128807431Y-92049000D01*
X128585362Y-92086056D01*
X128372430Y-92159156D01*
X128372419Y-92159161D01*
X128174427Y-92266308D01*
X128174422Y-92266312D01*
X127996761Y-92404592D01*
X127996756Y-92404597D01*
X127844284Y-92570223D01*
X127844276Y-92570234D01*
X127750251Y-92714150D01*
X127697105Y-92759507D01*
X127627873Y-92768930D01*
X127564538Y-92739428D01*
X127544868Y-92717451D01*
X127418113Y-92536426D01*
X127418108Y-92536420D01*
X127251082Y-92369394D01*
X127057578Y-92233899D01*
X126843492Y-92134070D01*
X126843486Y-92134067D01*
X126630000Y-92076864D01*
X126630000Y-92795198D01*
X126610315Y-92862237D01*
X126557511Y-92907992D01*
X126488355Y-92917936D01*
X126415766Y-92907500D01*
X126415763Y-92907500D01*
X126344237Y-92907500D01*
X126344233Y-92907500D01*
X126271645Y-92917936D01*
X126202487Y-92907992D01*
X126149684Y-92862236D01*
X126130000Y-92795198D01*
X126129999Y-92076864D01*
X125916513Y-92134067D01*
X125916507Y-92134070D01*
X125702422Y-92233899D01*
X125702420Y-92233900D01*
X125508926Y-92369386D01*
X125508920Y-92369391D01*
X125341891Y-92536420D01*
X125341886Y-92536426D01*
X125206400Y-92729920D01*
X125206399Y-92729922D01*
X125106570Y-92944007D01*
X125106567Y-92944013D01*
X125049364Y-93157499D01*
X125049364Y-93157500D01*
X125766653Y-93157500D01*
X125833692Y-93177185D01*
X125879447Y-93229989D01*
X125889391Y-93299147D01*
X125885631Y-93316433D01*
X125880000Y-93335611D01*
X125880000Y-93479388D01*
X125885631Y-93498567D01*
X125885630Y-93568436D01*
X125847855Y-93627214D01*
X125784299Y-93656238D01*
X125766653Y-93657500D01*
X125049364Y-93657500D01*
X125106569Y-93870992D01*
X125107822Y-93874434D01*
X125107924Y-93876051D01*
X125107970Y-93876220D01*
X125107936Y-93876229D01*
X125112255Y-93944162D01*
X125078286Y-94005219D01*
X125016700Y-94038218D01*
X124947050Y-94032682D01*
X124903620Y-94004528D01*
X122469914Y-91570822D01*
X122436429Y-91509499D01*
X122437390Y-91452700D01*
X122444561Y-91424380D01*
X122444563Y-91424371D01*
X122444564Y-91424368D01*
X122444565Y-91424359D01*
X122463156Y-91200005D01*
X122463156Y-91199994D01*
X122444565Y-90975640D01*
X122444563Y-90975628D01*
X122410522Y-90841203D01*
X122389296Y-90757384D01*
X122298860Y-90551209D01*
X122295989Y-90546815D01*
X122175723Y-90362734D01*
X122175715Y-90362723D01*
X122023243Y-90197097D01*
X122023238Y-90197092D01*
X121845577Y-90058812D01*
X121845572Y-90058808D01*
X121647580Y-89951661D01*
X121647577Y-89951659D01*
X121647574Y-89951658D01*
X121647571Y-89951657D01*
X121647569Y-89951656D01*
X121434637Y-89878556D01*
X121212569Y-89841500D01*
X120987431Y-89841500D01*
X120765362Y-89878556D01*
X120552430Y-89951656D01*
X120552419Y-89951661D01*
X120354427Y-90058808D01*
X120354422Y-90058812D01*
X120176761Y-90197092D01*
X120176756Y-90197097D01*
X120024284Y-90362723D01*
X120024276Y-90362734D01*
X119927852Y-90510322D01*
X119874706Y-90555679D01*
X119824044Y-90566500D01*
X117475956Y-90566500D01*
X117408917Y-90546815D01*
X117372148Y-90510322D01*
X117275723Y-90362734D01*
X117275715Y-90362723D01*
X117123243Y-90197097D01*
X117123238Y-90197092D01*
X116945577Y-90058812D01*
X116945572Y-90058808D01*
X116747580Y-89951661D01*
X116747577Y-89951659D01*
X116747574Y-89951658D01*
X116747571Y-89951657D01*
X116747569Y-89951656D01*
X116534637Y-89878556D01*
X116312569Y-89841500D01*
X116087431Y-89841500D01*
X115865362Y-89878556D01*
X115652430Y-89951656D01*
X115652419Y-89951661D01*
X115454427Y-90058808D01*
X115454422Y-90058812D01*
X115276761Y-90197092D01*
X115276756Y-90197097D01*
X115124284Y-90362723D01*
X115124276Y-90362734D01*
X115001140Y-90551207D01*
X114910703Y-90757385D01*
X114855436Y-90975628D01*
X114855434Y-90975640D01*
X114836844Y-91199994D01*
X114836844Y-91200005D01*
X114855434Y-91424359D01*
X114855436Y-91424371D01*
X114910703Y-91642614D01*
X115001140Y-91848792D01*
X115124276Y-92037265D01*
X115124284Y-92037276D01*
X115276756Y-92202902D01*
X115276761Y-92202907D01*
X115335981Y-92249000D01*
X115454424Y-92341189D01*
X115454429Y-92341191D01*
X115454431Y-92341193D01*
X115490930Y-92360946D01*
X115540520Y-92410165D01*
X115555628Y-92478382D01*
X115531457Y-92543937D01*
X115490930Y-92579054D01*
X115454431Y-92598806D01*
X115454422Y-92598812D01*
X115276761Y-92737092D01*
X115276756Y-92737097D01*
X115124284Y-92902723D01*
X115124276Y-92902734D01*
X115001140Y-93091207D01*
X114910703Y-93297385D01*
X114855436Y-93515628D01*
X114855434Y-93515640D01*
X114836844Y-93739994D01*
X114836844Y-93740005D01*
X114855434Y-93964359D01*
X114855436Y-93964371D01*
X114910703Y-94182614D01*
X115001140Y-94388792D01*
X115124276Y-94577265D01*
X115124284Y-94577276D01*
X115276756Y-94742902D01*
X115276761Y-94742907D01*
X115306431Y-94766000D01*
X115454424Y-94881189D01*
X115497693Y-94904605D01*
X115497695Y-94904606D01*
X115547286Y-94953825D01*
X115562394Y-95022042D01*
X115538224Y-95087597D01*
X115509802Y-95115236D01*
X115328922Y-95241890D01*
X115328920Y-95241891D01*
X115161891Y-95408920D01*
X115161886Y-95408926D01*
X115026400Y-95602420D01*
X115026399Y-95602422D01*
X114926570Y-95816507D01*
X114926567Y-95816513D01*
X114869364Y-96029999D01*
X114869364Y-96030000D01*
X115586653Y-96030000D01*
X115653692Y-96049685D01*
X115699447Y-96102489D01*
X115709391Y-96171647D01*
X115705631Y-96188933D01*
X115700000Y-96208111D01*
X115700000Y-96351888D01*
X115705631Y-96371067D01*
X115705630Y-96440936D01*
X115667855Y-96499714D01*
X115604299Y-96528738D01*
X115586653Y-96530000D01*
X114869364Y-96530000D01*
X114926567Y-96743486D01*
X114926570Y-96743492D01*
X115026399Y-96957578D01*
X115161894Y-97151082D01*
X115277727Y-97266915D01*
X115311212Y-97328238D01*
X115306228Y-97397930D01*
X115264356Y-97453863D01*
X115233381Y-97470777D01*
X115103795Y-97519111D01*
X114986739Y-97606739D01*
X114899111Y-97723795D01*
X114848011Y-97860795D01*
X114848011Y-97860797D01*
X114841500Y-97921345D01*
X114841500Y-99718654D01*
X114848011Y-99779202D01*
X114848011Y-99779204D01*
X114891899Y-99896869D01*
X114899111Y-99916204D01*
X114986739Y-100033261D01*
X115103796Y-100120889D01*
X115240799Y-100171989D01*
X115268050Y-100174918D01*
X115301345Y-100178499D01*
X115301362Y-100178500D01*
X117098638Y-100178500D01*
X117098654Y-100178499D01*
X117125692Y-100175591D01*
X117159201Y-100171989D01*
X117296204Y-100120889D01*
X117413261Y-100033261D01*
X117500889Y-99916204D01*
X117551989Y-99779201D01*
X117557731Y-99725793D01*
X117558499Y-99718654D01*
X117558498Y-99718647D01*
X117558500Y-99718638D01*
X117558500Y-97921362D01*
X117558498Y-97921352D01*
X117558499Y-97921345D01*
X117555157Y-97890270D01*
X117551989Y-97860799D01*
X117547325Y-97848295D01*
X117501842Y-97726352D01*
X117500889Y-97723796D01*
X117413261Y-97606739D01*
X117296204Y-97519111D01*
X117296202Y-97519110D01*
X117296204Y-97519110D01*
X117166619Y-97470777D01*
X117110685Y-97428906D01*
X117086269Y-97363441D01*
X117101121Y-97295168D01*
X117122272Y-97266914D01*
X117238108Y-97151078D01*
X117373600Y-96957578D01*
X117473429Y-96743492D01*
X117473432Y-96743486D01*
X117530636Y-96530000D01*
X116813347Y-96530000D01*
X116746308Y-96510315D01*
X116700553Y-96457511D01*
X116690609Y-96388353D01*
X116694369Y-96371067D01*
X116700000Y-96351888D01*
X116700000Y-96208111D01*
X116694369Y-96188933D01*
X116694370Y-96119064D01*
X116732145Y-96060286D01*
X116795701Y-96031262D01*
X116813347Y-96030000D01*
X117530636Y-96030000D01*
X117530635Y-96029999D01*
X117473432Y-95816513D01*
X117473429Y-95816507D01*
X117373600Y-95602422D01*
X117373599Y-95602420D01*
X117238113Y-95408926D01*
X117238108Y-95408920D01*
X117071082Y-95241894D01*
X116890197Y-95115236D01*
X116846572Y-95060659D01*
X116839380Y-94991160D01*
X116870902Y-94928806D01*
X116902300Y-94904608D01*
X116945576Y-94881189D01*
X117123240Y-94742906D01*
X117226748Y-94630467D01*
X117275715Y-94577276D01*
X117275716Y-94577274D01*
X117275722Y-94577268D01*
X117332572Y-94490253D01*
X117372148Y-94429678D01*
X117425294Y-94384321D01*
X117475956Y-94373500D01*
X119824044Y-94373500D01*
X119891083Y-94393185D01*
X119927852Y-94429678D01*
X120024276Y-94577265D01*
X120024284Y-94577276D01*
X120176756Y-94742902D01*
X120176761Y-94742907D01*
X120206431Y-94766000D01*
X120354424Y-94881189D01*
X120397693Y-94904605D01*
X120397695Y-94904606D01*
X120447286Y-94953825D01*
X120462394Y-95022042D01*
X120438224Y-95087597D01*
X120409802Y-95115236D01*
X120228922Y-95241890D01*
X120228920Y-95241891D01*
X120061891Y-95408920D01*
X120061886Y-95408926D01*
X119926400Y-95602420D01*
X119926399Y-95602422D01*
X119826570Y-95816507D01*
X119826567Y-95816513D01*
X119769364Y-96029999D01*
X119769364Y-96030000D01*
X120486653Y-96030000D01*
X120553692Y-96049685D01*
X120599447Y-96102489D01*
X120609391Y-96171647D01*
X120605631Y-96188933D01*
X120600000Y-96208111D01*
X120600000Y-96351888D01*
X120605631Y-96371067D01*
X120605630Y-96440936D01*
X120567855Y-96499714D01*
X120504299Y-96528738D01*
X120486653Y-96530000D01*
X119769364Y-96530000D01*
X119826567Y-96743486D01*
X119826570Y-96743492D01*
X119926399Y-96957578D01*
X120061894Y-97151082D01*
X120177727Y-97266915D01*
X120211212Y-97328238D01*
X120206228Y-97397930D01*
X120164356Y-97453863D01*
X120133381Y-97470777D01*
X120003795Y-97519111D01*
X119886739Y-97606739D01*
X119799111Y-97723795D01*
X119748011Y-97860795D01*
X119748011Y-97860797D01*
X119741500Y-97921345D01*
X119741500Y-99718654D01*
X119748011Y-99779202D01*
X119748011Y-99779204D01*
X119791899Y-99896869D01*
X119799111Y-99916204D01*
X119886739Y-100033261D01*
X120003796Y-100120889D01*
X120140799Y-100171989D01*
X120168050Y-100174918D01*
X120201345Y-100178499D01*
X120201362Y-100178500D01*
X121998638Y-100178500D01*
X121998654Y-100178499D01*
X122025692Y-100175591D01*
X122059201Y-100171989D01*
X122196204Y-100120889D01*
X122313261Y-100033261D01*
X122400889Y-99916204D01*
X122451989Y-99779201D01*
X122457731Y-99725793D01*
X122458499Y-99718654D01*
X122458498Y-99718647D01*
X122458500Y-99718638D01*
X122458500Y-97921362D01*
X122458498Y-97921352D01*
X122458499Y-97921345D01*
X122455157Y-97890270D01*
X122451989Y-97860799D01*
X122447325Y-97848295D01*
X122401842Y-97726352D01*
X122400889Y-97723796D01*
X122313261Y-97606739D01*
X122196204Y-97519111D01*
X122196202Y-97519110D01*
X122196204Y-97519110D01*
X122066619Y-97470777D01*
X122010685Y-97428906D01*
X121986269Y-97363441D01*
X122001121Y-97295168D01*
X122022272Y-97266914D01*
X122138108Y-97151078D01*
X122273600Y-96957578D01*
X122373429Y-96743492D01*
X122373432Y-96743486D01*
X122430636Y-96530000D01*
X121713347Y-96530000D01*
X121646308Y-96510315D01*
X121600553Y-96457511D01*
X121590609Y-96388353D01*
X121594369Y-96371067D01*
X121600000Y-96351888D01*
X121600000Y-96208111D01*
X121594369Y-96188933D01*
X121594370Y-96119064D01*
X121632145Y-96060286D01*
X121695701Y-96031262D01*
X121713347Y-96030000D01*
X122430636Y-96030000D01*
X122430635Y-96029999D01*
X122373432Y-95816513D01*
X122373429Y-95816507D01*
X122273600Y-95602422D01*
X122273599Y-95602420D01*
X122138113Y-95408926D01*
X122138108Y-95408920D01*
X121971082Y-95241894D01*
X121790197Y-95115236D01*
X121746572Y-95060659D01*
X121739380Y-94991160D01*
X121770902Y-94928806D01*
X121802300Y-94904608D01*
X121845576Y-94881189D01*
X122023240Y-94742906D01*
X122126748Y-94630467D01*
X122175715Y-94577276D01*
X122175716Y-94577274D01*
X122175722Y-94577268D01*
X122232572Y-94490253D01*
X122272148Y-94429678D01*
X122325294Y-94384321D01*
X122375956Y-94373500D01*
X122863734Y-94373500D01*
X122930773Y-94393185D01*
X122951415Y-94409819D01*
X124530414Y-95988817D01*
X124540318Y-96001178D01*
X124540528Y-96001005D01*
X124545503Y-96007019D01*
X124596580Y-96054984D01*
X124617726Y-96076130D01*
X124623315Y-96080466D01*
X124627747Y-96084252D01*
X124645059Y-96100508D01*
X124662182Y-96116587D01*
X124680064Y-96126417D01*
X124696331Y-96137102D01*
X124712462Y-96149615D01*
X124734340Y-96159081D01*
X124755809Y-96168371D01*
X124761035Y-96170931D01*
X124802442Y-96193695D01*
X124822218Y-96198772D01*
X124840626Y-96205075D01*
X124859352Y-96213179D01*
X124859354Y-96213180D01*
X124859355Y-96213180D01*
X124859357Y-96213181D01*
X124896288Y-96219030D01*
X124906005Y-96220569D01*
X124911714Y-96221751D01*
X124957472Y-96233500D01*
X124977886Y-96233500D01*
X124997285Y-96235027D01*
X125017445Y-96238220D01*
X125064467Y-96233775D01*
X125070306Y-96233500D01*
X126886234Y-96233500D01*
X126953273Y-96253185D01*
X126973915Y-96269819D01*
X127150182Y-96446086D01*
X127183666Y-96507407D01*
X127186500Y-96533765D01*
X127186499Y-97361609D01*
X127166814Y-97428649D01*
X127114010Y-97474403D01*
X127083877Y-97478735D01*
X127069999Y-97489973D01*
X127069999Y-97781314D01*
X127053386Y-97843314D01*
X126984613Y-97962432D01*
X126934046Y-98010648D01*
X126865439Y-98023871D01*
X126800574Y-97997902D01*
X126760046Y-97940988D01*
X126754396Y-97912106D01*
X126753856Y-97912165D01*
X126750184Y-97878025D01*
X126746989Y-97848299D01*
X126745129Y-97843313D01*
X126722004Y-97781313D01*
X126695889Y-97711296D01*
X126608261Y-97594239D01*
X126608259Y-97594237D01*
X126608258Y-97594236D01*
X126606319Y-97592297D01*
X126605004Y-97589890D01*
X126602946Y-97587140D01*
X126603341Y-97586843D01*
X126572834Y-97530974D01*
X126570000Y-97504616D01*
X126570000Y-97489973D01*
X126526696Y-97499178D01*
X126457581Y-97494070D01*
X126354201Y-97455510D01*
X126293654Y-97449000D01*
X126293638Y-97449000D01*
X125346362Y-97449000D01*
X125346345Y-97449000D01*
X125285797Y-97455511D01*
X125285795Y-97455511D01*
X125148795Y-97506611D01*
X125031739Y-97594239D01*
X124944111Y-97711295D01*
X124893011Y-97848295D01*
X124893011Y-97848297D01*
X124886500Y-97908845D01*
X124886500Y-98856154D01*
X124893011Y-98916702D01*
X124893011Y-98916704D01*
X124924080Y-99000000D01*
X124944111Y-99053704D01*
X125031739Y-99170761D01*
X125148796Y-99258389D01*
X125285799Y-99309489D01*
X125313050Y-99312418D01*
X125346345Y-99315999D01*
X125346362Y-99316000D01*
X126293638Y-99316000D01*
X126293654Y-99315999D01*
X126354201Y-99309489D01*
X126354204Y-99309488D01*
X126457581Y-99270929D01*
X126526692Y-99265820D01*
X126569999Y-99275024D01*
X126570000Y-99275024D01*
X126570000Y-99260384D01*
X126589685Y-99193345D01*
X126606324Y-99172697D01*
X126608253Y-99170766D01*
X126608261Y-99170761D01*
X126695889Y-99053704D01*
X126746989Y-98916701D01*
X126750404Y-98884928D01*
X126753856Y-98852835D01*
X126755165Y-98852975D01*
X126776616Y-98792086D01*
X126831774Y-98749198D01*
X126901362Y-98742939D01*
X126963288Y-98775296D01*
X126984613Y-98802567D01*
X127053386Y-98921686D01*
X127069999Y-98983686D01*
X127069999Y-99275024D01*
X127082226Y-99284925D01*
X127108619Y-99286940D01*
X127164352Y-99329078D01*
X127188456Y-99394658D01*
X127188670Y-99399014D01*
X127189326Y-99419888D01*
X127189327Y-99419891D01*
X127195022Y-99439495D01*
X127198967Y-99458542D01*
X127201526Y-99478797D01*
X127201527Y-99478800D01*
X127201528Y-99478803D01*
X127218914Y-99522716D01*
X127220806Y-99528244D01*
X127233981Y-99573592D01*
X127244372Y-99591162D01*
X127252932Y-99608635D01*
X127260447Y-99627617D01*
X127288209Y-99665827D01*
X127291416Y-99670710D01*
X127315458Y-99711362D01*
X127315462Y-99711366D01*
X127329889Y-99725793D01*
X127342526Y-99740588D01*
X127354528Y-99757107D01*
X127390931Y-99787222D01*
X127395231Y-99791135D01*
X127744999Y-100140903D01*
X128092415Y-100488319D01*
X128125900Y-100549642D01*
X128120916Y-100619334D01*
X128079044Y-100675267D01*
X128013580Y-100699684D01*
X128004734Y-100700000D01*
X105274000Y-100700000D01*
X105206961Y-100680315D01*
X105161206Y-100627511D01*
X105150000Y-100576000D01*
X105150000Y-98999999D01*
X105944417Y-98999999D01*
X105964699Y-99205932D01*
X105980612Y-99258389D01*
X106024768Y-99403954D01*
X106122315Y-99586450D01*
X106140522Y-99608635D01*
X106253589Y-99746410D01*
X106305579Y-99789076D01*
X106413550Y-99877685D01*
X106596046Y-99975232D01*
X106794066Y-100035300D01*
X106794065Y-100035300D01*
X106814347Y-100037297D01*
X107000000Y-100055583D01*
X107205934Y-100035300D01*
X107403954Y-99975232D01*
X107586450Y-99877685D01*
X107746410Y-99746410D01*
X107877685Y-99586450D01*
X107975232Y-99403954D01*
X108035300Y-99205934D01*
X108055583Y-99000000D01*
X108035300Y-98794066D01*
X107975232Y-98596046D01*
X107877685Y-98413550D01*
X107825702Y-98350209D01*
X107746410Y-98253589D01*
X107616535Y-98147005D01*
X107586450Y-98122315D01*
X107403954Y-98024768D01*
X107205934Y-97964700D01*
X107205932Y-97964699D01*
X107205934Y-97964699D01*
X107018463Y-97946235D01*
X107000000Y-97944417D01*
X106999999Y-97944417D01*
X106794067Y-97964699D01*
X106596043Y-98024769D01*
X106547905Y-98050500D01*
X106413550Y-98122315D01*
X106413548Y-98122316D01*
X106413547Y-98122317D01*
X106253589Y-98253589D01*
X106122317Y-98413547D01*
X106024769Y-98596043D01*
X105964699Y-98794067D01*
X105944417Y-98999999D01*
X105150000Y-98999999D01*
X105150000Y-60598966D01*
X105169685Y-60531927D01*
X105222489Y-60486172D01*
X105291647Y-60476228D01*
X105355203Y-60505253D01*
X105392977Y-60564031D01*
X105393775Y-60566873D01*
X105420041Y-60664902D01*
X105420043Y-60664906D01*
X105420044Y-60664910D01*
X105472042Y-60776420D01*
X105509410Y-60856556D01*
X105509411Y-60856558D01*
X105630700Y-61029778D01*
X105780221Y-61179299D01*
X105780224Y-61179301D01*
X105953442Y-61300589D01*
X106145090Y-61389956D01*
X106349345Y-61444686D01*
X106499812Y-61457850D01*
X106559998Y-61463116D01*
X106560000Y-61463116D01*
X106560002Y-61463116D01*
X106589198Y-61460561D01*
X106770655Y-61444686D01*
X106770990Y-61444596D01*
X106771144Y-61444599D01*
X106775992Y-61443745D01*
X106776163Y-61444718D01*
X106840840Y-61446249D01*
X106890781Y-61476685D01*
X107552910Y-62138814D01*
X107562816Y-62151178D01*
X107563026Y-62151005D01*
X107568001Y-62157019D01*
X107619094Y-62204999D01*
X107640225Y-62226129D01*
X107640230Y-62226134D01*
X107645802Y-62230456D01*
X107650242Y-62234249D01*
X107684678Y-62266586D01*
X107702567Y-62276420D01*
X107718833Y-62287104D01*
X107734959Y-62299613D01*
X107778298Y-62318367D01*
X107783545Y-62320937D01*
X107824940Y-62343695D01*
X107844718Y-62348773D01*
X107863121Y-62355074D01*
X107881852Y-62363180D01*
X107881853Y-62363180D01*
X107881855Y-62363181D01*
X107909250Y-62367519D01*
X107928497Y-62370568D01*
X107934213Y-62371751D01*
X107979970Y-62383500D01*
X108000390Y-62383500D01*
X108019789Y-62385027D01*
X108039941Y-62388218D01*
X108039942Y-62388219D01*
X108039942Y-62388218D01*
X108039943Y-62388219D01*
X108086958Y-62383775D01*
X108092796Y-62383500D01*
X112936234Y-62383500D01*
X113003273Y-62403185D01*
X113023915Y-62419819D01*
X113532058Y-62927962D01*
X113565543Y-62989285D01*
X113560559Y-63058977D01*
X113518687Y-63114910D01*
X113455185Y-63139171D01*
X113371917Y-63146456D01*
X113371910Y-63146457D01*
X113150761Y-63205714D01*
X113150750Y-63205718D01*
X112943254Y-63302475D01*
X112943252Y-63302476D01*
X112943249Y-63302477D01*
X112943251Y-63302477D01*
X112755700Y-63433802D01*
X112755698Y-63433803D01*
X112755695Y-63433806D01*
X112593806Y-63595695D01*
X112462476Y-63783252D01*
X112462475Y-63783254D01*
X112365718Y-63990750D01*
X112365714Y-63990761D01*
X112306457Y-64211910D01*
X112306456Y-64211918D01*
X112291500Y-64382873D01*
X112291500Y-64897127D01*
X112306456Y-65068081D01*
X112306457Y-65068089D01*
X112365714Y-65289238D01*
X112365718Y-65289249D01*
X112432051Y-65431500D01*
X112462477Y-65496749D01*
X112593802Y-65684300D01*
X112755700Y-65846198D01*
X112943251Y-65977523D01*
X112998445Y-66003260D01*
X113150750Y-66074281D01*
X113150752Y-66074281D01*
X113150757Y-66074284D01*
X113371913Y-66133543D01*
X113534832Y-66147796D01*
X113599998Y-66153498D01*
X113600000Y-66153498D01*
X113600002Y-66153498D01*
X113657139Y-66148499D01*
X113828087Y-66133543D01*
X114049243Y-66074284D01*
X114256749Y-65977523D01*
X114444300Y-65846198D01*
X114606198Y-65684300D01*
X114737523Y-65496749D01*
X114757617Y-65453655D01*
X114803790Y-65401215D01*
X114870983Y-65382063D01*
X114937864Y-65402278D01*
X114982382Y-65453655D01*
X115002477Y-65496749D01*
X115133802Y-65684300D01*
X115295700Y-65846198D01*
X115483251Y-65977523D01*
X115538445Y-66003260D01*
X115690750Y-66074281D01*
X115690752Y-66074281D01*
X115690757Y-66074284D01*
X115911913Y-66133543D01*
X116074832Y-66147796D01*
X116139998Y-66153498D01*
X116140000Y-66153498D01*
X116140002Y-66153498D01*
X116197139Y-66148499D01*
X116368087Y-66133543D01*
X116589243Y-66074284D01*
X116796749Y-65977523D01*
X116984300Y-65846198D01*
X117146198Y-65684300D01*
X117277523Y-65496749D01*
X117297617Y-65453655D01*
X117343790Y-65401215D01*
X117410983Y-65382063D01*
X117477864Y-65402278D01*
X117522382Y-65453655D01*
X117542477Y-65496749D01*
X117673802Y-65684300D01*
X117835700Y-65846198D01*
X118023251Y-65977523D01*
X118078445Y-66003260D01*
X118230750Y-66074281D01*
X118230752Y-66074281D01*
X118230757Y-66074284D01*
X118451913Y-66133543D01*
X118614832Y-66147796D01*
X118679998Y-66153498D01*
X118680000Y-66153498D01*
X118680002Y-66153498D01*
X118737139Y-66148499D01*
X118908087Y-66133543D01*
X119129243Y-66074284D01*
X119336749Y-65977523D01*
X119524300Y-65846198D01*
X119686198Y-65684300D01*
X119817523Y-65496749D01*
X119837617Y-65453655D01*
X119883790Y-65401215D01*
X119950983Y-65382063D01*
X120017864Y-65402278D01*
X120062382Y-65453655D01*
X120082477Y-65496749D01*
X120213802Y-65684300D01*
X120375700Y-65846198D01*
X120563251Y-65977523D01*
X120618445Y-66003260D01*
X120770750Y-66074281D01*
X120770752Y-66074281D01*
X120770757Y-66074284D01*
X120991913Y-66133543D01*
X121154832Y-66147796D01*
X121219998Y-66153498D01*
X121220000Y-66153498D01*
X121220002Y-66153498D01*
X121277139Y-66148499D01*
X121448087Y-66133543D01*
X121669243Y-66074284D01*
X121876749Y-65977523D01*
X122064300Y-65846198D01*
X122226198Y-65684300D01*
X122357523Y-65496749D01*
X122377617Y-65453655D01*
X122423790Y-65401215D01*
X122490983Y-65382063D01*
X122557864Y-65402278D01*
X122602382Y-65453655D01*
X122622477Y-65496749D01*
X122753802Y-65684300D01*
X122915700Y-65846198D01*
X123103251Y-65977523D01*
X123158445Y-66003260D01*
X123310750Y-66074281D01*
X123310752Y-66074281D01*
X123310757Y-66074284D01*
X123531913Y-66133543D01*
X123694832Y-66147796D01*
X123759998Y-66153498D01*
X123760000Y-66153498D01*
X123760002Y-66153498D01*
X123817139Y-66148499D01*
X123988087Y-66133543D01*
X124209243Y-66074284D01*
X124416749Y-65977523D01*
X124604300Y-65846198D01*
X124766198Y-65684300D01*
X124897523Y-65496749D01*
X124917617Y-65453655D01*
X124963790Y-65401215D01*
X125030983Y-65382063D01*
X125097864Y-65402278D01*
X125142382Y-65453655D01*
X125162477Y-65496749D01*
X125293802Y-65684300D01*
X125455700Y-65846198D01*
X125643251Y-65977523D01*
X125698445Y-66003260D01*
X125850750Y-66074281D01*
X125850752Y-66074281D01*
X125850757Y-66074284D01*
X126071913Y-66133543D01*
X126208568Y-66145498D01*
X126273636Y-66170950D01*
X126285441Y-66181345D01*
X126557910Y-66453814D01*
X126567816Y-66466178D01*
X126568026Y-66466005D01*
X126573001Y-66472019D01*
X126624094Y-66519999D01*
X126645225Y-66541129D01*
X126645230Y-66541134D01*
X126650802Y-66545456D01*
X126655242Y-66549249D01*
X126689678Y-66581586D01*
X126707567Y-66591420D01*
X126723833Y-66602104D01*
X126739959Y-66614613D01*
X126783298Y-66633367D01*
X126788545Y-66635937D01*
X126829940Y-66658695D01*
X126849718Y-66663773D01*
X126868121Y-66670074D01*
X126886852Y-66678180D01*
X126886853Y-66678180D01*
X126886855Y-66678181D01*
X126914250Y-66682519D01*
X126933497Y-66685568D01*
X126939213Y-66686751D01*
X126984970Y-66698500D01*
X127005390Y-66698500D01*
X127024789Y-66700027D01*
X127044941Y-66703218D01*
X127044942Y-66703219D01*
X127044942Y-66703218D01*
X127044943Y-66703219D01*
X127091958Y-66698775D01*
X127097796Y-66698500D01*
X129871366Y-66698500D01*
X129887113Y-66700238D01*
X129887139Y-66699968D01*
X129894905Y-66700701D01*
X129894909Y-66700702D01*
X129964958Y-66698500D01*
X129994856Y-66698500D01*
X129994857Y-66698500D01*
X129996222Y-66698327D01*
X130001862Y-66697614D01*
X130007685Y-66697156D01*
X130033708Y-66696338D01*
X130054890Y-66695673D01*
X130064681Y-66692827D01*
X130074481Y-66689980D01*
X130093538Y-66686032D01*
X130113797Y-66683474D01*
X130157721Y-66666082D01*
X130163221Y-66664199D01*
X130208593Y-66651018D01*
X130226165Y-66640625D01*
X130243632Y-66632068D01*
X130262617Y-66624552D01*
X130300826Y-66596790D01*
X130305704Y-66593585D01*
X130346362Y-66569542D01*
X130360802Y-66555100D01*
X130375592Y-66542470D01*
X130392107Y-66530472D01*
X130422222Y-66494067D01*
X130426126Y-66489776D01*
X130731086Y-66184816D01*
X130792408Y-66151334D01*
X130818766Y-66148500D01*
X132428638Y-66148500D01*
X132428654Y-66148499D01*
X132455692Y-66145591D01*
X132489201Y-66141989D01*
X132626204Y-66090889D01*
X132743261Y-66003261D01*
X132830889Y-65886204D01*
X132881989Y-65749201D01*
X132885591Y-65715692D01*
X132888499Y-65688654D01*
X132888499Y-65688647D01*
X132888500Y-65688638D01*
X132888500Y-63591362D01*
X132888499Y-63591352D01*
X132888499Y-63591345D01*
X132885157Y-63560270D01*
X132881989Y-63530799D01*
X132830889Y-63393796D01*
X132743261Y-63276739D01*
X132626204Y-63189111D01*
X132489203Y-63138011D01*
X132428654Y-63131500D01*
X132428638Y-63131500D01*
X131343767Y-63131500D01*
X131276728Y-63111815D01*
X131230973Y-63059011D01*
X131221029Y-62989853D01*
X131250054Y-62926297D01*
X131256086Y-62919819D01*
X131506086Y-62669819D01*
X131567409Y-62636334D01*
X131593767Y-62633500D01*
X137416366Y-62633500D01*
X137432113Y-62635238D01*
X137432139Y-62634968D01*
X137439905Y-62635701D01*
X137439909Y-62635702D01*
X137509958Y-62633500D01*
X137539856Y-62633500D01*
X137539857Y-62633500D01*
X137541222Y-62633327D01*
X137546862Y-62632614D01*
X137552685Y-62632156D01*
X137578708Y-62631338D01*
X137599890Y-62630673D01*
X137609681Y-62627827D01*
X137619481Y-62624980D01*
X137638538Y-62621032D01*
X137658797Y-62618474D01*
X137702721Y-62601082D01*
X137708221Y-62599199D01*
X137753593Y-62586018D01*
X137771165Y-62575625D01*
X137788632Y-62567068D01*
X137807617Y-62559552D01*
X137845826Y-62531790D01*
X137850704Y-62528585D01*
X137891362Y-62504542D01*
X137905802Y-62490100D01*
X137920592Y-62477470D01*
X137937107Y-62465472D01*
X137967222Y-62429067D01*
X137971126Y-62424776D01*
X139001085Y-61394819D01*
X139062409Y-61361334D01*
X139088767Y-61358500D01*
X140398638Y-61358500D01*
X140398654Y-61358499D01*
X140425692Y-61355591D01*
X140459201Y-61351989D01*
X140460510Y-61351501D01*
X140486607Y-61341767D01*
X140596204Y-61300889D01*
X140713261Y-61213261D01*
X140800889Y-61096204D01*
X140851989Y-60959201D01*
X140856055Y-60921377D01*
X140858499Y-60898654D01*
X140858500Y-60898637D01*
X140858500Y-59101362D01*
X140858499Y-59101345D01*
X140855157Y-59070270D01*
X140851989Y-59040799D01*
X140845467Y-59023314D01*
X140827219Y-58974390D01*
X140800889Y-58903796D01*
X140713261Y-58786739D01*
X140596204Y-58699111D01*
X140596203Y-58699111D01*
X140478404Y-58655172D01*
X140422471Y-58613300D01*
X140398055Y-58547835D01*
X140412908Y-58479562D01*
X140430504Y-58455014D01*
X140575722Y-58297268D01*
X140698860Y-58108791D01*
X140789296Y-57902616D01*
X140844564Y-57684368D01*
X140863156Y-57460000D01*
X140844564Y-57235632D01*
X140789296Y-57017384D01*
X140698860Y-56811209D01*
X140575722Y-56622732D01*
X140575719Y-56622729D01*
X140575715Y-56622723D01*
X140423243Y-56457097D01*
X140423238Y-56457092D01*
X140263932Y-56333098D01*
X140245577Y-56318811D01*
X140202303Y-56295393D01*
X140152713Y-56246173D01*
X140137605Y-56177957D01*
X140161775Y-56112401D01*
X140190198Y-56084763D01*
X140371079Y-55958108D01*
X140538105Y-55791082D01*
X140673600Y-55597578D01*
X140773429Y-55383492D01*
X140773432Y-55383486D01*
X140830636Y-55170000D01*
X140113347Y-55170000D01*
X140046308Y-55150315D01*
X140000553Y-55097511D01*
X139990609Y-55028353D01*
X139994369Y-55011067D01*
X140000000Y-54991888D01*
X140000000Y-54848111D01*
X139994369Y-54828933D01*
X139994370Y-54759064D01*
X140032145Y-54700286D01*
X140095701Y-54671262D01*
X140113347Y-54670000D01*
X140830636Y-54670000D01*
X140830635Y-54669999D01*
X140773432Y-54456513D01*
X140773429Y-54456507D01*
X140673600Y-54242422D01*
X140673599Y-54242420D01*
X140538113Y-54048926D01*
X140538108Y-54048920D01*
X140371082Y-53881894D01*
X140177578Y-53746399D01*
X139963492Y-53646570D01*
X139963486Y-53646567D01*
X139750000Y-53589364D01*
X139750000Y-54307698D01*
X139730315Y-54374737D01*
X139677511Y-54420492D01*
X139608355Y-54430436D01*
X139535766Y-54420000D01*
X139535763Y-54420000D01*
X139464237Y-54420000D01*
X139464233Y-54420000D01*
X139391645Y-54430436D01*
X139322487Y-54420492D01*
X139269684Y-54374736D01*
X139250000Y-54307698D01*
X139250000Y-53589364D01*
X139249999Y-53589364D01*
X139036513Y-53646567D01*
X139036507Y-53646570D01*
X138822422Y-53746399D01*
X138822420Y-53746400D01*
X138628926Y-53881886D01*
X138628920Y-53881891D01*
X138461891Y-54048920D01*
X138461886Y-54048926D01*
X138326400Y-54242420D01*
X138326399Y-54242422D01*
X138226570Y-54456507D01*
X138226567Y-54456513D01*
X138169364Y-54669999D01*
X138169364Y-54670000D01*
X138886653Y-54670000D01*
X138953692Y-54689685D01*
X138999447Y-54742489D01*
X139009391Y-54811647D01*
X139005631Y-54828933D01*
X139000000Y-54848111D01*
X139000000Y-54991888D01*
X139005631Y-55011067D01*
X139005630Y-55080936D01*
X138967855Y-55139714D01*
X138904299Y-55168738D01*
X138886653Y-55170000D01*
X138169364Y-55170000D01*
X138226567Y-55383486D01*
X138226570Y-55383492D01*
X138326399Y-55597578D01*
X138461894Y-55791082D01*
X138628917Y-55958105D01*
X138809802Y-56084763D01*
X138853427Y-56139340D01*
X138860619Y-56208839D01*
X138829097Y-56271193D01*
X138797697Y-56295392D01*
X138754427Y-56318809D01*
X138754422Y-56318812D01*
X138576761Y-56457092D01*
X138576756Y-56457097D01*
X138424284Y-56622723D01*
X138424276Y-56622734D01*
X138301140Y-56811207D01*
X138210703Y-57017385D01*
X138155436Y-57235628D01*
X138155434Y-57235640D01*
X138136844Y-57459994D01*
X138136844Y-57460005D01*
X138155434Y-57684359D01*
X138155436Y-57684371D01*
X138210703Y-57902614D01*
X138301140Y-58108792D01*
X138424276Y-58297265D01*
X138424284Y-58297276D01*
X138569489Y-58455008D01*
X138600412Y-58517662D01*
X138592552Y-58587088D01*
X138548405Y-58641244D01*
X138521596Y-58655172D01*
X138403794Y-58699111D01*
X138286739Y-58786739D01*
X138199111Y-58903795D01*
X138148011Y-59040795D01*
X138148011Y-59040797D01*
X138141500Y-59101345D01*
X138141500Y-60411233D01*
X138121815Y-60478272D01*
X138105185Y-60498909D01*
X138023315Y-60580780D01*
X137966943Y-60637152D01*
X137905620Y-60670636D01*
X137835928Y-60665652D01*
X137779995Y-60623780D01*
X137755578Y-60558316D01*
X137759486Y-60517379D01*
X137774686Y-60460655D01*
X137793116Y-60250000D01*
X137792974Y-60248382D01*
X137785303Y-60160701D01*
X137774686Y-60039345D01*
X137719956Y-59835090D01*
X137630589Y-59643442D01*
X137509301Y-59470224D01*
X137509299Y-59470221D01*
X137359778Y-59320700D01*
X137186558Y-59199411D01*
X137186556Y-59199410D01*
X137165071Y-59189391D01*
X136994910Y-59110044D01*
X136994906Y-59110043D01*
X136994902Y-59110041D01*
X136790660Y-59055315D01*
X136790656Y-59055314D01*
X136790655Y-59055314D01*
X136790654Y-59055313D01*
X136790649Y-59055313D01*
X136580002Y-59036884D01*
X136579998Y-59036884D01*
X136369350Y-59055313D01*
X136369339Y-59055315D01*
X136165097Y-59110041D01*
X136165088Y-59110045D01*
X135973443Y-59199410D01*
X135973441Y-59199411D01*
X135800221Y-59320700D01*
X135650700Y-59470221D01*
X135585301Y-59563623D01*
X135530725Y-59607248D01*
X135483726Y-59616500D01*
X134223767Y-59616500D01*
X134156728Y-59596815D01*
X134136086Y-59580181D01*
X131150055Y-56594150D01*
X131116570Y-56532827D01*
X131121554Y-56463135D01*
X131163426Y-56407202D01*
X131228890Y-56382785D01*
X131232473Y-56382581D01*
X131237302Y-56382375D01*
X131238911Y-56382307D01*
X131467235Y-56333100D01*
X131683958Y-56246013D01*
X131882846Y-56123553D01*
X132058178Y-55969242D01*
X132204908Y-55787519D01*
X132230875Y-55741036D01*
X132280752Y-55692110D01*
X132349165Y-55677917D01*
X132414391Y-55702963D01*
X132441863Y-55732073D01*
X132539227Y-55876127D01*
X132539235Y-55876137D01*
X132699848Y-56043718D01*
X132886467Y-56181740D01*
X132886471Y-56181743D01*
X133093733Y-56286243D01*
X133315683Y-56354214D01*
X133353999Y-56359121D01*
X133354000Y-56359121D01*
X133354000Y-55484383D01*
X133373685Y-55417344D01*
X133426489Y-55371589D01*
X133495645Y-55361645D01*
X133567666Y-55372000D01*
X133567669Y-55372000D01*
X133640331Y-55372000D01*
X133640334Y-55372000D01*
X133712353Y-55361645D01*
X133781510Y-55371589D01*
X133834314Y-55417343D01*
X133853999Y-55484383D01*
X133853999Y-56357428D01*
X134004738Y-56324942D01*
X134004741Y-56324941D01*
X134220113Y-56238397D01*
X134417769Y-56116696D01*
X134592021Y-55963336D01*
X134592021Y-55963335D01*
X134737835Y-55782748D01*
X134737836Y-55782746D01*
X134851043Y-55580100D01*
X134928370Y-55361243D01*
X134928373Y-55361233D01*
X134967599Y-55132468D01*
X134967600Y-55132457D01*
X134967600Y-55114000D01*
X134225684Y-55114000D01*
X134158645Y-55094315D01*
X134112890Y-55041511D01*
X134102946Y-54972353D01*
X134106707Y-54955064D01*
X134112000Y-54937038D01*
X134112000Y-54790961D01*
X134106707Y-54772936D01*
X134106706Y-54703067D01*
X134144480Y-54644288D01*
X134208036Y-54615262D01*
X134225684Y-54614000D01*
X134964223Y-54614000D01*
X134952846Y-54480321D01*
X134894356Y-54255688D01*
X134798749Y-54044180D01*
X134798744Y-54044172D01*
X134668772Y-53851872D01*
X134668764Y-53851862D01*
X134508151Y-53684281D01*
X134321532Y-53546259D01*
X134321528Y-53546256D01*
X134114266Y-53441756D01*
X133892319Y-53373785D01*
X133853999Y-53368877D01*
X133853999Y-54243616D01*
X133834314Y-54310655D01*
X133781510Y-54356410D01*
X133712353Y-54366354D01*
X133640335Y-54356000D01*
X133640334Y-54356000D01*
X133567666Y-54356000D01*
X133567662Y-54356000D01*
X133495645Y-54366354D01*
X133426487Y-54356410D01*
X133373684Y-54310654D01*
X133354000Y-54243616D01*
X133354000Y-53370570D01*
X133203260Y-53403057D01*
X132987886Y-53489602D01*
X132790230Y-53611303D01*
X132615978Y-53764663D01*
X132615978Y-53764664D01*
X132470164Y-53945251D01*
X132470160Y-53945257D01*
X132447097Y-53986541D01*
X132397216Y-54035466D01*
X132328803Y-54049658D01*
X132263578Y-54024609D01*
X132236109Y-53995502D01*
X132140332Y-53853796D01*
X132135403Y-53846503D01*
X132135401Y-53846501D01*
X132135394Y-53846493D01*
X131973794Y-53677882D01*
X131973787Y-53677876D01*
X131786007Y-53538994D01*
X131778960Y-53535441D01*
X131577446Y-53433840D01*
X131354118Y-53365447D01*
X131354116Y-53365446D01*
X131354114Y-53365446D01*
X131122438Y-53335779D01*
X130889092Y-53345692D01*
X130889088Y-53345692D01*
X130660763Y-53394900D01*
X130660760Y-53394901D01*
X130444045Y-53481985D01*
X130245154Y-53604447D01*
X130245149Y-53604451D01*
X130069822Y-53758757D01*
X129923091Y-53940481D01*
X129923089Y-53940484D01*
X129901765Y-53978655D01*
X129851885Y-54027580D01*
X129783471Y-54041771D01*
X129718246Y-54016722D01*
X129690778Y-53987615D01*
X129619317Y-53881886D01*
X129595403Y-53846503D01*
X129595401Y-53846501D01*
X129595394Y-53846493D01*
X129433794Y-53677882D01*
X129433787Y-53677876D01*
X129246007Y-53538994D01*
X129238960Y-53535441D01*
X129037446Y-53433840D01*
X128814118Y-53365447D01*
X128814116Y-53365446D01*
X128814114Y-53365446D01*
X128582438Y-53335779D01*
X128349092Y-53345692D01*
X128349088Y-53345692D01*
X128120763Y-53394900D01*
X128120760Y-53394901D01*
X127904045Y-53481985D01*
X127705154Y-53604447D01*
X127705149Y-53604450D01*
X127534911Y-53754278D01*
X127471581Y-53783792D01*
X127402348Y-53774382D01*
X127349193Y-53729036D01*
X127336807Y-53704528D01*
X127298489Y-53601796D01*
X127256912Y-53546256D01*
X127210861Y-53484739D01*
X127093804Y-53397111D01*
X127087876Y-53394900D01*
X126956803Y-53346011D01*
X126896254Y-53339500D01*
X126896238Y-53339500D01*
X125071762Y-53339500D01*
X125071745Y-53339500D01*
X125011197Y-53346011D01*
X125011195Y-53346011D01*
X124874195Y-53397111D01*
X124757139Y-53484739D01*
X124669511Y-53601795D01*
X124618411Y-53738795D01*
X124618411Y-53738797D01*
X124611900Y-53799345D01*
X124611900Y-55928654D01*
X124618411Y-55989202D01*
X124618411Y-55989204D01*
X124654054Y-56084763D01*
X124669511Y-56126204D01*
X124757139Y-56243261D01*
X124874196Y-56330889D01*
X125011199Y-56381989D01*
X125038450Y-56384918D01*
X125071745Y-56388499D01*
X125071762Y-56388500D01*
X126691234Y-56388500D01*
X126758273Y-56408185D01*
X126778915Y-56424819D01*
X130273314Y-59919218D01*
X130306799Y-59980541D01*
X130305533Y-60033884D01*
X130306255Y-60034012D01*
X130305418Y-60038758D01*
X130305413Y-60038973D01*
X130305317Y-60039330D01*
X130305313Y-60039350D01*
X130286884Y-60249999D01*
X130286884Y-60250001D01*
X130305313Y-60460649D01*
X130305315Y-60460660D01*
X130360041Y-60664902D01*
X130360043Y-60664906D01*
X130360044Y-60664910D01*
X130412042Y-60776420D01*
X130449410Y-60856556D01*
X130449411Y-60856558D01*
X130570700Y-61029778D01*
X130720221Y-61179299D01*
X130720224Y-61179301D01*
X130813622Y-61244699D01*
X130885179Y-61294803D01*
X130928804Y-61349380D01*
X130935998Y-61418878D01*
X130904475Y-61481233D01*
X130890061Y-61494354D01*
X130888637Y-61495458D01*
X130874201Y-61509894D01*
X130859415Y-61522523D01*
X130842893Y-61534528D01*
X130842891Y-61534529D01*
X130842891Y-61534530D01*
X130842888Y-61534532D01*
X130812780Y-61570925D01*
X130808849Y-61575246D01*
X129252429Y-63131664D01*
X129191106Y-63165149D01*
X129132655Y-63163758D01*
X129068087Y-63146457D01*
X129068085Y-63146456D01*
X129068081Y-63146456D01*
X128840002Y-63126502D01*
X128839998Y-63126502D01*
X128611918Y-63146456D01*
X128611910Y-63146457D01*
X128390761Y-63205714D01*
X128390750Y-63205718D01*
X128183254Y-63302475D01*
X128183252Y-63302476D01*
X128183249Y-63302477D01*
X128183251Y-63302477D01*
X127995700Y-63433802D01*
X127995698Y-63433803D01*
X127995695Y-63433806D01*
X127833806Y-63595695D01*
X127702476Y-63783252D01*
X127682380Y-63826347D01*
X127636207Y-63878785D01*
X127569013Y-63897936D01*
X127502132Y-63877719D01*
X127457618Y-63826345D01*
X127437523Y-63783251D01*
X127306198Y-63595700D01*
X127144300Y-63433802D01*
X126956749Y-63302477D01*
X126956745Y-63302475D01*
X126749249Y-63205718D01*
X126749238Y-63205714D01*
X126528089Y-63146457D01*
X126528081Y-63146456D01*
X126300002Y-63126502D01*
X126299998Y-63126502D01*
X126071918Y-63146456D01*
X126071910Y-63146457D01*
X125850761Y-63205714D01*
X125850750Y-63205718D01*
X125643254Y-63302475D01*
X125643252Y-63302476D01*
X125643249Y-63302477D01*
X125643251Y-63302477D01*
X125455700Y-63433802D01*
X125455698Y-63433803D01*
X125455695Y-63433806D01*
X125293806Y-63595695D01*
X125162476Y-63783251D01*
X125142382Y-63826345D01*
X125096209Y-63878784D01*
X125029016Y-63897936D01*
X124962135Y-63877720D01*
X124917618Y-63826345D01*
X124897523Y-63783251D01*
X124867591Y-63740504D01*
X124766198Y-63595700D01*
X124604300Y-63433802D01*
X124416749Y-63302477D01*
X124416745Y-63302475D01*
X124209249Y-63205718D01*
X124209238Y-63205714D01*
X123988089Y-63146457D01*
X123988082Y-63146456D01*
X123933356Y-63141668D01*
X123868287Y-63116214D01*
X123827310Y-63059623D01*
X123820166Y-63018145D01*
X123820166Y-61346273D01*
X123839851Y-61279234D01*
X123873043Y-61244699D01*
X123889163Y-61233412D01*
X123966442Y-61179301D01*
X124115967Y-61029776D01*
X124237255Y-60856558D01*
X124326622Y-60664910D01*
X124381352Y-60460655D01*
X124399782Y-60250000D01*
X124399640Y-60248382D01*
X124391969Y-60160701D01*
X124382081Y-60047681D01*
X124395847Y-59979183D01*
X124444463Y-59929000D01*
X124512491Y-59913066D01*
X124578335Y-59936441D01*
X124593290Y-59949194D01*
X125282910Y-60638814D01*
X125292816Y-60651178D01*
X125293026Y-60651005D01*
X125298001Y-60657019D01*
X125349094Y-60704999D01*
X125370225Y-60726129D01*
X125370230Y-60726134D01*
X125375802Y-60730456D01*
X125380242Y-60734249D01*
X125414678Y-60766586D01*
X125432567Y-60776420D01*
X125448833Y-60787104D01*
X125464959Y-60799613D01*
X125508298Y-60818367D01*
X125513545Y-60820937D01*
X125554940Y-60843695D01*
X125574718Y-60848773D01*
X125593119Y-60855073D01*
X125611855Y-60863181D01*
X125656362Y-60870229D01*
X125658503Y-60870569D01*
X125664212Y-60871751D01*
X125709970Y-60883500D01*
X125730384Y-60883500D01*
X125749783Y-60885027D01*
X125769943Y-60888220D01*
X125816965Y-60883775D01*
X125822804Y-60883500D01*
X127170392Y-60883500D01*
X127237431Y-60903185D01*
X127271967Y-60936377D01*
X127337366Y-61029778D01*
X127486887Y-61179299D01*
X127486890Y-61179301D01*
X127660108Y-61300589D01*
X127851756Y-61389956D01*
X128056011Y-61444686D01*
X128206478Y-61457850D01*
X128266664Y-61463116D01*
X128266666Y-61463116D01*
X128266668Y-61463116D01*
X128319329Y-61458508D01*
X128477321Y-61444686D01*
X128681576Y-61389956D01*
X128873224Y-61300589D01*
X129046442Y-61179301D01*
X129195967Y-61029776D01*
X129317255Y-60856558D01*
X129406622Y-60664910D01*
X129461352Y-60460655D01*
X129479782Y-60250000D01*
X129479640Y-60248382D01*
X129471969Y-60160701D01*
X129461352Y-60039345D01*
X129406622Y-59835090D01*
X129317255Y-59643442D01*
X129195967Y-59470224D01*
X129195965Y-59470221D01*
X129046444Y-59320700D01*
X128873224Y-59199411D01*
X128873222Y-59199410D01*
X128851737Y-59189391D01*
X128681576Y-59110044D01*
X128681572Y-59110043D01*
X128681568Y-59110041D01*
X128477326Y-59055315D01*
X128477322Y-59055314D01*
X128477321Y-59055314D01*
X128477320Y-59055313D01*
X128477315Y-59055313D01*
X128266668Y-59036884D01*
X128266664Y-59036884D01*
X128056016Y-59055313D01*
X128056005Y-59055315D01*
X127851763Y-59110041D01*
X127851754Y-59110045D01*
X127660109Y-59199410D01*
X127660107Y-59199411D01*
X127486887Y-59320700D01*
X127337366Y-59470221D01*
X127271967Y-59563623D01*
X127217391Y-59607248D01*
X127170392Y-59616500D01*
X126103767Y-59616500D01*
X126036728Y-59596815D01*
X126016086Y-59580181D01*
X121984819Y-55548913D01*
X121951334Y-55487590D01*
X121948500Y-55461232D01*
X121948500Y-54759064D01*
X121948500Y-54051362D01*
X121948499Y-54051352D01*
X121948499Y-54051345D01*
X121944776Y-54016722D01*
X121941989Y-53990799D01*
X121940801Y-53987615D01*
X121901366Y-53881886D01*
X121890889Y-53853796D01*
X121803261Y-53736739D01*
X121686204Y-53649111D01*
X121656919Y-53638188D01*
X121549203Y-53598011D01*
X121488654Y-53591500D01*
X121488638Y-53591500D01*
X119591362Y-53591500D01*
X119591345Y-53591500D01*
X119530797Y-53598011D01*
X119530795Y-53598011D01*
X119393795Y-53649111D01*
X119276739Y-53736739D01*
X119189111Y-53853795D01*
X119138011Y-53990795D01*
X119138011Y-53990797D01*
X119131500Y-54051345D01*
X119131500Y-54170690D01*
X119111815Y-54237729D01*
X119095181Y-54258371D01*
X118575184Y-54778367D01*
X118513861Y-54811852D01*
X118444169Y-54806868D01*
X118390555Y-54767998D01*
X118309535Y-54666400D01*
X118309533Y-54666399D01*
X118237275Y-54617134D01*
X118192973Y-54563106D01*
X118184915Y-54493702D01*
X118215657Y-54430959D01*
X118219446Y-54427000D01*
X118798799Y-53847647D01*
X118768349Y-53823949D01*
X118564302Y-53713523D01*
X118564293Y-53713520D01*
X118344860Y-53638188D01*
X118116007Y-53600000D01*
X117883993Y-53600000D01*
X117655139Y-53638188D01*
X117435706Y-53713520D01*
X117435698Y-53713523D01*
X117231644Y-53823952D01*
X117201200Y-53847646D01*
X117201200Y-53847647D01*
X117777942Y-54424389D01*
X117811427Y-54485712D01*
X117806443Y-54555404D01*
X117764571Y-54611337D01*
X117744073Y-54623785D01*
X117743646Y-54623990D01*
X117743645Y-54623990D01*
X117644202Y-54716260D01*
X117644199Y-54716264D01*
X117621967Y-54754771D01*
X117571400Y-54802987D01*
X117502793Y-54816209D01*
X117437928Y-54790241D01*
X117426899Y-54780452D01*
X116848812Y-54202365D01*
X116764516Y-54331391D01*
X116764514Y-54331395D01*
X116686056Y-54510264D01*
X116641100Y-54563750D01*
X116574364Y-54584440D01*
X116507036Y-54565766D01*
X116460493Y-54513655D01*
X116448500Y-54460454D01*
X116448500Y-54051362D01*
X116448499Y-54051345D01*
X116444776Y-54016722D01*
X116441989Y-53990799D01*
X116440801Y-53987615D01*
X116401366Y-53881886D01*
X116390889Y-53853796D01*
X116303261Y-53736739D01*
X116186204Y-53649111D01*
X116156919Y-53638188D01*
X116049203Y-53598011D01*
X115988654Y-53591500D01*
X115988638Y-53591500D01*
X114091362Y-53591500D01*
X114091345Y-53591500D01*
X114030797Y-53598011D01*
X114030795Y-53598011D01*
X113893795Y-53649111D01*
X113776739Y-53736739D01*
X113689111Y-53853795D01*
X113638011Y-53990795D01*
X113638011Y-53990797D01*
X113631500Y-54051345D01*
X113631500Y-54170690D01*
X113611815Y-54237729D01*
X113595181Y-54258371D01*
X113075184Y-54778367D01*
X113013861Y-54811852D01*
X112944169Y-54806868D01*
X112890555Y-54767998D01*
X112809535Y-54666400D01*
X112809533Y-54666399D01*
X112737275Y-54617134D01*
X112692973Y-54563106D01*
X112684915Y-54493702D01*
X112715657Y-54430959D01*
X112719446Y-54427000D01*
X113298799Y-53847647D01*
X113268349Y-53823949D01*
X113064302Y-53713523D01*
X113064293Y-53713520D01*
X112844860Y-53638188D01*
X112616007Y-53600000D01*
X112383993Y-53600000D01*
X112155139Y-53638188D01*
X111935706Y-53713520D01*
X111935698Y-53713523D01*
X111731644Y-53823952D01*
X111701200Y-53847646D01*
X111701200Y-53847647D01*
X112277942Y-54424389D01*
X112311427Y-54485712D01*
X112306443Y-54555404D01*
X112264571Y-54611337D01*
X112244073Y-54623785D01*
X112243646Y-54623990D01*
X112243645Y-54623990D01*
X112144202Y-54716260D01*
X112144199Y-54716264D01*
X112121967Y-54754771D01*
X112071400Y-54802987D01*
X112002793Y-54816209D01*
X111937928Y-54790241D01*
X111926899Y-54780452D01*
X111348812Y-54202365D01*
X111264516Y-54331391D01*
X111264514Y-54331395D01*
X111186056Y-54510264D01*
X111141100Y-54563750D01*
X111074364Y-54584440D01*
X111007036Y-54565766D01*
X110960493Y-54513655D01*
X110948500Y-54460454D01*
X110948500Y-54051362D01*
X110948499Y-54051345D01*
X110944776Y-54016722D01*
X110941989Y-53990799D01*
X110940801Y-53987615D01*
X110901366Y-53881886D01*
X110890889Y-53853796D01*
X110803261Y-53736739D01*
X110686204Y-53649111D01*
X110656919Y-53638188D01*
X110549203Y-53598011D01*
X110488654Y-53591500D01*
X110488638Y-53591500D01*
X108591362Y-53591500D01*
X108591345Y-53591500D01*
X108530797Y-53598011D01*
X108530795Y-53598011D01*
X108393795Y-53649111D01*
X108276739Y-53736739D01*
X108189111Y-53853795D01*
X108138011Y-53990795D01*
X108138011Y-53990797D01*
X108131500Y-54051345D01*
X108131500Y-54170690D01*
X108111815Y-54237729D01*
X108095181Y-54258371D01*
X107575184Y-54778367D01*
X107513861Y-54811852D01*
X107444169Y-54806868D01*
X107390555Y-54767998D01*
X107309535Y-54666400D01*
X107309533Y-54666399D01*
X107237275Y-54617134D01*
X107192973Y-54563106D01*
X107184915Y-54493702D01*
X107215657Y-54430959D01*
X107219446Y-54427000D01*
X107798799Y-53847647D01*
X107768349Y-53823949D01*
X107564302Y-53713523D01*
X107564293Y-53713520D01*
X107344860Y-53638188D01*
X107116007Y-53600000D01*
X106883993Y-53600000D01*
X106655139Y-53638188D01*
X106435706Y-53713520D01*
X106435698Y-53713523D01*
X106231644Y-53823952D01*
X106201200Y-53847646D01*
X106201200Y-53847647D01*
X106777942Y-54424389D01*
X106811427Y-54485712D01*
X106806443Y-54555404D01*
X106764571Y-54611337D01*
X106744073Y-54623785D01*
X106743646Y-54623990D01*
X106743645Y-54623990D01*
X106644202Y-54716260D01*
X106644199Y-54716264D01*
X106621967Y-54754771D01*
X106571400Y-54802987D01*
X106502793Y-54816209D01*
X106437928Y-54790241D01*
X106426899Y-54780452D01*
X105848812Y-54202365D01*
X105764516Y-54331391D01*
X105764514Y-54331395D01*
X105671317Y-54543864D01*
X105614361Y-54768781D01*
X105595202Y-54999994D01*
X105595202Y-55000005D01*
X105614361Y-55231218D01*
X105671317Y-55456135D01*
X105764516Y-55668609D01*
X105848811Y-55797633D01*
X106424814Y-55221631D01*
X106486137Y-55188146D01*
X106555828Y-55193130D01*
X106609443Y-55232000D01*
X106690464Y-55333599D01*
X106690466Y-55333600D01*
X106762723Y-55382865D01*
X106807025Y-55436894D01*
X106815083Y-55506297D01*
X106784340Y-55569040D01*
X106780552Y-55572999D01*
X106201199Y-56152351D01*
X106231650Y-56176050D01*
X106435697Y-56286476D01*
X106435706Y-56286479D01*
X106655139Y-56361811D01*
X106883993Y-56400000D01*
X107116007Y-56400000D01*
X107344860Y-56361811D01*
X107564293Y-56286479D01*
X107564302Y-56286476D01*
X107768350Y-56176050D01*
X107798798Y-56152351D01*
X107222057Y-55575610D01*
X107188572Y-55514287D01*
X107193556Y-55444595D01*
X107235428Y-55388662D01*
X107255930Y-55376212D01*
X107256357Y-55376007D01*
X107355798Y-55283740D01*
X107378033Y-55245226D01*
X107428596Y-55197014D01*
X107497203Y-55183789D01*
X107562068Y-55209756D01*
X107573100Y-55219547D01*
X108095181Y-55741628D01*
X108128666Y-55802951D01*
X108131500Y-55829309D01*
X108131500Y-55948654D01*
X108138011Y-56009202D01*
X108138011Y-56009204D01*
X108181651Y-56126204D01*
X108189111Y-56146204D01*
X108276739Y-56263261D01*
X108393796Y-56350889D01*
X108530799Y-56401989D01*
X108558050Y-56404918D01*
X108591345Y-56408499D01*
X108591362Y-56408500D01*
X108782500Y-56408500D01*
X108849539Y-56428185D01*
X108895294Y-56480989D01*
X108906500Y-56532500D01*
X108906500Y-58066366D01*
X108904761Y-58082113D01*
X108905032Y-58082139D01*
X108904298Y-58089905D01*
X108906500Y-58159957D01*
X108906500Y-58189859D01*
X108907384Y-58196856D01*
X108907842Y-58202679D01*
X108909326Y-58249889D01*
X108909327Y-58249891D01*
X108915022Y-58269495D01*
X108918967Y-58288542D01*
X108921526Y-58308797D01*
X108921527Y-58308800D01*
X108921528Y-58308803D01*
X108938914Y-58352716D01*
X108940806Y-58358244D01*
X108953981Y-58403592D01*
X108964372Y-58421162D01*
X108972932Y-58438635D01*
X108980447Y-58457617D01*
X109008209Y-58495827D01*
X109011416Y-58500710D01*
X109035458Y-58541362D01*
X109035462Y-58541366D01*
X109049889Y-58555793D01*
X109062526Y-58570588D01*
X109074528Y-58587107D01*
X109110931Y-58617222D01*
X109115231Y-58621135D01*
X109810948Y-59316852D01*
X110413314Y-59919218D01*
X110446799Y-59980541D01*
X110445533Y-60033884D01*
X110446255Y-60034012D01*
X110445418Y-60038758D01*
X110445413Y-60038973D01*
X110445317Y-60039330D01*
X110445313Y-60039350D01*
X110426884Y-60249999D01*
X110426884Y-60250001D01*
X110445313Y-60460649D01*
X110445315Y-60460660D01*
X110500041Y-60664902D01*
X110500043Y-60664906D01*
X110500044Y-60664910D01*
X110589411Y-60856558D01*
X110622059Y-60903185D01*
X110634798Y-60921377D01*
X110657125Y-60987583D01*
X110640115Y-61055350D01*
X110589167Y-61103163D01*
X110533223Y-61116500D01*
X108373767Y-61116500D01*
X108306728Y-61096815D01*
X108286086Y-61080181D01*
X107786685Y-60580780D01*
X107753200Y-60519457D01*
X107754474Y-60466120D01*
X107753745Y-60465992D01*
X107754592Y-60461186D01*
X107754596Y-60460987D01*
X107754686Y-60460655D01*
X107773116Y-60250000D01*
X107772974Y-60248382D01*
X107765303Y-60160701D01*
X107754686Y-60039345D01*
X107699956Y-59835090D01*
X107610589Y-59643442D01*
X107489301Y-59470224D01*
X107489299Y-59470221D01*
X107339778Y-59320700D01*
X107166558Y-59199411D01*
X107166556Y-59199410D01*
X107145071Y-59189391D01*
X106974910Y-59110044D01*
X106974906Y-59110043D01*
X106974902Y-59110041D01*
X106770660Y-59055315D01*
X106770656Y-59055314D01*
X106770655Y-59055314D01*
X106770654Y-59055313D01*
X106770649Y-59055313D01*
X106560002Y-59036884D01*
X106559998Y-59036884D01*
X106349350Y-59055313D01*
X106349339Y-59055315D01*
X106145097Y-59110041D01*
X106145088Y-59110045D01*
X105953443Y-59199410D01*
X105953441Y-59199411D01*
X105780221Y-59320700D01*
X105630700Y-59470221D01*
X105509411Y-59643441D01*
X105509410Y-59643443D01*
X105420045Y-59835088D01*
X105420042Y-59835094D01*
X105393775Y-59933127D01*
X105357410Y-59992787D01*
X105294563Y-60023316D01*
X105225187Y-60015021D01*
X105171310Y-59970536D01*
X105150035Y-59903984D01*
X105150000Y-59901033D01*
X105150000Y-50574000D01*
X105169685Y-50506961D01*
X105222489Y-50461206D01*
X105274000Y-50450000D01*
X106276959Y-50450000D01*
X106343998Y-50469685D01*
G37*
G04 #@! TD.AperFunction*
G04 #@! TA.AperFunction,Conductor*
G36*
X118562068Y-55209756D02*
G01*
X118573100Y-55219547D01*
X119095181Y-55741627D01*
X119128666Y-55802950D01*
X119131500Y-55829308D01*
X119131500Y-55948654D01*
X119138011Y-56009202D01*
X119138011Y-56009204D01*
X119181651Y-56126204D01*
X119189111Y-56146204D01*
X119276739Y-56263261D01*
X119393796Y-56350889D01*
X119530799Y-56401989D01*
X119558050Y-56404918D01*
X119591345Y-56408499D01*
X119591362Y-56408500D01*
X121001234Y-56408500D01*
X121068273Y-56428185D01*
X121088915Y-56444819D01*
X123487471Y-58843375D01*
X123520956Y-58904698D01*
X123515972Y-58974390D01*
X123474100Y-59030323D01*
X123408636Y-59054740D01*
X123388983Y-59054584D01*
X123186668Y-59036884D01*
X123186664Y-59036884D01*
X122976016Y-59055313D01*
X122976005Y-59055315D01*
X122771763Y-59110041D01*
X122771754Y-59110045D01*
X122580109Y-59199410D01*
X122580107Y-59199411D01*
X122406887Y-59320700D01*
X122257366Y-59470221D01*
X122136077Y-59643441D01*
X122136076Y-59643443D01*
X122046711Y-59835088D01*
X122046707Y-59835097D01*
X121991981Y-60039339D01*
X121991979Y-60039350D01*
X121973550Y-60249998D01*
X121973550Y-60250001D01*
X121991979Y-60460649D01*
X121991981Y-60460660D01*
X122046707Y-60664902D01*
X122046709Y-60664906D01*
X122046710Y-60664910D01*
X122098708Y-60776420D01*
X122136076Y-60856556D01*
X122136077Y-60856558D01*
X122257366Y-61029778D01*
X122406887Y-61179299D01*
X122406890Y-61179301D01*
X122471945Y-61224853D01*
X122500289Y-61244699D01*
X122543914Y-61299275D01*
X122553166Y-61346274D01*
X122553166Y-63669380D01*
X122533481Y-63736419D01*
X122480677Y-63782174D01*
X122411519Y-63792118D01*
X122347963Y-63763093D01*
X122327592Y-63740504D01*
X122226197Y-63595699D01*
X122064304Y-63433806D01*
X122064303Y-63433805D01*
X122064300Y-63433802D01*
X121876749Y-63302477D01*
X121876745Y-63302475D01*
X121669249Y-63205718D01*
X121669238Y-63205714D01*
X121448089Y-63146457D01*
X121448081Y-63146456D01*
X121220002Y-63126502D01*
X121219998Y-63126502D01*
X120991918Y-63146456D01*
X120991910Y-63146457D01*
X120770761Y-63205714D01*
X120770750Y-63205718D01*
X120563254Y-63302475D01*
X120563252Y-63302476D01*
X120563249Y-63302477D01*
X120563251Y-63302477D01*
X120375700Y-63433802D01*
X120375698Y-63433803D01*
X120375695Y-63433806D01*
X120213806Y-63595695D01*
X120082476Y-63783251D01*
X120062382Y-63826345D01*
X120016209Y-63878784D01*
X119949016Y-63897936D01*
X119882135Y-63877720D01*
X119837618Y-63826345D01*
X119817523Y-63783251D01*
X119787591Y-63740504D01*
X119686198Y-63595700D01*
X119524300Y-63433802D01*
X119336749Y-63302477D01*
X119336745Y-63302475D01*
X119129249Y-63205718D01*
X119129238Y-63205714D01*
X118908089Y-63146457D01*
X118908082Y-63146456D01*
X118687413Y-63127150D01*
X118622345Y-63101697D01*
X118610540Y-63091303D01*
X116100018Y-60580780D01*
X116066533Y-60519457D01*
X116067807Y-60466120D01*
X116067078Y-60465992D01*
X116067925Y-60461186D01*
X116067929Y-60460987D01*
X116068019Y-60460655D01*
X116086449Y-60250000D01*
X116086307Y-60248382D01*
X116078636Y-60160701D01*
X116068019Y-60039345D01*
X116013289Y-59835090D01*
X115923922Y-59643442D01*
X115802634Y-59470224D01*
X115802632Y-59470221D01*
X115653111Y-59320700D01*
X115479891Y-59199411D01*
X115479889Y-59199410D01*
X115458404Y-59189391D01*
X115288243Y-59110044D01*
X115288239Y-59110043D01*
X115288235Y-59110041D01*
X115083993Y-59055315D01*
X115083989Y-59055314D01*
X115083988Y-59055314D01*
X115083987Y-59055313D01*
X115083982Y-59055313D01*
X114873335Y-59036884D01*
X114873331Y-59036884D01*
X114662683Y-59055313D01*
X114662672Y-59055315D01*
X114458430Y-59110041D01*
X114458421Y-59110045D01*
X114266776Y-59199410D01*
X114266774Y-59199411D01*
X114093554Y-59320700D01*
X113944033Y-59470221D01*
X113822744Y-59643441D01*
X113822743Y-59643443D01*
X113733378Y-59835088D01*
X113733374Y-59835097D01*
X113678648Y-60039339D01*
X113678646Y-60039350D01*
X113660217Y-60249998D01*
X113660217Y-60250001D01*
X113678646Y-60460649D01*
X113678648Y-60460660D01*
X113733374Y-60664902D01*
X113733376Y-60664906D01*
X113733377Y-60664910D01*
X113785375Y-60776420D01*
X113822743Y-60856556D01*
X113822744Y-60856558D01*
X113944033Y-61029778D01*
X114093554Y-61179299D01*
X114093557Y-61179301D01*
X114266775Y-61300589D01*
X114458423Y-61389956D01*
X114662678Y-61444686D01*
X114813145Y-61457850D01*
X114873331Y-61463116D01*
X114873333Y-61463116D01*
X114873335Y-61463116D01*
X114902531Y-61460561D01*
X115083988Y-61444686D01*
X115084323Y-61444596D01*
X115084477Y-61444599D01*
X115089325Y-61443745D01*
X115089496Y-61444718D01*
X115154173Y-61446249D01*
X115204113Y-61476684D01*
X116736360Y-63008932D01*
X116769845Y-63070254D01*
X116764861Y-63139946D01*
X116722989Y-63195879D01*
X116657525Y-63220296D01*
X116596280Y-63208997D01*
X116589246Y-63205717D01*
X116589238Y-63205714D01*
X116368089Y-63146457D01*
X116368081Y-63146456D01*
X116140002Y-63126502D01*
X116139998Y-63126502D01*
X115911918Y-63146456D01*
X115911907Y-63146458D01*
X115689608Y-63206023D01*
X115619758Y-63204360D01*
X115569834Y-63173929D01*
X113757088Y-61361183D01*
X113747187Y-61348823D01*
X113746977Y-61348998D01*
X113742002Y-61342986D01*
X113742000Y-61342982D01*
X113715658Y-61318245D01*
X113690922Y-61295016D01*
X113669768Y-61273863D01*
X113667792Y-61272331D01*
X113664183Y-61269531D01*
X113659750Y-61265744D01*
X113625321Y-61233414D01*
X113625319Y-61233412D01*
X113607431Y-61223578D01*
X113591170Y-61212897D01*
X113575039Y-61200384D01*
X113531693Y-61181627D01*
X113526445Y-61179056D01*
X113494140Y-61161297D01*
X113485060Y-61156305D01*
X113481660Y-61155432D01*
X113465287Y-61151228D01*
X113446881Y-61144926D01*
X113428144Y-61136818D01*
X113428146Y-61136818D01*
X113381496Y-61129430D01*
X113375781Y-61128246D01*
X113355612Y-61123068D01*
X113330032Y-61116500D01*
X113330030Y-61116500D01*
X113309616Y-61116500D01*
X113290217Y-61114973D01*
X113270058Y-61111780D01*
X113270057Y-61111780D01*
X113223034Y-61116225D01*
X113217196Y-61116500D01*
X112746777Y-61116500D01*
X112679738Y-61096815D01*
X112633983Y-61044011D01*
X112624039Y-60974853D01*
X112645202Y-60921377D01*
X112690589Y-60856558D01*
X112779956Y-60664910D01*
X112834686Y-60460655D01*
X112853116Y-60250000D01*
X112852974Y-60248382D01*
X112845303Y-60160701D01*
X112834686Y-60039345D01*
X112779956Y-59835090D01*
X112690589Y-59643442D01*
X112569301Y-59470224D01*
X112569299Y-59470221D01*
X112419778Y-59320700D01*
X112246558Y-59199411D01*
X112246556Y-59199410D01*
X112225071Y-59189391D01*
X112054910Y-59110044D01*
X112054906Y-59110043D01*
X112054902Y-59110041D01*
X111850660Y-59055315D01*
X111850656Y-59055314D01*
X111850655Y-59055314D01*
X111850654Y-59055313D01*
X111850649Y-59055313D01*
X111640002Y-59036884D01*
X111639998Y-59036884D01*
X111429350Y-59055313D01*
X111429334Y-59055316D01*
X111428985Y-59055410D01*
X111428825Y-59055406D01*
X111424011Y-59056255D01*
X111423840Y-59055287D01*
X111359135Y-59053742D01*
X111309219Y-59023314D01*
X110209819Y-57923914D01*
X110176334Y-57862591D01*
X110173500Y-57836233D01*
X110173500Y-56532500D01*
X110193185Y-56465461D01*
X110245989Y-56419706D01*
X110297500Y-56408500D01*
X110488638Y-56408500D01*
X110488654Y-56408499D01*
X110515692Y-56405591D01*
X110549201Y-56401989D01*
X110686204Y-56350889D01*
X110803261Y-56263261D01*
X110890889Y-56146204D01*
X110941989Y-56009201D01*
X110947482Y-55958108D01*
X110948499Y-55948654D01*
X110948500Y-55948637D01*
X110948500Y-55539545D01*
X110968185Y-55472506D01*
X111020989Y-55426751D01*
X111090147Y-55416807D01*
X111153703Y-55445832D01*
X111186056Y-55489735D01*
X111264516Y-55668609D01*
X111348811Y-55797633D01*
X111924814Y-55221631D01*
X111986137Y-55188146D01*
X112055828Y-55193130D01*
X112109443Y-55232000D01*
X112190464Y-55333599D01*
X112190466Y-55333600D01*
X112262723Y-55382865D01*
X112307025Y-55436894D01*
X112315083Y-55506297D01*
X112284340Y-55569040D01*
X112280552Y-55572999D01*
X111701199Y-56152351D01*
X111731650Y-56176050D01*
X111935697Y-56286476D01*
X111935706Y-56286479D01*
X112155139Y-56361811D01*
X112383993Y-56400000D01*
X112616007Y-56400000D01*
X112844860Y-56361811D01*
X113064293Y-56286479D01*
X113064302Y-56286476D01*
X113268350Y-56176050D01*
X113298798Y-56152351D01*
X112722057Y-55575610D01*
X112688572Y-55514287D01*
X112693556Y-55444595D01*
X112735428Y-55388662D01*
X112755930Y-55376212D01*
X112756357Y-55376007D01*
X112855798Y-55283740D01*
X112878033Y-55245226D01*
X112928596Y-55197014D01*
X112997203Y-55183789D01*
X113062068Y-55209756D01*
X113073100Y-55219547D01*
X113595181Y-55741627D01*
X113628666Y-55802950D01*
X113631500Y-55829308D01*
X113631500Y-55948654D01*
X113638011Y-56009202D01*
X113638011Y-56009204D01*
X113681651Y-56126204D01*
X113689111Y-56146204D01*
X113776739Y-56263261D01*
X113893796Y-56350889D01*
X114030799Y-56401989D01*
X114058050Y-56404918D01*
X114091345Y-56408499D01*
X114091362Y-56408500D01*
X115164567Y-56408500D01*
X115231606Y-56428185D01*
X115252248Y-56444819D01*
X118726647Y-59919218D01*
X118760132Y-59980541D01*
X118758866Y-60033884D01*
X118759588Y-60034012D01*
X118758751Y-60038758D01*
X118758746Y-60038973D01*
X118758650Y-60039330D01*
X118758646Y-60039350D01*
X118740217Y-60249999D01*
X118740217Y-60250001D01*
X118758646Y-60460649D01*
X118758648Y-60460660D01*
X118813374Y-60664902D01*
X118813376Y-60664906D01*
X118813377Y-60664910D01*
X118865375Y-60776420D01*
X118902743Y-60856556D01*
X118902744Y-60856558D01*
X119024033Y-61029778D01*
X119173554Y-61179299D01*
X119173557Y-61179301D01*
X119346775Y-61300589D01*
X119538423Y-61389956D01*
X119742678Y-61444686D01*
X119893145Y-61457850D01*
X119953331Y-61463116D01*
X119953333Y-61463116D01*
X119953335Y-61463116D01*
X120005996Y-61458508D01*
X120163988Y-61444686D01*
X120368243Y-61389956D01*
X120559891Y-61300589D01*
X120733109Y-61179301D01*
X120882634Y-61029776D01*
X121003922Y-60856558D01*
X121093289Y-60664910D01*
X121148019Y-60460655D01*
X121166449Y-60250000D01*
X121166307Y-60248382D01*
X121158636Y-60160701D01*
X121148019Y-60039345D01*
X121093289Y-59835090D01*
X121003922Y-59643442D01*
X120882634Y-59470224D01*
X120882632Y-59470221D01*
X120733111Y-59320700D01*
X120559891Y-59199411D01*
X120559889Y-59199410D01*
X120538404Y-59189391D01*
X120368243Y-59110044D01*
X120368239Y-59110043D01*
X120368235Y-59110041D01*
X120163993Y-59055315D01*
X120163989Y-59055314D01*
X120163988Y-59055314D01*
X120163987Y-59055313D01*
X120163982Y-59055313D01*
X119953335Y-59036884D01*
X119953331Y-59036884D01*
X119742683Y-59055313D01*
X119742667Y-59055316D01*
X119742318Y-59055410D01*
X119742158Y-59055406D01*
X119737344Y-59056255D01*
X119737173Y-59055287D01*
X119672468Y-59053742D01*
X119622552Y-59023314D01*
X118059243Y-57460005D01*
X116484819Y-55885580D01*
X116451334Y-55824257D01*
X116448500Y-55797899D01*
X116448500Y-55539545D01*
X116468185Y-55472506D01*
X116520989Y-55426751D01*
X116590147Y-55416807D01*
X116653703Y-55445832D01*
X116686056Y-55489735D01*
X116764516Y-55668609D01*
X116848811Y-55797633D01*
X117424814Y-55221631D01*
X117486137Y-55188146D01*
X117555828Y-55193130D01*
X117609443Y-55232000D01*
X117690464Y-55333599D01*
X117690466Y-55333600D01*
X117762723Y-55382865D01*
X117807025Y-55436894D01*
X117815083Y-55506297D01*
X117784340Y-55569040D01*
X117780552Y-55572999D01*
X117201199Y-56152351D01*
X117231650Y-56176050D01*
X117435697Y-56286476D01*
X117435706Y-56286479D01*
X117655139Y-56361811D01*
X117883993Y-56400000D01*
X118116007Y-56400000D01*
X118344860Y-56361811D01*
X118564293Y-56286479D01*
X118564302Y-56286476D01*
X118768350Y-56176050D01*
X118798798Y-56152351D01*
X118222057Y-55575610D01*
X118188572Y-55514287D01*
X118193556Y-55444595D01*
X118235428Y-55388662D01*
X118255930Y-55376212D01*
X118256357Y-55376007D01*
X118355798Y-55283740D01*
X118378033Y-55245226D01*
X118428596Y-55197014D01*
X118497203Y-55183789D01*
X118562068Y-55209756D01*
G37*
G04 #@! TD.AperFunction*
M02*
