%TF.GenerationSoftware,KiCad,Pcbnew,7.0.7*%
%TF.CreationDate,2024-09-10T18:13:52+02:00*%
%TF.ProjectId,meteo-home,6d657465-6f2d-4686-9f6d-652e6b696361,rev?*%
%TF.SameCoordinates,Original*%
%TF.FileFunction,Drillmap*%
%TF.FilePolarity,Positive*%
%FSLAX45Y45*%
G04 Gerber Fmt 4.5, Leading zero omitted, Abs format (unit mm)*
G04 Created by KiCad (PCBNEW 7.0.7) date 2024-09-10 18:13:52*
%MOMM*%
%LPD*%
G01*
G04 APERTURE LIST*
%ADD10C,0.050000*%
%ADD11C,0.200000*%
%ADD12C,0.070000*%
%ADD13C,0.090000*%
%ADD14C,0.100000*%
%ADD15C,0.101600*%
%ADD16C,0.109000*%
G04 APERTURE END LIST*
D10*
X10800000Y-5150000D02*
G75*
G03*
X10800000Y-5150000I-100000J0D01*
G01*
X10800000Y-9900000D02*
G75*
G03*
X10800000Y-9900000I-100000J0D01*
G01*
X14050000Y-9900000D02*
G75*
G03*
X14050000Y-9900000I-100000J0D01*
G01*
X14050000Y-5150000D02*
G75*
G03*
X14050000Y-5150000I-100000J0D01*
G01*
X10500000Y-5000000D02*
X14150000Y-5000000D01*
X14150000Y-10100000D01*
X10500000Y-10100000D01*
X10500000Y-5000000D01*
D11*
D10*
X12557000Y-9813250D02*
X12607000Y-9863250D01*
X12607000Y-9813250D02*
X12557000Y-9863250D01*
X12657000Y-9813250D02*
X12707000Y-9863250D01*
X12707000Y-9813250D02*
X12657000Y-9863250D01*
X12757000Y-9813250D02*
X12807000Y-9863250D01*
X12807000Y-9813250D02*
X12757000Y-9863250D01*
X12857000Y-9813250D02*
X12907000Y-9863250D01*
X12907000Y-9813250D02*
X12857000Y-9863250D01*
X13125000Y-9813250D02*
X13175000Y-9863250D01*
X13175000Y-9813250D02*
X13125000Y-9863250D01*
X13225000Y-9813250D02*
X13275000Y-9863250D01*
X13275000Y-9813250D02*
X13225000Y-9863250D01*
X13325000Y-9813250D02*
X13375000Y-9863250D01*
X13375000Y-9813250D02*
X13325000Y-9863250D01*
X13425000Y-9813250D02*
X13475000Y-9863250D01*
X13475000Y-9813250D02*
X13425000Y-9863250D01*
D12*
X10691000Y-6025000D02*
G75*
G03*
X10691000Y-6025000I-35000J0D01*
G01*
X11199000Y-6025000D02*
G75*
G03*
X11199000Y-6025000I-35000J0D01*
G01*
X11522333Y-6025000D02*
G75*
G03*
X11522333Y-6025000I-35000J0D01*
G01*
X12030333Y-6025000D02*
G75*
G03*
X12030333Y-6025000I-35000J0D01*
G01*
X12353667Y-6025000D02*
G75*
G03*
X12353667Y-6025000I-35000J0D01*
G01*
X12861667Y-6025000D02*
G75*
G03*
X12861667Y-6025000I-35000J0D01*
G01*
X13185000Y-6025000D02*
G75*
G03*
X13185000Y-6025000I-35000J0D01*
G01*
X13693000Y-6025000D02*
G75*
G03*
X13693000Y-6025000I-35000J0D01*
G01*
D13*
X10700000Y-5455000D02*
X10700000Y-5545000D01*
X10655000Y-5500000D02*
X10745000Y-5500000D01*
X10954000Y-5455000D02*
X10954000Y-5545000D01*
X10909000Y-5500000D02*
X10999000Y-5500000D01*
X11250000Y-5455000D02*
X11250000Y-5545000D01*
X11205000Y-5500000D02*
X11295000Y-5500000D01*
X11504000Y-5455000D02*
X11504000Y-5545000D01*
X11459000Y-5500000D02*
X11549000Y-5500000D01*
X11800000Y-5455000D02*
X11800000Y-5545000D01*
X11755000Y-5500000D02*
X11845000Y-5500000D01*
X12054000Y-5455000D02*
X12054000Y-5545000D01*
X12009000Y-5500000D02*
X12099000Y-5500000D01*
D14*
X11395356Y-6499356D02*
X11395356Y-6428644D01*
X11324644Y-6428644D01*
X11324644Y-6499356D01*
X11395356Y-6499356D01*
X11395356Y-8785356D02*
X11395356Y-8714644D01*
X11324644Y-8714644D01*
X11324644Y-8785356D01*
X11395356Y-8785356D01*
X11649356Y-6499356D02*
X11649356Y-6428644D01*
X11578644Y-6428644D01*
X11578644Y-6499356D01*
X11649356Y-6499356D01*
X11649356Y-8785356D02*
X11649356Y-8714644D01*
X11578644Y-8714644D01*
X11578644Y-8785356D01*
X11649356Y-8785356D01*
X11655356Y-9155356D02*
X11655356Y-9084644D01*
X11584644Y-9084644D01*
X11584644Y-9155356D01*
X11655356Y-9155356D01*
X11655356Y-9409356D02*
X11655356Y-9338644D01*
X11584644Y-9338644D01*
X11584644Y-9409356D01*
X11655356Y-9409356D01*
X11655356Y-9663356D02*
X11655356Y-9592644D01*
X11584644Y-9592644D01*
X11584644Y-9663356D01*
X11655356Y-9663356D01*
X11655356Y-9917356D02*
X11655356Y-9846644D01*
X11584644Y-9846644D01*
X11584644Y-9917356D01*
X11655356Y-9917356D01*
X11903356Y-6499356D02*
X11903356Y-6428644D01*
X11832644Y-6428644D01*
X11832644Y-6499356D01*
X11903356Y-6499356D01*
X11903356Y-8785356D02*
X11903356Y-8714644D01*
X11832644Y-8714644D01*
X11832644Y-8785356D01*
X11903356Y-8785356D01*
X12145356Y-9155356D02*
X12145356Y-9084644D01*
X12074644Y-9084644D01*
X12074644Y-9155356D01*
X12145356Y-9155356D01*
X12145356Y-9409356D02*
X12145356Y-9338644D01*
X12074644Y-9338644D01*
X12074644Y-9409356D01*
X12145356Y-9409356D01*
X12145356Y-9663356D02*
X12145356Y-9592644D01*
X12074644Y-9592644D01*
X12074644Y-9663356D01*
X12145356Y-9663356D01*
X12145356Y-9917356D02*
X12145356Y-9846644D01*
X12074644Y-9846644D01*
X12074644Y-9917356D01*
X12145356Y-9917356D01*
X12157356Y-6499356D02*
X12157356Y-6428644D01*
X12086644Y-6428644D01*
X12086644Y-6499356D01*
X12157356Y-6499356D01*
X12157356Y-8785356D02*
X12157356Y-8714644D01*
X12086644Y-8714644D01*
X12086644Y-8785356D01*
X12157356Y-8785356D01*
X12411356Y-6499356D02*
X12411356Y-6428644D01*
X12340644Y-6428644D01*
X12340644Y-6499356D01*
X12411356Y-6499356D01*
X12411356Y-8785356D02*
X12411356Y-8714644D01*
X12340644Y-8714644D01*
X12340644Y-8785356D01*
X12411356Y-8785356D01*
X12665356Y-6499356D02*
X12665356Y-6428644D01*
X12594644Y-6428644D01*
X12594644Y-6499356D01*
X12665356Y-6499356D01*
X12665356Y-8785356D02*
X12665356Y-8714644D01*
X12594644Y-8714644D01*
X12594644Y-8785356D01*
X12665356Y-8785356D01*
X12673356Y-9376106D02*
X12673356Y-9305394D01*
X12602644Y-9305394D01*
X12602644Y-9376106D01*
X12673356Y-9376106D01*
X12919356Y-6499356D02*
X12919356Y-6428644D01*
X12848644Y-6428644D01*
X12848644Y-6499356D01*
X12919356Y-6499356D01*
X12919356Y-8785356D02*
X12919356Y-8714644D01*
X12848644Y-8714644D01*
X12848644Y-8785356D01*
X12919356Y-8785356D01*
X12927356Y-9376106D02*
X12927356Y-9305394D01*
X12856644Y-9305394D01*
X12856644Y-9376106D01*
X12927356Y-9376106D01*
X13173356Y-6499356D02*
X13173356Y-6428644D01*
X13102644Y-6428644D01*
X13102644Y-6499356D01*
X13173356Y-6499356D01*
X13173356Y-8785356D02*
X13173356Y-8714644D01*
X13102644Y-8714644D01*
X13102644Y-8785356D01*
X13173356Y-8785356D01*
X13181356Y-9376106D02*
X13181356Y-9305394D01*
X13110644Y-9305394D01*
X13110644Y-9376106D01*
X13181356Y-9376106D01*
X13435356Y-9376106D02*
X13435356Y-9305394D01*
X13364644Y-9305394D01*
X13364644Y-9376106D01*
X13435356Y-9376106D01*
X13935356Y-9281356D02*
X13935356Y-9210644D01*
X13864644Y-9210644D01*
X13864644Y-9281356D01*
X13935356Y-9281356D01*
X13935356Y-9535356D02*
X13935356Y-9464644D01*
X13864644Y-9464644D01*
X13864644Y-9535356D01*
X13935356Y-9535356D01*
X13985356Y-5527356D02*
X13985356Y-5456644D01*
X13914644Y-5456644D01*
X13914644Y-5527356D01*
X13985356Y-5527356D01*
X13985356Y-5781356D02*
X13985356Y-5710644D01*
X13914644Y-5710644D01*
X13914644Y-5781356D01*
X13985356Y-5781356D01*
X13985356Y-6035356D02*
X13985356Y-5964644D01*
X13914644Y-5964644D01*
X13914644Y-6035356D01*
X13985356Y-6035356D01*
D15*
X12598400Y-5537200D02*
X12649200Y-5486400D01*
X12598400Y-5435600D01*
X12547600Y-5486400D01*
X12598400Y-5537200D01*
X12852400Y-5537200D02*
X12903200Y-5486400D01*
X12852400Y-5435600D01*
X12801600Y-5486400D01*
X12852400Y-5537200D01*
X13106400Y-5537200D02*
X13157200Y-5486400D01*
X13106400Y-5435600D01*
X13055600Y-5486400D01*
X13106400Y-5537200D01*
X13360400Y-5537200D02*
X13411200Y-5486400D01*
X13360400Y-5435600D01*
X13309600Y-5486400D01*
X13360400Y-5537200D01*
D16*
X10745500Y-9191500D02*
X10854500Y-9300500D01*
X10854500Y-9191500D02*
X10745500Y-9300500D01*
X10854500Y-9246000D02*
G75*
G03*
X10854500Y-9246000I-54500J0D01*
G01*
X10745500Y-9445500D02*
X10854500Y-9554500D01*
X10854500Y-9445500D02*
X10745500Y-9554500D01*
X10854500Y-9500000D02*
G75*
G03*
X10854500Y-9500000I-54500J0D01*
G01*
D11*
X10758277Y-10413984D02*
X10758277Y-10213984D01*
X10758277Y-10213984D02*
X10805896Y-10213984D01*
X10805896Y-10213984D02*
X10834467Y-10223508D01*
X10834467Y-10223508D02*
X10853515Y-10242555D01*
X10853515Y-10242555D02*
X10863039Y-10261603D01*
X10863039Y-10261603D02*
X10872563Y-10299698D01*
X10872563Y-10299698D02*
X10872563Y-10328270D01*
X10872563Y-10328270D02*
X10863039Y-10366365D01*
X10863039Y-10366365D02*
X10853515Y-10385412D01*
X10853515Y-10385412D02*
X10834467Y-10404460D01*
X10834467Y-10404460D02*
X10805896Y-10413984D01*
X10805896Y-10413984D02*
X10758277Y-10413984D01*
X10958277Y-10413984D02*
X10958277Y-10280650D01*
X10958277Y-10318746D02*
X10967801Y-10299698D01*
X10967801Y-10299698D02*
X10977324Y-10290174D01*
X10977324Y-10290174D02*
X10996372Y-10280650D01*
X10996372Y-10280650D02*
X11015420Y-10280650D01*
X11082086Y-10413984D02*
X11082086Y-10280650D01*
X11082086Y-10213984D02*
X11072563Y-10223508D01*
X11072563Y-10223508D02*
X11082086Y-10233031D01*
X11082086Y-10233031D02*
X11091610Y-10223508D01*
X11091610Y-10223508D02*
X11082086Y-10213984D01*
X11082086Y-10213984D02*
X11082086Y-10233031D01*
X11205896Y-10413984D02*
X11186848Y-10404460D01*
X11186848Y-10404460D02*
X11177324Y-10385412D01*
X11177324Y-10385412D02*
X11177324Y-10213984D01*
X11310658Y-10413984D02*
X11291610Y-10404460D01*
X11291610Y-10404460D02*
X11282086Y-10385412D01*
X11282086Y-10385412D02*
X11282086Y-10213984D01*
X11539229Y-10413984D02*
X11539229Y-10213984D01*
X11539229Y-10213984D02*
X11605896Y-10356841D01*
X11605896Y-10356841D02*
X11672562Y-10213984D01*
X11672562Y-10213984D02*
X11672562Y-10413984D01*
X11853515Y-10413984D02*
X11853515Y-10309222D01*
X11853515Y-10309222D02*
X11843991Y-10290174D01*
X11843991Y-10290174D02*
X11824943Y-10280650D01*
X11824943Y-10280650D02*
X11786848Y-10280650D01*
X11786848Y-10280650D02*
X11767801Y-10290174D01*
X11853515Y-10404460D02*
X11834467Y-10413984D01*
X11834467Y-10413984D02*
X11786848Y-10413984D01*
X11786848Y-10413984D02*
X11767801Y-10404460D01*
X11767801Y-10404460D02*
X11758277Y-10385412D01*
X11758277Y-10385412D02*
X11758277Y-10366365D01*
X11758277Y-10366365D02*
X11767801Y-10347317D01*
X11767801Y-10347317D02*
X11786848Y-10337793D01*
X11786848Y-10337793D02*
X11834467Y-10337793D01*
X11834467Y-10337793D02*
X11853515Y-10328270D01*
X11948753Y-10280650D02*
X11948753Y-10480650D01*
X11948753Y-10290174D02*
X11967801Y-10280650D01*
X11967801Y-10280650D02*
X12005896Y-10280650D01*
X12005896Y-10280650D02*
X12024943Y-10290174D01*
X12024943Y-10290174D02*
X12034467Y-10299698D01*
X12034467Y-10299698D02*
X12043991Y-10318746D01*
X12043991Y-10318746D02*
X12043991Y-10375889D01*
X12043991Y-10375889D02*
X12034467Y-10394936D01*
X12034467Y-10394936D02*
X12024943Y-10404460D01*
X12024943Y-10404460D02*
X12005896Y-10413984D01*
X12005896Y-10413984D02*
X11967801Y-10413984D01*
X11967801Y-10413984D02*
X11948753Y-10404460D01*
X12129705Y-10394936D02*
X12139229Y-10404460D01*
X12139229Y-10404460D02*
X12129705Y-10413984D01*
X12129705Y-10413984D02*
X12120182Y-10404460D01*
X12120182Y-10404460D02*
X12129705Y-10394936D01*
X12129705Y-10394936D02*
X12129705Y-10413984D01*
X12129705Y-10290174D02*
X12139229Y-10299698D01*
X12139229Y-10299698D02*
X12129705Y-10309222D01*
X12129705Y-10309222D02*
X12120182Y-10299698D01*
X12120182Y-10299698D02*
X12129705Y-10290174D01*
X12129705Y-10290174D02*
X12129705Y-10309222D01*
D10*
X10447500Y-10717500D02*
X10497500Y-10767500D01*
X10497500Y-10717500D02*
X10447500Y-10767500D01*
D11*
X10796372Y-10633984D02*
X10815420Y-10633984D01*
X10815420Y-10633984D02*
X10834467Y-10643508D01*
X10834467Y-10643508D02*
X10843991Y-10653031D01*
X10843991Y-10653031D02*
X10853515Y-10672079D01*
X10853515Y-10672079D02*
X10863039Y-10710174D01*
X10863039Y-10710174D02*
X10863039Y-10757793D01*
X10863039Y-10757793D02*
X10853515Y-10795889D01*
X10853515Y-10795889D02*
X10843991Y-10814936D01*
X10843991Y-10814936D02*
X10834467Y-10824460D01*
X10834467Y-10824460D02*
X10815420Y-10833984D01*
X10815420Y-10833984D02*
X10796372Y-10833984D01*
X10796372Y-10833984D02*
X10777324Y-10824460D01*
X10777324Y-10824460D02*
X10767801Y-10814936D01*
X10767801Y-10814936D02*
X10758277Y-10795889D01*
X10758277Y-10795889D02*
X10748753Y-10757793D01*
X10748753Y-10757793D02*
X10748753Y-10710174D01*
X10748753Y-10710174D02*
X10758277Y-10672079D01*
X10758277Y-10672079D02*
X10767801Y-10653031D01*
X10767801Y-10653031D02*
X10777324Y-10643508D01*
X10777324Y-10643508D02*
X10796372Y-10633984D01*
X10948753Y-10814936D02*
X10958277Y-10824460D01*
X10958277Y-10824460D02*
X10948753Y-10833984D01*
X10948753Y-10833984D02*
X10939229Y-10824460D01*
X10939229Y-10824460D02*
X10948753Y-10814936D01*
X10948753Y-10814936D02*
X10948753Y-10833984D01*
X11139229Y-10633984D02*
X11043991Y-10633984D01*
X11043991Y-10633984D02*
X11034467Y-10729222D01*
X11034467Y-10729222D02*
X11043991Y-10719698D01*
X11043991Y-10719698D02*
X11063039Y-10710174D01*
X11063039Y-10710174D02*
X11110658Y-10710174D01*
X11110658Y-10710174D02*
X11129705Y-10719698D01*
X11129705Y-10719698D02*
X11139229Y-10729222D01*
X11139229Y-10729222D02*
X11148753Y-10748270D01*
X11148753Y-10748270D02*
X11148753Y-10795889D01*
X11148753Y-10795889D02*
X11139229Y-10814936D01*
X11139229Y-10814936D02*
X11129705Y-10824460D01*
X11129705Y-10824460D02*
X11110658Y-10833984D01*
X11110658Y-10833984D02*
X11063039Y-10833984D01*
X11063039Y-10833984D02*
X11043991Y-10824460D01*
X11043991Y-10824460D02*
X11034467Y-10814936D01*
X11272562Y-10633984D02*
X11291610Y-10633984D01*
X11291610Y-10633984D02*
X11310658Y-10643508D01*
X11310658Y-10643508D02*
X11320182Y-10653031D01*
X11320182Y-10653031D02*
X11329705Y-10672079D01*
X11329705Y-10672079D02*
X11339229Y-10710174D01*
X11339229Y-10710174D02*
X11339229Y-10757793D01*
X11339229Y-10757793D02*
X11329705Y-10795889D01*
X11329705Y-10795889D02*
X11320182Y-10814936D01*
X11320182Y-10814936D02*
X11310658Y-10824460D01*
X11310658Y-10824460D02*
X11291610Y-10833984D01*
X11291610Y-10833984D02*
X11272562Y-10833984D01*
X11272562Y-10833984D02*
X11253515Y-10824460D01*
X11253515Y-10824460D02*
X11243991Y-10814936D01*
X11243991Y-10814936D02*
X11234467Y-10795889D01*
X11234467Y-10795889D02*
X11224943Y-10757793D01*
X11224943Y-10757793D02*
X11224943Y-10710174D01*
X11224943Y-10710174D02*
X11234467Y-10672079D01*
X11234467Y-10672079D02*
X11243991Y-10653031D01*
X11243991Y-10653031D02*
X11253515Y-10643508D01*
X11253515Y-10643508D02*
X11272562Y-10633984D01*
X11463039Y-10633984D02*
X11482086Y-10633984D01*
X11482086Y-10633984D02*
X11501134Y-10643508D01*
X11501134Y-10643508D02*
X11510658Y-10653031D01*
X11510658Y-10653031D02*
X11520182Y-10672079D01*
X11520182Y-10672079D02*
X11529705Y-10710174D01*
X11529705Y-10710174D02*
X11529705Y-10757793D01*
X11529705Y-10757793D02*
X11520182Y-10795889D01*
X11520182Y-10795889D02*
X11510658Y-10814936D01*
X11510658Y-10814936D02*
X11501134Y-10824460D01*
X11501134Y-10824460D02*
X11482086Y-10833984D01*
X11482086Y-10833984D02*
X11463039Y-10833984D01*
X11463039Y-10833984D02*
X11443991Y-10824460D01*
X11443991Y-10824460D02*
X11434467Y-10814936D01*
X11434467Y-10814936D02*
X11424943Y-10795889D01*
X11424943Y-10795889D02*
X11415420Y-10757793D01*
X11415420Y-10757793D02*
X11415420Y-10710174D01*
X11415420Y-10710174D02*
X11424943Y-10672079D01*
X11424943Y-10672079D02*
X11434467Y-10653031D01*
X11434467Y-10653031D02*
X11443991Y-10643508D01*
X11443991Y-10643508D02*
X11463039Y-10633984D01*
X11615420Y-10833984D02*
X11615420Y-10700650D01*
X11615420Y-10719698D02*
X11624943Y-10710174D01*
X11624943Y-10710174D02*
X11643991Y-10700650D01*
X11643991Y-10700650D02*
X11672563Y-10700650D01*
X11672563Y-10700650D02*
X11691610Y-10710174D01*
X11691610Y-10710174D02*
X11701134Y-10729222D01*
X11701134Y-10729222D02*
X11701134Y-10833984D01*
X11701134Y-10729222D02*
X11710658Y-10710174D01*
X11710658Y-10710174D02*
X11729705Y-10700650D01*
X11729705Y-10700650D02*
X11758277Y-10700650D01*
X11758277Y-10700650D02*
X11777324Y-10710174D01*
X11777324Y-10710174D02*
X11786848Y-10729222D01*
X11786848Y-10729222D02*
X11786848Y-10833984D01*
X11882086Y-10833984D02*
X11882086Y-10700650D01*
X11882086Y-10719698D02*
X11891610Y-10710174D01*
X11891610Y-10710174D02*
X11910658Y-10700650D01*
X11910658Y-10700650D02*
X11939229Y-10700650D01*
X11939229Y-10700650D02*
X11958277Y-10710174D01*
X11958277Y-10710174D02*
X11967801Y-10729222D01*
X11967801Y-10729222D02*
X11967801Y-10833984D01*
X11967801Y-10729222D02*
X11977324Y-10710174D01*
X11977324Y-10710174D02*
X11996372Y-10700650D01*
X11996372Y-10700650D02*
X12024943Y-10700650D01*
X12024943Y-10700650D02*
X12043991Y-10710174D01*
X12043991Y-10710174D02*
X12053515Y-10729222D01*
X12053515Y-10729222D02*
X12053515Y-10833984D01*
X12443991Y-10624460D02*
X12272563Y-10881603D01*
X12701134Y-10633984D02*
X12720182Y-10633984D01*
X12720182Y-10633984D02*
X12739229Y-10643508D01*
X12739229Y-10643508D02*
X12748753Y-10653031D01*
X12748753Y-10653031D02*
X12758277Y-10672079D01*
X12758277Y-10672079D02*
X12767801Y-10710174D01*
X12767801Y-10710174D02*
X12767801Y-10757793D01*
X12767801Y-10757793D02*
X12758277Y-10795889D01*
X12758277Y-10795889D02*
X12748753Y-10814936D01*
X12748753Y-10814936D02*
X12739229Y-10824460D01*
X12739229Y-10824460D02*
X12720182Y-10833984D01*
X12720182Y-10833984D02*
X12701134Y-10833984D01*
X12701134Y-10833984D02*
X12682086Y-10824460D01*
X12682086Y-10824460D02*
X12672563Y-10814936D01*
X12672563Y-10814936D02*
X12663039Y-10795889D01*
X12663039Y-10795889D02*
X12653515Y-10757793D01*
X12653515Y-10757793D02*
X12653515Y-10710174D01*
X12653515Y-10710174D02*
X12663039Y-10672079D01*
X12663039Y-10672079D02*
X12672563Y-10653031D01*
X12672563Y-10653031D02*
X12682086Y-10643508D01*
X12682086Y-10643508D02*
X12701134Y-10633984D01*
X12853515Y-10814936D02*
X12863039Y-10824460D01*
X12863039Y-10824460D02*
X12853515Y-10833984D01*
X12853515Y-10833984D02*
X12843991Y-10824460D01*
X12843991Y-10824460D02*
X12853515Y-10814936D01*
X12853515Y-10814936D02*
X12853515Y-10833984D01*
X12986848Y-10633984D02*
X13005896Y-10633984D01*
X13005896Y-10633984D02*
X13024944Y-10643508D01*
X13024944Y-10643508D02*
X13034467Y-10653031D01*
X13034467Y-10653031D02*
X13043991Y-10672079D01*
X13043991Y-10672079D02*
X13053515Y-10710174D01*
X13053515Y-10710174D02*
X13053515Y-10757793D01*
X13053515Y-10757793D02*
X13043991Y-10795889D01*
X13043991Y-10795889D02*
X13034467Y-10814936D01*
X13034467Y-10814936D02*
X13024944Y-10824460D01*
X13024944Y-10824460D02*
X13005896Y-10833984D01*
X13005896Y-10833984D02*
X12986848Y-10833984D01*
X12986848Y-10833984D02*
X12967801Y-10824460D01*
X12967801Y-10824460D02*
X12958277Y-10814936D01*
X12958277Y-10814936D02*
X12948753Y-10795889D01*
X12948753Y-10795889D02*
X12939229Y-10757793D01*
X12939229Y-10757793D02*
X12939229Y-10710174D01*
X12939229Y-10710174D02*
X12948753Y-10672079D01*
X12948753Y-10672079D02*
X12958277Y-10653031D01*
X12958277Y-10653031D02*
X12967801Y-10643508D01*
X12967801Y-10643508D02*
X12986848Y-10633984D01*
X13243991Y-10833984D02*
X13129706Y-10833984D01*
X13186848Y-10833984D02*
X13186848Y-10633984D01*
X13186848Y-10633984D02*
X13167801Y-10662555D01*
X13167801Y-10662555D02*
X13148753Y-10681603D01*
X13148753Y-10681603D02*
X13129706Y-10691127D01*
X13339229Y-10833984D02*
X13377325Y-10833984D01*
X13377325Y-10833984D02*
X13396372Y-10824460D01*
X13396372Y-10824460D02*
X13405896Y-10814936D01*
X13405896Y-10814936D02*
X13424944Y-10786365D01*
X13424944Y-10786365D02*
X13434467Y-10748270D01*
X13434467Y-10748270D02*
X13434467Y-10672079D01*
X13434467Y-10672079D02*
X13424944Y-10653031D01*
X13424944Y-10653031D02*
X13415420Y-10643508D01*
X13415420Y-10643508D02*
X13396372Y-10633984D01*
X13396372Y-10633984D02*
X13358277Y-10633984D01*
X13358277Y-10633984D02*
X13339229Y-10643508D01*
X13339229Y-10643508D02*
X13329706Y-10653031D01*
X13329706Y-10653031D02*
X13320182Y-10672079D01*
X13320182Y-10672079D02*
X13320182Y-10719698D01*
X13320182Y-10719698D02*
X13329706Y-10738746D01*
X13329706Y-10738746D02*
X13339229Y-10748270D01*
X13339229Y-10748270D02*
X13358277Y-10757793D01*
X13358277Y-10757793D02*
X13396372Y-10757793D01*
X13396372Y-10757793D02*
X13415420Y-10748270D01*
X13415420Y-10748270D02*
X13424944Y-10738746D01*
X13424944Y-10738746D02*
X13434467Y-10719698D01*
X13501134Y-10633984D02*
X13634467Y-10633984D01*
X13634467Y-10633984D02*
X13548753Y-10833984D01*
X13701134Y-10633984D02*
X13701134Y-10672079D01*
X13777325Y-10633984D02*
X13777325Y-10672079D01*
X14072563Y-10910174D02*
X14063039Y-10900650D01*
X14063039Y-10900650D02*
X14043991Y-10872079D01*
X14043991Y-10872079D02*
X14034468Y-10853031D01*
X14034468Y-10853031D02*
X14024944Y-10824460D01*
X14024944Y-10824460D02*
X14015420Y-10776841D01*
X14015420Y-10776841D02*
X14015420Y-10738746D01*
X14015420Y-10738746D02*
X14024944Y-10691127D01*
X14024944Y-10691127D02*
X14034468Y-10662555D01*
X14034468Y-10662555D02*
X14043991Y-10643508D01*
X14043991Y-10643508D02*
X14063039Y-10614936D01*
X14063039Y-10614936D02*
X14072563Y-10605412D01*
X14177325Y-10719698D02*
X14158277Y-10710174D01*
X14158277Y-10710174D02*
X14148753Y-10700650D01*
X14148753Y-10700650D02*
X14139229Y-10681603D01*
X14139229Y-10681603D02*
X14139229Y-10672079D01*
X14139229Y-10672079D02*
X14148753Y-10653031D01*
X14148753Y-10653031D02*
X14158277Y-10643508D01*
X14158277Y-10643508D02*
X14177325Y-10633984D01*
X14177325Y-10633984D02*
X14215420Y-10633984D01*
X14215420Y-10633984D02*
X14234468Y-10643508D01*
X14234468Y-10643508D02*
X14243991Y-10653031D01*
X14243991Y-10653031D02*
X14253515Y-10672079D01*
X14253515Y-10672079D02*
X14253515Y-10681603D01*
X14253515Y-10681603D02*
X14243991Y-10700650D01*
X14243991Y-10700650D02*
X14234468Y-10710174D01*
X14234468Y-10710174D02*
X14215420Y-10719698D01*
X14215420Y-10719698D02*
X14177325Y-10719698D01*
X14177325Y-10719698D02*
X14158277Y-10729222D01*
X14158277Y-10729222D02*
X14148753Y-10738746D01*
X14148753Y-10738746D02*
X14139229Y-10757793D01*
X14139229Y-10757793D02*
X14139229Y-10795889D01*
X14139229Y-10795889D02*
X14148753Y-10814936D01*
X14148753Y-10814936D02*
X14158277Y-10824460D01*
X14158277Y-10824460D02*
X14177325Y-10833984D01*
X14177325Y-10833984D02*
X14215420Y-10833984D01*
X14215420Y-10833984D02*
X14234468Y-10824460D01*
X14234468Y-10824460D02*
X14243991Y-10814936D01*
X14243991Y-10814936D02*
X14253515Y-10795889D01*
X14253515Y-10795889D02*
X14253515Y-10757793D01*
X14253515Y-10757793D02*
X14243991Y-10738746D01*
X14243991Y-10738746D02*
X14234468Y-10729222D01*
X14234468Y-10729222D02*
X14215420Y-10719698D01*
X14491610Y-10833984D02*
X14491610Y-10633984D01*
X14577325Y-10833984D02*
X14577325Y-10729222D01*
X14577325Y-10729222D02*
X14567801Y-10710174D01*
X14567801Y-10710174D02*
X14548753Y-10700650D01*
X14548753Y-10700650D02*
X14520182Y-10700650D01*
X14520182Y-10700650D02*
X14501134Y-10710174D01*
X14501134Y-10710174D02*
X14491610Y-10719698D01*
X14701134Y-10833984D02*
X14682087Y-10824460D01*
X14682087Y-10824460D02*
X14672563Y-10814936D01*
X14672563Y-10814936D02*
X14663039Y-10795889D01*
X14663039Y-10795889D02*
X14663039Y-10738746D01*
X14663039Y-10738746D02*
X14672563Y-10719698D01*
X14672563Y-10719698D02*
X14682087Y-10710174D01*
X14682087Y-10710174D02*
X14701134Y-10700650D01*
X14701134Y-10700650D02*
X14729706Y-10700650D01*
X14729706Y-10700650D02*
X14748753Y-10710174D01*
X14748753Y-10710174D02*
X14758277Y-10719698D01*
X14758277Y-10719698D02*
X14767801Y-10738746D01*
X14767801Y-10738746D02*
X14767801Y-10795889D01*
X14767801Y-10795889D02*
X14758277Y-10814936D01*
X14758277Y-10814936D02*
X14748753Y-10824460D01*
X14748753Y-10824460D02*
X14729706Y-10833984D01*
X14729706Y-10833984D02*
X14701134Y-10833984D01*
X14882087Y-10833984D02*
X14863039Y-10824460D01*
X14863039Y-10824460D02*
X14853515Y-10805412D01*
X14853515Y-10805412D02*
X14853515Y-10633984D01*
X15034468Y-10824460D02*
X15015420Y-10833984D01*
X15015420Y-10833984D02*
X14977325Y-10833984D01*
X14977325Y-10833984D02*
X14958277Y-10824460D01*
X14958277Y-10824460D02*
X14948753Y-10805412D01*
X14948753Y-10805412D02*
X14948753Y-10729222D01*
X14948753Y-10729222D02*
X14958277Y-10710174D01*
X14958277Y-10710174D02*
X14977325Y-10700650D01*
X14977325Y-10700650D02*
X15015420Y-10700650D01*
X15015420Y-10700650D02*
X15034468Y-10710174D01*
X15034468Y-10710174D02*
X15043991Y-10729222D01*
X15043991Y-10729222D02*
X15043991Y-10748270D01*
X15043991Y-10748270D02*
X14948753Y-10767317D01*
X15120182Y-10824460D02*
X15139230Y-10833984D01*
X15139230Y-10833984D02*
X15177325Y-10833984D01*
X15177325Y-10833984D02*
X15196372Y-10824460D01*
X15196372Y-10824460D02*
X15205896Y-10805412D01*
X15205896Y-10805412D02*
X15205896Y-10795889D01*
X15205896Y-10795889D02*
X15196372Y-10776841D01*
X15196372Y-10776841D02*
X15177325Y-10767317D01*
X15177325Y-10767317D02*
X15148753Y-10767317D01*
X15148753Y-10767317D02*
X15129706Y-10757793D01*
X15129706Y-10757793D02*
X15120182Y-10738746D01*
X15120182Y-10738746D02*
X15120182Y-10729222D01*
X15120182Y-10729222D02*
X15129706Y-10710174D01*
X15129706Y-10710174D02*
X15148753Y-10700650D01*
X15148753Y-10700650D02*
X15177325Y-10700650D01*
X15177325Y-10700650D02*
X15196372Y-10710174D01*
X15272563Y-10910174D02*
X15282087Y-10900650D01*
X15282087Y-10900650D02*
X15301134Y-10872079D01*
X15301134Y-10872079D02*
X15310658Y-10853031D01*
X15310658Y-10853031D02*
X15320182Y-10824460D01*
X15320182Y-10824460D02*
X15329706Y-10776841D01*
X15329706Y-10776841D02*
X15329706Y-10738746D01*
X15329706Y-10738746D02*
X15320182Y-10691127D01*
X15320182Y-10691127D02*
X15310658Y-10662555D01*
X15310658Y-10662555D02*
X15301134Y-10643508D01*
X15301134Y-10643508D02*
X15282087Y-10614936D01*
X15282087Y-10614936D02*
X15272563Y-10605412D01*
D12*
X10497500Y-11006500D02*
G75*
G03*
X10497500Y-11006500I-35000J0D01*
G01*
D11*
X10796372Y-10897984D02*
X10815420Y-10897984D01*
X10815420Y-10897984D02*
X10834467Y-10907508D01*
X10834467Y-10907508D02*
X10843991Y-10917031D01*
X10843991Y-10917031D02*
X10853515Y-10936079D01*
X10853515Y-10936079D02*
X10863039Y-10974174D01*
X10863039Y-10974174D02*
X10863039Y-11021793D01*
X10863039Y-11021793D02*
X10853515Y-11059889D01*
X10853515Y-11059889D02*
X10843991Y-11078936D01*
X10843991Y-11078936D02*
X10834467Y-11088460D01*
X10834467Y-11088460D02*
X10815420Y-11097984D01*
X10815420Y-11097984D02*
X10796372Y-11097984D01*
X10796372Y-11097984D02*
X10777324Y-11088460D01*
X10777324Y-11088460D02*
X10767801Y-11078936D01*
X10767801Y-11078936D02*
X10758277Y-11059889D01*
X10758277Y-11059889D02*
X10748753Y-11021793D01*
X10748753Y-11021793D02*
X10748753Y-10974174D01*
X10748753Y-10974174D02*
X10758277Y-10936079D01*
X10758277Y-10936079D02*
X10767801Y-10917031D01*
X10767801Y-10917031D02*
X10777324Y-10907508D01*
X10777324Y-10907508D02*
X10796372Y-10897984D01*
X10948753Y-11078936D02*
X10958277Y-11088460D01*
X10958277Y-11088460D02*
X10948753Y-11097984D01*
X10948753Y-11097984D02*
X10939229Y-11088460D01*
X10939229Y-11088460D02*
X10948753Y-11078936D01*
X10948753Y-11078936D02*
X10948753Y-11097984D01*
X11024944Y-10897984D02*
X11158277Y-10897984D01*
X11158277Y-10897984D02*
X11072563Y-11097984D01*
X11272562Y-10897984D02*
X11291610Y-10897984D01*
X11291610Y-10897984D02*
X11310658Y-10907508D01*
X11310658Y-10907508D02*
X11320182Y-10917031D01*
X11320182Y-10917031D02*
X11329705Y-10936079D01*
X11329705Y-10936079D02*
X11339229Y-10974174D01*
X11339229Y-10974174D02*
X11339229Y-11021793D01*
X11339229Y-11021793D02*
X11329705Y-11059889D01*
X11329705Y-11059889D02*
X11320182Y-11078936D01*
X11320182Y-11078936D02*
X11310658Y-11088460D01*
X11310658Y-11088460D02*
X11291610Y-11097984D01*
X11291610Y-11097984D02*
X11272562Y-11097984D01*
X11272562Y-11097984D02*
X11253515Y-11088460D01*
X11253515Y-11088460D02*
X11243991Y-11078936D01*
X11243991Y-11078936D02*
X11234467Y-11059889D01*
X11234467Y-11059889D02*
X11224943Y-11021793D01*
X11224943Y-11021793D02*
X11224943Y-10974174D01*
X11224943Y-10974174D02*
X11234467Y-10936079D01*
X11234467Y-10936079D02*
X11243991Y-10917031D01*
X11243991Y-10917031D02*
X11253515Y-10907508D01*
X11253515Y-10907508D02*
X11272562Y-10897984D01*
X11463039Y-10897984D02*
X11482086Y-10897984D01*
X11482086Y-10897984D02*
X11501134Y-10907508D01*
X11501134Y-10907508D02*
X11510658Y-10917031D01*
X11510658Y-10917031D02*
X11520182Y-10936079D01*
X11520182Y-10936079D02*
X11529705Y-10974174D01*
X11529705Y-10974174D02*
X11529705Y-11021793D01*
X11529705Y-11021793D02*
X11520182Y-11059889D01*
X11520182Y-11059889D02*
X11510658Y-11078936D01*
X11510658Y-11078936D02*
X11501134Y-11088460D01*
X11501134Y-11088460D02*
X11482086Y-11097984D01*
X11482086Y-11097984D02*
X11463039Y-11097984D01*
X11463039Y-11097984D02*
X11443991Y-11088460D01*
X11443991Y-11088460D02*
X11434467Y-11078936D01*
X11434467Y-11078936D02*
X11424943Y-11059889D01*
X11424943Y-11059889D02*
X11415420Y-11021793D01*
X11415420Y-11021793D02*
X11415420Y-10974174D01*
X11415420Y-10974174D02*
X11424943Y-10936079D01*
X11424943Y-10936079D02*
X11434467Y-10917031D01*
X11434467Y-10917031D02*
X11443991Y-10907508D01*
X11443991Y-10907508D02*
X11463039Y-10897984D01*
X11615420Y-11097984D02*
X11615420Y-10964650D01*
X11615420Y-10983698D02*
X11624943Y-10974174D01*
X11624943Y-10974174D02*
X11643991Y-10964650D01*
X11643991Y-10964650D02*
X11672563Y-10964650D01*
X11672563Y-10964650D02*
X11691610Y-10974174D01*
X11691610Y-10974174D02*
X11701134Y-10993222D01*
X11701134Y-10993222D02*
X11701134Y-11097984D01*
X11701134Y-10993222D02*
X11710658Y-10974174D01*
X11710658Y-10974174D02*
X11729705Y-10964650D01*
X11729705Y-10964650D02*
X11758277Y-10964650D01*
X11758277Y-10964650D02*
X11777324Y-10974174D01*
X11777324Y-10974174D02*
X11786848Y-10993222D01*
X11786848Y-10993222D02*
X11786848Y-11097984D01*
X11882086Y-11097984D02*
X11882086Y-10964650D01*
X11882086Y-10983698D02*
X11891610Y-10974174D01*
X11891610Y-10974174D02*
X11910658Y-10964650D01*
X11910658Y-10964650D02*
X11939229Y-10964650D01*
X11939229Y-10964650D02*
X11958277Y-10974174D01*
X11958277Y-10974174D02*
X11967801Y-10993222D01*
X11967801Y-10993222D02*
X11967801Y-11097984D01*
X11967801Y-10993222D02*
X11977324Y-10974174D01*
X11977324Y-10974174D02*
X11996372Y-10964650D01*
X11996372Y-10964650D02*
X12024943Y-10964650D01*
X12024943Y-10964650D02*
X12043991Y-10974174D01*
X12043991Y-10974174D02*
X12053515Y-10993222D01*
X12053515Y-10993222D02*
X12053515Y-11097984D01*
X12443991Y-10888460D02*
X12272563Y-11145603D01*
X12701134Y-10897984D02*
X12720182Y-10897984D01*
X12720182Y-10897984D02*
X12739229Y-10907508D01*
X12739229Y-10907508D02*
X12748753Y-10917031D01*
X12748753Y-10917031D02*
X12758277Y-10936079D01*
X12758277Y-10936079D02*
X12767801Y-10974174D01*
X12767801Y-10974174D02*
X12767801Y-11021793D01*
X12767801Y-11021793D02*
X12758277Y-11059889D01*
X12758277Y-11059889D02*
X12748753Y-11078936D01*
X12748753Y-11078936D02*
X12739229Y-11088460D01*
X12739229Y-11088460D02*
X12720182Y-11097984D01*
X12720182Y-11097984D02*
X12701134Y-11097984D01*
X12701134Y-11097984D02*
X12682086Y-11088460D01*
X12682086Y-11088460D02*
X12672563Y-11078936D01*
X12672563Y-11078936D02*
X12663039Y-11059889D01*
X12663039Y-11059889D02*
X12653515Y-11021793D01*
X12653515Y-11021793D02*
X12653515Y-10974174D01*
X12653515Y-10974174D02*
X12663039Y-10936079D01*
X12663039Y-10936079D02*
X12672563Y-10917031D01*
X12672563Y-10917031D02*
X12682086Y-10907508D01*
X12682086Y-10907508D02*
X12701134Y-10897984D01*
X12853515Y-11078936D02*
X12863039Y-11088460D01*
X12863039Y-11088460D02*
X12853515Y-11097984D01*
X12853515Y-11097984D02*
X12843991Y-11088460D01*
X12843991Y-11088460D02*
X12853515Y-11078936D01*
X12853515Y-11078936D02*
X12853515Y-11097984D01*
X12986848Y-10897984D02*
X13005896Y-10897984D01*
X13005896Y-10897984D02*
X13024944Y-10907508D01*
X13024944Y-10907508D02*
X13034467Y-10917031D01*
X13034467Y-10917031D02*
X13043991Y-10936079D01*
X13043991Y-10936079D02*
X13053515Y-10974174D01*
X13053515Y-10974174D02*
X13053515Y-11021793D01*
X13053515Y-11021793D02*
X13043991Y-11059889D01*
X13043991Y-11059889D02*
X13034467Y-11078936D01*
X13034467Y-11078936D02*
X13024944Y-11088460D01*
X13024944Y-11088460D02*
X13005896Y-11097984D01*
X13005896Y-11097984D02*
X12986848Y-11097984D01*
X12986848Y-11097984D02*
X12967801Y-11088460D01*
X12967801Y-11088460D02*
X12958277Y-11078936D01*
X12958277Y-11078936D02*
X12948753Y-11059889D01*
X12948753Y-11059889D02*
X12939229Y-11021793D01*
X12939229Y-11021793D02*
X12939229Y-10974174D01*
X12939229Y-10974174D02*
X12948753Y-10936079D01*
X12948753Y-10936079D02*
X12958277Y-10917031D01*
X12958277Y-10917031D02*
X12967801Y-10907508D01*
X12967801Y-10907508D02*
X12986848Y-10897984D01*
X13129706Y-10917031D02*
X13139229Y-10907508D01*
X13139229Y-10907508D02*
X13158277Y-10897984D01*
X13158277Y-10897984D02*
X13205896Y-10897984D01*
X13205896Y-10897984D02*
X13224944Y-10907508D01*
X13224944Y-10907508D02*
X13234467Y-10917031D01*
X13234467Y-10917031D02*
X13243991Y-10936079D01*
X13243991Y-10936079D02*
X13243991Y-10955127D01*
X13243991Y-10955127D02*
X13234467Y-10983698D01*
X13234467Y-10983698D02*
X13120182Y-11097984D01*
X13120182Y-11097984D02*
X13243991Y-11097984D01*
X13310658Y-10897984D02*
X13443991Y-10897984D01*
X13443991Y-10897984D02*
X13358277Y-11097984D01*
X13605896Y-10897984D02*
X13567801Y-10897984D01*
X13567801Y-10897984D02*
X13548753Y-10907508D01*
X13548753Y-10907508D02*
X13539229Y-10917031D01*
X13539229Y-10917031D02*
X13520182Y-10945603D01*
X13520182Y-10945603D02*
X13510658Y-10983698D01*
X13510658Y-10983698D02*
X13510658Y-11059889D01*
X13510658Y-11059889D02*
X13520182Y-11078936D01*
X13520182Y-11078936D02*
X13529706Y-11088460D01*
X13529706Y-11088460D02*
X13548753Y-11097984D01*
X13548753Y-11097984D02*
X13586848Y-11097984D01*
X13586848Y-11097984D02*
X13605896Y-11088460D01*
X13605896Y-11088460D02*
X13615420Y-11078936D01*
X13615420Y-11078936D02*
X13624944Y-11059889D01*
X13624944Y-11059889D02*
X13624944Y-11012270D01*
X13624944Y-11012270D02*
X13615420Y-10993222D01*
X13615420Y-10993222D02*
X13605896Y-10983698D01*
X13605896Y-10983698D02*
X13586848Y-10974174D01*
X13586848Y-10974174D02*
X13548753Y-10974174D01*
X13548753Y-10974174D02*
X13529706Y-10983698D01*
X13529706Y-10983698D02*
X13520182Y-10993222D01*
X13520182Y-10993222D02*
X13510658Y-11012270D01*
X13701134Y-10897984D02*
X13701134Y-10936079D01*
X13777325Y-10897984D02*
X13777325Y-10936079D01*
X14072563Y-11174174D02*
X14063039Y-11164650D01*
X14063039Y-11164650D02*
X14043991Y-11136079D01*
X14043991Y-11136079D02*
X14034468Y-11117031D01*
X14034468Y-11117031D02*
X14024944Y-11088460D01*
X14024944Y-11088460D02*
X14015420Y-11040841D01*
X14015420Y-11040841D02*
X14015420Y-11002746D01*
X14015420Y-11002746D02*
X14024944Y-10955127D01*
X14024944Y-10955127D02*
X14034468Y-10926555D01*
X14034468Y-10926555D02*
X14043991Y-10907508D01*
X14043991Y-10907508D02*
X14063039Y-10878936D01*
X14063039Y-10878936D02*
X14072563Y-10869412D01*
X14177325Y-10983698D02*
X14158277Y-10974174D01*
X14158277Y-10974174D02*
X14148753Y-10964650D01*
X14148753Y-10964650D02*
X14139229Y-10945603D01*
X14139229Y-10945603D02*
X14139229Y-10936079D01*
X14139229Y-10936079D02*
X14148753Y-10917031D01*
X14148753Y-10917031D02*
X14158277Y-10907508D01*
X14158277Y-10907508D02*
X14177325Y-10897984D01*
X14177325Y-10897984D02*
X14215420Y-10897984D01*
X14215420Y-10897984D02*
X14234468Y-10907508D01*
X14234468Y-10907508D02*
X14243991Y-10917031D01*
X14243991Y-10917031D02*
X14253515Y-10936079D01*
X14253515Y-10936079D02*
X14253515Y-10945603D01*
X14253515Y-10945603D02*
X14243991Y-10964650D01*
X14243991Y-10964650D02*
X14234468Y-10974174D01*
X14234468Y-10974174D02*
X14215420Y-10983698D01*
X14215420Y-10983698D02*
X14177325Y-10983698D01*
X14177325Y-10983698D02*
X14158277Y-10993222D01*
X14158277Y-10993222D02*
X14148753Y-11002746D01*
X14148753Y-11002746D02*
X14139229Y-11021793D01*
X14139229Y-11021793D02*
X14139229Y-11059889D01*
X14139229Y-11059889D02*
X14148753Y-11078936D01*
X14148753Y-11078936D02*
X14158277Y-11088460D01*
X14158277Y-11088460D02*
X14177325Y-11097984D01*
X14177325Y-11097984D02*
X14215420Y-11097984D01*
X14215420Y-11097984D02*
X14234468Y-11088460D01*
X14234468Y-11088460D02*
X14243991Y-11078936D01*
X14243991Y-11078936D02*
X14253515Y-11059889D01*
X14253515Y-11059889D02*
X14253515Y-11021793D01*
X14253515Y-11021793D02*
X14243991Y-11002746D01*
X14243991Y-11002746D02*
X14234468Y-10993222D01*
X14234468Y-10993222D02*
X14215420Y-10983698D01*
X14491610Y-11097984D02*
X14491610Y-10897984D01*
X14577325Y-11097984D02*
X14577325Y-10993222D01*
X14577325Y-10993222D02*
X14567801Y-10974174D01*
X14567801Y-10974174D02*
X14548753Y-10964650D01*
X14548753Y-10964650D02*
X14520182Y-10964650D01*
X14520182Y-10964650D02*
X14501134Y-10974174D01*
X14501134Y-10974174D02*
X14491610Y-10983698D01*
X14701134Y-11097984D02*
X14682087Y-11088460D01*
X14682087Y-11088460D02*
X14672563Y-11078936D01*
X14672563Y-11078936D02*
X14663039Y-11059889D01*
X14663039Y-11059889D02*
X14663039Y-11002746D01*
X14663039Y-11002746D02*
X14672563Y-10983698D01*
X14672563Y-10983698D02*
X14682087Y-10974174D01*
X14682087Y-10974174D02*
X14701134Y-10964650D01*
X14701134Y-10964650D02*
X14729706Y-10964650D01*
X14729706Y-10964650D02*
X14748753Y-10974174D01*
X14748753Y-10974174D02*
X14758277Y-10983698D01*
X14758277Y-10983698D02*
X14767801Y-11002746D01*
X14767801Y-11002746D02*
X14767801Y-11059889D01*
X14767801Y-11059889D02*
X14758277Y-11078936D01*
X14758277Y-11078936D02*
X14748753Y-11088460D01*
X14748753Y-11088460D02*
X14729706Y-11097984D01*
X14729706Y-11097984D02*
X14701134Y-11097984D01*
X14882087Y-11097984D02*
X14863039Y-11088460D01*
X14863039Y-11088460D02*
X14853515Y-11069412D01*
X14853515Y-11069412D02*
X14853515Y-10897984D01*
X15034468Y-11088460D02*
X15015420Y-11097984D01*
X15015420Y-11097984D02*
X14977325Y-11097984D01*
X14977325Y-11097984D02*
X14958277Y-11088460D01*
X14958277Y-11088460D02*
X14948753Y-11069412D01*
X14948753Y-11069412D02*
X14948753Y-10993222D01*
X14948753Y-10993222D02*
X14958277Y-10974174D01*
X14958277Y-10974174D02*
X14977325Y-10964650D01*
X14977325Y-10964650D02*
X15015420Y-10964650D01*
X15015420Y-10964650D02*
X15034468Y-10974174D01*
X15034468Y-10974174D02*
X15043991Y-10993222D01*
X15043991Y-10993222D02*
X15043991Y-11012270D01*
X15043991Y-11012270D02*
X14948753Y-11031317D01*
X15120182Y-11088460D02*
X15139230Y-11097984D01*
X15139230Y-11097984D02*
X15177325Y-11097984D01*
X15177325Y-11097984D02*
X15196372Y-11088460D01*
X15196372Y-11088460D02*
X15205896Y-11069412D01*
X15205896Y-11069412D02*
X15205896Y-11059889D01*
X15205896Y-11059889D02*
X15196372Y-11040841D01*
X15196372Y-11040841D02*
X15177325Y-11031317D01*
X15177325Y-11031317D02*
X15148753Y-11031317D01*
X15148753Y-11031317D02*
X15129706Y-11021793D01*
X15129706Y-11021793D02*
X15120182Y-11002746D01*
X15120182Y-11002746D02*
X15120182Y-10993222D01*
X15120182Y-10993222D02*
X15129706Y-10974174D01*
X15129706Y-10974174D02*
X15148753Y-10964650D01*
X15148753Y-10964650D02*
X15177325Y-10964650D01*
X15177325Y-10964650D02*
X15196372Y-10974174D01*
X15272563Y-11174174D02*
X15282087Y-11164650D01*
X15282087Y-11164650D02*
X15301134Y-11136079D01*
X15301134Y-11136079D02*
X15310658Y-11117031D01*
X15310658Y-11117031D02*
X15320182Y-11088460D01*
X15320182Y-11088460D02*
X15329706Y-11040841D01*
X15329706Y-11040841D02*
X15329706Y-11002746D01*
X15329706Y-11002746D02*
X15320182Y-10955127D01*
X15320182Y-10955127D02*
X15310658Y-10926555D01*
X15310658Y-10926555D02*
X15301134Y-10907508D01*
X15301134Y-10907508D02*
X15282087Y-10878936D01*
X15282087Y-10878936D02*
X15272563Y-10869412D01*
D13*
X10452500Y-11225500D02*
X10452500Y-11315500D01*
X10407500Y-11270500D02*
X10497500Y-11270500D01*
D11*
X10796372Y-11161984D02*
X10815420Y-11161984D01*
X10815420Y-11161984D02*
X10834467Y-11171508D01*
X10834467Y-11171508D02*
X10843991Y-11181031D01*
X10843991Y-11181031D02*
X10853515Y-11200079D01*
X10853515Y-11200079D02*
X10863039Y-11238174D01*
X10863039Y-11238174D02*
X10863039Y-11285793D01*
X10863039Y-11285793D02*
X10853515Y-11323888D01*
X10853515Y-11323888D02*
X10843991Y-11342936D01*
X10843991Y-11342936D02*
X10834467Y-11352460D01*
X10834467Y-11352460D02*
X10815420Y-11361984D01*
X10815420Y-11361984D02*
X10796372Y-11361984D01*
X10796372Y-11361984D02*
X10777324Y-11352460D01*
X10777324Y-11352460D02*
X10767801Y-11342936D01*
X10767801Y-11342936D02*
X10758277Y-11323888D01*
X10758277Y-11323888D02*
X10748753Y-11285793D01*
X10748753Y-11285793D02*
X10748753Y-11238174D01*
X10748753Y-11238174D02*
X10758277Y-11200079D01*
X10758277Y-11200079D02*
X10767801Y-11181031D01*
X10767801Y-11181031D02*
X10777324Y-11171508D01*
X10777324Y-11171508D02*
X10796372Y-11161984D01*
X10948753Y-11342936D02*
X10958277Y-11352460D01*
X10958277Y-11352460D02*
X10948753Y-11361984D01*
X10948753Y-11361984D02*
X10939229Y-11352460D01*
X10939229Y-11352460D02*
X10948753Y-11342936D01*
X10948753Y-11342936D02*
X10948753Y-11361984D01*
X11053515Y-11361984D02*
X11091610Y-11361984D01*
X11091610Y-11361984D02*
X11110658Y-11352460D01*
X11110658Y-11352460D02*
X11120182Y-11342936D01*
X11120182Y-11342936D02*
X11139229Y-11314365D01*
X11139229Y-11314365D02*
X11148753Y-11276269D01*
X11148753Y-11276269D02*
X11148753Y-11200079D01*
X11148753Y-11200079D02*
X11139229Y-11181031D01*
X11139229Y-11181031D02*
X11129705Y-11171508D01*
X11129705Y-11171508D02*
X11110658Y-11161984D01*
X11110658Y-11161984D02*
X11072563Y-11161984D01*
X11072563Y-11161984D02*
X11053515Y-11171508D01*
X11053515Y-11171508D02*
X11043991Y-11181031D01*
X11043991Y-11181031D02*
X11034467Y-11200079D01*
X11034467Y-11200079D02*
X11034467Y-11247698D01*
X11034467Y-11247698D02*
X11043991Y-11266746D01*
X11043991Y-11266746D02*
X11053515Y-11276269D01*
X11053515Y-11276269D02*
X11072563Y-11285793D01*
X11072563Y-11285793D02*
X11110658Y-11285793D01*
X11110658Y-11285793D02*
X11129705Y-11276269D01*
X11129705Y-11276269D02*
X11139229Y-11266746D01*
X11139229Y-11266746D02*
X11148753Y-11247698D01*
X11272562Y-11161984D02*
X11291610Y-11161984D01*
X11291610Y-11161984D02*
X11310658Y-11171508D01*
X11310658Y-11171508D02*
X11320182Y-11181031D01*
X11320182Y-11181031D02*
X11329705Y-11200079D01*
X11329705Y-11200079D02*
X11339229Y-11238174D01*
X11339229Y-11238174D02*
X11339229Y-11285793D01*
X11339229Y-11285793D02*
X11329705Y-11323888D01*
X11329705Y-11323888D02*
X11320182Y-11342936D01*
X11320182Y-11342936D02*
X11310658Y-11352460D01*
X11310658Y-11352460D02*
X11291610Y-11361984D01*
X11291610Y-11361984D02*
X11272562Y-11361984D01*
X11272562Y-11361984D02*
X11253515Y-11352460D01*
X11253515Y-11352460D02*
X11243991Y-11342936D01*
X11243991Y-11342936D02*
X11234467Y-11323888D01*
X11234467Y-11323888D02*
X11224943Y-11285793D01*
X11224943Y-11285793D02*
X11224943Y-11238174D01*
X11224943Y-11238174D02*
X11234467Y-11200079D01*
X11234467Y-11200079D02*
X11243991Y-11181031D01*
X11243991Y-11181031D02*
X11253515Y-11171508D01*
X11253515Y-11171508D02*
X11272562Y-11161984D01*
X11463039Y-11161984D02*
X11482086Y-11161984D01*
X11482086Y-11161984D02*
X11501134Y-11171508D01*
X11501134Y-11171508D02*
X11510658Y-11181031D01*
X11510658Y-11181031D02*
X11520182Y-11200079D01*
X11520182Y-11200079D02*
X11529705Y-11238174D01*
X11529705Y-11238174D02*
X11529705Y-11285793D01*
X11529705Y-11285793D02*
X11520182Y-11323888D01*
X11520182Y-11323888D02*
X11510658Y-11342936D01*
X11510658Y-11342936D02*
X11501134Y-11352460D01*
X11501134Y-11352460D02*
X11482086Y-11361984D01*
X11482086Y-11361984D02*
X11463039Y-11361984D01*
X11463039Y-11361984D02*
X11443991Y-11352460D01*
X11443991Y-11352460D02*
X11434467Y-11342936D01*
X11434467Y-11342936D02*
X11424943Y-11323888D01*
X11424943Y-11323888D02*
X11415420Y-11285793D01*
X11415420Y-11285793D02*
X11415420Y-11238174D01*
X11415420Y-11238174D02*
X11424943Y-11200079D01*
X11424943Y-11200079D02*
X11434467Y-11181031D01*
X11434467Y-11181031D02*
X11443991Y-11171508D01*
X11443991Y-11171508D02*
X11463039Y-11161984D01*
X11615420Y-11361984D02*
X11615420Y-11228650D01*
X11615420Y-11247698D02*
X11624943Y-11238174D01*
X11624943Y-11238174D02*
X11643991Y-11228650D01*
X11643991Y-11228650D02*
X11672563Y-11228650D01*
X11672563Y-11228650D02*
X11691610Y-11238174D01*
X11691610Y-11238174D02*
X11701134Y-11257222D01*
X11701134Y-11257222D02*
X11701134Y-11361984D01*
X11701134Y-11257222D02*
X11710658Y-11238174D01*
X11710658Y-11238174D02*
X11729705Y-11228650D01*
X11729705Y-11228650D02*
X11758277Y-11228650D01*
X11758277Y-11228650D02*
X11777324Y-11238174D01*
X11777324Y-11238174D02*
X11786848Y-11257222D01*
X11786848Y-11257222D02*
X11786848Y-11361984D01*
X11882086Y-11361984D02*
X11882086Y-11228650D01*
X11882086Y-11247698D02*
X11891610Y-11238174D01*
X11891610Y-11238174D02*
X11910658Y-11228650D01*
X11910658Y-11228650D02*
X11939229Y-11228650D01*
X11939229Y-11228650D02*
X11958277Y-11238174D01*
X11958277Y-11238174D02*
X11967801Y-11257222D01*
X11967801Y-11257222D02*
X11967801Y-11361984D01*
X11967801Y-11257222D02*
X11977324Y-11238174D01*
X11977324Y-11238174D02*
X11996372Y-11228650D01*
X11996372Y-11228650D02*
X12024943Y-11228650D01*
X12024943Y-11228650D02*
X12043991Y-11238174D01*
X12043991Y-11238174D02*
X12053515Y-11257222D01*
X12053515Y-11257222D02*
X12053515Y-11361984D01*
X12443991Y-11152460D02*
X12272563Y-11409603D01*
X12701134Y-11161984D02*
X12720182Y-11161984D01*
X12720182Y-11161984D02*
X12739229Y-11171508D01*
X12739229Y-11171508D02*
X12748753Y-11181031D01*
X12748753Y-11181031D02*
X12758277Y-11200079D01*
X12758277Y-11200079D02*
X12767801Y-11238174D01*
X12767801Y-11238174D02*
X12767801Y-11285793D01*
X12767801Y-11285793D02*
X12758277Y-11323888D01*
X12758277Y-11323888D02*
X12748753Y-11342936D01*
X12748753Y-11342936D02*
X12739229Y-11352460D01*
X12739229Y-11352460D02*
X12720182Y-11361984D01*
X12720182Y-11361984D02*
X12701134Y-11361984D01*
X12701134Y-11361984D02*
X12682086Y-11352460D01*
X12682086Y-11352460D02*
X12672563Y-11342936D01*
X12672563Y-11342936D02*
X12663039Y-11323888D01*
X12663039Y-11323888D02*
X12653515Y-11285793D01*
X12653515Y-11285793D02*
X12653515Y-11238174D01*
X12653515Y-11238174D02*
X12663039Y-11200079D01*
X12663039Y-11200079D02*
X12672563Y-11181031D01*
X12672563Y-11181031D02*
X12682086Y-11171508D01*
X12682086Y-11171508D02*
X12701134Y-11161984D01*
X12853515Y-11342936D02*
X12863039Y-11352460D01*
X12863039Y-11352460D02*
X12853515Y-11361984D01*
X12853515Y-11361984D02*
X12843991Y-11352460D01*
X12843991Y-11352460D02*
X12853515Y-11342936D01*
X12853515Y-11342936D02*
X12853515Y-11361984D01*
X12986848Y-11161984D02*
X13005896Y-11161984D01*
X13005896Y-11161984D02*
X13024944Y-11171508D01*
X13024944Y-11171508D02*
X13034467Y-11181031D01*
X13034467Y-11181031D02*
X13043991Y-11200079D01*
X13043991Y-11200079D02*
X13053515Y-11238174D01*
X13053515Y-11238174D02*
X13053515Y-11285793D01*
X13053515Y-11285793D02*
X13043991Y-11323888D01*
X13043991Y-11323888D02*
X13034467Y-11342936D01*
X13034467Y-11342936D02*
X13024944Y-11352460D01*
X13024944Y-11352460D02*
X13005896Y-11361984D01*
X13005896Y-11361984D02*
X12986848Y-11361984D01*
X12986848Y-11361984D02*
X12967801Y-11352460D01*
X12967801Y-11352460D02*
X12958277Y-11342936D01*
X12958277Y-11342936D02*
X12948753Y-11323888D01*
X12948753Y-11323888D02*
X12939229Y-11285793D01*
X12939229Y-11285793D02*
X12939229Y-11238174D01*
X12939229Y-11238174D02*
X12948753Y-11200079D01*
X12948753Y-11200079D02*
X12958277Y-11181031D01*
X12958277Y-11181031D02*
X12967801Y-11171508D01*
X12967801Y-11171508D02*
X12986848Y-11161984D01*
X13120182Y-11161984D02*
X13243991Y-11161984D01*
X13243991Y-11161984D02*
X13177325Y-11238174D01*
X13177325Y-11238174D02*
X13205896Y-11238174D01*
X13205896Y-11238174D02*
X13224944Y-11247698D01*
X13224944Y-11247698D02*
X13234467Y-11257222D01*
X13234467Y-11257222D02*
X13243991Y-11276269D01*
X13243991Y-11276269D02*
X13243991Y-11323888D01*
X13243991Y-11323888D02*
X13234467Y-11342936D01*
X13234467Y-11342936D02*
X13224944Y-11352460D01*
X13224944Y-11352460D02*
X13205896Y-11361984D01*
X13205896Y-11361984D02*
X13148753Y-11361984D01*
X13148753Y-11361984D02*
X13129706Y-11352460D01*
X13129706Y-11352460D02*
X13120182Y-11342936D01*
X13424944Y-11161984D02*
X13329706Y-11161984D01*
X13329706Y-11161984D02*
X13320182Y-11257222D01*
X13320182Y-11257222D02*
X13329706Y-11247698D01*
X13329706Y-11247698D02*
X13348753Y-11238174D01*
X13348753Y-11238174D02*
X13396372Y-11238174D01*
X13396372Y-11238174D02*
X13415420Y-11247698D01*
X13415420Y-11247698D02*
X13424944Y-11257222D01*
X13424944Y-11257222D02*
X13434467Y-11276269D01*
X13434467Y-11276269D02*
X13434467Y-11323888D01*
X13434467Y-11323888D02*
X13424944Y-11342936D01*
X13424944Y-11342936D02*
X13415420Y-11352460D01*
X13415420Y-11352460D02*
X13396372Y-11361984D01*
X13396372Y-11361984D02*
X13348753Y-11361984D01*
X13348753Y-11361984D02*
X13329706Y-11352460D01*
X13329706Y-11352460D02*
X13320182Y-11342936D01*
X13605896Y-11228650D02*
X13605896Y-11361984D01*
X13558277Y-11152460D02*
X13510658Y-11295317D01*
X13510658Y-11295317D02*
X13634467Y-11295317D01*
X13701134Y-11161984D02*
X13701134Y-11200079D01*
X13777325Y-11161984D02*
X13777325Y-11200079D01*
X14072563Y-11438174D02*
X14063039Y-11428650D01*
X14063039Y-11428650D02*
X14043991Y-11400079D01*
X14043991Y-11400079D02*
X14034468Y-11381031D01*
X14034468Y-11381031D02*
X14024944Y-11352460D01*
X14024944Y-11352460D02*
X14015420Y-11304841D01*
X14015420Y-11304841D02*
X14015420Y-11266746D01*
X14015420Y-11266746D02*
X14024944Y-11219127D01*
X14024944Y-11219127D02*
X14034468Y-11190555D01*
X14034468Y-11190555D02*
X14043991Y-11171508D01*
X14043991Y-11171508D02*
X14063039Y-11142936D01*
X14063039Y-11142936D02*
X14072563Y-11133412D01*
X14234468Y-11161984D02*
X14196372Y-11161984D01*
X14196372Y-11161984D02*
X14177325Y-11171508D01*
X14177325Y-11171508D02*
X14167801Y-11181031D01*
X14167801Y-11181031D02*
X14148753Y-11209603D01*
X14148753Y-11209603D02*
X14139229Y-11247698D01*
X14139229Y-11247698D02*
X14139229Y-11323888D01*
X14139229Y-11323888D02*
X14148753Y-11342936D01*
X14148753Y-11342936D02*
X14158277Y-11352460D01*
X14158277Y-11352460D02*
X14177325Y-11361984D01*
X14177325Y-11361984D02*
X14215420Y-11361984D01*
X14215420Y-11361984D02*
X14234468Y-11352460D01*
X14234468Y-11352460D02*
X14243991Y-11342936D01*
X14243991Y-11342936D02*
X14253515Y-11323888D01*
X14253515Y-11323888D02*
X14253515Y-11276269D01*
X14253515Y-11276269D02*
X14243991Y-11257222D01*
X14243991Y-11257222D02*
X14234468Y-11247698D01*
X14234468Y-11247698D02*
X14215420Y-11238174D01*
X14215420Y-11238174D02*
X14177325Y-11238174D01*
X14177325Y-11238174D02*
X14158277Y-11247698D01*
X14158277Y-11247698D02*
X14148753Y-11257222D01*
X14148753Y-11257222D02*
X14139229Y-11276269D01*
X14491610Y-11361984D02*
X14491610Y-11161984D01*
X14577325Y-11361984D02*
X14577325Y-11257222D01*
X14577325Y-11257222D02*
X14567801Y-11238174D01*
X14567801Y-11238174D02*
X14548753Y-11228650D01*
X14548753Y-11228650D02*
X14520182Y-11228650D01*
X14520182Y-11228650D02*
X14501134Y-11238174D01*
X14501134Y-11238174D02*
X14491610Y-11247698D01*
X14701134Y-11361984D02*
X14682087Y-11352460D01*
X14682087Y-11352460D02*
X14672563Y-11342936D01*
X14672563Y-11342936D02*
X14663039Y-11323888D01*
X14663039Y-11323888D02*
X14663039Y-11266746D01*
X14663039Y-11266746D02*
X14672563Y-11247698D01*
X14672563Y-11247698D02*
X14682087Y-11238174D01*
X14682087Y-11238174D02*
X14701134Y-11228650D01*
X14701134Y-11228650D02*
X14729706Y-11228650D01*
X14729706Y-11228650D02*
X14748753Y-11238174D01*
X14748753Y-11238174D02*
X14758277Y-11247698D01*
X14758277Y-11247698D02*
X14767801Y-11266746D01*
X14767801Y-11266746D02*
X14767801Y-11323888D01*
X14767801Y-11323888D02*
X14758277Y-11342936D01*
X14758277Y-11342936D02*
X14748753Y-11352460D01*
X14748753Y-11352460D02*
X14729706Y-11361984D01*
X14729706Y-11361984D02*
X14701134Y-11361984D01*
X14882087Y-11361984D02*
X14863039Y-11352460D01*
X14863039Y-11352460D02*
X14853515Y-11333412D01*
X14853515Y-11333412D02*
X14853515Y-11161984D01*
X15034468Y-11352460D02*
X15015420Y-11361984D01*
X15015420Y-11361984D02*
X14977325Y-11361984D01*
X14977325Y-11361984D02*
X14958277Y-11352460D01*
X14958277Y-11352460D02*
X14948753Y-11333412D01*
X14948753Y-11333412D02*
X14948753Y-11257222D01*
X14948753Y-11257222D02*
X14958277Y-11238174D01*
X14958277Y-11238174D02*
X14977325Y-11228650D01*
X14977325Y-11228650D02*
X15015420Y-11228650D01*
X15015420Y-11228650D02*
X15034468Y-11238174D01*
X15034468Y-11238174D02*
X15043991Y-11257222D01*
X15043991Y-11257222D02*
X15043991Y-11276269D01*
X15043991Y-11276269D02*
X14948753Y-11295317D01*
X15120182Y-11352460D02*
X15139230Y-11361984D01*
X15139230Y-11361984D02*
X15177325Y-11361984D01*
X15177325Y-11361984D02*
X15196372Y-11352460D01*
X15196372Y-11352460D02*
X15205896Y-11333412D01*
X15205896Y-11333412D02*
X15205896Y-11323888D01*
X15205896Y-11323888D02*
X15196372Y-11304841D01*
X15196372Y-11304841D02*
X15177325Y-11295317D01*
X15177325Y-11295317D02*
X15148753Y-11295317D01*
X15148753Y-11295317D02*
X15129706Y-11285793D01*
X15129706Y-11285793D02*
X15120182Y-11266746D01*
X15120182Y-11266746D02*
X15120182Y-11257222D01*
X15120182Y-11257222D02*
X15129706Y-11238174D01*
X15129706Y-11238174D02*
X15148753Y-11228650D01*
X15148753Y-11228650D02*
X15177325Y-11228650D01*
X15177325Y-11228650D02*
X15196372Y-11238174D01*
X15272563Y-11438174D02*
X15282087Y-11428650D01*
X15282087Y-11428650D02*
X15301134Y-11400079D01*
X15301134Y-11400079D02*
X15310658Y-11381031D01*
X15310658Y-11381031D02*
X15320182Y-11352460D01*
X15320182Y-11352460D02*
X15329706Y-11304841D01*
X15329706Y-11304841D02*
X15329706Y-11266746D01*
X15329706Y-11266746D02*
X15320182Y-11219127D01*
X15320182Y-11219127D02*
X15310658Y-11190555D01*
X15310658Y-11190555D02*
X15301134Y-11171508D01*
X15301134Y-11171508D02*
X15282087Y-11142936D01*
X15282087Y-11142936D02*
X15272563Y-11133412D01*
D14*
X10482856Y-11569856D02*
X10482856Y-11499144D01*
X10412144Y-11499144D01*
X10412144Y-11569856D01*
X10482856Y-11569856D01*
D11*
X10863039Y-11625984D02*
X10748753Y-11625984D01*
X10805896Y-11625984D02*
X10805896Y-11425984D01*
X10805896Y-11425984D02*
X10786848Y-11454555D01*
X10786848Y-11454555D02*
X10767801Y-11473603D01*
X10767801Y-11473603D02*
X10748753Y-11483127D01*
X10948753Y-11606936D02*
X10958277Y-11616460D01*
X10958277Y-11616460D02*
X10948753Y-11625984D01*
X10948753Y-11625984D02*
X10939229Y-11616460D01*
X10939229Y-11616460D02*
X10948753Y-11606936D01*
X10948753Y-11606936D02*
X10948753Y-11625984D01*
X11082086Y-11425984D02*
X11101134Y-11425984D01*
X11101134Y-11425984D02*
X11120182Y-11435508D01*
X11120182Y-11435508D02*
X11129705Y-11445031D01*
X11129705Y-11445031D02*
X11139229Y-11464079D01*
X11139229Y-11464079D02*
X11148753Y-11502174D01*
X11148753Y-11502174D02*
X11148753Y-11549793D01*
X11148753Y-11549793D02*
X11139229Y-11587888D01*
X11139229Y-11587888D02*
X11129705Y-11606936D01*
X11129705Y-11606936D02*
X11120182Y-11616460D01*
X11120182Y-11616460D02*
X11101134Y-11625984D01*
X11101134Y-11625984D02*
X11082086Y-11625984D01*
X11082086Y-11625984D02*
X11063039Y-11616460D01*
X11063039Y-11616460D02*
X11053515Y-11606936D01*
X11053515Y-11606936D02*
X11043991Y-11587888D01*
X11043991Y-11587888D02*
X11034467Y-11549793D01*
X11034467Y-11549793D02*
X11034467Y-11502174D01*
X11034467Y-11502174D02*
X11043991Y-11464079D01*
X11043991Y-11464079D02*
X11053515Y-11445031D01*
X11053515Y-11445031D02*
X11063039Y-11435508D01*
X11063039Y-11435508D02*
X11082086Y-11425984D01*
X11272562Y-11425984D02*
X11291610Y-11425984D01*
X11291610Y-11425984D02*
X11310658Y-11435508D01*
X11310658Y-11435508D02*
X11320182Y-11445031D01*
X11320182Y-11445031D02*
X11329705Y-11464079D01*
X11329705Y-11464079D02*
X11339229Y-11502174D01*
X11339229Y-11502174D02*
X11339229Y-11549793D01*
X11339229Y-11549793D02*
X11329705Y-11587888D01*
X11329705Y-11587888D02*
X11320182Y-11606936D01*
X11320182Y-11606936D02*
X11310658Y-11616460D01*
X11310658Y-11616460D02*
X11291610Y-11625984D01*
X11291610Y-11625984D02*
X11272562Y-11625984D01*
X11272562Y-11625984D02*
X11253515Y-11616460D01*
X11253515Y-11616460D02*
X11243991Y-11606936D01*
X11243991Y-11606936D02*
X11234467Y-11587888D01*
X11234467Y-11587888D02*
X11224943Y-11549793D01*
X11224943Y-11549793D02*
X11224943Y-11502174D01*
X11224943Y-11502174D02*
X11234467Y-11464079D01*
X11234467Y-11464079D02*
X11243991Y-11445031D01*
X11243991Y-11445031D02*
X11253515Y-11435508D01*
X11253515Y-11435508D02*
X11272562Y-11425984D01*
X11463039Y-11425984D02*
X11482086Y-11425984D01*
X11482086Y-11425984D02*
X11501134Y-11435508D01*
X11501134Y-11435508D02*
X11510658Y-11445031D01*
X11510658Y-11445031D02*
X11520182Y-11464079D01*
X11520182Y-11464079D02*
X11529705Y-11502174D01*
X11529705Y-11502174D02*
X11529705Y-11549793D01*
X11529705Y-11549793D02*
X11520182Y-11587888D01*
X11520182Y-11587888D02*
X11510658Y-11606936D01*
X11510658Y-11606936D02*
X11501134Y-11616460D01*
X11501134Y-11616460D02*
X11482086Y-11625984D01*
X11482086Y-11625984D02*
X11463039Y-11625984D01*
X11463039Y-11625984D02*
X11443991Y-11616460D01*
X11443991Y-11616460D02*
X11434467Y-11606936D01*
X11434467Y-11606936D02*
X11424943Y-11587888D01*
X11424943Y-11587888D02*
X11415420Y-11549793D01*
X11415420Y-11549793D02*
X11415420Y-11502174D01*
X11415420Y-11502174D02*
X11424943Y-11464079D01*
X11424943Y-11464079D02*
X11434467Y-11445031D01*
X11434467Y-11445031D02*
X11443991Y-11435508D01*
X11443991Y-11435508D02*
X11463039Y-11425984D01*
X11615420Y-11625984D02*
X11615420Y-11492650D01*
X11615420Y-11511698D02*
X11624943Y-11502174D01*
X11624943Y-11502174D02*
X11643991Y-11492650D01*
X11643991Y-11492650D02*
X11672563Y-11492650D01*
X11672563Y-11492650D02*
X11691610Y-11502174D01*
X11691610Y-11502174D02*
X11701134Y-11521222D01*
X11701134Y-11521222D02*
X11701134Y-11625984D01*
X11701134Y-11521222D02*
X11710658Y-11502174D01*
X11710658Y-11502174D02*
X11729705Y-11492650D01*
X11729705Y-11492650D02*
X11758277Y-11492650D01*
X11758277Y-11492650D02*
X11777324Y-11502174D01*
X11777324Y-11502174D02*
X11786848Y-11521222D01*
X11786848Y-11521222D02*
X11786848Y-11625984D01*
X11882086Y-11625984D02*
X11882086Y-11492650D01*
X11882086Y-11511698D02*
X11891610Y-11502174D01*
X11891610Y-11502174D02*
X11910658Y-11492650D01*
X11910658Y-11492650D02*
X11939229Y-11492650D01*
X11939229Y-11492650D02*
X11958277Y-11502174D01*
X11958277Y-11502174D02*
X11967801Y-11521222D01*
X11967801Y-11521222D02*
X11967801Y-11625984D01*
X11967801Y-11521222D02*
X11977324Y-11502174D01*
X11977324Y-11502174D02*
X11996372Y-11492650D01*
X11996372Y-11492650D02*
X12024943Y-11492650D01*
X12024943Y-11492650D02*
X12043991Y-11502174D01*
X12043991Y-11502174D02*
X12053515Y-11521222D01*
X12053515Y-11521222D02*
X12053515Y-11625984D01*
X12443991Y-11416460D02*
X12272563Y-11673603D01*
X12701134Y-11425984D02*
X12720182Y-11425984D01*
X12720182Y-11425984D02*
X12739229Y-11435508D01*
X12739229Y-11435508D02*
X12748753Y-11445031D01*
X12748753Y-11445031D02*
X12758277Y-11464079D01*
X12758277Y-11464079D02*
X12767801Y-11502174D01*
X12767801Y-11502174D02*
X12767801Y-11549793D01*
X12767801Y-11549793D02*
X12758277Y-11587888D01*
X12758277Y-11587888D02*
X12748753Y-11606936D01*
X12748753Y-11606936D02*
X12739229Y-11616460D01*
X12739229Y-11616460D02*
X12720182Y-11625984D01*
X12720182Y-11625984D02*
X12701134Y-11625984D01*
X12701134Y-11625984D02*
X12682086Y-11616460D01*
X12682086Y-11616460D02*
X12672563Y-11606936D01*
X12672563Y-11606936D02*
X12663039Y-11587888D01*
X12663039Y-11587888D02*
X12653515Y-11549793D01*
X12653515Y-11549793D02*
X12653515Y-11502174D01*
X12653515Y-11502174D02*
X12663039Y-11464079D01*
X12663039Y-11464079D02*
X12672563Y-11445031D01*
X12672563Y-11445031D02*
X12682086Y-11435508D01*
X12682086Y-11435508D02*
X12701134Y-11425984D01*
X12853515Y-11606936D02*
X12863039Y-11616460D01*
X12863039Y-11616460D02*
X12853515Y-11625984D01*
X12853515Y-11625984D02*
X12843991Y-11616460D01*
X12843991Y-11616460D02*
X12853515Y-11606936D01*
X12853515Y-11606936D02*
X12853515Y-11625984D01*
X12986848Y-11425984D02*
X13005896Y-11425984D01*
X13005896Y-11425984D02*
X13024944Y-11435508D01*
X13024944Y-11435508D02*
X13034467Y-11445031D01*
X13034467Y-11445031D02*
X13043991Y-11464079D01*
X13043991Y-11464079D02*
X13053515Y-11502174D01*
X13053515Y-11502174D02*
X13053515Y-11549793D01*
X13053515Y-11549793D02*
X13043991Y-11587888D01*
X13043991Y-11587888D02*
X13034467Y-11606936D01*
X13034467Y-11606936D02*
X13024944Y-11616460D01*
X13024944Y-11616460D02*
X13005896Y-11625984D01*
X13005896Y-11625984D02*
X12986848Y-11625984D01*
X12986848Y-11625984D02*
X12967801Y-11616460D01*
X12967801Y-11616460D02*
X12958277Y-11606936D01*
X12958277Y-11606936D02*
X12948753Y-11587888D01*
X12948753Y-11587888D02*
X12939229Y-11549793D01*
X12939229Y-11549793D02*
X12939229Y-11502174D01*
X12939229Y-11502174D02*
X12948753Y-11464079D01*
X12948753Y-11464079D02*
X12958277Y-11445031D01*
X12958277Y-11445031D02*
X12967801Y-11435508D01*
X12967801Y-11435508D02*
X12986848Y-11425984D01*
X13120182Y-11425984D02*
X13243991Y-11425984D01*
X13243991Y-11425984D02*
X13177325Y-11502174D01*
X13177325Y-11502174D02*
X13205896Y-11502174D01*
X13205896Y-11502174D02*
X13224944Y-11511698D01*
X13224944Y-11511698D02*
X13234467Y-11521222D01*
X13234467Y-11521222D02*
X13243991Y-11540269D01*
X13243991Y-11540269D02*
X13243991Y-11587888D01*
X13243991Y-11587888D02*
X13234467Y-11606936D01*
X13234467Y-11606936D02*
X13224944Y-11616460D01*
X13224944Y-11616460D02*
X13205896Y-11625984D01*
X13205896Y-11625984D02*
X13148753Y-11625984D01*
X13148753Y-11625984D02*
X13129706Y-11616460D01*
X13129706Y-11616460D02*
X13120182Y-11606936D01*
X13339229Y-11625984D02*
X13377325Y-11625984D01*
X13377325Y-11625984D02*
X13396372Y-11616460D01*
X13396372Y-11616460D02*
X13405896Y-11606936D01*
X13405896Y-11606936D02*
X13424944Y-11578365D01*
X13424944Y-11578365D02*
X13434467Y-11540269D01*
X13434467Y-11540269D02*
X13434467Y-11464079D01*
X13434467Y-11464079D02*
X13424944Y-11445031D01*
X13424944Y-11445031D02*
X13415420Y-11435508D01*
X13415420Y-11435508D02*
X13396372Y-11425984D01*
X13396372Y-11425984D02*
X13358277Y-11425984D01*
X13358277Y-11425984D02*
X13339229Y-11435508D01*
X13339229Y-11435508D02*
X13329706Y-11445031D01*
X13329706Y-11445031D02*
X13320182Y-11464079D01*
X13320182Y-11464079D02*
X13320182Y-11511698D01*
X13320182Y-11511698D02*
X13329706Y-11530746D01*
X13329706Y-11530746D02*
X13339229Y-11540269D01*
X13339229Y-11540269D02*
X13358277Y-11549793D01*
X13358277Y-11549793D02*
X13396372Y-11549793D01*
X13396372Y-11549793D02*
X13415420Y-11540269D01*
X13415420Y-11540269D02*
X13424944Y-11530746D01*
X13424944Y-11530746D02*
X13434467Y-11511698D01*
X13605896Y-11492650D02*
X13605896Y-11625984D01*
X13558277Y-11416460D02*
X13510658Y-11559317D01*
X13510658Y-11559317D02*
X13634467Y-11559317D01*
X13701134Y-11425984D02*
X13701134Y-11464079D01*
X13777325Y-11425984D02*
X13777325Y-11464079D01*
X14072563Y-11702174D02*
X14063039Y-11692650D01*
X14063039Y-11692650D02*
X14043991Y-11664079D01*
X14043991Y-11664079D02*
X14034468Y-11645031D01*
X14034468Y-11645031D02*
X14024944Y-11616460D01*
X14024944Y-11616460D02*
X14015420Y-11568841D01*
X14015420Y-11568841D02*
X14015420Y-11530746D01*
X14015420Y-11530746D02*
X14024944Y-11483127D01*
X14024944Y-11483127D02*
X14034468Y-11454555D01*
X14034468Y-11454555D02*
X14043991Y-11435508D01*
X14043991Y-11435508D02*
X14063039Y-11406936D01*
X14063039Y-11406936D02*
X14072563Y-11397412D01*
X14129706Y-11425984D02*
X14253515Y-11425984D01*
X14253515Y-11425984D02*
X14186848Y-11502174D01*
X14186848Y-11502174D02*
X14215420Y-11502174D01*
X14215420Y-11502174D02*
X14234468Y-11511698D01*
X14234468Y-11511698D02*
X14243991Y-11521222D01*
X14243991Y-11521222D02*
X14253515Y-11540269D01*
X14253515Y-11540269D02*
X14253515Y-11587888D01*
X14253515Y-11587888D02*
X14243991Y-11606936D01*
X14243991Y-11606936D02*
X14234468Y-11616460D01*
X14234468Y-11616460D02*
X14215420Y-11625984D01*
X14215420Y-11625984D02*
X14158277Y-11625984D01*
X14158277Y-11625984D02*
X14139229Y-11616460D01*
X14139229Y-11616460D02*
X14129706Y-11606936D01*
X14320182Y-11425984D02*
X14443991Y-11425984D01*
X14443991Y-11425984D02*
X14377325Y-11502174D01*
X14377325Y-11502174D02*
X14405896Y-11502174D01*
X14405896Y-11502174D02*
X14424944Y-11511698D01*
X14424944Y-11511698D02*
X14434468Y-11521222D01*
X14434468Y-11521222D02*
X14443991Y-11540269D01*
X14443991Y-11540269D02*
X14443991Y-11587888D01*
X14443991Y-11587888D02*
X14434468Y-11606936D01*
X14434468Y-11606936D02*
X14424944Y-11616460D01*
X14424944Y-11616460D02*
X14405896Y-11625984D01*
X14405896Y-11625984D02*
X14348753Y-11625984D01*
X14348753Y-11625984D02*
X14329706Y-11616460D01*
X14329706Y-11616460D02*
X14320182Y-11606936D01*
X14682087Y-11625984D02*
X14682087Y-11425984D01*
X14767801Y-11625984D02*
X14767801Y-11521222D01*
X14767801Y-11521222D02*
X14758277Y-11502174D01*
X14758277Y-11502174D02*
X14739230Y-11492650D01*
X14739230Y-11492650D02*
X14710658Y-11492650D01*
X14710658Y-11492650D02*
X14691610Y-11502174D01*
X14691610Y-11502174D02*
X14682087Y-11511698D01*
X14891610Y-11625984D02*
X14872563Y-11616460D01*
X14872563Y-11616460D02*
X14863039Y-11606936D01*
X14863039Y-11606936D02*
X14853515Y-11587888D01*
X14853515Y-11587888D02*
X14853515Y-11530746D01*
X14853515Y-11530746D02*
X14863039Y-11511698D01*
X14863039Y-11511698D02*
X14872563Y-11502174D01*
X14872563Y-11502174D02*
X14891610Y-11492650D01*
X14891610Y-11492650D02*
X14920182Y-11492650D01*
X14920182Y-11492650D02*
X14939230Y-11502174D01*
X14939230Y-11502174D02*
X14948753Y-11511698D01*
X14948753Y-11511698D02*
X14958277Y-11530746D01*
X14958277Y-11530746D02*
X14958277Y-11587888D01*
X14958277Y-11587888D02*
X14948753Y-11606936D01*
X14948753Y-11606936D02*
X14939230Y-11616460D01*
X14939230Y-11616460D02*
X14920182Y-11625984D01*
X14920182Y-11625984D02*
X14891610Y-11625984D01*
X15072563Y-11625984D02*
X15053515Y-11616460D01*
X15053515Y-11616460D02*
X15043991Y-11597412D01*
X15043991Y-11597412D02*
X15043991Y-11425984D01*
X15224944Y-11616460D02*
X15205896Y-11625984D01*
X15205896Y-11625984D02*
X15167801Y-11625984D01*
X15167801Y-11625984D02*
X15148753Y-11616460D01*
X15148753Y-11616460D02*
X15139230Y-11597412D01*
X15139230Y-11597412D02*
X15139230Y-11521222D01*
X15139230Y-11521222D02*
X15148753Y-11502174D01*
X15148753Y-11502174D02*
X15167801Y-11492650D01*
X15167801Y-11492650D02*
X15205896Y-11492650D01*
X15205896Y-11492650D02*
X15224944Y-11502174D01*
X15224944Y-11502174D02*
X15234468Y-11521222D01*
X15234468Y-11521222D02*
X15234468Y-11540269D01*
X15234468Y-11540269D02*
X15139230Y-11559317D01*
X15310658Y-11616460D02*
X15329706Y-11625984D01*
X15329706Y-11625984D02*
X15367801Y-11625984D01*
X15367801Y-11625984D02*
X15386849Y-11616460D01*
X15386849Y-11616460D02*
X15396372Y-11597412D01*
X15396372Y-11597412D02*
X15396372Y-11587888D01*
X15396372Y-11587888D02*
X15386849Y-11568841D01*
X15386849Y-11568841D02*
X15367801Y-11559317D01*
X15367801Y-11559317D02*
X15339230Y-11559317D01*
X15339230Y-11559317D02*
X15320182Y-11549793D01*
X15320182Y-11549793D02*
X15310658Y-11530746D01*
X15310658Y-11530746D02*
X15310658Y-11521222D01*
X15310658Y-11521222D02*
X15320182Y-11502174D01*
X15320182Y-11502174D02*
X15339230Y-11492650D01*
X15339230Y-11492650D02*
X15367801Y-11492650D01*
X15367801Y-11492650D02*
X15386849Y-11502174D01*
X15463039Y-11702174D02*
X15472563Y-11692650D01*
X15472563Y-11692650D02*
X15491611Y-11664079D01*
X15491611Y-11664079D02*
X15501134Y-11645031D01*
X15501134Y-11645031D02*
X15510658Y-11616460D01*
X15510658Y-11616460D02*
X15520182Y-11568841D01*
X15520182Y-11568841D02*
X15520182Y-11530746D01*
X15520182Y-11530746D02*
X15510658Y-11483127D01*
X15510658Y-11483127D02*
X15501134Y-11454555D01*
X15501134Y-11454555D02*
X15491611Y-11435508D01*
X15491611Y-11435508D02*
X15472563Y-11406936D01*
X15472563Y-11406936D02*
X15463039Y-11397412D01*
D15*
X10446700Y-11849300D02*
X10497500Y-11798500D01*
X10446700Y-11747700D01*
X10395900Y-11798500D01*
X10446700Y-11849300D01*
D11*
X10863039Y-11889984D02*
X10748753Y-11889984D01*
X10805896Y-11889984D02*
X10805896Y-11689984D01*
X10805896Y-11689984D02*
X10786848Y-11718555D01*
X10786848Y-11718555D02*
X10767801Y-11737603D01*
X10767801Y-11737603D02*
X10748753Y-11747127D01*
X10948753Y-11870936D02*
X10958277Y-11880460D01*
X10958277Y-11880460D02*
X10948753Y-11889984D01*
X10948753Y-11889984D02*
X10939229Y-11880460D01*
X10939229Y-11880460D02*
X10948753Y-11870936D01*
X10948753Y-11870936D02*
X10948753Y-11889984D01*
X11082086Y-11689984D02*
X11101134Y-11689984D01*
X11101134Y-11689984D02*
X11120182Y-11699508D01*
X11120182Y-11699508D02*
X11129705Y-11709031D01*
X11129705Y-11709031D02*
X11139229Y-11728079D01*
X11139229Y-11728079D02*
X11148753Y-11766174D01*
X11148753Y-11766174D02*
X11148753Y-11813793D01*
X11148753Y-11813793D02*
X11139229Y-11851888D01*
X11139229Y-11851888D02*
X11129705Y-11870936D01*
X11129705Y-11870936D02*
X11120182Y-11880460D01*
X11120182Y-11880460D02*
X11101134Y-11889984D01*
X11101134Y-11889984D02*
X11082086Y-11889984D01*
X11082086Y-11889984D02*
X11063039Y-11880460D01*
X11063039Y-11880460D02*
X11053515Y-11870936D01*
X11053515Y-11870936D02*
X11043991Y-11851888D01*
X11043991Y-11851888D02*
X11034467Y-11813793D01*
X11034467Y-11813793D02*
X11034467Y-11766174D01*
X11034467Y-11766174D02*
X11043991Y-11728079D01*
X11043991Y-11728079D02*
X11053515Y-11709031D01*
X11053515Y-11709031D02*
X11063039Y-11699508D01*
X11063039Y-11699508D02*
X11082086Y-11689984D01*
X11339229Y-11889984D02*
X11224943Y-11889984D01*
X11282086Y-11889984D02*
X11282086Y-11689984D01*
X11282086Y-11689984D02*
X11263039Y-11718555D01*
X11263039Y-11718555D02*
X11243991Y-11737603D01*
X11243991Y-11737603D02*
X11224943Y-11747127D01*
X11510658Y-11689984D02*
X11472562Y-11689984D01*
X11472562Y-11689984D02*
X11453515Y-11699508D01*
X11453515Y-11699508D02*
X11443991Y-11709031D01*
X11443991Y-11709031D02*
X11424943Y-11737603D01*
X11424943Y-11737603D02*
X11415420Y-11775698D01*
X11415420Y-11775698D02*
X11415420Y-11851888D01*
X11415420Y-11851888D02*
X11424943Y-11870936D01*
X11424943Y-11870936D02*
X11434467Y-11880460D01*
X11434467Y-11880460D02*
X11453515Y-11889984D01*
X11453515Y-11889984D02*
X11491610Y-11889984D01*
X11491610Y-11889984D02*
X11510658Y-11880460D01*
X11510658Y-11880460D02*
X11520182Y-11870936D01*
X11520182Y-11870936D02*
X11529705Y-11851888D01*
X11529705Y-11851888D02*
X11529705Y-11804269D01*
X11529705Y-11804269D02*
X11520182Y-11785222D01*
X11520182Y-11785222D02*
X11510658Y-11775698D01*
X11510658Y-11775698D02*
X11491610Y-11766174D01*
X11491610Y-11766174D02*
X11453515Y-11766174D01*
X11453515Y-11766174D02*
X11434467Y-11775698D01*
X11434467Y-11775698D02*
X11424943Y-11785222D01*
X11424943Y-11785222D02*
X11415420Y-11804269D01*
X11615420Y-11889984D02*
X11615420Y-11756650D01*
X11615420Y-11775698D02*
X11624943Y-11766174D01*
X11624943Y-11766174D02*
X11643991Y-11756650D01*
X11643991Y-11756650D02*
X11672563Y-11756650D01*
X11672563Y-11756650D02*
X11691610Y-11766174D01*
X11691610Y-11766174D02*
X11701134Y-11785222D01*
X11701134Y-11785222D02*
X11701134Y-11889984D01*
X11701134Y-11785222D02*
X11710658Y-11766174D01*
X11710658Y-11766174D02*
X11729705Y-11756650D01*
X11729705Y-11756650D02*
X11758277Y-11756650D01*
X11758277Y-11756650D02*
X11777324Y-11766174D01*
X11777324Y-11766174D02*
X11786848Y-11785222D01*
X11786848Y-11785222D02*
X11786848Y-11889984D01*
X11882086Y-11889984D02*
X11882086Y-11756650D01*
X11882086Y-11775698D02*
X11891610Y-11766174D01*
X11891610Y-11766174D02*
X11910658Y-11756650D01*
X11910658Y-11756650D02*
X11939229Y-11756650D01*
X11939229Y-11756650D02*
X11958277Y-11766174D01*
X11958277Y-11766174D02*
X11967801Y-11785222D01*
X11967801Y-11785222D02*
X11967801Y-11889984D01*
X11967801Y-11785222D02*
X11977324Y-11766174D01*
X11977324Y-11766174D02*
X11996372Y-11756650D01*
X11996372Y-11756650D02*
X12024943Y-11756650D01*
X12024943Y-11756650D02*
X12043991Y-11766174D01*
X12043991Y-11766174D02*
X12053515Y-11785222D01*
X12053515Y-11785222D02*
X12053515Y-11889984D01*
X12443991Y-11680460D02*
X12272563Y-11937603D01*
X12701134Y-11689984D02*
X12720182Y-11689984D01*
X12720182Y-11689984D02*
X12739229Y-11699508D01*
X12739229Y-11699508D02*
X12748753Y-11709031D01*
X12748753Y-11709031D02*
X12758277Y-11728079D01*
X12758277Y-11728079D02*
X12767801Y-11766174D01*
X12767801Y-11766174D02*
X12767801Y-11813793D01*
X12767801Y-11813793D02*
X12758277Y-11851888D01*
X12758277Y-11851888D02*
X12748753Y-11870936D01*
X12748753Y-11870936D02*
X12739229Y-11880460D01*
X12739229Y-11880460D02*
X12720182Y-11889984D01*
X12720182Y-11889984D02*
X12701134Y-11889984D01*
X12701134Y-11889984D02*
X12682086Y-11880460D01*
X12682086Y-11880460D02*
X12672563Y-11870936D01*
X12672563Y-11870936D02*
X12663039Y-11851888D01*
X12663039Y-11851888D02*
X12653515Y-11813793D01*
X12653515Y-11813793D02*
X12653515Y-11766174D01*
X12653515Y-11766174D02*
X12663039Y-11728079D01*
X12663039Y-11728079D02*
X12672563Y-11709031D01*
X12672563Y-11709031D02*
X12682086Y-11699508D01*
X12682086Y-11699508D02*
X12701134Y-11689984D01*
X12853515Y-11870936D02*
X12863039Y-11880460D01*
X12863039Y-11880460D02*
X12853515Y-11889984D01*
X12853515Y-11889984D02*
X12843991Y-11880460D01*
X12843991Y-11880460D02*
X12853515Y-11870936D01*
X12853515Y-11870936D02*
X12853515Y-11889984D01*
X12986848Y-11689984D02*
X13005896Y-11689984D01*
X13005896Y-11689984D02*
X13024944Y-11699508D01*
X13024944Y-11699508D02*
X13034467Y-11709031D01*
X13034467Y-11709031D02*
X13043991Y-11728079D01*
X13043991Y-11728079D02*
X13053515Y-11766174D01*
X13053515Y-11766174D02*
X13053515Y-11813793D01*
X13053515Y-11813793D02*
X13043991Y-11851888D01*
X13043991Y-11851888D02*
X13034467Y-11870936D01*
X13034467Y-11870936D02*
X13024944Y-11880460D01*
X13024944Y-11880460D02*
X13005896Y-11889984D01*
X13005896Y-11889984D02*
X12986848Y-11889984D01*
X12986848Y-11889984D02*
X12967801Y-11880460D01*
X12967801Y-11880460D02*
X12958277Y-11870936D01*
X12958277Y-11870936D02*
X12948753Y-11851888D01*
X12948753Y-11851888D02*
X12939229Y-11813793D01*
X12939229Y-11813793D02*
X12939229Y-11766174D01*
X12939229Y-11766174D02*
X12948753Y-11728079D01*
X12948753Y-11728079D02*
X12958277Y-11709031D01*
X12958277Y-11709031D02*
X12967801Y-11699508D01*
X12967801Y-11699508D02*
X12986848Y-11689984D01*
X13224944Y-11756650D02*
X13224944Y-11889984D01*
X13177325Y-11680460D02*
X13129706Y-11823317D01*
X13129706Y-11823317D02*
X13253515Y-11823317D01*
X13367801Y-11689984D02*
X13386848Y-11689984D01*
X13386848Y-11689984D02*
X13405896Y-11699508D01*
X13405896Y-11699508D02*
X13415420Y-11709031D01*
X13415420Y-11709031D02*
X13424944Y-11728079D01*
X13424944Y-11728079D02*
X13434467Y-11766174D01*
X13434467Y-11766174D02*
X13434467Y-11813793D01*
X13434467Y-11813793D02*
X13424944Y-11851888D01*
X13424944Y-11851888D02*
X13415420Y-11870936D01*
X13415420Y-11870936D02*
X13405896Y-11880460D01*
X13405896Y-11880460D02*
X13386848Y-11889984D01*
X13386848Y-11889984D02*
X13367801Y-11889984D01*
X13367801Y-11889984D02*
X13348753Y-11880460D01*
X13348753Y-11880460D02*
X13339229Y-11870936D01*
X13339229Y-11870936D02*
X13329706Y-11851888D01*
X13329706Y-11851888D02*
X13320182Y-11813793D01*
X13320182Y-11813793D02*
X13320182Y-11766174D01*
X13320182Y-11766174D02*
X13329706Y-11728079D01*
X13329706Y-11728079D02*
X13339229Y-11709031D01*
X13339229Y-11709031D02*
X13348753Y-11699508D01*
X13348753Y-11699508D02*
X13367801Y-11689984D01*
X13558277Y-11689984D02*
X13577325Y-11689984D01*
X13577325Y-11689984D02*
X13596372Y-11699508D01*
X13596372Y-11699508D02*
X13605896Y-11709031D01*
X13605896Y-11709031D02*
X13615420Y-11728079D01*
X13615420Y-11728079D02*
X13624944Y-11766174D01*
X13624944Y-11766174D02*
X13624944Y-11813793D01*
X13624944Y-11813793D02*
X13615420Y-11851888D01*
X13615420Y-11851888D02*
X13605896Y-11870936D01*
X13605896Y-11870936D02*
X13596372Y-11880460D01*
X13596372Y-11880460D02*
X13577325Y-11889984D01*
X13577325Y-11889984D02*
X13558277Y-11889984D01*
X13558277Y-11889984D02*
X13539229Y-11880460D01*
X13539229Y-11880460D02*
X13529706Y-11870936D01*
X13529706Y-11870936D02*
X13520182Y-11851888D01*
X13520182Y-11851888D02*
X13510658Y-11813793D01*
X13510658Y-11813793D02*
X13510658Y-11766174D01*
X13510658Y-11766174D02*
X13520182Y-11728079D01*
X13520182Y-11728079D02*
X13529706Y-11709031D01*
X13529706Y-11709031D02*
X13539229Y-11699508D01*
X13539229Y-11699508D02*
X13558277Y-11689984D01*
X13701134Y-11689984D02*
X13701134Y-11728079D01*
X13777325Y-11689984D02*
X13777325Y-11728079D01*
X14072563Y-11966174D02*
X14063039Y-11956650D01*
X14063039Y-11956650D02*
X14043991Y-11928079D01*
X14043991Y-11928079D02*
X14034468Y-11909031D01*
X14034468Y-11909031D02*
X14024944Y-11880460D01*
X14024944Y-11880460D02*
X14015420Y-11832841D01*
X14015420Y-11832841D02*
X14015420Y-11794746D01*
X14015420Y-11794746D02*
X14024944Y-11747127D01*
X14024944Y-11747127D02*
X14034468Y-11718555D01*
X14034468Y-11718555D02*
X14043991Y-11699508D01*
X14043991Y-11699508D02*
X14063039Y-11670936D01*
X14063039Y-11670936D02*
X14072563Y-11661412D01*
X14234468Y-11756650D02*
X14234468Y-11889984D01*
X14186848Y-11680460D02*
X14139229Y-11823317D01*
X14139229Y-11823317D02*
X14263039Y-11823317D01*
X14491610Y-11889984D02*
X14491610Y-11689984D01*
X14577325Y-11889984D02*
X14577325Y-11785222D01*
X14577325Y-11785222D02*
X14567801Y-11766174D01*
X14567801Y-11766174D02*
X14548753Y-11756650D01*
X14548753Y-11756650D02*
X14520182Y-11756650D01*
X14520182Y-11756650D02*
X14501134Y-11766174D01*
X14501134Y-11766174D02*
X14491610Y-11775698D01*
X14701134Y-11889984D02*
X14682087Y-11880460D01*
X14682087Y-11880460D02*
X14672563Y-11870936D01*
X14672563Y-11870936D02*
X14663039Y-11851888D01*
X14663039Y-11851888D02*
X14663039Y-11794746D01*
X14663039Y-11794746D02*
X14672563Y-11775698D01*
X14672563Y-11775698D02*
X14682087Y-11766174D01*
X14682087Y-11766174D02*
X14701134Y-11756650D01*
X14701134Y-11756650D02*
X14729706Y-11756650D01*
X14729706Y-11756650D02*
X14748753Y-11766174D01*
X14748753Y-11766174D02*
X14758277Y-11775698D01*
X14758277Y-11775698D02*
X14767801Y-11794746D01*
X14767801Y-11794746D02*
X14767801Y-11851888D01*
X14767801Y-11851888D02*
X14758277Y-11870936D01*
X14758277Y-11870936D02*
X14748753Y-11880460D01*
X14748753Y-11880460D02*
X14729706Y-11889984D01*
X14729706Y-11889984D02*
X14701134Y-11889984D01*
X14882087Y-11889984D02*
X14863039Y-11880460D01*
X14863039Y-11880460D02*
X14853515Y-11861412D01*
X14853515Y-11861412D02*
X14853515Y-11689984D01*
X15034468Y-11880460D02*
X15015420Y-11889984D01*
X15015420Y-11889984D02*
X14977325Y-11889984D01*
X14977325Y-11889984D02*
X14958277Y-11880460D01*
X14958277Y-11880460D02*
X14948753Y-11861412D01*
X14948753Y-11861412D02*
X14948753Y-11785222D01*
X14948753Y-11785222D02*
X14958277Y-11766174D01*
X14958277Y-11766174D02*
X14977325Y-11756650D01*
X14977325Y-11756650D02*
X15015420Y-11756650D01*
X15015420Y-11756650D02*
X15034468Y-11766174D01*
X15034468Y-11766174D02*
X15043991Y-11785222D01*
X15043991Y-11785222D02*
X15043991Y-11804269D01*
X15043991Y-11804269D02*
X14948753Y-11823317D01*
X15120182Y-11880460D02*
X15139230Y-11889984D01*
X15139230Y-11889984D02*
X15177325Y-11889984D01*
X15177325Y-11889984D02*
X15196372Y-11880460D01*
X15196372Y-11880460D02*
X15205896Y-11861412D01*
X15205896Y-11861412D02*
X15205896Y-11851888D01*
X15205896Y-11851888D02*
X15196372Y-11832841D01*
X15196372Y-11832841D02*
X15177325Y-11823317D01*
X15177325Y-11823317D02*
X15148753Y-11823317D01*
X15148753Y-11823317D02*
X15129706Y-11813793D01*
X15129706Y-11813793D02*
X15120182Y-11794746D01*
X15120182Y-11794746D02*
X15120182Y-11785222D01*
X15120182Y-11785222D02*
X15129706Y-11766174D01*
X15129706Y-11766174D02*
X15148753Y-11756650D01*
X15148753Y-11756650D02*
X15177325Y-11756650D01*
X15177325Y-11756650D02*
X15196372Y-11766174D01*
X15272563Y-11966174D02*
X15282087Y-11956650D01*
X15282087Y-11956650D02*
X15301134Y-11928079D01*
X15301134Y-11928079D02*
X15310658Y-11909031D01*
X15310658Y-11909031D02*
X15320182Y-11880460D01*
X15320182Y-11880460D02*
X15329706Y-11832841D01*
X15329706Y-11832841D02*
X15329706Y-11794746D01*
X15329706Y-11794746D02*
X15320182Y-11747127D01*
X15320182Y-11747127D02*
X15310658Y-11718555D01*
X15310658Y-11718555D02*
X15301134Y-11699508D01*
X15301134Y-11699508D02*
X15282087Y-11670936D01*
X15282087Y-11670936D02*
X15272563Y-11661412D01*
D16*
X10388500Y-12008000D02*
X10497500Y-12117000D01*
X10497500Y-12008000D02*
X10388500Y-12117000D01*
X10497500Y-12062500D02*
G75*
G03*
X10497500Y-12062500I-54500J0D01*
G01*
D11*
X10863039Y-12153984D02*
X10748753Y-12153984D01*
X10805896Y-12153984D02*
X10805896Y-11953984D01*
X10805896Y-11953984D02*
X10786848Y-11982555D01*
X10786848Y-11982555D02*
X10767801Y-12001603D01*
X10767801Y-12001603D02*
X10748753Y-12011127D01*
X10948753Y-12134936D02*
X10958277Y-12144460D01*
X10958277Y-12144460D02*
X10948753Y-12153984D01*
X10948753Y-12153984D02*
X10939229Y-12144460D01*
X10939229Y-12144460D02*
X10948753Y-12134936D01*
X10948753Y-12134936D02*
X10948753Y-12153984D01*
X11082086Y-11953984D02*
X11101134Y-11953984D01*
X11101134Y-11953984D02*
X11120182Y-11963508D01*
X11120182Y-11963508D02*
X11129705Y-11973031D01*
X11129705Y-11973031D02*
X11139229Y-11992079D01*
X11139229Y-11992079D02*
X11148753Y-12030174D01*
X11148753Y-12030174D02*
X11148753Y-12077793D01*
X11148753Y-12077793D02*
X11139229Y-12115888D01*
X11139229Y-12115888D02*
X11129705Y-12134936D01*
X11129705Y-12134936D02*
X11120182Y-12144460D01*
X11120182Y-12144460D02*
X11101134Y-12153984D01*
X11101134Y-12153984D02*
X11082086Y-12153984D01*
X11082086Y-12153984D02*
X11063039Y-12144460D01*
X11063039Y-12144460D02*
X11053515Y-12134936D01*
X11053515Y-12134936D02*
X11043991Y-12115888D01*
X11043991Y-12115888D02*
X11034467Y-12077793D01*
X11034467Y-12077793D02*
X11034467Y-12030174D01*
X11034467Y-12030174D02*
X11043991Y-11992079D01*
X11043991Y-11992079D02*
X11053515Y-11973031D01*
X11053515Y-11973031D02*
X11063039Y-11963508D01*
X11063039Y-11963508D02*
X11082086Y-11953984D01*
X11243991Y-12153984D02*
X11282086Y-12153984D01*
X11282086Y-12153984D02*
X11301134Y-12144460D01*
X11301134Y-12144460D02*
X11310658Y-12134936D01*
X11310658Y-12134936D02*
X11329705Y-12106365D01*
X11329705Y-12106365D02*
X11339229Y-12068269D01*
X11339229Y-12068269D02*
X11339229Y-11992079D01*
X11339229Y-11992079D02*
X11329705Y-11973031D01*
X11329705Y-11973031D02*
X11320182Y-11963508D01*
X11320182Y-11963508D02*
X11301134Y-11953984D01*
X11301134Y-11953984D02*
X11263039Y-11953984D01*
X11263039Y-11953984D02*
X11243991Y-11963508D01*
X11243991Y-11963508D02*
X11234467Y-11973031D01*
X11234467Y-11973031D02*
X11224943Y-11992079D01*
X11224943Y-11992079D02*
X11224943Y-12039698D01*
X11224943Y-12039698D02*
X11234467Y-12058746D01*
X11234467Y-12058746D02*
X11243991Y-12068269D01*
X11243991Y-12068269D02*
X11263039Y-12077793D01*
X11263039Y-12077793D02*
X11301134Y-12077793D01*
X11301134Y-12077793D02*
X11320182Y-12068269D01*
X11320182Y-12068269D02*
X11329705Y-12058746D01*
X11329705Y-12058746D02*
X11339229Y-12039698D01*
X11463039Y-11953984D02*
X11482086Y-11953984D01*
X11482086Y-11953984D02*
X11501134Y-11963508D01*
X11501134Y-11963508D02*
X11510658Y-11973031D01*
X11510658Y-11973031D02*
X11520182Y-11992079D01*
X11520182Y-11992079D02*
X11529705Y-12030174D01*
X11529705Y-12030174D02*
X11529705Y-12077793D01*
X11529705Y-12077793D02*
X11520182Y-12115888D01*
X11520182Y-12115888D02*
X11510658Y-12134936D01*
X11510658Y-12134936D02*
X11501134Y-12144460D01*
X11501134Y-12144460D02*
X11482086Y-12153984D01*
X11482086Y-12153984D02*
X11463039Y-12153984D01*
X11463039Y-12153984D02*
X11443991Y-12144460D01*
X11443991Y-12144460D02*
X11434467Y-12134936D01*
X11434467Y-12134936D02*
X11424943Y-12115888D01*
X11424943Y-12115888D02*
X11415420Y-12077793D01*
X11415420Y-12077793D02*
X11415420Y-12030174D01*
X11415420Y-12030174D02*
X11424943Y-11992079D01*
X11424943Y-11992079D02*
X11434467Y-11973031D01*
X11434467Y-11973031D02*
X11443991Y-11963508D01*
X11443991Y-11963508D02*
X11463039Y-11953984D01*
X11615420Y-12153984D02*
X11615420Y-12020650D01*
X11615420Y-12039698D02*
X11624943Y-12030174D01*
X11624943Y-12030174D02*
X11643991Y-12020650D01*
X11643991Y-12020650D02*
X11672563Y-12020650D01*
X11672563Y-12020650D02*
X11691610Y-12030174D01*
X11691610Y-12030174D02*
X11701134Y-12049222D01*
X11701134Y-12049222D02*
X11701134Y-12153984D01*
X11701134Y-12049222D02*
X11710658Y-12030174D01*
X11710658Y-12030174D02*
X11729705Y-12020650D01*
X11729705Y-12020650D02*
X11758277Y-12020650D01*
X11758277Y-12020650D02*
X11777324Y-12030174D01*
X11777324Y-12030174D02*
X11786848Y-12049222D01*
X11786848Y-12049222D02*
X11786848Y-12153984D01*
X11882086Y-12153984D02*
X11882086Y-12020650D01*
X11882086Y-12039698D02*
X11891610Y-12030174D01*
X11891610Y-12030174D02*
X11910658Y-12020650D01*
X11910658Y-12020650D02*
X11939229Y-12020650D01*
X11939229Y-12020650D02*
X11958277Y-12030174D01*
X11958277Y-12030174D02*
X11967801Y-12049222D01*
X11967801Y-12049222D02*
X11967801Y-12153984D01*
X11967801Y-12049222D02*
X11977324Y-12030174D01*
X11977324Y-12030174D02*
X11996372Y-12020650D01*
X11996372Y-12020650D02*
X12024943Y-12020650D01*
X12024943Y-12020650D02*
X12043991Y-12030174D01*
X12043991Y-12030174D02*
X12053515Y-12049222D01*
X12053515Y-12049222D02*
X12053515Y-12153984D01*
X12443991Y-11944460D02*
X12272563Y-12201603D01*
X12701134Y-11953984D02*
X12720182Y-11953984D01*
X12720182Y-11953984D02*
X12739229Y-11963508D01*
X12739229Y-11963508D02*
X12748753Y-11973031D01*
X12748753Y-11973031D02*
X12758277Y-11992079D01*
X12758277Y-11992079D02*
X12767801Y-12030174D01*
X12767801Y-12030174D02*
X12767801Y-12077793D01*
X12767801Y-12077793D02*
X12758277Y-12115888D01*
X12758277Y-12115888D02*
X12748753Y-12134936D01*
X12748753Y-12134936D02*
X12739229Y-12144460D01*
X12739229Y-12144460D02*
X12720182Y-12153984D01*
X12720182Y-12153984D02*
X12701134Y-12153984D01*
X12701134Y-12153984D02*
X12682086Y-12144460D01*
X12682086Y-12144460D02*
X12672563Y-12134936D01*
X12672563Y-12134936D02*
X12663039Y-12115888D01*
X12663039Y-12115888D02*
X12653515Y-12077793D01*
X12653515Y-12077793D02*
X12653515Y-12030174D01*
X12653515Y-12030174D02*
X12663039Y-11992079D01*
X12663039Y-11992079D02*
X12672563Y-11973031D01*
X12672563Y-11973031D02*
X12682086Y-11963508D01*
X12682086Y-11963508D02*
X12701134Y-11953984D01*
X12853515Y-12134936D02*
X12863039Y-12144460D01*
X12863039Y-12144460D02*
X12853515Y-12153984D01*
X12853515Y-12153984D02*
X12843991Y-12144460D01*
X12843991Y-12144460D02*
X12853515Y-12134936D01*
X12853515Y-12134936D02*
X12853515Y-12153984D01*
X12986848Y-11953984D02*
X13005896Y-11953984D01*
X13005896Y-11953984D02*
X13024944Y-11963508D01*
X13024944Y-11963508D02*
X13034467Y-11973031D01*
X13034467Y-11973031D02*
X13043991Y-11992079D01*
X13043991Y-11992079D02*
X13053515Y-12030174D01*
X13053515Y-12030174D02*
X13053515Y-12077793D01*
X13053515Y-12077793D02*
X13043991Y-12115888D01*
X13043991Y-12115888D02*
X13034467Y-12134936D01*
X13034467Y-12134936D02*
X13024944Y-12144460D01*
X13024944Y-12144460D02*
X13005896Y-12153984D01*
X13005896Y-12153984D02*
X12986848Y-12153984D01*
X12986848Y-12153984D02*
X12967801Y-12144460D01*
X12967801Y-12144460D02*
X12958277Y-12134936D01*
X12958277Y-12134936D02*
X12948753Y-12115888D01*
X12948753Y-12115888D02*
X12939229Y-12077793D01*
X12939229Y-12077793D02*
X12939229Y-12030174D01*
X12939229Y-12030174D02*
X12948753Y-11992079D01*
X12948753Y-11992079D02*
X12958277Y-11973031D01*
X12958277Y-11973031D02*
X12967801Y-11963508D01*
X12967801Y-11963508D02*
X12986848Y-11953984D01*
X13224944Y-12020650D02*
X13224944Y-12153984D01*
X13177325Y-11944460D02*
X13129706Y-12087317D01*
X13129706Y-12087317D02*
X13253515Y-12087317D01*
X13320182Y-11973031D02*
X13329706Y-11963508D01*
X13329706Y-11963508D02*
X13348753Y-11953984D01*
X13348753Y-11953984D02*
X13396372Y-11953984D01*
X13396372Y-11953984D02*
X13415420Y-11963508D01*
X13415420Y-11963508D02*
X13424944Y-11973031D01*
X13424944Y-11973031D02*
X13434467Y-11992079D01*
X13434467Y-11992079D02*
X13434467Y-12011127D01*
X13434467Y-12011127D02*
X13424944Y-12039698D01*
X13424944Y-12039698D02*
X13310658Y-12153984D01*
X13310658Y-12153984D02*
X13434467Y-12153984D01*
X13529706Y-12153984D02*
X13567801Y-12153984D01*
X13567801Y-12153984D02*
X13586848Y-12144460D01*
X13586848Y-12144460D02*
X13596372Y-12134936D01*
X13596372Y-12134936D02*
X13615420Y-12106365D01*
X13615420Y-12106365D02*
X13624944Y-12068269D01*
X13624944Y-12068269D02*
X13624944Y-11992079D01*
X13624944Y-11992079D02*
X13615420Y-11973031D01*
X13615420Y-11973031D02*
X13605896Y-11963508D01*
X13605896Y-11963508D02*
X13586848Y-11953984D01*
X13586848Y-11953984D02*
X13548753Y-11953984D01*
X13548753Y-11953984D02*
X13529706Y-11963508D01*
X13529706Y-11963508D02*
X13520182Y-11973031D01*
X13520182Y-11973031D02*
X13510658Y-11992079D01*
X13510658Y-11992079D02*
X13510658Y-12039698D01*
X13510658Y-12039698D02*
X13520182Y-12058746D01*
X13520182Y-12058746D02*
X13529706Y-12068269D01*
X13529706Y-12068269D02*
X13548753Y-12077793D01*
X13548753Y-12077793D02*
X13586848Y-12077793D01*
X13586848Y-12077793D02*
X13605896Y-12068269D01*
X13605896Y-12068269D02*
X13615420Y-12058746D01*
X13615420Y-12058746D02*
X13624944Y-12039698D01*
X13701134Y-11953984D02*
X13701134Y-11992079D01*
X13777325Y-11953984D02*
X13777325Y-11992079D01*
X14072563Y-12230174D02*
X14063039Y-12220650D01*
X14063039Y-12220650D02*
X14043991Y-12192079D01*
X14043991Y-12192079D02*
X14034468Y-12173031D01*
X14034468Y-12173031D02*
X14024944Y-12144460D01*
X14024944Y-12144460D02*
X14015420Y-12096841D01*
X14015420Y-12096841D02*
X14015420Y-12058746D01*
X14015420Y-12058746D02*
X14024944Y-12011127D01*
X14024944Y-12011127D02*
X14034468Y-11982555D01*
X14034468Y-11982555D02*
X14043991Y-11963508D01*
X14043991Y-11963508D02*
X14063039Y-11934936D01*
X14063039Y-11934936D02*
X14072563Y-11925412D01*
X14139229Y-11973031D02*
X14148753Y-11963508D01*
X14148753Y-11963508D02*
X14167801Y-11953984D01*
X14167801Y-11953984D02*
X14215420Y-11953984D01*
X14215420Y-11953984D02*
X14234468Y-11963508D01*
X14234468Y-11963508D02*
X14243991Y-11973031D01*
X14243991Y-11973031D02*
X14253515Y-11992079D01*
X14253515Y-11992079D02*
X14253515Y-12011127D01*
X14253515Y-12011127D02*
X14243991Y-12039698D01*
X14243991Y-12039698D02*
X14129706Y-12153984D01*
X14129706Y-12153984D02*
X14253515Y-12153984D01*
X14491610Y-12153984D02*
X14491610Y-11953984D01*
X14577325Y-12153984D02*
X14577325Y-12049222D01*
X14577325Y-12049222D02*
X14567801Y-12030174D01*
X14567801Y-12030174D02*
X14548753Y-12020650D01*
X14548753Y-12020650D02*
X14520182Y-12020650D01*
X14520182Y-12020650D02*
X14501134Y-12030174D01*
X14501134Y-12030174D02*
X14491610Y-12039698D01*
X14701134Y-12153984D02*
X14682087Y-12144460D01*
X14682087Y-12144460D02*
X14672563Y-12134936D01*
X14672563Y-12134936D02*
X14663039Y-12115888D01*
X14663039Y-12115888D02*
X14663039Y-12058746D01*
X14663039Y-12058746D02*
X14672563Y-12039698D01*
X14672563Y-12039698D02*
X14682087Y-12030174D01*
X14682087Y-12030174D02*
X14701134Y-12020650D01*
X14701134Y-12020650D02*
X14729706Y-12020650D01*
X14729706Y-12020650D02*
X14748753Y-12030174D01*
X14748753Y-12030174D02*
X14758277Y-12039698D01*
X14758277Y-12039698D02*
X14767801Y-12058746D01*
X14767801Y-12058746D02*
X14767801Y-12115888D01*
X14767801Y-12115888D02*
X14758277Y-12134936D01*
X14758277Y-12134936D02*
X14748753Y-12144460D01*
X14748753Y-12144460D02*
X14729706Y-12153984D01*
X14729706Y-12153984D02*
X14701134Y-12153984D01*
X14882087Y-12153984D02*
X14863039Y-12144460D01*
X14863039Y-12144460D02*
X14853515Y-12125412D01*
X14853515Y-12125412D02*
X14853515Y-11953984D01*
X15034468Y-12144460D02*
X15015420Y-12153984D01*
X15015420Y-12153984D02*
X14977325Y-12153984D01*
X14977325Y-12153984D02*
X14958277Y-12144460D01*
X14958277Y-12144460D02*
X14948753Y-12125412D01*
X14948753Y-12125412D02*
X14948753Y-12049222D01*
X14948753Y-12049222D02*
X14958277Y-12030174D01*
X14958277Y-12030174D02*
X14977325Y-12020650D01*
X14977325Y-12020650D02*
X15015420Y-12020650D01*
X15015420Y-12020650D02*
X15034468Y-12030174D01*
X15034468Y-12030174D02*
X15043991Y-12049222D01*
X15043991Y-12049222D02*
X15043991Y-12068269D01*
X15043991Y-12068269D02*
X14948753Y-12087317D01*
X15120182Y-12144460D02*
X15139230Y-12153984D01*
X15139230Y-12153984D02*
X15177325Y-12153984D01*
X15177325Y-12153984D02*
X15196372Y-12144460D01*
X15196372Y-12144460D02*
X15205896Y-12125412D01*
X15205896Y-12125412D02*
X15205896Y-12115888D01*
X15205896Y-12115888D02*
X15196372Y-12096841D01*
X15196372Y-12096841D02*
X15177325Y-12087317D01*
X15177325Y-12087317D02*
X15148753Y-12087317D01*
X15148753Y-12087317D02*
X15129706Y-12077793D01*
X15129706Y-12077793D02*
X15120182Y-12058746D01*
X15120182Y-12058746D02*
X15120182Y-12049222D01*
X15120182Y-12049222D02*
X15129706Y-12030174D01*
X15129706Y-12030174D02*
X15148753Y-12020650D01*
X15148753Y-12020650D02*
X15177325Y-12020650D01*
X15177325Y-12020650D02*
X15196372Y-12030174D01*
X15272563Y-12230174D02*
X15282087Y-12220650D01*
X15282087Y-12220650D02*
X15301134Y-12192079D01*
X15301134Y-12192079D02*
X15310658Y-12173031D01*
X15310658Y-12173031D02*
X15320182Y-12144460D01*
X15320182Y-12144460D02*
X15329706Y-12096841D01*
X15329706Y-12096841D02*
X15329706Y-12058746D01*
X15329706Y-12058746D02*
X15320182Y-12011127D01*
X15320182Y-12011127D02*
X15310658Y-11982555D01*
X15310658Y-11982555D02*
X15301134Y-11963508D01*
X15301134Y-11963508D02*
X15282087Y-11934936D01*
X15282087Y-11934936D02*
X15272563Y-11925412D01*
M02*
