G04 #@! TF.GenerationSoftware,KiCad,Pcbnew,7.0.7*
G04 #@! TF.CreationDate,2024-09-10T18:09:55+02:00*
G04 #@! TF.ProjectId,meteo-home,6d657465-6f2d-4686-9f6d-652e6b696361,rev?*
G04 #@! TF.SameCoordinates,Original*
G04 #@! TF.FileFunction,Copper,L2,Bot*
G04 #@! TF.FilePolarity,Positive*
%FSLAX46Y46*%
G04 Gerber Fmt 4.6, Leading zero omitted, Abs format (unit mm)*
G04 Created by KiCad (PCBNEW 7.0.7) date 2024-09-10 18:09:55*
%MOMM*%
%LPD*%
G01*
G04 APERTURE LIST*
G04 Aperture macros list*
%AMRoundRect*
0 Rectangle with rounded corners*
0 $1 Rounding radius*
0 $2 $3 $4 $5 $6 $7 $8 $9 X,Y pos of 4 corners*
0 Add a 4 corners polygon primitive as box body*
4,1,4,$2,$3,$4,$5,$6,$7,$8,$9,$2,$3,0*
0 Add four circle primitives for the rounded corners*
1,1,$1+$1,$2,$3*
1,1,$1+$1,$4,$5*
1,1,$1+$1,$6,$7*
1,1,$1+$1,$8,$9*
0 Add four rect primitives between the rounded corners*
20,1,$1+$1,$2,$3,$4,$5,0*
20,1,$1+$1,$4,$5,$6,$7,0*
20,1,$1+$1,$6,$7,$8,$9,0*
20,1,$1+$1,$8,$9,$2,$3,0*%
G04 Aperture macros list end*
G04 #@! TA.AperFunction,ComponentPad*
%ADD10R,2.000000X2.000000*%
G04 #@! TD*
G04 #@! TA.AperFunction,ComponentPad*
%ADD11O,1.600000X2.000000*%
G04 #@! TD*
G04 #@! TA.AperFunction,ComponentPad*
%ADD12R,1.727200X2.032000*%
G04 #@! TD*
G04 #@! TA.AperFunction,ComponentPad*
%ADD13O,1.727200X2.032000*%
G04 #@! TD*
G04 #@! TA.AperFunction,ComponentPad*
%ADD14R,1.800000X1.800000*%
G04 #@! TD*
G04 #@! TA.AperFunction,ComponentPad*
%ADD15C,1.800000*%
G04 #@! TD*
G04 #@! TA.AperFunction,ComponentPad*
%ADD16C,1.400000*%
G04 #@! TD*
G04 #@! TA.AperFunction,ComponentPad*
%ADD17O,1.400000X1.400000*%
G04 #@! TD*
G04 #@! TA.AperFunction,ComponentPad*
%ADD18R,0.850000X0.850000*%
G04 #@! TD*
G04 #@! TA.AperFunction,ComponentPad*
%ADD19O,0.850000X0.850000*%
G04 #@! TD*
G04 #@! TA.AperFunction,ComponentPad*
%ADD20R,1.700000X1.700000*%
G04 #@! TD*
G04 #@! TA.AperFunction,ComponentPad*
%ADD21O,1.700000X1.700000*%
G04 #@! TD*
G04 #@! TA.AperFunction,ComponentPad*
%ADD22RoundRect,0.250000X0.620000X-0.620000X0.620000X0.620000X-0.620000X0.620000X-0.620000X-0.620000X0*%
G04 #@! TD*
G04 #@! TA.AperFunction,ComponentPad*
%ADD23C,1.740000*%
G04 #@! TD*
G04 #@! TA.AperFunction,Conductor*
%ADD24C,0.250000*%
G04 #@! TD*
G04 APERTURE END LIST*
D10*
X131380000Y-64640000D03*
D11*
X128840000Y-64640000D03*
X126300000Y-64640000D03*
X123760000Y-64640000D03*
X121220000Y-64640000D03*
X118680000Y-64640000D03*
X116140000Y-64640000D03*
X113600000Y-64640000D03*
X113600000Y-87500000D03*
X116140000Y-87500000D03*
X118680000Y-87500000D03*
X121220000Y-87500000D03*
X123760000Y-87500000D03*
X126300000Y-87500000D03*
X128840000Y-87500000D03*
X131380000Y-87500000D03*
D12*
X125984000Y-54864000D03*
D13*
X128524000Y-54864000D03*
X131064000Y-54864000D03*
X133604000Y-54864000D03*
D14*
X115040000Y-55000000D03*
D15*
X112500000Y-55000000D03*
D14*
X120540000Y-55000000D03*
D15*
X118000000Y-55000000D03*
D16*
X111640000Y-60250000D03*
D17*
X106560000Y-60250000D03*
D16*
X128266666Y-60250000D03*
D17*
X123186666Y-60250000D03*
D16*
X131500000Y-60250000D03*
D17*
X136580000Y-60250000D03*
D16*
X119953333Y-60250000D03*
D17*
X114873333Y-60250000D03*
D14*
X109540000Y-55000000D03*
D15*
X107000000Y-55000000D03*
D18*
X125820000Y-98382500D03*
D19*
X126820000Y-98382500D03*
X127820000Y-98382500D03*
X128820000Y-98382500D03*
D20*
X139500000Y-60000000D03*
D21*
X139500000Y-57460000D03*
X139500000Y-54920000D03*
D20*
X116200000Y-98820000D03*
D21*
X116200000Y-96280000D03*
X116200000Y-93740000D03*
X116200000Y-91200000D03*
D20*
X134000000Y-93407500D03*
D21*
X131460000Y-93407500D03*
X128920000Y-93407500D03*
X126380000Y-93407500D03*
D20*
X121100000Y-98820000D03*
D21*
X121100000Y-96280000D03*
X121100000Y-93740000D03*
X121100000Y-91200000D03*
D22*
X108000000Y-95000000D03*
D23*
X108000000Y-92460000D03*
D20*
X139000000Y-92460000D03*
D21*
X139000000Y-95000000D03*
D18*
X131500000Y-98382500D03*
D19*
X132500000Y-98382500D03*
X133500000Y-98382500D03*
X134500000Y-98382500D03*
D24*
X121100000Y-91200000D02*
X123760000Y-88540000D01*
X133382500Y-99500000D02*
X134500000Y-98382500D01*
X123760000Y-88540000D02*
X123760000Y-87500000D01*
X129937500Y-99500000D02*
X133382500Y-99500000D01*
X128820000Y-98382500D02*
X129937500Y-99500000D01*
X126300000Y-87500000D02*
X126360000Y-87500000D01*
X126300000Y-88540000D02*
X126300000Y-87500000D01*
X121100000Y-93740000D02*
X126300000Y-88540000D01*
X127525000Y-73575000D02*
X113600000Y-87500000D01*
X108000000Y-95000000D02*
X110695000Y-97695000D01*
X127525000Y-64022588D02*
X127525000Y-73575000D01*
X125132500Y-97695000D02*
X125820000Y-98382500D01*
X113600000Y-87500000D02*
X113600000Y-87700000D01*
X131500000Y-97800000D02*
X134000000Y-95300000D01*
X134000000Y-95300000D02*
X134000000Y-93407500D01*
X131500000Y-98382500D02*
X131500000Y-97800000D01*
X131500000Y-60250000D02*
X131297588Y-60250000D01*
X130900000Y-97200000D02*
X127002500Y-97200000D01*
X131500000Y-97800000D02*
X130900000Y-97200000D01*
X127002500Y-97200000D02*
X125820000Y-98382500D01*
X131297588Y-60250000D02*
X127525000Y-64022588D01*
X110695000Y-97695000D02*
X125132500Y-97695000D01*
X128920000Y-93407500D02*
X127462500Y-94865000D01*
X118680000Y-93080000D02*
X118680000Y-87500000D01*
X120465000Y-94865000D02*
X118680000Y-93080000D01*
X127462500Y-94865000D02*
X120465000Y-94865000D01*
X121220000Y-63807657D02*
X121220000Y-64640000D01*
X128524000Y-54864000D02*
X128524000Y-56503657D01*
X128524000Y-56503657D02*
X121220000Y-63807657D01*
X137400000Y-90800000D02*
X137400000Y-93400000D01*
X131140000Y-89800000D02*
X136400000Y-89800000D01*
X137400000Y-93400000D02*
X139000000Y-95000000D01*
X136400000Y-89800000D02*
X137400000Y-90800000D01*
X128840000Y-87500000D02*
X131140000Y-89800000D01*
G04 #@! TA.AperFunction,Conductor*
G36*
X106343998Y-50469685D02*
G01*
X106389753Y-50522489D01*
X106399697Y-50591647D01*
X106370672Y-50655203D01*
X106355623Y-50669854D01*
X106253589Y-50753589D01*
X106122317Y-50913547D01*
X106024769Y-51096043D01*
X105964699Y-51294067D01*
X105944417Y-51499999D01*
X105964699Y-51705932D01*
X105964700Y-51705934D01*
X106024768Y-51903954D01*
X106122315Y-52086450D01*
X106122317Y-52086452D01*
X106253589Y-52246410D01*
X106306071Y-52289480D01*
X106413550Y-52377685D01*
X106596046Y-52475232D01*
X106794066Y-52535300D01*
X106794065Y-52535300D01*
X106814347Y-52537297D01*
X107000000Y-52555583D01*
X107205934Y-52535300D01*
X107403954Y-52475232D01*
X107586450Y-52377685D01*
X107746410Y-52246410D01*
X107877685Y-52086450D01*
X107975232Y-51903954D01*
X108035300Y-51705934D01*
X108055583Y-51500000D01*
X108035300Y-51294066D01*
X107975232Y-51096046D01*
X107877685Y-50913550D01*
X107825702Y-50850209D01*
X107746410Y-50753589D01*
X107644377Y-50669854D01*
X107605042Y-50612108D01*
X107603171Y-50542263D01*
X107639358Y-50482495D01*
X107702114Y-50451779D01*
X107723041Y-50450000D01*
X138776959Y-50450000D01*
X138843998Y-50469685D01*
X138889753Y-50522489D01*
X138899697Y-50591647D01*
X138870672Y-50655203D01*
X138855623Y-50669854D01*
X138753589Y-50753589D01*
X138622317Y-50913547D01*
X138524769Y-51096043D01*
X138464699Y-51294067D01*
X138444417Y-51499999D01*
X138464699Y-51705932D01*
X138464700Y-51705934D01*
X138524768Y-51903954D01*
X138622315Y-52086450D01*
X138622317Y-52086452D01*
X138753589Y-52246410D01*
X138806071Y-52289480D01*
X138913550Y-52377685D01*
X139096046Y-52475232D01*
X139294066Y-52535300D01*
X139294065Y-52535300D01*
X139312529Y-52537118D01*
X139500000Y-52555583D01*
X139705934Y-52535300D01*
X139903954Y-52475232D01*
X140086450Y-52377685D01*
X140246410Y-52246410D01*
X140377685Y-52086450D01*
X140475232Y-51903954D01*
X140535300Y-51705934D01*
X140555583Y-51500000D01*
X140535300Y-51294066D01*
X140475232Y-51096046D01*
X140377685Y-50913550D01*
X140325702Y-50850209D01*
X140246410Y-50753589D01*
X140144377Y-50669854D01*
X140105042Y-50612108D01*
X140103171Y-50542263D01*
X140139358Y-50482495D01*
X140202114Y-50451779D01*
X140223041Y-50450000D01*
X141325500Y-50450000D01*
X141392539Y-50469685D01*
X141438294Y-50522489D01*
X141449500Y-50574000D01*
X141449500Y-100576000D01*
X141429815Y-100643039D01*
X141377011Y-100688794D01*
X141325500Y-100700000D01*
X105274000Y-100700000D01*
X105206961Y-100680315D01*
X105161206Y-100627511D01*
X105150000Y-100576000D01*
X105150000Y-98999999D01*
X105944417Y-98999999D01*
X105964699Y-99205932D01*
X105994654Y-99304680D01*
X106024768Y-99403954D01*
X106122315Y-99586450D01*
X106122317Y-99586452D01*
X106253589Y-99746410D01*
X106306071Y-99789480D01*
X106413550Y-99877685D01*
X106596046Y-99975232D01*
X106794066Y-100035300D01*
X106794065Y-100035300D01*
X106812352Y-100037101D01*
X107000000Y-100055583D01*
X107205934Y-100035300D01*
X107403954Y-99975232D01*
X107586450Y-99877685D01*
X107746410Y-99746410D01*
X107877685Y-99586450D01*
X107975232Y-99403954D01*
X108035300Y-99205934D01*
X108055583Y-99000000D01*
X108035300Y-98794066D01*
X107975232Y-98596046D01*
X107877685Y-98413550D01*
X107811760Y-98333220D01*
X107746410Y-98253589D01*
X107620183Y-98149999D01*
X107586450Y-98122315D01*
X107403954Y-98024768D01*
X107205934Y-97964700D01*
X107205932Y-97964699D01*
X107205934Y-97964699D01*
X107018463Y-97946235D01*
X107000000Y-97944417D01*
X106999999Y-97944417D01*
X106794067Y-97964699D01*
X106596043Y-98024769D01*
X106547905Y-98050500D01*
X106413550Y-98122315D01*
X106413548Y-98122316D01*
X106413547Y-98122317D01*
X106253589Y-98253589D01*
X106122317Y-98413547D01*
X106024769Y-98596043D01*
X105964699Y-98794067D01*
X105944417Y-98999999D01*
X105150000Y-98999999D01*
X105150000Y-92460006D01*
X106616776Y-92460006D01*
X106635639Y-92687663D01*
X106635641Y-92687674D01*
X106691722Y-92909132D01*
X106783490Y-93118341D01*
X106908439Y-93309591D01*
X106908442Y-93309594D01*
X107063168Y-93477671D01*
X107070338Y-93483251D01*
X107111151Y-93539960D01*
X107114826Y-93609733D01*
X107080196Y-93670417D01*
X107059274Y-93686643D01*
X106906348Y-93780969D01*
X106780971Y-93906346D01*
X106687886Y-94057259D01*
X106687884Y-94057264D01*
X106632113Y-94225572D01*
X106621500Y-94329447D01*
X106621500Y-95670537D01*
X106621501Y-95670553D01*
X106632113Y-95774427D01*
X106642937Y-95807091D01*
X106687885Y-95942738D01*
X106780970Y-96093652D01*
X106906348Y-96219030D01*
X107057262Y-96312115D01*
X107225574Y-96367887D01*
X107329455Y-96378500D01*
X108431233Y-96378499D01*
X108498272Y-96398184D01*
X108518914Y-96414818D01*
X110187910Y-98083814D01*
X110197816Y-98096178D01*
X110198026Y-98096005D01*
X110203001Y-98102019D01*
X110254095Y-98150000D01*
X110275224Y-98171129D01*
X110275228Y-98171132D01*
X110275231Y-98171135D01*
X110280805Y-98175458D01*
X110285247Y-98179252D01*
X110319679Y-98211586D01*
X110319683Y-98211589D01*
X110337563Y-98221418D01*
X110353827Y-98232101D01*
X110369960Y-98244614D01*
X110413301Y-98263369D01*
X110418550Y-98265941D01*
X110438627Y-98276978D01*
X110459940Y-98288695D01*
X110479718Y-98293773D01*
X110498119Y-98300073D01*
X110516855Y-98308181D01*
X110561362Y-98315229D01*
X110563503Y-98315569D01*
X110569212Y-98316751D01*
X110614970Y-98328500D01*
X110635384Y-98328500D01*
X110654783Y-98330027D01*
X110674943Y-98333220D01*
X110721965Y-98328775D01*
X110727804Y-98328500D01*
X114726000Y-98328500D01*
X114793039Y-98348185D01*
X114838794Y-98400989D01*
X114850000Y-98452500D01*
X114850000Y-98570000D01*
X115586653Y-98570000D01*
X115653692Y-98589685D01*
X115699447Y-98642489D01*
X115709391Y-98711647D01*
X115705631Y-98728933D01*
X115700000Y-98748111D01*
X115700000Y-98891888D01*
X115705631Y-98911067D01*
X115705630Y-98980936D01*
X115667855Y-99039714D01*
X115604299Y-99068738D01*
X115586653Y-99070000D01*
X114850000Y-99070000D01*
X114850000Y-99717844D01*
X114856401Y-99777372D01*
X114856403Y-99777379D01*
X114906645Y-99912086D01*
X114906649Y-99912093D01*
X114992809Y-100027187D01*
X114992812Y-100027190D01*
X115107906Y-100113350D01*
X115107913Y-100113354D01*
X115242620Y-100163596D01*
X115242627Y-100163598D01*
X115302155Y-100169999D01*
X115302172Y-100170000D01*
X115950000Y-100170000D01*
X115950000Y-99432301D01*
X115969685Y-99365262D01*
X116022489Y-99319507D01*
X116091647Y-99309563D01*
X116164237Y-99320000D01*
X116164238Y-99320000D01*
X116235762Y-99320000D01*
X116235763Y-99320000D01*
X116308353Y-99309563D01*
X116377512Y-99319507D01*
X116430315Y-99365262D01*
X116450000Y-99432301D01*
X116450000Y-100170000D01*
X117097828Y-100170000D01*
X117097844Y-100169999D01*
X117157372Y-100163598D01*
X117157379Y-100163596D01*
X117292086Y-100113354D01*
X117292093Y-100113350D01*
X117407187Y-100027190D01*
X117407190Y-100027187D01*
X117493350Y-99912093D01*
X117493354Y-99912086D01*
X117543596Y-99777379D01*
X117543598Y-99777372D01*
X117549999Y-99717844D01*
X117550000Y-99717827D01*
X117550000Y-99070000D01*
X116813347Y-99070000D01*
X116746308Y-99050315D01*
X116700553Y-98997511D01*
X116690609Y-98928353D01*
X116694369Y-98911067D01*
X116700000Y-98891888D01*
X116700000Y-98748111D01*
X116694369Y-98728933D01*
X116694370Y-98659064D01*
X116732145Y-98600286D01*
X116795701Y-98571262D01*
X116813347Y-98570000D01*
X117550000Y-98570000D01*
X117550000Y-98452500D01*
X117569685Y-98385461D01*
X117622489Y-98339706D01*
X117674000Y-98328500D01*
X119626000Y-98328500D01*
X119693039Y-98348185D01*
X119738794Y-98400989D01*
X119750000Y-98452500D01*
X119750000Y-98570000D01*
X120486653Y-98570000D01*
X120553692Y-98589685D01*
X120599447Y-98642489D01*
X120609391Y-98711647D01*
X120605631Y-98728933D01*
X120600000Y-98748111D01*
X120600000Y-98891888D01*
X120605631Y-98911067D01*
X120605630Y-98980936D01*
X120567855Y-99039714D01*
X120504299Y-99068738D01*
X120486653Y-99070000D01*
X119750000Y-99070000D01*
X119750000Y-99717844D01*
X119756401Y-99777372D01*
X119756403Y-99777379D01*
X119806645Y-99912086D01*
X119806649Y-99912093D01*
X119892809Y-100027187D01*
X119892812Y-100027190D01*
X120007906Y-100113350D01*
X120007913Y-100113354D01*
X120142620Y-100163596D01*
X120142627Y-100163598D01*
X120202155Y-100169999D01*
X120202172Y-100170000D01*
X120850000Y-100170000D01*
X120850000Y-99432301D01*
X120869685Y-99365262D01*
X120922489Y-99319507D01*
X120991647Y-99309563D01*
X121064237Y-99320000D01*
X121064238Y-99320000D01*
X121135762Y-99320000D01*
X121135763Y-99320000D01*
X121208353Y-99309563D01*
X121277512Y-99319507D01*
X121330315Y-99365262D01*
X121350000Y-99432301D01*
X121350000Y-100170000D01*
X121997828Y-100170000D01*
X121997844Y-100169999D01*
X122057372Y-100163598D01*
X122057379Y-100163596D01*
X122192086Y-100113354D01*
X122192093Y-100113350D01*
X122307187Y-100027190D01*
X122307190Y-100027187D01*
X122393350Y-99912093D01*
X122393354Y-99912086D01*
X122443596Y-99777379D01*
X122443598Y-99777372D01*
X122449999Y-99717844D01*
X122450000Y-99717827D01*
X122450000Y-99070000D01*
X121713347Y-99070000D01*
X121646308Y-99050315D01*
X121600553Y-98997511D01*
X121590609Y-98928353D01*
X121594369Y-98911067D01*
X121600000Y-98891888D01*
X121600000Y-98748111D01*
X121594369Y-98728933D01*
X121594370Y-98659064D01*
X121632145Y-98600286D01*
X121695701Y-98571262D01*
X121713347Y-98570000D01*
X122450000Y-98570000D01*
X122450000Y-98452500D01*
X122469685Y-98385461D01*
X122522489Y-98339706D01*
X122574000Y-98328500D01*
X124762500Y-98328500D01*
X124829539Y-98348185D01*
X124875294Y-98400989D01*
X124886500Y-98452500D01*
X124886500Y-98856154D01*
X124893011Y-98916702D01*
X124893011Y-98916704D01*
X124938893Y-99039714D01*
X124944111Y-99053704D01*
X125031739Y-99170761D01*
X125148796Y-99258389D01*
X125285799Y-99309489D01*
X125313050Y-99312418D01*
X125346345Y-99315999D01*
X125346362Y-99316000D01*
X126293638Y-99316000D01*
X126293654Y-99315999D01*
X126320692Y-99313091D01*
X126354201Y-99309489D01*
X126367095Y-99304680D01*
X126444628Y-99275761D01*
X126514320Y-99270775D01*
X126526286Y-99274013D01*
X126529938Y-99275199D01*
X126529944Y-99275202D01*
X126721885Y-99316000D01*
X126721886Y-99316000D01*
X126918113Y-99316000D01*
X126918115Y-99316000D01*
X127110056Y-99275202D01*
X127110058Y-99275200D01*
X127110061Y-99275200D01*
X127269563Y-99204185D01*
X127338813Y-99194900D01*
X127370434Y-99204184D01*
X127462001Y-99244952D01*
X127529944Y-99275202D01*
X127721885Y-99316000D01*
X127721886Y-99316000D01*
X127918113Y-99316000D01*
X127918115Y-99316000D01*
X128110056Y-99275202D01*
X128110058Y-99275200D01*
X128110061Y-99275200D01*
X128168421Y-99249215D01*
X128269565Y-99204183D01*
X128338814Y-99194899D01*
X128370433Y-99204183D01*
X128429227Y-99230359D01*
X128529938Y-99275200D01*
X128529944Y-99275202D01*
X128721885Y-99316000D01*
X128806234Y-99316000D01*
X128873273Y-99335685D01*
X128893915Y-99352319D01*
X129430410Y-99888814D01*
X129440316Y-99901178D01*
X129440526Y-99901005D01*
X129445501Y-99907019D01*
X129496595Y-99955000D01*
X129517724Y-99976129D01*
X129517728Y-99976132D01*
X129517731Y-99976135D01*
X129523305Y-99980458D01*
X129527745Y-99984251D01*
X129549356Y-100004544D01*
X129562179Y-100016586D01*
X129562183Y-100016589D01*
X129580063Y-100026418D01*
X129596327Y-100037101D01*
X129612460Y-100049614D01*
X129655801Y-100068369D01*
X129661050Y-100070941D01*
X129669580Y-100075630D01*
X129702440Y-100093695D01*
X129722218Y-100098773D01*
X129740619Y-100105073D01*
X129759355Y-100113181D01*
X129803862Y-100120229D01*
X129806003Y-100120569D01*
X129811712Y-100121751D01*
X129857470Y-100133500D01*
X129877884Y-100133500D01*
X129897283Y-100135027D01*
X129917443Y-100138220D01*
X129964465Y-100133775D01*
X129970304Y-100133500D01*
X133298866Y-100133500D01*
X133314613Y-100135238D01*
X133314639Y-100134968D01*
X133322405Y-100135701D01*
X133322409Y-100135702D01*
X133392458Y-100133500D01*
X133422356Y-100133500D01*
X133422357Y-100133500D01*
X133423722Y-100133327D01*
X133429362Y-100132614D01*
X133435185Y-100132156D01*
X133461208Y-100131338D01*
X133482390Y-100130673D01*
X133492181Y-100127827D01*
X133501981Y-100124980D01*
X133521038Y-100121032D01*
X133541297Y-100118474D01*
X133585221Y-100101082D01*
X133590721Y-100099199D01*
X133636093Y-100086018D01*
X133653665Y-100075625D01*
X133671132Y-100067068D01*
X133690117Y-100059552D01*
X133728326Y-100031790D01*
X133733204Y-100028585D01*
X133773862Y-100004542D01*
X133788302Y-99990100D01*
X133803092Y-99977470D01*
X133819607Y-99965472D01*
X133849722Y-99929067D01*
X133853626Y-99924776D01*
X134426084Y-99352319D01*
X134487408Y-99318834D01*
X134513766Y-99316000D01*
X134598113Y-99316000D01*
X134598115Y-99316000D01*
X134790056Y-99275202D01*
X134790058Y-99275200D01*
X134790061Y-99275200D01*
X134850442Y-99248316D01*
X134969321Y-99195388D01*
X135128074Y-99080047D01*
X135200149Y-99000000D01*
X138444417Y-99000000D01*
X138464699Y-99205932D01*
X138494654Y-99304680D01*
X138524768Y-99403954D01*
X138622315Y-99586450D01*
X138622317Y-99586452D01*
X138753589Y-99746410D01*
X138806071Y-99789480D01*
X138913550Y-99877685D01*
X139096046Y-99975232D01*
X139294066Y-100035300D01*
X139294065Y-100035300D01*
X139312352Y-100037101D01*
X139500000Y-100055583D01*
X139705934Y-100035300D01*
X139903954Y-99975232D01*
X140086450Y-99877685D01*
X140246410Y-99746410D01*
X140377685Y-99586450D01*
X140475232Y-99403954D01*
X140535300Y-99205934D01*
X140555583Y-99000000D01*
X140535300Y-98794066D01*
X140475232Y-98596046D01*
X140377685Y-98413550D01*
X140311760Y-98333220D01*
X140246410Y-98253589D01*
X140120183Y-98149999D01*
X140086450Y-98122315D01*
X139903954Y-98024768D01*
X139705934Y-97964700D01*
X139705932Y-97964699D01*
X139705934Y-97964699D01*
X139518463Y-97946235D01*
X139500000Y-97944417D01*
X139499999Y-97944417D01*
X139294067Y-97964699D01*
X139096043Y-98024769D01*
X139047905Y-98050500D01*
X138913550Y-98122315D01*
X138913548Y-98122316D01*
X138913547Y-98122317D01*
X138753589Y-98253589D01*
X138622317Y-98413547D01*
X138524769Y-98596043D01*
X138464699Y-98794067D01*
X138444417Y-99000000D01*
X135200149Y-99000000D01*
X135259377Y-98934220D01*
X135357492Y-98764280D01*
X135418130Y-98577655D01*
X135438642Y-98382500D01*
X135418130Y-98187345D01*
X135379594Y-98068744D01*
X135357494Y-98000725D01*
X135357491Y-98000719D01*
X135259377Y-97830780D01*
X135128074Y-97684953D01*
X134999999Y-97591901D01*
X134969320Y-97569611D01*
X134790061Y-97489799D01*
X134790055Y-97489797D01*
X134638911Y-97457671D01*
X134598115Y-97449000D01*
X134401885Y-97449000D01*
X134368239Y-97456151D01*
X134209944Y-97489797D01*
X134209942Y-97489798D01*
X134050435Y-97560815D01*
X133981185Y-97570099D01*
X133949565Y-97560815D01*
X133790057Y-97489798D01*
X133790055Y-97489797D01*
X133638912Y-97457671D01*
X133598115Y-97449000D01*
X133401885Y-97449000D01*
X133368239Y-97456151D01*
X133209944Y-97489797D01*
X133209942Y-97489798D01*
X133050435Y-97560815D01*
X132981185Y-97570099D01*
X132949566Y-97560815D01*
X132896792Y-97537319D01*
X132843554Y-97492069D01*
X132823232Y-97425220D01*
X132842277Y-97357996D01*
X132859541Y-97336362D01*
X134388817Y-95807086D01*
X134401178Y-95797185D01*
X134401004Y-95796975D01*
X134407013Y-95792002D01*
X134407018Y-95792000D01*
X134454983Y-95740921D01*
X134476135Y-95719770D01*
X134480461Y-95714192D01*
X134484250Y-95709755D01*
X134516586Y-95675321D01*
X134526419Y-95657432D01*
X134537102Y-95641169D01*
X134549614Y-95625041D01*
X134568371Y-95581691D01*
X134570941Y-95576447D01*
X134593693Y-95535064D01*
X134593693Y-95535063D01*
X134593695Y-95535060D01*
X134598774Y-95515273D01*
X134605070Y-95496885D01*
X134613181Y-95478145D01*
X134620569Y-95431497D01*
X134621751Y-95425786D01*
X134633500Y-95380030D01*
X134633500Y-95359614D01*
X134635027Y-95340214D01*
X134638220Y-95320057D01*
X134633775Y-95273033D01*
X134633500Y-95267195D01*
X134633500Y-94890000D01*
X134653185Y-94822961D01*
X134705989Y-94777206D01*
X134757500Y-94766000D01*
X134898638Y-94766000D01*
X134898654Y-94765999D01*
X134925692Y-94763091D01*
X134959201Y-94759489D01*
X135096204Y-94708389D01*
X135213261Y-94620761D01*
X135300889Y-94503704D01*
X135351989Y-94366701D01*
X135355591Y-94333192D01*
X135358499Y-94306154D01*
X135358500Y-94306137D01*
X135358500Y-92508862D01*
X135358499Y-92508845D01*
X135353421Y-92461619D01*
X135351989Y-92448299D01*
X135300889Y-92311296D01*
X135213261Y-92194239D01*
X135096204Y-92106611D01*
X135096203Y-92106610D01*
X134959203Y-92055511D01*
X134898654Y-92049000D01*
X134898638Y-92049000D01*
X133101362Y-92049000D01*
X133101345Y-92049000D01*
X133040797Y-92055511D01*
X133040795Y-92055511D01*
X132903795Y-92106611D01*
X132786739Y-92194239D01*
X132699111Y-92311295D01*
X132653861Y-92432611D01*
X132611989Y-92488544D01*
X132546524Y-92512960D01*
X132478252Y-92498107D01*
X132446454Y-92473262D01*
X132383240Y-92404594D01*
X132205576Y-92266311D01*
X132205575Y-92266310D01*
X132205572Y-92266308D01*
X132007580Y-92159161D01*
X132007577Y-92159159D01*
X132007574Y-92159158D01*
X132007571Y-92159157D01*
X132007569Y-92159156D01*
X131794637Y-92086056D01*
X131572569Y-92049000D01*
X131347431Y-92049000D01*
X131125362Y-92086056D01*
X130912430Y-92159156D01*
X130912419Y-92159161D01*
X130714427Y-92266308D01*
X130714422Y-92266312D01*
X130536761Y-92404592D01*
X130536756Y-92404597D01*
X130384284Y-92570223D01*
X130384276Y-92570234D01*
X130293808Y-92708706D01*
X130240662Y-92754062D01*
X130171431Y-92763486D01*
X130108095Y-92733984D01*
X130086192Y-92708706D01*
X130014394Y-92598812D01*
X129995722Y-92570232D01*
X129995719Y-92570229D01*
X129995715Y-92570223D01*
X129843243Y-92404597D01*
X129843238Y-92404592D01*
X129665577Y-92266312D01*
X129665572Y-92266308D01*
X129467580Y-92159161D01*
X129467577Y-92159159D01*
X129467574Y-92159158D01*
X129467571Y-92159157D01*
X129467569Y-92159156D01*
X129254637Y-92086056D01*
X129032569Y-92049000D01*
X128807431Y-92049000D01*
X128585362Y-92086056D01*
X128372430Y-92159156D01*
X128372419Y-92159161D01*
X128174427Y-92266308D01*
X128174422Y-92266312D01*
X127996761Y-92404592D01*
X127996756Y-92404597D01*
X127844284Y-92570223D01*
X127844276Y-92570234D01*
X127753808Y-92708706D01*
X127700662Y-92754062D01*
X127631431Y-92763486D01*
X127568095Y-92733984D01*
X127546192Y-92708706D01*
X127474394Y-92598812D01*
X127455722Y-92570232D01*
X127455719Y-92570229D01*
X127455715Y-92570223D01*
X127303243Y-92404597D01*
X127303238Y-92404592D01*
X127125577Y-92266312D01*
X127125572Y-92266308D01*
X126927580Y-92159161D01*
X126927577Y-92159159D01*
X126927574Y-92159158D01*
X126927571Y-92159157D01*
X126927569Y-92159156D01*
X126714637Y-92086056D01*
X126492569Y-92049000D01*
X126267431Y-92049000D01*
X126045362Y-92086056D01*
X125832430Y-92159156D01*
X125832419Y-92159161D01*
X125634427Y-92266308D01*
X125634422Y-92266312D01*
X125456761Y-92404592D01*
X125456756Y-92404597D01*
X125304284Y-92570223D01*
X125304276Y-92570234D01*
X125181140Y-92758707D01*
X125090703Y-92964885D01*
X125035436Y-93183128D01*
X125035434Y-93183140D01*
X125016844Y-93407494D01*
X125016844Y-93407505D01*
X125035434Y-93631859D01*
X125035436Y-93631871D01*
X125090703Y-93850114D01*
X125090704Y-93850118D01*
X125181753Y-94057691D01*
X125190656Y-94126991D01*
X125160678Y-94190103D01*
X125101339Y-94226989D01*
X125068197Y-94231500D01*
X122536233Y-94231500D01*
X122469194Y-94211815D01*
X122423439Y-94159011D01*
X122413495Y-94089853D01*
X122416027Y-94077060D01*
X122444563Y-93964372D01*
X122444565Y-93964359D01*
X122463156Y-93740005D01*
X122463156Y-93739994D01*
X122444565Y-93515640D01*
X122444563Y-93515628D01*
X122416538Y-93404960D01*
X122419163Y-93335140D01*
X122449061Y-93286841D01*
X126688815Y-89047087D01*
X126701180Y-89037183D01*
X126701006Y-89036973D01*
X126707012Y-89032003D01*
X126707018Y-89032000D01*
X126754999Y-88980904D01*
X126776135Y-88959769D01*
X126780459Y-88954194D01*
X126784255Y-88949749D01*
X126798778Y-88934284D01*
X126816586Y-88915321D01*
X126816587Y-88915318D01*
X126821022Y-88910596D01*
X126859007Y-88883099D01*
X126956749Y-88837523D01*
X127144300Y-88706198D01*
X127306198Y-88544300D01*
X127437523Y-88356749D01*
X127457618Y-88313654D01*
X127503787Y-88261216D01*
X127570980Y-88242063D01*
X127637862Y-88262277D01*
X127682380Y-88313653D01*
X127702474Y-88356743D01*
X127702477Y-88356749D01*
X127833802Y-88544300D01*
X127995700Y-88706198D01*
X128183251Y-88837523D01*
X128280988Y-88883098D01*
X128390750Y-88934281D01*
X128390752Y-88934281D01*
X128390757Y-88934284D01*
X128611913Y-88993543D01*
X128774832Y-89007796D01*
X128839998Y-89013498D01*
X128840000Y-89013498D01*
X128840002Y-89013498D01*
X128897021Y-89008509D01*
X129068087Y-88993543D01*
X129289243Y-88934284D01*
X129289251Y-88934280D01*
X129290390Y-88933975D01*
X129360239Y-88935638D01*
X129410165Y-88966069D01*
X130632910Y-90188814D01*
X130642816Y-90201178D01*
X130643026Y-90201005D01*
X130648001Y-90207019D01*
X130699094Y-90254999D01*
X130720225Y-90276129D01*
X130720230Y-90276134D01*
X130725802Y-90280456D01*
X130730242Y-90284249D01*
X130764678Y-90316586D01*
X130782567Y-90326420D01*
X130798831Y-90337103D01*
X130814959Y-90349613D01*
X130845280Y-90362734D01*
X130858298Y-90368367D01*
X130863545Y-90370937D01*
X130904940Y-90393695D01*
X130924718Y-90398773D01*
X130943119Y-90405073D01*
X130961855Y-90413181D01*
X131006362Y-90420229D01*
X131008503Y-90420569D01*
X131014212Y-90421751D01*
X131059970Y-90433500D01*
X131080384Y-90433500D01*
X131099783Y-90435027D01*
X131119943Y-90438220D01*
X131166965Y-90433775D01*
X131172804Y-90433500D01*
X136086234Y-90433500D01*
X136153273Y-90453185D01*
X136173915Y-90469819D01*
X136730181Y-91026085D01*
X136763666Y-91087408D01*
X136766500Y-91113766D01*
X136766500Y-93316366D01*
X136764761Y-93332113D01*
X136765032Y-93332139D01*
X136764298Y-93339905D01*
X136766500Y-93409957D01*
X136766500Y-93439859D01*
X136767384Y-93446856D01*
X136767842Y-93452679D01*
X136769326Y-93499889D01*
X136769327Y-93499891D01*
X136775022Y-93519495D01*
X136778967Y-93538542D01*
X136781526Y-93558797D01*
X136781527Y-93558800D01*
X136781528Y-93558803D01*
X136798914Y-93602716D01*
X136800806Y-93608244D01*
X136813981Y-93653592D01*
X136824372Y-93671162D01*
X136832932Y-93688635D01*
X136840447Y-93707617D01*
X136868209Y-93745827D01*
X136871416Y-93750710D01*
X136895458Y-93791362D01*
X136895462Y-93791366D01*
X136909889Y-93805793D01*
X136922526Y-93820588D01*
X136934528Y-93837107D01*
X136970931Y-93867222D01*
X136975231Y-93871135D01*
X137315911Y-94211815D01*
X137650936Y-94546840D01*
X137684421Y-94608163D01*
X137683461Y-94664960D01*
X137655435Y-94775633D01*
X137636844Y-94999994D01*
X137636844Y-95000005D01*
X137655434Y-95224359D01*
X137655436Y-95224371D01*
X137710703Y-95442614D01*
X137801140Y-95648792D01*
X137924276Y-95837265D01*
X137924284Y-95837276D01*
X138076756Y-96002902D01*
X138076760Y-96002906D01*
X138254424Y-96141189D01*
X138254425Y-96141189D01*
X138254427Y-96141191D01*
X138381135Y-96209761D01*
X138452426Y-96248342D01*
X138665365Y-96321444D01*
X138887431Y-96358500D01*
X139112569Y-96358500D01*
X139334635Y-96321444D01*
X139547574Y-96248342D01*
X139745576Y-96141189D01*
X139923240Y-96002906D01*
X140022614Y-95894957D01*
X140075715Y-95837276D01*
X140075716Y-95837274D01*
X140075722Y-95837268D01*
X140198860Y-95648791D01*
X140289296Y-95442616D01*
X140344564Y-95224368D01*
X140356201Y-95083937D01*
X140363156Y-95000005D01*
X140363156Y-94999994D01*
X140344565Y-94775640D01*
X140344563Y-94775628D01*
X140327535Y-94708388D01*
X140289296Y-94557384D01*
X140198860Y-94351209D01*
X140192674Y-94341741D01*
X140088713Y-94182616D01*
X140075722Y-94162732D01*
X140075719Y-94162729D01*
X140075715Y-94162723D01*
X139930510Y-94004991D01*
X139899587Y-93942337D01*
X139907447Y-93872911D01*
X139951594Y-93818755D01*
X139978405Y-93804827D01*
X140058584Y-93774920D01*
X140096204Y-93760889D01*
X140213261Y-93673261D01*
X140300889Y-93556204D01*
X140351989Y-93419201D01*
X140355591Y-93385692D01*
X140358499Y-93358654D01*
X140358500Y-93358637D01*
X140358500Y-91561362D01*
X140358499Y-91561345D01*
X140354593Y-91525019D01*
X140351989Y-91500799D01*
X140300889Y-91363796D01*
X140213261Y-91246739D01*
X140096204Y-91159111D01*
X140096203Y-91159110D01*
X139959203Y-91108011D01*
X139898654Y-91101500D01*
X139898638Y-91101500D01*
X138157500Y-91101500D01*
X138090461Y-91081815D01*
X138044706Y-91029011D01*
X138033500Y-90977500D01*
X138033500Y-90883632D01*
X138035239Y-90867880D01*
X138034968Y-90867855D01*
X138035700Y-90860099D01*
X138035702Y-90860092D01*
X138033500Y-90790028D01*
X138033500Y-90760144D01*
X138032614Y-90753141D01*
X138032157Y-90747322D01*
X138030674Y-90700113D01*
X138030674Y-90700111D01*
X138024974Y-90680492D01*
X138021031Y-90661446D01*
X138018474Y-90641204D01*
X138018474Y-90641203D01*
X138001081Y-90597274D01*
X137999204Y-90591792D01*
X137986019Y-90546407D01*
X137975620Y-90528824D01*
X137967066Y-90511363D01*
X137959552Y-90492383D01*
X137931793Y-90454176D01*
X137928586Y-90449294D01*
X137904544Y-90408641D01*
X137904543Y-90408640D01*
X137904542Y-90408638D01*
X137890108Y-90394204D01*
X137877471Y-90379409D01*
X137865472Y-90362893D01*
X137865470Y-90362890D01*
X137829073Y-90332781D01*
X137824751Y-90328847D01*
X136907091Y-89411187D01*
X136897188Y-89398825D01*
X136896978Y-89399000D01*
X136892003Y-89392988D01*
X136892000Y-89392982D01*
X136867316Y-89369802D01*
X136840921Y-89345015D01*
X136819768Y-89323863D01*
X136817792Y-89322331D01*
X136814183Y-89319531D01*
X136809750Y-89315744D01*
X136775321Y-89283414D01*
X136775319Y-89283412D01*
X136757431Y-89273578D01*
X136741170Y-89262897D01*
X136725039Y-89250384D01*
X136681693Y-89231627D01*
X136676445Y-89229056D01*
X136649251Y-89214106D01*
X136635060Y-89206305D01*
X136631660Y-89205432D01*
X136615287Y-89201228D01*
X136596881Y-89194926D01*
X136578144Y-89186818D01*
X136578146Y-89186818D01*
X136531496Y-89179430D01*
X136525781Y-89178246D01*
X136505612Y-89173068D01*
X136480032Y-89166500D01*
X136480030Y-89166500D01*
X136459616Y-89166500D01*
X136440217Y-89164973D01*
X136420058Y-89161780D01*
X136420057Y-89161780D01*
X136373034Y-89166225D01*
X136367196Y-89166500D01*
X131890582Y-89166500D01*
X131823543Y-89146815D01*
X131777788Y-89094011D01*
X131767844Y-89024853D01*
X131796869Y-88961297D01*
X131838177Y-88930118D01*
X132036749Y-88837523D01*
X132224300Y-88706198D01*
X132386198Y-88544300D01*
X132517523Y-88356749D01*
X132614284Y-88149243D01*
X132673543Y-87928087D01*
X132688500Y-87757127D01*
X132688500Y-87242873D01*
X132673543Y-87071913D01*
X132614284Y-86850757D01*
X132517523Y-86643251D01*
X132386198Y-86455700D01*
X132224300Y-86293802D01*
X132036749Y-86162477D01*
X132036745Y-86162475D01*
X131829249Y-86065718D01*
X131829238Y-86065714D01*
X131608089Y-86006457D01*
X131608081Y-86006456D01*
X131380002Y-85986502D01*
X131379998Y-85986502D01*
X131151918Y-86006456D01*
X131151910Y-86006457D01*
X130930761Y-86065714D01*
X130930750Y-86065718D01*
X130723254Y-86162475D01*
X130723252Y-86162476D01*
X130723249Y-86162477D01*
X130723251Y-86162477D01*
X130535700Y-86293802D01*
X130535698Y-86293803D01*
X130535695Y-86293806D01*
X130373806Y-86455695D01*
X130242476Y-86643252D01*
X130222380Y-86686347D01*
X130176207Y-86738785D01*
X130109013Y-86757936D01*
X130042132Y-86737719D01*
X129997618Y-86686345D01*
X129977523Y-86643251D01*
X129846198Y-86455700D01*
X129684300Y-86293802D01*
X129496749Y-86162477D01*
X129496745Y-86162475D01*
X129289249Y-86065718D01*
X129289238Y-86065714D01*
X129068089Y-86006457D01*
X129068081Y-86006456D01*
X128840002Y-85986502D01*
X128839998Y-85986502D01*
X128611918Y-86006456D01*
X128611910Y-86006457D01*
X128390761Y-86065714D01*
X128390750Y-86065718D01*
X128183254Y-86162475D01*
X128183252Y-86162476D01*
X128183249Y-86162477D01*
X128183251Y-86162477D01*
X127995700Y-86293802D01*
X127995698Y-86293803D01*
X127995695Y-86293806D01*
X127833806Y-86455695D01*
X127702476Y-86643252D01*
X127682380Y-86686347D01*
X127636207Y-86738785D01*
X127569013Y-86757936D01*
X127502132Y-86737719D01*
X127457618Y-86686345D01*
X127437523Y-86643251D01*
X127306198Y-86455700D01*
X127144300Y-86293802D01*
X126956749Y-86162477D01*
X126956745Y-86162475D01*
X126749249Y-86065718D01*
X126749238Y-86065714D01*
X126528089Y-86006457D01*
X126528081Y-86006456D01*
X126300002Y-85986502D01*
X126299998Y-85986502D01*
X126071918Y-86006456D01*
X126071910Y-86006457D01*
X125850761Y-86065714D01*
X125850750Y-86065718D01*
X125643254Y-86162475D01*
X125643252Y-86162476D01*
X125643249Y-86162477D01*
X125643251Y-86162477D01*
X125455700Y-86293802D01*
X125455698Y-86293803D01*
X125455695Y-86293806D01*
X125293806Y-86455695D01*
X125162476Y-86643251D01*
X125142382Y-86686345D01*
X125096209Y-86738784D01*
X125029016Y-86757936D01*
X124962135Y-86737720D01*
X124917618Y-86686345D01*
X124897523Y-86643251D01*
X124766198Y-86455700D01*
X124604300Y-86293802D01*
X124416749Y-86162477D01*
X124416745Y-86162475D01*
X124209249Y-86065718D01*
X124209238Y-86065714D01*
X123988089Y-86006457D01*
X123988081Y-86006456D01*
X123760002Y-85986502D01*
X123759998Y-85986502D01*
X123531918Y-86006456D01*
X123531910Y-86006457D01*
X123310761Y-86065714D01*
X123310750Y-86065718D01*
X123103254Y-86162475D01*
X123103252Y-86162476D01*
X123103249Y-86162477D01*
X123103251Y-86162477D01*
X122915700Y-86293802D01*
X122915698Y-86293803D01*
X122915695Y-86293806D01*
X122753806Y-86455695D01*
X122622476Y-86643251D01*
X122602382Y-86686345D01*
X122556209Y-86738784D01*
X122489016Y-86757936D01*
X122422135Y-86737720D01*
X122377618Y-86686345D01*
X122357523Y-86643251D01*
X122357522Y-86643250D01*
X122226198Y-86455700D01*
X122064300Y-86293802D01*
X121876749Y-86162477D01*
X121876745Y-86162475D01*
X121669249Y-86065718D01*
X121669238Y-86065714D01*
X121448089Y-86006457D01*
X121448081Y-86006456D01*
X121220002Y-85986502D01*
X121219998Y-85986502D01*
X120991918Y-86006456D01*
X120991910Y-86006457D01*
X120770761Y-86065714D01*
X120770750Y-86065718D01*
X120563254Y-86162475D01*
X120563252Y-86162476D01*
X120563249Y-86162477D01*
X120563251Y-86162477D01*
X120375700Y-86293802D01*
X120375698Y-86293803D01*
X120375695Y-86293806D01*
X120213806Y-86455695D01*
X120082476Y-86643251D01*
X120062382Y-86686345D01*
X120016209Y-86738784D01*
X119949016Y-86757936D01*
X119882135Y-86737720D01*
X119837618Y-86686345D01*
X119817523Y-86643251D01*
X119686198Y-86455700D01*
X119524300Y-86293802D01*
X119336749Y-86162477D01*
X119336745Y-86162475D01*
X119129249Y-86065718D01*
X119129238Y-86065714D01*
X118908089Y-86006457D01*
X118908081Y-86006456D01*
X118680002Y-85986502D01*
X118679998Y-85986502D01*
X118451918Y-86006456D01*
X118451910Y-86006457D01*
X118230761Y-86065714D01*
X118230750Y-86065718D01*
X118023254Y-86162475D01*
X118023252Y-86162476D01*
X118023249Y-86162477D01*
X118023251Y-86162477D01*
X117835700Y-86293802D01*
X117835698Y-86293803D01*
X117835695Y-86293806D01*
X117673806Y-86455695D01*
X117542476Y-86643251D01*
X117522382Y-86686345D01*
X117476209Y-86738784D01*
X117409016Y-86757936D01*
X117342135Y-86737720D01*
X117297618Y-86686345D01*
X117277523Y-86643251D01*
X117277522Y-86643250D01*
X117146198Y-86455700D01*
X116984300Y-86293802D01*
X116796749Y-86162477D01*
X116796745Y-86162475D01*
X116589249Y-86065718D01*
X116589238Y-86065714D01*
X116368089Y-86006457D01*
X116368082Y-86006456D01*
X116284813Y-85999171D01*
X116219744Y-85973718D01*
X116178766Y-85917127D01*
X116174888Y-85847365D01*
X116207938Y-85787964D01*
X127913817Y-74082086D01*
X127926178Y-74072185D01*
X127926004Y-74071975D01*
X127932013Y-74067002D01*
X127932018Y-74067000D01*
X127979983Y-74015921D01*
X128001135Y-73994770D01*
X128005461Y-73989192D01*
X128009250Y-73984755D01*
X128041586Y-73950321D01*
X128051419Y-73932432D01*
X128062102Y-73916169D01*
X128074614Y-73900041D01*
X128093371Y-73856691D01*
X128095941Y-73851447D01*
X128118693Y-73810064D01*
X128118693Y-73810063D01*
X128118695Y-73810060D01*
X128123774Y-73790273D01*
X128130070Y-73771885D01*
X128138181Y-73753145D01*
X128145569Y-73706497D01*
X128146751Y-73700786D01*
X128158500Y-73655030D01*
X128158500Y-73634615D01*
X128160027Y-73615214D01*
X128163220Y-73595057D01*
X128158772Y-73548011D01*
X128158499Y-73542217D01*
X128158499Y-66160620D01*
X128178184Y-66093582D01*
X128230988Y-66047827D01*
X128300146Y-66037883D01*
X128334901Y-66048238D01*
X128390757Y-66074284D01*
X128611913Y-66133543D01*
X128774832Y-66147796D01*
X128839998Y-66153498D01*
X128840000Y-66153498D01*
X128840002Y-66153498D01*
X128897139Y-66148499D01*
X129068087Y-66133543D01*
X129289243Y-66074284D01*
X129496749Y-65977523D01*
X129684300Y-65846198D01*
X129715304Y-65815193D01*
X129776624Y-65781709D01*
X129846316Y-65786693D01*
X129902250Y-65828563D01*
X129919164Y-65859537D01*
X129929111Y-65886204D01*
X130016739Y-66003261D01*
X130133796Y-66090889D01*
X130270799Y-66141989D01*
X130298050Y-66144918D01*
X130331345Y-66148499D01*
X130331362Y-66148500D01*
X132428638Y-66148500D01*
X132428654Y-66148499D01*
X132455692Y-66145591D01*
X132489201Y-66141989D01*
X132626204Y-66090889D01*
X132743261Y-66003261D01*
X132830889Y-65886204D01*
X132881989Y-65749201D01*
X132885591Y-65715692D01*
X132888499Y-65688654D01*
X132888499Y-65688647D01*
X132888500Y-65688638D01*
X132888500Y-63591362D01*
X132888499Y-63591352D01*
X132888499Y-63591345D01*
X132885157Y-63560270D01*
X132881989Y-63530799D01*
X132830889Y-63393796D01*
X132743261Y-63276739D01*
X132626204Y-63189111D01*
X132489203Y-63138011D01*
X132428654Y-63131500D01*
X132428638Y-63131500D01*
X130331362Y-63131500D01*
X130331345Y-63131500D01*
X130270797Y-63138011D01*
X130270795Y-63138011D01*
X130133795Y-63189111D01*
X130016739Y-63276739D01*
X129929111Y-63393796D01*
X129919164Y-63420462D01*
X129877291Y-63476394D01*
X129811825Y-63500808D01*
X129743553Y-63485954D01*
X129715303Y-63464805D01*
X129684304Y-63433806D01*
X129684300Y-63433802D01*
X129496749Y-63302477D01*
X129496750Y-63302477D01*
X129496748Y-63302476D01*
X129414640Y-63264189D01*
X129362201Y-63218017D01*
X129343049Y-63150823D01*
X129363265Y-63083942D01*
X129379359Y-63064131D01*
X131009583Y-61433908D01*
X131070904Y-61400425D01*
X131129351Y-61401815D01*
X131289345Y-61444686D01*
X131439812Y-61457850D01*
X131499998Y-61463116D01*
X131500000Y-61463116D01*
X131500002Y-61463116D01*
X131552663Y-61458508D01*
X131710655Y-61444686D01*
X131914910Y-61389956D01*
X132106558Y-61300589D01*
X132279776Y-61179301D01*
X132429301Y-61029776D01*
X132550589Y-60856558D01*
X132639956Y-60664910D01*
X132694686Y-60460655D01*
X132713116Y-60250001D01*
X135366884Y-60250001D01*
X135385313Y-60460649D01*
X135385315Y-60460660D01*
X135440041Y-60664902D01*
X135440043Y-60664906D01*
X135440044Y-60664910D01*
X135519391Y-60835071D01*
X135529410Y-60856556D01*
X135529411Y-60856558D01*
X135650700Y-61029778D01*
X135800221Y-61179299D01*
X135800224Y-61179301D01*
X135973442Y-61300589D01*
X136165090Y-61389956D01*
X136369345Y-61444686D01*
X136519812Y-61457850D01*
X136579998Y-61463116D01*
X136580000Y-61463116D01*
X136580002Y-61463116D01*
X136632663Y-61458508D01*
X136790655Y-61444686D01*
X136994910Y-61389956D01*
X137186558Y-61300589D01*
X137359776Y-61179301D01*
X137509301Y-61029776D01*
X137630589Y-60856558D01*
X137719956Y-60664910D01*
X137774686Y-60460655D01*
X137793116Y-60250000D01*
X137774686Y-60039345D01*
X137719956Y-59835090D01*
X137630589Y-59643442D01*
X137509301Y-59470224D01*
X137509299Y-59470221D01*
X137359778Y-59320700D01*
X137186558Y-59199411D01*
X137186556Y-59199410D01*
X137165071Y-59189391D01*
X136994910Y-59110044D01*
X136994906Y-59110043D01*
X136994902Y-59110041D01*
X136790660Y-59055315D01*
X136790656Y-59055314D01*
X136790655Y-59055314D01*
X136790654Y-59055313D01*
X136790649Y-59055313D01*
X136580002Y-59036884D01*
X136579998Y-59036884D01*
X136369350Y-59055313D01*
X136369339Y-59055315D01*
X136165097Y-59110041D01*
X136165088Y-59110045D01*
X135973443Y-59199410D01*
X135973441Y-59199411D01*
X135800221Y-59320700D01*
X135650700Y-59470221D01*
X135529411Y-59643441D01*
X135529410Y-59643443D01*
X135440045Y-59835088D01*
X135440041Y-59835097D01*
X135385315Y-60039339D01*
X135385313Y-60039350D01*
X135366884Y-60249998D01*
X135366884Y-60250001D01*
X132713116Y-60250001D01*
X132713116Y-60250000D01*
X132694686Y-60039345D01*
X132639956Y-59835090D01*
X132550589Y-59643442D01*
X132429301Y-59470224D01*
X132429299Y-59470221D01*
X132279778Y-59320700D01*
X132106558Y-59199411D01*
X132106556Y-59199410D01*
X132085071Y-59189391D01*
X131914910Y-59110044D01*
X131914906Y-59110043D01*
X131914902Y-59110041D01*
X131710660Y-59055315D01*
X131710656Y-59055314D01*
X131710655Y-59055314D01*
X131710654Y-59055313D01*
X131710649Y-59055313D01*
X131500002Y-59036884D01*
X131499998Y-59036884D01*
X131289350Y-59055313D01*
X131289339Y-59055315D01*
X131085097Y-59110041D01*
X131085088Y-59110045D01*
X130893443Y-59199410D01*
X130893441Y-59199411D01*
X130720221Y-59320700D01*
X130570700Y-59470221D01*
X130449411Y-59643441D01*
X130449410Y-59643443D01*
X130360045Y-59835088D01*
X130360041Y-59835097D01*
X130305315Y-60039339D01*
X130305313Y-60039350D01*
X130286884Y-60249998D01*
X130286884Y-60250004D01*
X130291079Y-60297964D01*
X130277311Y-60366464D01*
X130255232Y-60396450D01*
X127261150Y-63390531D01*
X127199827Y-63424016D01*
X127130135Y-63419032D01*
X127102345Y-63404425D01*
X126956749Y-63302477D01*
X126956745Y-63302475D01*
X126749249Y-63205718D01*
X126749238Y-63205714D01*
X126528089Y-63146457D01*
X126528081Y-63146456D01*
X126300002Y-63126502D01*
X126299998Y-63126502D01*
X126071918Y-63146456D01*
X126071910Y-63146457D01*
X125850761Y-63205714D01*
X125850750Y-63205718D01*
X125643254Y-63302475D01*
X125643252Y-63302476D01*
X125643249Y-63302477D01*
X125643251Y-63302477D01*
X125455700Y-63433802D01*
X125455698Y-63433803D01*
X125455695Y-63433806D01*
X125293806Y-63595695D01*
X125293803Y-63595698D01*
X125293802Y-63595700D01*
X125268501Y-63631834D01*
X125162476Y-63783251D01*
X125142382Y-63826345D01*
X125096209Y-63878784D01*
X125029016Y-63897936D01*
X124962135Y-63877720D01*
X124917618Y-63826345D01*
X124897523Y-63783251D01*
X124867746Y-63740725D01*
X124766198Y-63595700D01*
X124604300Y-63433802D01*
X124416749Y-63302477D01*
X124416745Y-63302475D01*
X124209249Y-63205718D01*
X124209238Y-63205714D01*
X123988089Y-63146457D01*
X123988081Y-63146456D01*
X123760002Y-63126502D01*
X123759998Y-63126502D01*
X123531918Y-63146456D01*
X123531910Y-63146457D01*
X123310761Y-63205714D01*
X123310750Y-63205718D01*
X123103254Y-63302475D01*
X123103252Y-63302476D01*
X123103249Y-63302477D01*
X123103251Y-63302477D01*
X122915700Y-63433802D01*
X122915698Y-63433803D01*
X122915695Y-63433806D01*
X122753806Y-63595695D01*
X122753803Y-63595698D01*
X122753802Y-63595700D01*
X122728501Y-63631834D01*
X122622476Y-63783251D01*
X122602382Y-63826345D01*
X122556209Y-63878784D01*
X122489016Y-63897936D01*
X122422135Y-63877720D01*
X122377618Y-63826345D01*
X122357523Y-63783252D01*
X122357523Y-63783251D01*
X122327746Y-63740725D01*
X122305418Y-63674519D01*
X122322428Y-63606752D01*
X122341635Y-63581924D01*
X125673559Y-60250001D01*
X127053550Y-60250001D01*
X127071979Y-60460649D01*
X127071981Y-60460660D01*
X127126707Y-60664902D01*
X127126709Y-60664906D01*
X127126710Y-60664910D01*
X127206057Y-60835071D01*
X127216076Y-60856556D01*
X127216077Y-60856558D01*
X127337366Y-61029778D01*
X127486887Y-61179299D01*
X127486890Y-61179301D01*
X127660108Y-61300589D01*
X127851756Y-61389956D01*
X128056011Y-61444686D01*
X128206478Y-61457850D01*
X128266664Y-61463116D01*
X128266666Y-61463116D01*
X128266668Y-61463116D01*
X128319329Y-61458508D01*
X128477321Y-61444686D01*
X128681576Y-61389956D01*
X128873224Y-61300589D01*
X129046442Y-61179301D01*
X129195967Y-61029776D01*
X129317255Y-60856558D01*
X129406622Y-60664910D01*
X129461352Y-60460655D01*
X129479782Y-60250000D01*
X129461352Y-60039345D01*
X129406622Y-59835090D01*
X129317255Y-59643442D01*
X129195967Y-59470224D01*
X129195965Y-59470221D01*
X129046444Y-59320700D01*
X128873224Y-59199411D01*
X128873222Y-59199410D01*
X128851737Y-59189391D01*
X128681576Y-59110044D01*
X128681572Y-59110043D01*
X128681568Y-59110041D01*
X128477326Y-59055315D01*
X128477322Y-59055314D01*
X128477321Y-59055314D01*
X128477320Y-59055313D01*
X128477315Y-59055313D01*
X128266668Y-59036884D01*
X128266664Y-59036884D01*
X128056016Y-59055313D01*
X128056005Y-59055315D01*
X127851763Y-59110041D01*
X127851754Y-59110045D01*
X127660109Y-59199410D01*
X127660107Y-59199411D01*
X127486887Y-59320700D01*
X127337366Y-59470221D01*
X127216077Y-59643441D01*
X127216076Y-59643443D01*
X127126711Y-59835088D01*
X127126707Y-59835097D01*
X127071981Y-60039339D01*
X127071979Y-60039350D01*
X127053550Y-60249998D01*
X127053550Y-60250001D01*
X125673559Y-60250001D01*
X128912817Y-57010743D01*
X128925178Y-57000842D01*
X128925004Y-57000632D01*
X128931013Y-56995659D01*
X128931018Y-56995657D01*
X128978983Y-56944578D01*
X129000135Y-56923427D01*
X129004461Y-56917849D01*
X129008250Y-56913412D01*
X129040586Y-56878978D01*
X129050419Y-56861089D01*
X129061102Y-56844826D01*
X129073614Y-56828698D01*
X129092371Y-56785348D01*
X129094941Y-56780104D01*
X129117693Y-56738721D01*
X129117693Y-56738720D01*
X129117695Y-56738717D01*
X129122774Y-56718930D01*
X129129070Y-56700542D01*
X129137181Y-56681802D01*
X129144569Y-56635154D01*
X129145751Y-56629443D01*
X129157500Y-56583687D01*
X129157500Y-56563271D01*
X129159027Y-56543871D01*
X129162220Y-56523714D01*
X129157775Y-56476690D01*
X129157500Y-56470852D01*
X129157500Y-56306945D01*
X129177185Y-56239906D01*
X129216486Y-56201355D01*
X129236539Y-56189008D01*
X129342846Y-56123553D01*
X129518178Y-55969242D01*
X129664908Y-55787519D01*
X129686232Y-55749346D01*
X129736111Y-55700421D01*
X129804524Y-55686228D01*
X129869750Y-55711275D01*
X129897221Y-55740384D01*
X129992597Y-55881497D01*
X129992605Y-55881506D01*
X130154205Y-56050117D01*
X130154212Y-56050123D01*
X130341992Y-56189005D01*
X130341994Y-56189006D01*
X130341997Y-56189008D01*
X130550554Y-56294160D01*
X130773882Y-56362553D01*
X131005556Y-56392220D01*
X131238911Y-56382307D01*
X131467235Y-56333100D01*
X131683958Y-56246013D01*
X131882846Y-56123553D01*
X132058178Y-55969242D01*
X132204908Y-55787519D01*
X132226232Y-55749346D01*
X132276111Y-55700421D01*
X132344524Y-55686228D01*
X132409750Y-55711275D01*
X132437221Y-55740384D01*
X132532597Y-55881497D01*
X132532605Y-55881506D01*
X132694205Y-56050117D01*
X132694212Y-56050123D01*
X132881992Y-56189005D01*
X132881994Y-56189006D01*
X132881997Y-56189008D01*
X133090554Y-56294160D01*
X133313882Y-56362553D01*
X133545556Y-56392220D01*
X133778911Y-56382307D01*
X134007235Y-56333100D01*
X134223958Y-56246013D01*
X134422846Y-56123553D01*
X134598178Y-55969242D01*
X134744908Y-55787519D01*
X134858817Y-55583613D01*
X134936627Y-55363389D01*
X134959049Y-55232626D01*
X134976099Y-55133192D01*
X134976100Y-55133181D01*
X134976100Y-54920005D01*
X138136844Y-54920005D01*
X138155434Y-55144359D01*
X138155436Y-55144371D01*
X138210703Y-55362614D01*
X138301140Y-55568792D01*
X138424276Y-55757265D01*
X138424284Y-55757276D01*
X138576756Y-55922902D01*
X138576761Y-55922907D01*
X138628836Y-55963439D01*
X138754424Y-56061189D01*
X138797693Y-56084605D01*
X138797695Y-56084606D01*
X138847286Y-56133825D01*
X138862394Y-56202042D01*
X138838224Y-56267597D01*
X138809802Y-56295236D01*
X138628922Y-56421890D01*
X138628920Y-56421891D01*
X138461891Y-56588920D01*
X138461886Y-56588926D01*
X138326400Y-56782420D01*
X138326399Y-56782422D01*
X138226570Y-56996507D01*
X138226567Y-56996513D01*
X138169364Y-57209999D01*
X138169364Y-57210000D01*
X138886653Y-57210000D01*
X138953692Y-57229685D01*
X138999447Y-57282489D01*
X139009391Y-57351647D01*
X139005631Y-57368933D01*
X139000000Y-57388111D01*
X139000000Y-57531888D01*
X139005631Y-57551067D01*
X139005630Y-57620936D01*
X138967855Y-57679714D01*
X138904299Y-57708738D01*
X138886653Y-57710000D01*
X138169364Y-57710000D01*
X138226567Y-57923486D01*
X138226570Y-57923492D01*
X138326399Y-58137578D01*
X138461894Y-58331082D01*
X138577727Y-58446915D01*
X138611212Y-58508238D01*
X138606228Y-58577930D01*
X138564356Y-58633863D01*
X138533381Y-58650777D01*
X138403795Y-58699111D01*
X138286739Y-58786739D01*
X138199111Y-58903795D01*
X138148011Y-59040795D01*
X138148011Y-59040797D01*
X138141500Y-59101345D01*
X138141500Y-60898654D01*
X138148011Y-60959202D01*
X138148011Y-60959204D01*
X138174334Y-61029776D01*
X138199111Y-61096204D01*
X138286739Y-61213261D01*
X138403796Y-61300889D01*
X138518949Y-61343839D01*
X138540179Y-61351758D01*
X138540799Y-61351989D01*
X138568050Y-61354918D01*
X138601345Y-61358499D01*
X138601362Y-61358500D01*
X140398638Y-61358500D01*
X140398654Y-61358499D01*
X140425692Y-61355591D01*
X140459201Y-61351989D01*
X140459821Y-61351758D01*
X140473768Y-61346555D01*
X140596204Y-61300889D01*
X140713261Y-61213261D01*
X140800889Y-61096204D01*
X140851989Y-60959201D01*
X140855591Y-60925692D01*
X140858499Y-60898654D01*
X140858500Y-60898637D01*
X140858500Y-59101362D01*
X140858499Y-59101345D01*
X140855157Y-59070270D01*
X140851989Y-59040799D01*
X140800889Y-58903796D01*
X140713261Y-58786739D01*
X140596204Y-58699111D01*
X140596202Y-58699110D01*
X140596204Y-58699110D01*
X140466619Y-58650777D01*
X140410685Y-58608906D01*
X140386269Y-58543441D01*
X140401121Y-58475168D01*
X140422272Y-58446914D01*
X140538108Y-58331078D01*
X140673600Y-58137578D01*
X140773429Y-57923492D01*
X140773432Y-57923486D01*
X140830636Y-57710000D01*
X140113347Y-57710000D01*
X140046308Y-57690315D01*
X140000553Y-57637511D01*
X139990609Y-57568353D01*
X139994369Y-57551067D01*
X140000000Y-57531888D01*
X140000000Y-57388111D01*
X139994369Y-57368933D01*
X139994370Y-57299064D01*
X140032145Y-57240286D01*
X140095701Y-57211262D01*
X140113347Y-57210000D01*
X140830636Y-57210000D01*
X140830635Y-57209999D01*
X140773432Y-56996513D01*
X140773429Y-56996507D01*
X140673600Y-56782422D01*
X140673599Y-56782420D01*
X140538113Y-56588926D01*
X140538108Y-56588920D01*
X140371082Y-56421894D01*
X140190197Y-56295236D01*
X140146572Y-56240659D01*
X140139380Y-56171160D01*
X140170902Y-56108806D01*
X140202300Y-56084608D01*
X140245576Y-56061189D01*
X140423240Y-55922906D01*
X140575722Y-55757268D01*
X140698860Y-55568791D01*
X140789296Y-55362616D01*
X140844564Y-55144368D01*
X140845491Y-55133181D01*
X140863156Y-54920005D01*
X140863156Y-54919994D01*
X140844565Y-54695640D01*
X140844563Y-54695628D01*
X140793122Y-54492492D01*
X140789296Y-54477384D01*
X140698860Y-54271209D01*
X140575722Y-54082732D01*
X140575719Y-54082729D01*
X140575715Y-54082723D01*
X140423243Y-53917097D01*
X140423238Y-53917092D01*
X140294391Y-53816806D01*
X140245576Y-53778811D01*
X140245575Y-53778810D01*
X140245572Y-53778808D01*
X140047580Y-53671661D01*
X140047577Y-53671659D01*
X140047574Y-53671658D01*
X140047571Y-53671657D01*
X140047569Y-53671656D01*
X139834637Y-53598556D01*
X139612569Y-53561500D01*
X139387431Y-53561500D01*
X139165362Y-53598556D01*
X138952430Y-53671656D01*
X138952419Y-53671661D01*
X138754427Y-53778808D01*
X138754422Y-53778812D01*
X138576761Y-53917092D01*
X138576756Y-53917097D01*
X138424284Y-54082723D01*
X138424276Y-54082734D01*
X138301140Y-54271207D01*
X138210703Y-54477385D01*
X138155436Y-54695628D01*
X138155434Y-54695640D01*
X138136844Y-54919994D01*
X138136844Y-54920005D01*
X134976100Y-54920005D01*
X134976100Y-54653308D01*
X134961254Y-54478880D01*
X134960864Y-54477384D01*
X134902400Y-54252846D01*
X134902400Y-54252845D01*
X134806197Y-54040019D01*
X134806192Y-54040011D01*
X134680332Y-53853796D01*
X134675403Y-53846503D01*
X134675401Y-53846501D01*
X134675394Y-53846493D01*
X134513794Y-53677882D01*
X134513787Y-53677876D01*
X134326007Y-53538994D01*
X134212936Y-53481985D01*
X134117446Y-53433840D01*
X133894118Y-53365447D01*
X133894116Y-53365446D01*
X133894114Y-53365446D01*
X133662438Y-53335779D01*
X133429092Y-53345692D01*
X133429088Y-53345692D01*
X133200763Y-53394900D01*
X133200760Y-53394901D01*
X132984045Y-53481985D01*
X132785154Y-53604447D01*
X132785149Y-53604451D01*
X132609822Y-53758757D01*
X132463091Y-53940481D01*
X132463089Y-53940484D01*
X132441765Y-53978655D01*
X132391885Y-54027580D01*
X132323471Y-54041771D01*
X132258246Y-54016722D01*
X132230778Y-53987615D01*
X132214582Y-53963653D01*
X132135403Y-53846503D01*
X132135401Y-53846501D01*
X132135394Y-53846493D01*
X131973794Y-53677882D01*
X131973787Y-53677876D01*
X131786007Y-53538994D01*
X131672936Y-53481985D01*
X131577446Y-53433840D01*
X131354118Y-53365447D01*
X131354116Y-53365446D01*
X131354114Y-53365446D01*
X131122438Y-53335779D01*
X130889092Y-53345692D01*
X130889088Y-53345692D01*
X130660763Y-53394900D01*
X130660760Y-53394901D01*
X130444045Y-53481985D01*
X130245154Y-53604447D01*
X130245149Y-53604451D01*
X130069822Y-53758757D01*
X129923091Y-53940481D01*
X129923089Y-53940484D01*
X129901765Y-53978655D01*
X129851885Y-54027580D01*
X129783471Y-54041771D01*
X129718246Y-54016722D01*
X129690778Y-53987615D01*
X129674582Y-53963653D01*
X129595403Y-53846503D01*
X129595401Y-53846501D01*
X129595394Y-53846493D01*
X129433794Y-53677882D01*
X129433787Y-53677876D01*
X129246007Y-53538994D01*
X129132936Y-53481985D01*
X129037446Y-53433840D01*
X128814118Y-53365447D01*
X128814116Y-53365446D01*
X128814114Y-53365446D01*
X128582438Y-53335779D01*
X128349092Y-53345692D01*
X128349088Y-53345692D01*
X128120763Y-53394900D01*
X128120760Y-53394901D01*
X127904045Y-53481985D01*
X127705154Y-53604447D01*
X127705149Y-53604450D01*
X127534911Y-53754278D01*
X127471581Y-53783792D01*
X127402348Y-53774382D01*
X127349193Y-53729036D01*
X127336807Y-53704528D01*
X127298489Y-53601796D01*
X127290781Y-53591500D01*
X127210861Y-53484739D01*
X127093804Y-53397111D01*
X127087876Y-53394900D01*
X126956803Y-53346011D01*
X126896254Y-53339500D01*
X126896238Y-53339500D01*
X125071762Y-53339500D01*
X125071745Y-53339500D01*
X125011197Y-53346011D01*
X125011195Y-53346011D01*
X124874195Y-53397111D01*
X124757139Y-53484739D01*
X124669511Y-53601795D01*
X124618411Y-53738795D01*
X124618411Y-53738797D01*
X124611900Y-53799345D01*
X124611900Y-55928654D01*
X124618411Y-55989202D01*
X124618411Y-55989204D01*
X124663022Y-56108806D01*
X124669511Y-56126204D01*
X124757139Y-56243261D01*
X124874196Y-56330889D01*
X125011199Y-56381989D01*
X125038450Y-56384918D01*
X125071745Y-56388499D01*
X125071762Y-56388500D01*
X126896238Y-56388500D01*
X126896254Y-56388499D01*
X126923292Y-56385591D01*
X126956801Y-56381989D01*
X127093804Y-56330889D01*
X127210861Y-56243261D01*
X127298489Y-56126204D01*
X127322739Y-56061189D01*
X127338336Y-56019373D01*
X127380207Y-55963439D01*
X127445672Y-55939023D01*
X127513945Y-55953875D01*
X127544039Y-55976906D01*
X127604335Y-56039818D01*
X127614211Y-56050122D01*
X127767176Y-56163254D01*
X127809369Y-56218944D01*
X127814757Y-56288605D01*
X127781627Y-56350121D01*
X127781121Y-56350630D01*
X124442315Y-59689436D01*
X124380992Y-59722921D01*
X124311300Y-59717937D01*
X124255367Y-59676065D01*
X124242254Y-59654163D01*
X124237255Y-59643442D01*
X124115967Y-59470224D01*
X124115965Y-59470221D01*
X123966444Y-59320700D01*
X123793224Y-59199411D01*
X123793222Y-59199410D01*
X123771737Y-59189391D01*
X123601576Y-59110044D01*
X123601572Y-59110043D01*
X123601568Y-59110041D01*
X123397326Y-59055315D01*
X123397322Y-59055314D01*
X123397321Y-59055314D01*
X123397320Y-59055313D01*
X123397315Y-59055313D01*
X123186668Y-59036884D01*
X123186664Y-59036884D01*
X122976016Y-59055313D01*
X122976005Y-59055315D01*
X122771763Y-59110041D01*
X122771754Y-59110045D01*
X122580109Y-59199410D01*
X122580107Y-59199411D01*
X122406887Y-59320700D01*
X122257366Y-59470221D01*
X122136077Y-59643441D01*
X122136076Y-59643443D01*
X122046711Y-59835088D01*
X122046707Y-59835097D01*
X121991981Y-60039339D01*
X121991979Y-60039350D01*
X121973550Y-60249998D01*
X121973550Y-60250001D01*
X121991979Y-60460649D01*
X121991981Y-60460660D01*
X122046707Y-60664902D01*
X122046709Y-60664906D01*
X122046710Y-60664910D01*
X122126057Y-60835071D01*
X122136076Y-60856556D01*
X122136077Y-60856558D01*
X122257366Y-61029778D01*
X122406887Y-61179299D01*
X122406890Y-61179301D01*
X122580108Y-61300589D01*
X122590826Y-61305587D01*
X122643264Y-61351758D01*
X122662416Y-61418951D01*
X122642201Y-61485832D01*
X122626101Y-61505649D01*
X121006366Y-63125384D01*
X120950780Y-63157477D01*
X120770754Y-63205716D01*
X120563254Y-63302475D01*
X120563252Y-63302476D01*
X120563249Y-63302477D01*
X120563251Y-63302477D01*
X120375700Y-63433802D01*
X120375698Y-63433803D01*
X120375695Y-63433806D01*
X120213806Y-63595695D01*
X120213803Y-63595698D01*
X120213802Y-63595700D01*
X120188501Y-63631834D01*
X120082476Y-63783251D01*
X120062382Y-63826345D01*
X120016209Y-63878784D01*
X119949016Y-63897936D01*
X119882135Y-63877720D01*
X119837618Y-63826345D01*
X119817523Y-63783251D01*
X119787746Y-63740725D01*
X119686198Y-63595700D01*
X119524300Y-63433802D01*
X119336749Y-63302477D01*
X119336745Y-63302475D01*
X119129249Y-63205718D01*
X119129238Y-63205714D01*
X118908089Y-63146457D01*
X118908081Y-63146456D01*
X118680002Y-63126502D01*
X118679998Y-63126502D01*
X118451918Y-63146456D01*
X118451910Y-63146457D01*
X118230761Y-63205714D01*
X118230750Y-63205718D01*
X118023254Y-63302475D01*
X118023252Y-63302476D01*
X118023249Y-63302477D01*
X118023251Y-63302477D01*
X117835700Y-63433802D01*
X117835698Y-63433803D01*
X117835695Y-63433806D01*
X117673806Y-63595695D01*
X117673803Y-63595698D01*
X117673802Y-63595700D01*
X117648501Y-63631834D01*
X117542476Y-63783251D01*
X117522382Y-63826345D01*
X117476209Y-63878784D01*
X117409016Y-63897936D01*
X117342135Y-63877720D01*
X117297618Y-63826345D01*
X117277523Y-63783251D01*
X117247746Y-63740725D01*
X117146198Y-63595700D01*
X116984300Y-63433802D01*
X116796749Y-63302477D01*
X116796745Y-63302475D01*
X116589249Y-63205718D01*
X116589238Y-63205714D01*
X116368089Y-63146457D01*
X116368081Y-63146456D01*
X116140002Y-63126502D01*
X116139998Y-63126502D01*
X115911918Y-63146456D01*
X115911910Y-63146457D01*
X115690761Y-63205714D01*
X115690750Y-63205718D01*
X115483254Y-63302475D01*
X115483252Y-63302476D01*
X115483249Y-63302477D01*
X115483251Y-63302477D01*
X115295700Y-63433802D01*
X115295698Y-63433803D01*
X115295695Y-63433806D01*
X115133806Y-63595695D01*
X115133803Y-63595698D01*
X115133802Y-63595700D01*
X115108501Y-63631834D01*
X115002476Y-63783252D01*
X115002474Y-63783256D01*
X114977691Y-63836402D01*
X114931518Y-63888841D01*
X114864324Y-63907992D01*
X114797444Y-63887775D01*
X114752927Y-63836399D01*
X114730133Y-63787517D01*
X114599657Y-63601179D01*
X114438820Y-63440342D01*
X114252482Y-63309865D01*
X114046328Y-63213734D01*
X113850000Y-63161127D01*
X113850000Y-64027698D01*
X113830315Y-64094737D01*
X113777511Y-64140492D01*
X113708355Y-64150436D01*
X113635766Y-64140000D01*
X113635763Y-64140000D01*
X113564237Y-64140000D01*
X113564233Y-64140000D01*
X113491645Y-64150436D01*
X113422487Y-64140492D01*
X113369684Y-64094736D01*
X113350000Y-64027698D01*
X113349999Y-63161127D01*
X113153671Y-63213734D01*
X112947517Y-63309865D01*
X112761179Y-63440342D01*
X112600342Y-63601179D01*
X112469865Y-63787517D01*
X112373734Y-63993673D01*
X112373730Y-63993682D01*
X112314860Y-64213389D01*
X112314858Y-64213400D01*
X112300000Y-64383237D01*
X112300000Y-64390000D01*
X112986653Y-64390000D01*
X113053692Y-64409685D01*
X113099447Y-64462489D01*
X113109391Y-64531647D01*
X113105631Y-64548933D01*
X113100000Y-64568111D01*
X113100000Y-64711888D01*
X113105631Y-64731067D01*
X113105630Y-64800936D01*
X113067855Y-64859714D01*
X113004299Y-64888738D01*
X112986653Y-64890000D01*
X112300000Y-64890000D01*
X112300000Y-64896763D01*
X112314858Y-65066599D01*
X112314860Y-65066610D01*
X112373730Y-65286317D01*
X112373734Y-65286326D01*
X112469865Y-65492482D01*
X112600342Y-65678820D01*
X112761179Y-65839657D01*
X112947517Y-65970134D01*
X113153673Y-66066265D01*
X113153682Y-66066269D01*
X113349999Y-66118872D01*
X113350000Y-66118871D01*
X113350000Y-65252301D01*
X113369685Y-65185262D01*
X113422489Y-65139507D01*
X113491647Y-65129563D01*
X113564237Y-65140000D01*
X113564238Y-65140000D01*
X113635762Y-65140000D01*
X113635763Y-65140000D01*
X113708353Y-65129563D01*
X113777512Y-65139507D01*
X113830315Y-65185262D01*
X113850000Y-65252301D01*
X113849999Y-66118871D01*
X113850000Y-66118872D01*
X114046317Y-66066269D01*
X114046326Y-66066265D01*
X114252482Y-65970134D01*
X114438820Y-65839657D01*
X114599657Y-65678820D01*
X114730133Y-65492483D01*
X114752927Y-65443600D01*
X114799098Y-65391160D01*
X114866292Y-65372007D01*
X114933173Y-65392221D01*
X114977691Y-65443596D01*
X115002477Y-65496749D01*
X115133802Y-65684300D01*
X115295700Y-65846198D01*
X115483251Y-65977523D01*
X115538445Y-66003260D01*
X115690750Y-66074281D01*
X115690752Y-66074281D01*
X115690757Y-66074284D01*
X115911913Y-66133543D01*
X116074832Y-66147796D01*
X116139998Y-66153498D01*
X116140000Y-66153498D01*
X116140002Y-66153498D01*
X116197139Y-66148499D01*
X116368087Y-66133543D01*
X116589243Y-66074284D01*
X116796749Y-65977523D01*
X116984300Y-65846198D01*
X117146198Y-65684300D01*
X117277523Y-65496749D01*
X117297617Y-65453655D01*
X117343790Y-65401215D01*
X117410983Y-65382063D01*
X117477864Y-65402278D01*
X117522382Y-65453655D01*
X117542477Y-65496749D01*
X117673802Y-65684300D01*
X117835700Y-65846198D01*
X118023251Y-65977523D01*
X118078445Y-66003260D01*
X118230750Y-66074281D01*
X118230752Y-66074281D01*
X118230757Y-66074284D01*
X118451913Y-66133543D01*
X118614832Y-66147796D01*
X118679998Y-66153498D01*
X118680000Y-66153498D01*
X118680002Y-66153498D01*
X118737139Y-66148499D01*
X118908087Y-66133543D01*
X119129243Y-66074284D01*
X119336749Y-65977523D01*
X119524300Y-65846198D01*
X119686198Y-65684300D01*
X119817523Y-65496749D01*
X119837617Y-65453655D01*
X119883790Y-65401215D01*
X119950983Y-65382063D01*
X120017864Y-65402278D01*
X120062382Y-65453655D01*
X120082477Y-65496749D01*
X120213802Y-65684300D01*
X120375700Y-65846198D01*
X120563251Y-65977523D01*
X120618445Y-66003260D01*
X120770750Y-66074281D01*
X120770752Y-66074281D01*
X120770757Y-66074284D01*
X120991913Y-66133543D01*
X121154832Y-66147796D01*
X121219998Y-66153498D01*
X121220000Y-66153498D01*
X121220002Y-66153498D01*
X121277139Y-66148499D01*
X121448087Y-66133543D01*
X121669243Y-66074284D01*
X121876749Y-65977523D01*
X122064300Y-65846198D01*
X122226198Y-65684300D01*
X122357523Y-65496749D01*
X122377617Y-65453655D01*
X122423790Y-65401215D01*
X122490983Y-65382063D01*
X122557864Y-65402278D01*
X122602382Y-65453655D01*
X122622477Y-65496749D01*
X122753802Y-65684300D01*
X122915700Y-65846198D01*
X123103251Y-65977523D01*
X123158445Y-66003260D01*
X123310750Y-66074281D01*
X123310752Y-66074281D01*
X123310757Y-66074284D01*
X123531913Y-66133543D01*
X123694832Y-66147796D01*
X123759998Y-66153498D01*
X123760000Y-66153498D01*
X123760002Y-66153498D01*
X123817139Y-66148499D01*
X123988087Y-66133543D01*
X124209243Y-66074284D01*
X124416749Y-65977523D01*
X124604300Y-65846198D01*
X124766198Y-65684300D01*
X124897523Y-65496749D01*
X124917617Y-65453655D01*
X124963790Y-65401215D01*
X125030983Y-65382063D01*
X125097864Y-65402278D01*
X125142382Y-65453655D01*
X125162477Y-65496749D01*
X125293802Y-65684300D01*
X125455700Y-65846198D01*
X125643251Y-65977523D01*
X125698445Y-66003260D01*
X125850750Y-66074281D01*
X125850752Y-66074281D01*
X125850757Y-66074284D01*
X126071913Y-66133543D01*
X126234832Y-66147796D01*
X126299998Y-66153498D01*
X126300000Y-66153498D01*
X126300002Y-66153498D01*
X126357139Y-66148499D01*
X126528087Y-66133543D01*
X126735411Y-66077990D01*
X126805255Y-66079653D01*
X126863118Y-66118815D01*
X126890623Y-66183043D01*
X126891500Y-66197765D01*
X126891499Y-73261232D01*
X126871814Y-73328271D01*
X126855180Y-73348913D01*
X114170164Y-86033929D01*
X114108841Y-86067414D01*
X114050389Y-86066023D01*
X113828089Y-86006457D01*
X113828081Y-86006456D01*
X113600002Y-85986502D01*
X113599998Y-85986502D01*
X113371918Y-86006456D01*
X113371910Y-86006457D01*
X113150761Y-86065714D01*
X113150750Y-86065718D01*
X112943254Y-86162475D01*
X112943252Y-86162476D01*
X112943249Y-86162477D01*
X112943251Y-86162477D01*
X112755700Y-86293802D01*
X112755698Y-86293803D01*
X112755695Y-86293806D01*
X112593806Y-86455695D01*
X112462476Y-86643252D01*
X112462475Y-86643254D01*
X112365718Y-86850750D01*
X112365714Y-86850761D01*
X112306457Y-87071910D01*
X112306456Y-87071918D01*
X112291500Y-87242873D01*
X112291500Y-87757127D01*
X112306456Y-87928081D01*
X112306457Y-87928089D01*
X112365714Y-88149238D01*
X112365718Y-88149249D01*
X112442381Y-88313653D01*
X112462477Y-88356749D01*
X112593802Y-88544300D01*
X112755700Y-88706198D01*
X112943251Y-88837523D01*
X113040988Y-88883098D01*
X113150750Y-88934281D01*
X113150752Y-88934281D01*
X113150757Y-88934284D01*
X113371913Y-88993543D01*
X113534832Y-89007796D01*
X113599998Y-89013498D01*
X113600000Y-89013498D01*
X113600002Y-89013498D01*
X113657021Y-89008509D01*
X113828087Y-88993543D01*
X114049243Y-88934284D01*
X114256749Y-88837523D01*
X114444300Y-88706198D01*
X114606198Y-88544300D01*
X114737523Y-88356749D01*
X114757617Y-88313655D01*
X114803790Y-88261215D01*
X114870983Y-88242063D01*
X114937864Y-88262278D01*
X114982382Y-88313655D01*
X115002477Y-88356749D01*
X115133802Y-88544300D01*
X115295700Y-88706198D01*
X115483251Y-88837523D01*
X115580988Y-88883098D01*
X115690750Y-88934281D01*
X115690752Y-88934281D01*
X115690757Y-88934284D01*
X115911913Y-88993543D01*
X116074832Y-89007796D01*
X116139998Y-89013498D01*
X116140000Y-89013498D01*
X116140002Y-89013498D01*
X116197021Y-89008509D01*
X116368087Y-88993543D01*
X116589243Y-88934284D01*
X116796749Y-88837523D01*
X116984300Y-88706198D01*
X117146198Y-88544300D01*
X117277523Y-88356749D01*
X117297617Y-88313655D01*
X117343790Y-88261215D01*
X117410983Y-88242063D01*
X117477864Y-88262278D01*
X117522382Y-88313655D01*
X117542477Y-88356749D01*
X117673802Y-88544300D01*
X117673805Y-88544304D01*
X117673806Y-88544304D01*
X117835699Y-88706197D01*
X117993623Y-88816778D01*
X118037248Y-88871355D01*
X118046499Y-88918352D01*
X118046500Y-92996366D01*
X118044761Y-93012113D01*
X118045032Y-93012139D01*
X118044298Y-93019905D01*
X118046500Y-93089957D01*
X118046500Y-93119859D01*
X118047384Y-93126856D01*
X118047842Y-93132679D01*
X118049326Y-93179889D01*
X118049327Y-93179891D01*
X118055022Y-93199495D01*
X118058967Y-93218542D01*
X118061526Y-93238797D01*
X118061527Y-93238800D01*
X118061528Y-93238803D01*
X118078914Y-93282716D01*
X118080806Y-93288244D01*
X118093981Y-93333592D01*
X118104372Y-93351162D01*
X118112932Y-93368635D01*
X118120447Y-93387617D01*
X118148209Y-93425827D01*
X118151416Y-93430710D01*
X118175458Y-93471362D01*
X118175462Y-93471366D01*
X118189889Y-93485793D01*
X118202526Y-93500588D01*
X118213453Y-93515628D01*
X118214528Y-93517107D01*
X118214530Y-93517109D01*
X118223948Y-93524900D01*
X118250931Y-93547222D01*
X118255231Y-93551135D01*
X119114498Y-94410402D01*
X119957910Y-95253814D01*
X119967816Y-95266178D01*
X119968026Y-95266005D01*
X119973001Y-95272019D01*
X119998113Y-95295601D01*
X120033507Y-95355843D01*
X120030713Y-95425656D01*
X120017037Y-95453813D01*
X119901139Y-95631208D01*
X119810703Y-95837385D01*
X119755436Y-96055628D01*
X119755434Y-96055640D01*
X119736844Y-96279994D01*
X119736844Y-96280005D01*
X119755434Y-96504359D01*
X119755436Y-96504371D01*
X119810703Y-96722614D01*
X119810705Y-96722618D01*
X119883111Y-96887691D01*
X119892014Y-96956991D01*
X119862036Y-97020103D01*
X119802697Y-97056989D01*
X119769555Y-97061500D01*
X117530445Y-97061500D01*
X117463406Y-97041815D01*
X117417651Y-96989011D01*
X117407707Y-96919853D01*
X117416889Y-96887691D01*
X117454694Y-96801502D01*
X117489296Y-96722616D01*
X117544564Y-96504368D01*
X117544565Y-96504359D01*
X117563156Y-96280005D01*
X117563156Y-96279994D01*
X117544565Y-96055640D01*
X117544563Y-96055628D01*
X117515975Y-95942738D01*
X117489296Y-95837384D01*
X117398860Y-95631209D01*
X117394830Y-95625041D01*
X117323128Y-95515293D01*
X117275722Y-95442732D01*
X117275719Y-95442729D01*
X117275715Y-95442723D01*
X117123243Y-95277097D01*
X117123238Y-95277092D01*
X116945577Y-95138812D01*
X116945578Y-95138812D01*
X116945576Y-95138811D01*
X116909070Y-95119055D01*
X116859479Y-95069836D01*
X116844371Y-95001619D01*
X116868541Y-94936064D01*
X116909070Y-94900945D01*
X116909084Y-94900936D01*
X116945576Y-94881189D01*
X117123240Y-94742906D01*
X117222614Y-94634957D01*
X117275715Y-94577276D01*
X117275716Y-94577274D01*
X117275722Y-94577268D01*
X117398860Y-94388791D01*
X117489296Y-94182616D01*
X117544564Y-93964368D01*
X117550386Y-93894106D01*
X117563156Y-93740005D01*
X117563156Y-93739994D01*
X117544565Y-93515640D01*
X117544563Y-93515628D01*
X117533353Y-93471362D01*
X117489296Y-93297384D01*
X117398860Y-93091209D01*
X117398857Y-93091205D01*
X117336896Y-92996366D01*
X117275722Y-92902732D01*
X117275719Y-92902729D01*
X117275715Y-92902723D01*
X117123243Y-92737097D01*
X117123238Y-92737092D01*
X116945577Y-92598812D01*
X116945578Y-92598812D01*
X116945576Y-92598811D01*
X116909070Y-92579055D01*
X116859479Y-92529836D01*
X116844371Y-92461619D01*
X116868541Y-92396064D01*
X116909070Y-92360945D01*
X116909084Y-92360936D01*
X116945576Y-92341189D01*
X117123240Y-92202906D01*
X117275722Y-92037268D01*
X117398860Y-91848791D01*
X117489296Y-91642616D01*
X117544564Y-91424368D01*
X117544565Y-91424359D01*
X117563156Y-91200005D01*
X117563156Y-91199994D01*
X117544565Y-90975640D01*
X117544563Y-90975628D01*
X117498857Y-90795140D01*
X117489296Y-90757384D01*
X117398860Y-90551209D01*
X117378752Y-90520432D01*
X117308682Y-90413181D01*
X117275722Y-90362732D01*
X117275719Y-90362729D01*
X117275715Y-90362723D01*
X117123243Y-90197097D01*
X117123238Y-90197092D01*
X116945577Y-90058812D01*
X116945572Y-90058808D01*
X116747580Y-89951661D01*
X116747577Y-89951659D01*
X116747574Y-89951658D01*
X116747571Y-89951657D01*
X116747569Y-89951656D01*
X116534637Y-89878556D01*
X116312569Y-89841500D01*
X116087431Y-89841500D01*
X115865362Y-89878556D01*
X115652430Y-89951656D01*
X115652419Y-89951661D01*
X115454427Y-90058808D01*
X115454422Y-90058812D01*
X115276761Y-90197092D01*
X115276756Y-90197097D01*
X115124284Y-90362723D01*
X115124276Y-90362734D01*
X115001140Y-90551207D01*
X114910703Y-90757385D01*
X114855436Y-90975628D01*
X114855434Y-90975640D01*
X114836844Y-91199994D01*
X114836844Y-91200005D01*
X114855434Y-91424359D01*
X114855436Y-91424371D01*
X114910703Y-91642614D01*
X115001140Y-91848792D01*
X115124276Y-92037265D01*
X115124284Y-92037276D01*
X115236489Y-92159161D01*
X115276760Y-92202906D01*
X115454424Y-92341189D01*
X115454429Y-92341191D01*
X115454431Y-92341193D01*
X115490930Y-92360946D01*
X115540520Y-92410165D01*
X115555628Y-92478382D01*
X115531457Y-92543937D01*
X115490930Y-92579054D01*
X115454431Y-92598806D01*
X115454422Y-92598812D01*
X115276761Y-92737092D01*
X115276756Y-92737097D01*
X115124284Y-92902723D01*
X115124276Y-92902734D01*
X115001140Y-93091207D01*
X114910703Y-93297385D01*
X114855436Y-93515628D01*
X114855434Y-93515640D01*
X114836844Y-93739994D01*
X114836844Y-93740005D01*
X114855434Y-93964359D01*
X114855436Y-93964371D01*
X114910703Y-94182614D01*
X115001140Y-94388792D01*
X115124276Y-94577265D01*
X115124284Y-94577276D01*
X115276756Y-94742902D01*
X115276761Y-94742907D01*
X115306431Y-94766000D01*
X115454424Y-94881189D01*
X115454429Y-94881191D01*
X115454431Y-94881193D01*
X115490930Y-94900946D01*
X115540520Y-94950165D01*
X115555628Y-95018382D01*
X115531457Y-95083937D01*
X115490930Y-95119054D01*
X115454431Y-95138806D01*
X115454422Y-95138812D01*
X115276761Y-95277092D01*
X115276756Y-95277097D01*
X115124284Y-95442723D01*
X115124276Y-95442734D01*
X115001140Y-95631207D01*
X114910703Y-95837385D01*
X114855436Y-96055628D01*
X114855434Y-96055640D01*
X114836844Y-96279994D01*
X114836844Y-96280005D01*
X114855434Y-96504359D01*
X114855436Y-96504371D01*
X114910703Y-96722614D01*
X114910705Y-96722618D01*
X114983111Y-96887691D01*
X114992014Y-96956991D01*
X114962036Y-97020103D01*
X114902697Y-97056989D01*
X114869555Y-97061500D01*
X111008766Y-97061500D01*
X110941727Y-97041815D01*
X110921085Y-97025181D01*
X109414818Y-95518914D01*
X109381333Y-95457591D01*
X109378499Y-95431233D01*
X109378499Y-94329462D01*
X109378498Y-94329446D01*
X109376292Y-94307849D01*
X109367887Y-94225574D01*
X109312115Y-94057262D01*
X109219030Y-93906348D01*
X109093652Y-93780970D01*
X109093648Y-93780967D01*
X108940726Y-93686643D01*
X108894001Y-93634695D01*
X108882780Y-93565733D01*
X108910623Y-93501651D01*
X108929662Y-93483250D01*
X108936832Y-93477671D01*
X109091558Y-93309594D01*
X109216509Y-93118342D01*
X109308277Y-92909132D01*
X109364359Y-92687671D01*
X109371722Y-92598811D01*
X109383224Y-92460006D01*
X109383224Y-92459993D01*
X109364360Y-92232336D01*
X109364358Y-92232325D01*
X109308277Y-92010867D01*
X109216509Y-91801658D01*
X109091560Y-91610408D01*
X109012954Y-91525019D01*
X108936832Y-91442329D01*
X108936831Y-91442328D01*
X108936829Y-91442326D01*
X108936825Y-91442323D01*
X108835932Y-91363795D01*
X108756552Y-91302011D01*
X108756551Y-91302010D01*
X108555636Y-91193280D01*
X108555630Y-91193278D01*
X108339563Y-91119102D01*
X108149630Y-91087408D01*
X108114226Y-91081500D01*
X107885774Y-91081500D01*
X107850370Y-91087408D01*
X107660436Y-91119102D01*
X107444369Y-91193278D01*
X107444363Y-91193280D01*
X107243448Y-91302010D01*
X107243444Y-91302014D01*
X107063174Y-91442323D01*
X107063170Y-91442326D01*
X106908439Y-91610408D01*
X106783490Y-91801658D01*
X106691722Y-92010867D01*
X106635641Y-92232325D01*
X106635639Y-92232336D01*
X106616776Y-92459993D01*
X106616776Y-92460006D01*
X105150000Y-92460006D01*
X105150000Y-60598966D01*
X105169685Y-60531927D01*
X105222489Y-60486172D01*
X105291647Y-60476228D01*
X105355203Y-60505253D01*
X105392977Y-60564031D01*
X105393775Y-60566873D01*
X105420041Y-60664902D01*
X105420043Y-60664906D01*
X105420044Y-60664910D01*
X105499391Y-60835071D01*
X105509410Y-60856556D01*
X105509411Y-60856558D01*
X105630700Y-61029778D01*
X105780221Y-61179299D01*
X105780224Y-61179301D01*
X105953442Y-61300589D01*
X106145090Y-61389956D01*
X106349345Y-61444686D01*
X106499812Y-61457850D01*
X106559998Y-61463116D01*
X106560000Y-61463116D01*
X106560002Y-61463116D01*
X106612663Y-61458508D01*
X106770655Y-61444686D01*
X106974910Y-61389956D01*
X107166558Y-61300589D01*
X107339776Y-61179301D01*
X107489301Y-61029776D01*
X107610589Y-60856558D01*
X107699956Y-60664910D01*
X107754686Y-60460655D01*
X107773116Y-60250001D01*
X110426884Y-60250001D01*
X110445313Y-60460649D01*
X110445315Y-60460660D01*
X110500041Y-60664902D01*
X110500043Y-60664906D01*
X110500044Y-60664910D01*
X110579391Y-60835071D01*
X110589410Y-60856556D01*
X110589411Y-60856558D01*
X110710700Y-61029778D01*
X110860221Y-61179299D01*
X110860224Y-61179301D01*
X111033442Y-61300589D01*
X111225090Y-61389956D01*
X111429345Y-61444686D01*
X111579812Y-61457850D01*
X111639998Y-61463116D01*
X111640000Y-61463116D01*
X111640002Y-61463116D01*
X111692663Y-61458508D01*
X111850655Y-61444686D01*
X112054910Y-61389956D01*
X112246558Y-61300589D01*
X112419776Y-61179301D01*
X112569301Y-61029776D01*
X112690589Y-60856558D01*
X112779956Y-60664910D01*
X112834686Y-60460655D01*
X112853116Y-60250001D01*
X113660217Y-60250001D01*
X113678646Y-60460649D01*
X113678648Y-60460660D01*
X113733374Y-60664902D01*
X113733376Y-60664906D01*
X113733377Y-60664910D01*
X113812724Y-60835071D01*
X113822743Y-60856556D01*
X113822744Y-60856558D01*
X113944033Y-61029778D01*
X114093554Y-61179299D01*
X114093557Y-61179301D01*
X114266775Y-61300589D01*
X114458423Y-61389956D01*
X114662678Y-61444686D01*
X114813145Y-61457850D01*
X114873331Y-61463116D01*
X114873333Y-61463116D01*
X114873335Y-61463116D01*
X114925996Y-61458508D01*
X115083988Y-61444686D01*
X115288243Y-61389956D01*
X115479891Y-61300589D01*
X115653109Y-61179301D01*
X115802634Y-61029776D01*
X115923922Y-60856558D01*
X116013289Y-60664910D01*
X116068019Y-60460655D01*
X116086449Y-60250001D01*
X118740217Y-60250001D01*
X118758646Y-60460649D01*
X118758648Y-60460660D01*
X118813374Y-60664902D01*
X118813376Y-60664906D01*
X118813377Y-60664910D01*
X118892724Y-60835071D01*
X118902743Y-60856556D01*
X118902744Y-60856558D01*
X119024033Y-61029778D01*
X119173554Y-61179299D01*
X119173557Y-61179301D01*
X119346775Y-61300589D01*
X119538423Y-61389956D01*
X119742678Y-61444686D01*
X119893145Y-61457850D01*
X119953331Y-61463116D01*
X119953333Y-61463116D01*
X119953335Y-61463116D01*
X120005996Y-61458508D01*
X120163988Y-61444686D01*
X120368243Y-61389956D01*
X120559891Y-61300589D01*
X120733109Y-61179301D01*
X120882634Y-61029776D01*
X121003922Y-60856558D01*
X121093289Y-60664910D01*
X121148019Y-60460655D01*
X121166449Y-60250000D01*
X121148019Y-60039345D01*
X121093289Y-59835090D01*
X121003922Y-59643442D01*
X120882634Y-59470224D01*
X120882632Y-59470221D01*
X120733111Y-59320700D01*
X120559891Y-59199411D01*
X120559889Y-59199410D01*
X120538404Y-59189391D01*
X120368243Y-59110044D01*
X120368239Y-59110043D01*
X120368235Y-59110041D01*
X120163993Y-59055315D01*
X120163989Y-59055314D01*
X120163988Y-59055314D01*
X120163987Y-59055313D01*
X120163982Y-59055313D01*
X119953335Y-59036884D01*
X119953331Y-59036884D01*
X119742683Y-59055313D01*
X119742672Y-59055315D01*
X119538430Y-59110041D01*
X119538421Y-59110045D01*
X119346776Y-59199410D01*
X119346774Y-59199411D01*
X119173554Y-59320700D01*
X119024033Y-59470221D01*
X118902744Y-59643441D01*
X118902743Y-59643443D01*
X118813378Y-59835088D01*
X118813374Y-59835097D01*
X118758648Y-60039339D01*
X118758646Y-60039350D01*
X118740217Y-60249998D01*
X118740217Y-60250001D01*
X116086449Y-60250001D01*
X116086449Y-60250000D01*
X116068019Y-60039345D01*
X116013289Y-59835090D01*
X115923922Y-59643442D01*
X115802634Y-59470224D01*
X115802632Y-59470221D01*
X115653111Y-59320700D01*
X115479891Y-59199411D01*
X115479889Y-59199410D01*
X115458404Y-59189391D01*
X115288243Y-59110044D01*
X115288239Y-59110043D01*
X115288235Y-59110041D01*
X115083993Y-59055315D01*
X115083989Y-59055314D01*
X115083988Y-59055314D01*
X115083987Y-59055313D01*
X115083982Y-59055313D01*
X114873335Y-59036884D01*
X114873331Y-59036884D01*
X114662683Y-59055313D01*
X114662672Y-59055315D01*
X114458430Y-59110041D01*
X114458421Y-59110045D01*
X114266776Y-59199410D01*
X114266774Y-59199411D01*
X114093554Y-59320700D01*
X113944033Y-59470221D01*
X113822744Y-59643441D01*
X113822743Y-59643443D01*
X113733378Y-59835088D01*
X113733374Y-59835097D01*
X113678648Y-60039339D01*
X113678646Y-60039350D01*
X113660217Y-60249998D01*
X113660217Y-60250001D01*
X112853116Y-60250001D01*
X112853116Y-60250000D01*
X112834686Y-60039345D01*
X112779956Y-59835090D01*
X112690589Y-59643442D01*
X112569301Y-59470224D01*
X112569299Y-59470221D01*
X112419778Y-59320700D01*
X112246558Y-59199411D01*
X112246556Y-59199410D01*
X112225071Y-59189391D01*
X112054910Y-59110044D01*
X112054906Y-59110043D01*
X112054902Y-59110041D01*
X111850660Y-59055315D01*
X111850656Y-59055314D01*
X111850655Y-59055314D01*
X111850654Y-59055313D01*
X111850649Y-59055313D01*
X111640002Y-59036884D01*
X111639998Y-59036884D01*
X111429350Y-59055313D01*
X111429339Y-59055315D01*
X111225097Y-59110041D01*
X111225088Y-59110045D01*
X111033443Y-59199410D01*
X111033441Y-59199411D01*
X110860221Y-59320700D01*
X110710700Y-59470221D01*
X110589411Y-59643441D01*
X110589410Y-59643443D01*
X110500045Y-59835088D01*
X110500041Y-59835097D01*
X110445315Y-60039339D01*
X110445313Y-60039350D01*
X110426884Y-60249998D01*
X110426884Y-60250001D01*
X107773116Y-60250001D01*
X107773116Y-60250000D01*
X107754686Y-60039345D01*
X107699956Y-59835090D01*
X107610589Y-59643442D01*
X107489301Y-59470224D01*
X107489299Y-59470221D01*
X107339778Y-59320700D01*
X107166558Y-59199411D01*
X107166556Y-59199410D01*
X107145071Y-59189391D01*
X106974910Y-59110044D01*
X106974906Y-59110043D01*
X106974902Y-59110041D01*
X106770660Y-59055315D01*
X106770656Y-59055314D01*
X106770655Y-59055314D01*
X106770654Y-59055313D01*
X106770649Y-59055313D01*
X106560002Y-59036884D01*
X106559998Y-59036884D01*
X106349350Y-59055313D01*
X106349339Y-59055315D01*
X106145097Y-59110041D01*
X106145088Y-59110045D01*
X105953443Y-59199410D01*
X105953441Y-59199411D01*
X105780221Y-59320700D01*
X105630700Y-59470221D01*
X105509411Y-59643441D01*
X105509410Y-59643443D01*
X105420045Y-59835088D01*
X105420042Y-59835094D01*
X105393775Y-59933127D01*
X105357410Y-59992787D01*
X105294563Y-60023316D01*
X105225187Y-60015021D01*
X105171310Y-59970536D01*
X105150035Y-59903984D01*
X105150000Y-59901033D01*
X105150000Y-55000005D01*
X105586673Y-55000005D01*
X105605948Y-55232622D01*
X105663251Y-55458907D01*
X105757015Y-55672668D01*
X105884686Y-55868084D01*
X106040308Y-56037133D01*
X106042780Y-56039818D01*
X106226983Y-56183190D01*
X106226985Y-56183191D01*
X106226988Y-56183193D01*
X106293051Y-56218944D01*
X106432273Y-56294287D01*
X106538887Y-56330888D01*
X106653045Y-56370079D01*
X106653047Y-56370079D01*
X106653049Y-56370080D01*
X106883288Y-56408500D01*
X106883289Y-56408500D01*
X107116711Y-56408500D01*
X107116712Y-56408500D01*
X107346951Y-56370080D01*
X107567727Y-56294287D01*
X107773017Y-56183190D01*
X107957220Y-56039818D01*
X107957231Y-56039805D01*
X107960990Y-56036347D01*
X107961714Y-56037133D01*
X108017067Y-56003861D01*
X108086905Y-56005954D01*
X108144525Y-56045472D01*
X108164602Y-56080495D01*
X108189111Y-56146205D01*
X108221154Y-56189008D01*
X108276739Y-56263261D01*
X108393796Y-56350889D01*
X108530799Y-56401989D01*
X108558050Y-56404918D01*
X108591345Y-56408499D01*
X108591362Y-56408500D01*
X110488638Y-56408500D01*
X110488654Y-56408499D01*
X110515692Y-56405591D01*
X110549201Y-56401989D01*
X110686204Y-56350889D01*
X110803261Y-56263261D01*
X110890889Y-56146204D01*
X110941989Y-56009201D01*
X110946909Y-55963439D01*
X110948499Y-55948654D01*
X110948500Y-55948637D01*
X110948500Y-55560707D01*
X110968185Y-55493668D01*
X111020989Y-55447913D01*
X111090147Y-55437969D01*
X111153703Y-55466994D01*
X111186056Y-55510897D01*
X111257015Y-55672668D01*
X111384686Y-55868084D01*
X111540308Y-56037133D01*
X111542780Y-56039818D01*
X111726983Y-56183190D01*
X111726985Y-56183191D01*
X111726988Y-56183193D01*
X111793051Y-56218944D01*
X111932273Y-56294287D01*
X112038887Y-56330888D01*
X112153045Y-56370079D01*
X112153047Y-56370079D01*
X112153049Y-56370080D01*
X112383288Y-56408500D01*
X112383289Y-56408500D01*
X112616711Y-56408500D01*
X112616712Y-56408500D01*
X112846951Y-56370080D01*
X113067727Y-56294287D01*
X113273017Y-56183190D01*
X113457220Y-56039818D01*
X113457231Y-56039805D01*
X113460990Y-56036347D01*
X113461714Y-56037133D01*
X113517067Y-56003861D01*
X113586905Y-56005954D01*
X113644525Y-56045472D01*
X113664602Y-56080495D01*
X113689111Y-56146205D01*
X113721154Y-56189008D01*
X113776739Y-56263261D01*
X113893796Y-56350889D01*
X114030799Y-56401989D01*
X114058050Y-56404918D01*
X114091345Y-56408499D01*
X114091362Y-56408500D01*
X115988638Y-56408500D01*
X115988654Y-56408499D01*
X116015692Y-56405591D01*
X116049201Y-56401989D01*
X116186204Y-56350889D01*
X116303261Y-56263261D01*
X116390889Y-56146204D01*
X116441989Y-56009201D01*
X116446909Y-55963439D01*
X116448499Y-55948654D01*
X116448498Y-55948647D01*
X116448500Y-55948638D01*
X116448500Y-55560703D01*
X116468183Y-55493668D01*
X116520987Y-55447913D01*
X116590146Y-55437969D01*
X116653701Y-55466994D01*
X116686055Y-55510896D01*
X116757016Y-55672670D01*
X116884686Y-55868084D01*
X117040308Y-56037133D01*
X117042780Y-56039818D01*
X117226983Y-56183190D01*
X117226985Y-56183191D01*
X117226988Y-56183193D01*
X117293051Y-56218944D01*
X117432273Y-56294287D01*
X117538887Y-56330888D01*
X117653045Y-56370079D01*
X117653047Y-56370079D01*
X117653049Y-56370080D01*
X117883288Y-56408500D01*
X117883289Y-56408500D01*
X118116711Y-56408500D01*
X118116712Y-56408500D01*
X118346951Y-56370080D01*
X118567727Y-56294287D01*
X118773017Y-56183190D01*
X118957220Y-56039818D01*
X118957231Y-56039805D01*
X118960990Y-56036347D01*
X118961714Y-56037133D01*
X119017067Y-56003861D01*
X119086905Y-56005954D01*
X119144525Y-56045472D01*
X119164602Y-56080495D01*
X119189111Y-56146205D01*
X119221154Y-56189008D01*
X119276739Y-56263261D01*
X119393796Y-56350889D01*
X119530799Y-56401989D01*
X119558050Y-56404918D01*
X119591345Y-56408499D01*
X119591362Y-56408500D01*
X121488638Y-56408500D01*
X121488654Y-56408499D01*
X121515692Y-56405591D01*
X121549201Y-56401989D01*
X121686204Y-56350889D01*
X121803261Y-56263261D01*
X121890889Y-56146204D01*
X121941989Y-56009201D01*
X121946909Y-55963439D01*
X121948499Y-55948654D01*
X121948499Y-55948647D01*
X121948500Y-55948638D01*
X121948500Y-54051362D01*
X121948499Y-54051352D01*
X121948499Y-54051345D01*
X121942962Y-53999852D01*
X121941989Y-53990799D01*
X121940801Y-53987615D01*
X121914497Y-53917092D01*
X121890889Y-53853796D01*
X121803261Y-53736739D01*
X121686204Y-53649111D01*
X121549203Y-53598011D01*
X121488654Y-53591500D01*
X121488638Y-53591500D01*
X119591362Y-53591500D01*
X119591345Y-53591500D01*
X119530797Y-53598011D01*
X119530795Y-53598011D01*
X119393795Y-53649111D01*
X119276739Y-53736739D01*
X119189111Y-53853794D01*
X119164602Y-53919504D01*
X119122729Y-53975437D01*
X119057264Y-53999852D01*
X118988992Y-53984999D01*
X118961275Y-53963342D01*
X118960990Y-53963653D01*
X118957225Y-53960187D01*
X118957220Y-53960182D01*
X118773017Y-53816810D01*
X118773015Y-53816809D01*
X118773014Y-53816808D01*
X118773011Y-53816806D01*
X118567733Y-53705716D01*
X118567730Y-53705715D01*
X118567727Y-53705713D01*
X118567721Y-53705711D01*
X118567719Y-53705710D01*
X118346954Y-53629920D01*
X118155730Y-53598011D01*
X118116712Y-53591500D01*
X117883288Y-53591500D01*
X117844270Y-53598011D01*
X117653045Y-53629920D01*
X117432280Y-53705710D01*
X117432266Y-53705716D01*
X117226988Y-53816806D01*
X117226985Y-53816808D01*
X117042781Y-53960181D01*
X117042776Y-53960185D01*
X116884686Y-54131915D01*
X116757016Y-54327329D01*
X116686055Y-54489103D01*
X116641098Y-54542588D01*
X116574362Y-54563278D01*
X116507034Y-54544603D01*
X116460491Y-54492492D01*
X116448500Y-54439296D01*
X116448500Y-54051362D01*
X116448498Y-54051352D01*
X116448499Y-54051345D01*
X116442962Y-53999852D01*
X116441989Y-53990799D01*
X116440801Y-53987615D01*
X116414497Y-53917092D01*
X116390889Y-53853796D01*
X116303261Y-53736739D01*
X116186204Y-53649111D01*
X116049203Y-53598011D01*
X115988654Y-53591500D01*
X115988638Y-53591500D01*
X114091362Y-53591500D01*
X114091345Y-53591500D01*
X114030797Y-53598011D01*
X114030795Y-53598011D01*
X113893795Y-53649111D01*
X113776739Y-53736739D01*
X113689111Y-53853794D01*
X113664602Y-53919504D01*
X113622729Y-53975437D01*
X113557264Y-53999852D01*
X113488992Y-53984999D01*
X113461275Y-53963342D01*
X113460990Y-53963653D01*
X113457225Y-53960187D01*
X113457220Y-53960182D01*
X113273017Y-53816810D01*
X113273015Y-53816809D01*
X113273014Y-53816808D01*
X113273011Y-53816806D01*
X113067733Y-53705716D01*
X113067730Y-53705715D01*
X113067727Y-53705713D01*
X113067721Y-53705711D01*
X113067719Y-53705710D01*
X112846954Y-53629920D01*
X112655730Y-53598011D01*
X112616712Y-53591500D01*
X112383288Y-53591500D01*
X112344270Y-53598011D01*
X112153045Y-53629920D01*
X111932280Y-53705710D01*
X111932266Y-53705716D01*
X111726988Y-53816806D01*
X111726985Y-53816808D01*
X111542781Y-53960181D01*
X111542776Y-53960185D01*
X111384686Y-54131915D01*
X111257015Y-54327331D01*
X111186056Y-54489102D01*
X111141100Y-54542588D01*
X111074364Y-54563278D01*
X111007036Y-54544603D01*
X110960493Y-54492493D01*
X110948500Y-54439292D01*
X110948500Y-54051362D01*
X110948499Y-54051345D01*
X110942962Y-53999852D01*
X110941989Y-53990799D01*
X110940801Y-53987615D01*
X110914497Y-53917092D01*
X110890889Y-53853796D01*
X110803261Y-53736739D01*
X110686204Y-53649111D01*
X110549203Y-53598011D01*
X110488654Y-53591500D01*
X110488638Y-53591500D01*
X108591362Y-53591500D01*
X108591345Y-53591500D01*
X108530797Y-53598011D01*
X108530795Y-53598011D01*
X108393795Y-53649111D01*
X108276739Y-53736739D01*
X108189111Y-53853794D01*
X108164602Y-53919504D01*
X108122729Y-53975437D01*
X108057264Y-53999852D01*
X107988992Y-53984999D01*
X107961275Y-53963342D01*
X107960990Y-53963653D01*
X107957225Y-53960187D01*
X107957220Y-53960182D01*
X107773017Y-53816810D01*
X107773015Y-53816809D01*
X107773014Y-53816808D01*
X107773011Y-53816806D01*
X107567733Y-53705716D01*
X107567730Y-53705715D01*
X107567727Y-53705713D01*
X107567721Y-53705711D01*
X107567719Y-53705710D01*
X107346954Y-53629920D01*
X107155730Y-53598011D01*
X107116712Y-53591500D01*
X106883288Y-53591500D01*
X106844270Y-53598011D01*
X106653045Y-53629920D01*
X106432280Y-53705710D01*
X106432266Y-53705716D01*
X106226988Y-53816806D01*
X106226985Y-53816808D01*
X106042781Y-53960181D01*
X106042776Y-53960185D01*
X105884686Y-54131915D01*
X105757015Y-54327331D01*
X105663251Y-54541092D01*
X105605948Y-54767377D01*
X105586673Y-54999994D01*
X105586673Y-55000005D01*
X105150000Y-55000005D01*
X105150000Y-50574000D01*
X105169685Y-50506961D01*
X105222489Y-50461206D01*
X105274000Y-50450000D01*
X106276959Y-50450000D01*
X106343998Y-50469685D01*
G37*
G04 #@! TD.AperFunction*
M02*
