G04 #@! TF.GenerationSoftware,KiCad,Pcbnew,5.1.7-5.1.7*
G04 #@! TF.CreationDate,2020-10-12T00:47:03+02:00*
G04 #@! TF.ProjectId,meteo-home,6d657465-6f2d-4686-9f6d-652e6b696361,rev?*
G04 #@! TF.SameCoordinates,Original*
G04 #@! TF.FileFunction,Copper,L1,Top*
G04 #@! TF.FilePolarity,Positive*
%FSLAX46Y46*%
G04 Gerber Fmt 4.6, Leading zero omitted, Abs format (unit mm)*
G04 Created by KiCad (PCBNEW 5.1.7-5.1.7) date 2020-10-12 00:47:03*
%MOMM*%
%LPD*%
G01*
G04 APERTURE LIST*
G04 #@! TA.AperFunction,ComponentPad*
%ADD10C,1.800000*%
G04 #@! TD*
G04 #@! TA.AperFunction,ComponentPad*
%ADD11R,1.727200X2.032000*%
G04 #@! TD*
G04 #@! TA.AperFunction,ComponentPad*
%ADD12O,1.727200X2.032000*%
G04 #@! TD*
G04 #@! TA.AperFunction,ComponentPad*
%ADD13R,1.800000X1.800000*%
G04 #@! TD*
G04 #@! TA.AperFunction,ComponentPad*
%ADD14O,1.600000X1.600000*%
G04 #@! TD*
G04 #@! TA.AperFunction,ComponentPad*
%ADD15C,1.600000*%
G04 #@! TD*
G04 #@! TA.AperFunction,ComponentPad*
%ADD16O,1.700000X1.700000*%
G04 #@! TD*
G04 #@! TA.AperFunction,ComponentPad*
%ADD17R,1.700000X1.700000*%
G04 #@! TD*
G04 #@! TA.AperFunction,Conductor*
%ADD18C,0.250000*%
G04 #@! TD*
G04 #@! TA.AperFunction,Conductor*
%ADD19C,0.254000*%
G04 #@! TD*
G04 #@! TA.AperFunction,Conductor*
%ADD20C,0.100000*%
G04 #@! TD*
G04 APERTURE END LIST*
D10*
X115005001Y-65597025D03*
X115005001Y-88457025D03*
X117545001Y-65597025D03*
X117545001Y-88457025D03*
X120085001Y-65597025D03*
X120085001Y-88457025D03*
X122625001Y-65597025D03*
X122625001Y-88457025D03*
X125165001Y-65597025D03*
X125165001Y-88457025D03*
X127705001Y-65597025D03*
X127705001Y-88457025D03*
X130245001Y-65597025D03*
X130245001Y-88457025D03*
X132785001Y-65597025D03*
X132785001Y-88457025D03*
D11*
X127000000Y-97155000D03*
D12*
X124460000Y-97155000D03*
X121920000Y-97155000D03*
X119380000Y-97155000D03*
D10*
X113960000Y-55000000D03*
D13*
X116500000Y-55000000D03*
X125730000Y-54864000D03*
D10*
X123190000Y-54864000D03*
X132460000Y-55000000D03*
D13*
X135000000Y-55000000D03*
D14*
X107950000Y-60960000D03*
D15*
X115570000Y-60960000D03*
X139700000Y-60960000D03*
D14*
X132080000Y-60960000D03*
X112500000Y-99370000D03*
D15*
X112500000Y-91750000D03*
D14*
X120650000Y-60960000D03*
D15*
X128270000Y-60960000D03*
D16*
X132715000Y-97790000D03*
X135255000Y-97790000D03*
X137795000Y-97790000D03*
D17*
X140335000Y-97790000D03*
D18*
X112907976Y-60960000D02*
X107950000Y-60960000D01*
X117545001Y-65597025D02*
X112907976Y-60960000D01*
X132080000Y-60960000D02*
X130810000Y-60960000D01*
X130810000Y-60960000D02*
X128270000Y-63500000D01*
X127262026Y-63500000D02*
X125165001Y-65597025D01*
X128270000Y-63500000D02*
X127262026Y-63500000D01*
X115570000Y-55930000D02*
X116500000Y-55000000D01*
X115570000Y-60960000D02*
X115570000Y-55930000D01*
X135000000Y-56260000D02*
X139700000Y-60960000D01*
X135000000Y-55000000D02*
X135000000Y-56260000D01*
X124714000Y-95504000D02*
X123825000Y-94615000D01*
X124714000Y-97155000D02*
X124714000Y-95504000D01*
X113030000Y-99695000D02*
X113030000Y-98425000D01*
X117255000Y-94615000D02*
X117615000Y-94615000D01*
X117255000Y-94615000D02*
X116935000Y-94935000D01*
X123825000Y-94615000D02*
X117255000Y-94615000D01*
X112500000Y-99370000D02*
X116935000Y-94935000D01*
X125165001Y-88457025D02*
X132461000Y-95753024D01*
X132715000Y-96007024D02*
X132461000Y-95753024D01*
X132715000Y-97790000D02*
X132715000Y-96007024D01*
X127705001Y-88457025D02*
X135001000Y-95753024D01*
X135001000Y-97536000D02*
X135255000Y-97790000D01*
X135001000Y-95753024D02*
X135001000Y-97536000D01*
X125984000Y-54864000D02*
X125984000Y-54991000D01*
X125730000Y-58420000D02*
X128270000Y-60960000D01*
X125730000Y-54864000D02*
X125730000Y-58420000D01*
X120085001Y-61524999D02*
X120650000Y-60960000D01*
X120085001Y-65597025D02*
X120085001Y-61524999D01*
X127254000Y-97155000D02*
X123952000Y-93853000D01*
X123952000Y-93853000D02*
X123914001Y-93815001D01*
X112500000Y-90962026D02*
X112500000Y-91750000D01*
X115005001Y-88457025D02*
X112500000Y-90962026D01*
X115005001Y-88457025D02*
X118547976Y-92000000D01*
X118547976Y-92000000D02*
X122099000Y-92000000D01*
X122099000Y-92000000D02*
X122674500Y-92575500D01*
X122174000Y-92075000D02*
X122674500Y-92575500D01*
X122674500Y-92575500D02*
X123952000Y-93853000D01*
X120396000Y-52070000D02*
X123190000Y-54864000D01*
X137160000Y-99695000D02*
X121920000Y-99695000D01*
X137795000Y-97790000D02*
X137795000Y-99060000D01*
X121920000Y-99695000D02*
X119380000Y-97155000D01*
X137795000Y-99060000D02*
X137160000Y-99695000D01*
X125984000Y-52070000D02*
X123190000Y-54864000D01*
X129530000Y-52070000D02*
X132460000Y-55000000D01*
X125984000Y-52070000D02*
X129530000Y-52070000D01*
X133923988Y-84516012D02*
X133985000Y-84455000D01*
X133923988Y-84516012D02*
X115005001Y-65597025D01*
X133923988Y-84516012D02*
X136525000Y-87117024D01*
X136525000Y-93980000D02*
X140335000Y-97790000D01*
X136525000Y-87117024D02*
X136525000Y-93980000D01*
D19*
X141478000Y-96376593D02*
X141429180Y-96350498D01*
X141309482Y-96314188D01*
X141185000Y-96301928D01*
X139921730Y-96301928D01*
X137285000Y-93665199D01*
X137285000Y-92829117D01*
X137765000Y-92829117D01*
X137765000Y-93170883D01*
X137831675Y-93506081D01*
X137962463Y-93821831D01*
X138152337Y-94105998D01*
X138394002Y-94347663D01*
X138678169Y-94537537D01*
X138993919Y-94668325D01*
X139329117Y-94735000D01*
X139670883Y-94735000D01*
X140006081Y-94668325D01*
X140321831Y-94537537D01*
X140605998Y-94347663D01*
X140847663Y-94105998D01*
X141037537Y-93821831D01*
X141168325Y-93506081D01*
X141235000Y-93170883D01*
X141235000Y-92829117D01*
X141168325Y-92493919D01*
X141037537Y-92178169D01*
X140847663Y-91894002D01*
X140605998Y-91652337D01*
X140321831Y-91462463D01*
X140006081Y-91331675D01*
X139670883Y-91265000D01*
X139329117Y-91265000D01*
X138993919Y-91331675D01*
X138678169Y-91462463D01*
X138394002Y-91652337D01*
X138152337Y-91894002D01*
X137962463Y-92178169D01*
X137831675Y-92493919D01*
X137765000Y-92829117D01*
X137285000Y-92829117D01*
X137285000Y-87154346D01*
X137288676Y-87117023D01*
X137285000Y-87079700D01*
X137285000Y-87079691D01*
X137274003Y-86968038D01*
X137230546Y-86824777D01*
X137159974Y-86692748D01*
X137146811Y-86676709D01*
X137088799Y-86606020D01*
X137088795Y-86606016D01*
X137065001Y-86577023D01*
X137036009Y-86553230D01*
X134710146Y-84227369D01*
X134690546Y-84162754D01*
X134619974Y-84030724D01*
X134525001Y-83914999D01*
X134409276Y-83820026D01*
X134277246Y-83749454D01*
X134212632Y-83729854D01*
X117614802Y-67132025D01*
X117696185Y-67132025D01*
X117992744Y-67073036D01*
X118272096Y-66957324D01*
X118523506Y-66789337D01*
X118737313Y-66575530D01*
X118815001Y-66459262D01*
X118892689Y-66575530D01*
X119106496Y-66789337D01*
X119357906Y-66957324D01*
X119637258Y-67073036D01*
X119933817Y-67132025D01*
X120236185Y-67132025D01*
X120532744Y-67073036D01*
X120812096Y-66957324D01*
X121063506Y-66789337D01*
X121277313Y-66575530D01*
X121355001Y-66459262D01*
X121432689Y-66575530D01*
X121646496Y-66789337D01*
X121897906Y-66957324D01*
X122177258Y-67073036D01*
X122473817Y-67132025D01*
X122776185Y-67132025D01*
X123072744Y-67073036D01*
X123352096Y-66957324D01*
X123603506Y-66789337D01*
X123817313Y-66575530D01*
X123895001Y-66459262D01*
X123972689Y-66575530D01*
X124186496Y-66789337D01*
X124437906Y-66957324D01*
X124717258Y-67073036D01*
X125013817Y-67132025D01*
X125316185Y-67132025D01*
X125612744Y-67073036D01*
X125892096Y-66957324D01*
X126143506Y-66789337D01*
X126357313Y-66575530D01*
X126435001Y-66459262D01*
X126512689Y-66575530D01*
X126726496Y-66789337D01*
X126977906Y-66957324D01*
X127257258Y-67073036D01*
X127553817Y-67132025D01*
X127856185Y-67132025D01*
X128152744Y-67073036D01*
X128432096Y-66957324D01*
X128683506Y-66789337D01*
X128897313Y-66575530D01*
X128975001Y-66459262D01*
X129052689Y-66575530D01*
X129266496Y-66789337D01*
X129517906Y-66957324D01*
X129797258Y-67073036D01*
X130093817Y-67132025D01*
X130396185Y-67132025D01*
X130692744Y-67073036D01*
X130972096Y-66957324D01*
X131223506Y-66789337D01*
X131437313Y-66575530D01*
X131515001Y-66459262D01*
X131592689Y-66575530D01*
X131806496Y-66789337D01*
X132057906Y-66957324D01*
X132337258Y-67073036D01*
X132633817Y-67132025D01*
X132936185Y-67132025D01*
X133232744Y-67073036D01*
X133512096Y-66957324D01*
X133763506Y-66789337D01*
X133977313Y-66575530D01*
X134145300Y-66324120D01*
X134261012Y-66044768D01*
X134320001Y-65748209D01*
X134320001Y-65445841D01*
X134261012Y-65149282D01*
X134145300Y-64869930D01*
X133977313Y-64618520D01*
X133763506Y-64404713D01*
X133512096Y-64236726D01*
X133232744Y-64121014D01*
X132936185Y-64062025D01*
X132633817Y-64062025D01*
X132337258Y-64121014D01*
X132057906Y-64236726D01*
X131806496Y-64404713D01*
X131592689Y-64618520D01*
X131515001Y-64734788D01*
X131437313Y-64618520D01*
X131223506Y-64404713D01*
X130972096Y-64236726D01*
X130692744Y-64121014D01*
X130396185Y-64062025D01*
X130093817Y-64062025D01*
X129797258Y-64121014D01*
X129517906Y-64236726D01*
X129266496Y-64404713D01*
X129052689Y-64618520D01*
X128975001Y-64734788D01*
X128897313Y-64618520D01*
X128683506Y-64404713D01*
X128440640Y-64242435D01*
X128562247Y-64205546D01*
X128694276Y-64134974D01*
X128810001Y-64040001D01*
X128833804Y-64010997D01*
X130967703Y-61877099D01*
X131165241Y-62074637D01*
X131400273Y-62231680D01*
X131661426Y-62339853D01*
X131938665Y-62395000D01*
X132221335Y-62395000D01*
X132498574Y-62339853D01*
X132759727Y-62231680D01*
X132994759Y-62074637D01*
X133194637Y-61874759D01*
X133351680Y-61639727D01*
X133459853Y-61378574D01*
X133515000Y-61101335D01*
X133515000Y-60818665D01*
X133459853Y-60541426D01*
X133351680Y-60280273D01*
X133194637Y-60045241D01*
X132994759Y-59845363D01*
X132759727Y-59688320D01*
X132498574Y-59580147D01*
X132221335Y-59525000D01*
X131938665Y-59525000D01*
X131661426Y-59580147D01*
X131400273Y-59688320D01*
X131165241Y-59845363D01*
X130965363Y-60045241D01*
X130861957Y-60200000D01*
X130847322Y-60200000D01*
X130809999Y-60196324D01*
X130772676Y-60200000D01*
X130772667Y-60200000D01*
X130661014Y-60210997D01*
X130517753Y-60254454D01*
X130385724Y-60325026D01*
X130385722Y-60325027D01*
X130385723Y-60325027D01*
X130298996Y-60396201D01*
X130298992Y-60396205D01*
X130269999Y-60419999D01*
X130246205Y-60448992D01*
X129705000Y-60990197D01*
X129705000Y-60818665D01*
X129649853Y-60541426D01*
X129541680Y-60280273D01*
X129384637Y-60045241D01*
X129184759Y-59845363D01*
X128949727Y-59688320D01*
X128688574Y-59580147D01*
X128411335Y-59525000D01*
X128128665Y-59525000D01*
X127946114Y-59561312D01*
X126490000Y-58105199D01*
X126490000Y-56402072D01*
X126630000Y-56402072D01*
X126754482Y-56389812D01*
X126874180Y-56353502D01*
X126984494Y-56294537D01*
X127081185Y-56215185D01*
X127160537Y-56118494D01*
X127219502Y-56008180D01*
X127255812Y-55888482D01*
X127268072Y-55764000D01*
X127268072Y-55066553D01*
X130919009Y-55066553D01*
X130961603Y-55365907D01*
X131061778Y-55651199D01*
X131141739Y-55800792D01*
X131395920Y-55884475D01*
X132280395Y-55000000D01*
X131395920Y-54115525D01*
X131141739Y-54199208D01*
X131010842Y-54471775D01*
X130935635Y-54764642D01*
X130919009Y-55066553D01*
X127268072Y-55066553D01*
X127268072Y-53964000D01*
X127265307Y-53935920D01*
X131575525Y-53935920D01*
X132460000Y-54820395D01*
X132474143Y-54806253D01*
X132653748Y-54985858D01*
X132639605Y-55000000D01*
X132653748Y-55014143D01*
X132474143Y-55193748D01*
X132460000Y-55179605D01*
X131575525Y-56064080D01*
X131659208Y-56318261D01*
X131931775Y-56449158D01*
X132224642Y-56524365D01*
X132526553Y-56540991D01*
X132825907Y-56498397D01*
X133111199Y-56398222D01*
X133260792Y-56318261D01*
X133344474Y-56064082D01*
X133460422Y-56180030D01*
X133507187Y-56133265D01*
X133510498Y-56144180D01*
X133569463Y-56254494D01*
X133648815Y-56351185D01*
X133745506Y-56430537D01*
X133855820Y-56489502D01*
X133975518Y-56525812D01*
X134100000Y-56538072D01*
X134290155Y-56538072D01*
X134294454Y-56552246D01*
X134365026Y-56684276D01*
X134436201Y-56771002D01*
X134460000Y-56800001D01*
X134488998Y-56823799D01*
X138301312Y-60636114D01*
X138265000Y-60818665D01*
X138265000Y-61101335D01*
X138320147Y-61378574D01*
X138428320Y-61639727D01*
X138585363Y-61874759D01*
X138785241Y-62074637D01*
X139020273Y-62231680D01*
X139281426Y-62339853D01*
X139558665Y-62395000D01*
X139841335Y-62395000D01*
X140118574Y-62339853D01*
X140379727Y-62231680D01*
X140614759Y-62074637D01*
X140814637Y-61874759D01*
X140971680Y-61639727D01*
X141079853Y-61378574D01*
X141135000Y-61101335D01*
X141135000Y-60818665D01*
X141079853Y-60541426D01*
X140971680Y-60280273D01*
X140814637Y-60045241D01*
X140614759Y-59845363D01*
X140379727Y-59688320D01*
X140118574Y-59580147D01*
X139841335Y-59525000D01*
X139558665Y-59525000D01*
X139376114Y-59561312D01*
X136248527Y-56433726D01*
X136254494Y-56430537D01*
X136351185Y-56351185D01*
X136430537Y-56254494D01*
X136489502Y-56144180D01*
X136525812Y-56024482D01*
X136538072Y-55900000D01*
X136538072Y-54100000D01*
X136525812Y-53975518D01*
X136489502Y-53855820D01*
X136430537Y-53745506D01*
X136351185Y-53648815D01*
X136254494Y-53569463D01*
X136144180Y-53510498D01*
X136024482Y-53474188D01*
X135900000Y-53461928D01*
X134100000Y-53461928D01*
X133975518Y-53474188D01*
X133855820Y-53510498D01*
X133745506Y-53569463D01*
X133648815Y-53648815D01*
X133569463Y-53745506D01*
X133510498Y-53855820D01*
X133507187Y-53866735D01*
X133460422Y-53819970D01*
X133344474Y-53935918D01*
X133260792Y-53681739D01*
X132988225Y-53550842D01*
X132695358Y-53475635D01*
X132393447Y-53459009D01*
X132094093Y-53501603D01*
X131808801Y-53601778D01*
X131659208Y-53681739D01*
X131575525Y-53935920D01*
X127265307Y-53935920D01*
X127255812Y-53839518D01*
X127219502Y-53719820D01*
X127160537Y-53609506D01*
X127081185Y-53512815D01*
X126984494Y-53433463D01*
X126874180Y-53374498D01*
X126754482Y-53338188D01*
X126630000Y-53325928D01*
X124830000Y-53325928D01*
X124705518Y-53338188D01*
X124585820Y-53374498D01*
X124475506Y-53433463D01*
X124378815Y-53512815D01*
X124299463Y-53609506D01*
X124240498Y-53719820D01*
X124237187Y-53730735D01*
X124190422Y-53683970D01*
X124074474Y-53799918D01*
X123990792Y-53545739D01*
X123718225Y-53414842D01*
X123425358Y-53339635D01*
X123123447Y-53323009D01*
X122824093Y-53365603D01*
X122538801Y-53465778D01*
X122389208Y-53545739D01*
X122305525Y-53799920D01*
X123190000Y-54684395D01*
X123204143Y-54670253D01*
X123383748Y-54849858D01*
X123369605Y-54864000D01*
X123383748Y-54878143D01*
X123204143Y-55057748D01*
X123190000Y-55043605D01*
X122305525Y-55928080D01*
X122389208Y-56182261D01*
X122661775Y-56313158D01*
X122954642Y-56388365D01*
X123256553Y-56404991D01*
X123555907Y-56362397D01*
X123841199Y-56262222D01*
X123990792Y-56182261D01*
X124074474Y-55928082D01*
X124190422Y-56044030D01*
X124237187Y-55997265D01*
X124240498Y-56008180D01*
X124299463Y-56118494D01*
X124378815Y-56215185D01*
X124475506Y-56294537D01*
X124585820Y-56353502D01*
X124705518Y-56389812D01*
X124830000Y-56402072D01*
X124970000Y-56402072D01*
X124970001Y-58382668D01*
X124966324Y-58420000D01*
X124980998Y-58568985D01*
X125024454Y-58712246D01*
X125095026Y-58844276D01*
X125166201Y-58931002D01*
X125190000Y-58960001D01*
X125218998Y-58983799D01*
X126871312Y-60636114D01*
X126835000Y-60818665D01*
X126835000Y-61101335D01*
X126890147Y-61378574D01*
X126998320Y-61639727D01*
X127155363Y-61874759D01*
X127355241Y-62074637D01*
X127590273Y-62231680D01*
X127851426Y-62339853D01*
X128128665Y-62395000D01*
X128300199Y-62395000D01*
X127955199Y-62740000D01*
X127299348Y-62740000D01*
X127262025Y-62736324D01*
X127224702Y-62740000D01*
X127224693Y-62740000D01*
X127113040Y-62750997D01*
X126969779Y-62794454D01*
X126837750Y-62865026D01*
X126722025Y-62959999D01*
X126698227Y-62988997D01*
X125573931Y-64113294D01*
X125316185Y-64062025D01*
X125013817Y-64062025D01*
X124717258Y-64121014D01*
X124437906Y-64236726D01*
X124186496Y-64404713D01*
X123972689Y-64618520D01*
X123895001Y-64734788D01*
X123817313Y-64618520D01*
X123603506Y-64404713D01*
X123352096Y-64236726D01*
X123072744Y-64121014D01*
X122776185Y-64062025D01*
X122473817Y-64062025D01*
X122177258Y-64121014D01*
X121897906Y-64236726D01*
X121646496Y-64404713D01*
X121432689Y-64618520D01*
X121355001Y-64734788D01*
X121277313Y-64618520D01*
X121063506Y-64404713D01*
X120845001Y-64258712D01*
X120845001Y-62384325D01*
X121068574Y-62339853D01*
X121329727Y-62231680D01*
X121564759Y-62074637D01*
X121764637Y-61874759D01*
X121921680Y-61639727D01*
X122029853Y-61378574D01*
X122085000Y-61101335D01*
X122085000Y-60818665D01*
X122029853Y-60541426D01*
X121921680Y-60280273D01*
X121764637Y-60045241D01*
X121564759Y-59845363D01*
X121329727Y-59688320D01*
X121068574Y-59580147D01*
X120791335Y-59525000D01*
X120508665Y-59525000D01*
X120231426Y-59580147D01*
X119970273Y-59688320D01*
X119735241Y-59845363D01*
X119535363Y-60045241D01*
X119378320Y-60280273D01*
X119270147Y-60541426D01*
X119215000Y-60818665D01*
X119215000Y-61101335D01*
X119270147Y-61378574D01*
X119323145Y-61506522D01*
X119321325Y-61524999D01*
X119325002Y-61562331D01*
X119325001Y-64258712D01*
X119106496Y-64404713D01*
X118892689Y-64618520D01*
X118815001Y-64734788D01*
X118737313Y-64618520D01*
X118523506Y-64404713D01*
X118272096Y-64236726D01*
X117992744Y-64121014D01*
X117696185Y-64062025D01*
X117393817Y-64062025D01*
X117136071Y-64113294D01*
X115415074Y-62392297D01*
X115428665Y-62395000D01*
X115711335Y-62395000D01*
X115988574Y-62339853D01*
X116249727Y-62231680D01*
X116484759Y-62074637D01*
X116684637Y-61874759D01*
X116841680Y-61639727D01*
X116949853Y-61378574D01*
X117005000Y-61101335D01*
X117005000Y-60818665D01*
X116949853Y-60541426D01*
X116841680Y-60280273D01*
X116684637Y-60045241D01*
X116484759Y-59845363D01*
X116330000Y-59741957D01*
X116330000Y-56538072D01*
X117400000Y-56538072D01*
X117524482Y-56525812D01*
X117644180Y-56489502D01*
X117754494Y-56430537D01*
X117851185Y-56351185D01*
X117930537Y-56254494D01*
X117989502Y-56144180D01*
X118025812Y-56024482D01*
X118038072Y-55900000D01*
X118038072Y-54930553D01*
X121649009Y-54930553D01*
X121691603Y-55229907D01*
X121791778Y-55515199D01*
X121871739Y-55664792D01*
X122125920Y-55748475D01*
X123010395Y-54864000D01*
X122125920Y-53979525D01*
X121871739Y-54063208D01*
X121740842Y-54335775D01*
X121665635Y-54628642D01*
X121649009Y-54930553D01*
X118038072Y-54930553D01*
X118038072Y-54100000D01*
X118025812Y-53975518D01*
X117989502Y-53855820D01*
X117930537Y-53745506D01*
X117851185Y-53648815D01*
X117754494Y-53569463D01*
X117644180Y-53510498D01*
X117524482Y-53474188D01*
X117400000Y-53461928D01*
X115600000Y-53461928D01*
X115475518Y-53474188D01*
X115355820Y-53510498D01*
X115245506Y-53569463D01*
X115148815Y-53648815D01*
X115069463Y-53745506D01*
X115010498Y-53855820D01*
X115007187Y-53866735D01*
X114960422Y-53819970D01*
X114844474Y-53935918D01*
X114760792Y-53681739D01*
X114488225Y-53550842D01*
X114195358Y-53475635D01*
X113893447Y-53459009D01*
X113594093Y-53501603D01*
X113308801Y-53601778D01*
X113159208Y-53681739D01*
X113075525Y-53935920D01*
X113960000Y-54820395D01*
X113974143Y-54806253D01*
X114153748Y-54985858D01*
X114139605Y-55000000D01*
X114153748Y-55014143D01*
X113974143Y-55193748D01*
X113960000Y-55179605D01*
X113075525Y-56064080D01*
X113159208Y-56318261D01*
X113431775Y-56449158D01*
X113724642Y-56524365D01*
X114026553Y-56540991D01*
X114325907Y-56498397D01*
X114611199Y-56398222D01*
X114760792Y-56318261D01*
X114810001Y-56168792D01*
X114810000Y-59741956D01*
X114655241Y-59845363D01*
X114455363Y-60045241D01*
X114298320Y-60280273D01*
X114190147Y-60541426D01*
X114135000Y-60818665D01*
X114135000Y-61101335D01*
X114137704Y-61114926D01*
X113471780Y-60449003D01*
X113447977Y-60419999D01*
X113332252Y-60325026D01*
X113200223Y-60254454D01*
X113056962Y-60210997D01*
X112945309Y-60200000D01*
X112945298Y-60200000D01*
X112907976Y-60196324D01*
X112870654Y-60200000D01*
X109168043Y-60200000D01*
X109064637Y-60045241D01*
X108864759Y-59845363D01*
X108629727Y-59688320D01*
X108368574Y-59580147D01*
X108091335Y-59525000D01*
X107808665Y-59525000D01*
X107531426Y-59580147D01*
X107270273Y-59688320D01*
X107035241Y-59845363D01*
X106835363Y-60045241D01*
X106678320Y-60280273D01*
X106570147Y-60541426D01*
X106515000Y-60818665D01*
X106515000Y-61101335D01*
X106570147Y-61378574D01*
X106678320Y-61639727D01*
X106835363Y-61874759D01*
X107035241Y-62074637D01*
X107270273Y-62231680D01*
X107531426Y-62339853D01*
X107808665Y-62395000D01*
X108091335Y-62395000D01*
X108368574Y-62339853D01*
X108629727Y-62231680D01*
X108864759Y-62074637D01*
X109064637Y-61874759D01*
X109168043Y-61720000D01*
X112593175Y-61720000D01*
X114935199Y-64062025D01*
X114853817Y-64062025D01*
X114557258Y-64121014D01*
X114277906Y-64236726D01*
X114026496Y-64404713D01*
X113812689Y-64618520D01*
X113644702Y-64869930D01*
X113528990Y-65149282D01*
X113470001Y-65445841D01*
X113470001Y-65748209D01*
X113528990Y-66044768D01*
X113644702Y-66324120D01*
X113812689Y-66575530D01*
X114026496Y-66789337D01*
X114277906Y-66957324D01*
X114557258Y-67073036D01*
X114853817Y-67132025D01*
X115156185Y-67132025D01*
X115413931Y-67080756D01*
X133360188Y-85027014D01*
X133383987Y-85056013D01*
X133412985Y-85079811D01*
X133412990Y-85079815D01*
X135765000Y-87431827D01*
X135765001Y-93942668D01*
X135761324Y-93980000D01*
X135765001Y-94017333D01*
X135775998Y-94128986D01*
X135788841Y-94171324D01*
X135819454Y-94272246D01*
X135890026Y-94404276D01*
X135958716Y-94487974D01*
X135985000Y-94520001D01*
X136013998Y-94543799D01*
X137775199Y-96305000D01*
X137667998Y-96305000D01*
X137667998Y-96469844D01*
X137438110Y-96348524D01*
X137290901Y-96393175D01*
X137028080Y-96518359D01*
X136794731Y-96692412D01*
X136599822Y-96908645D01*
X136530195Y-97025534D01*
X136408475Y-96843368D01*
X136201632Y-96636525D01*
X135958411Y-96474010D01*
X135761000Y-96392240D01*
X135761000Y-95790349D01*
X135764676Y-95753024D01*
X135761000Y-95715699D01*
X135761000Y-95715691D01*
X135750003Y-95604038D01*
X135706546Y-95460777D01*
X135635974Y-95328748D01*
X135541001Y-95213023D01*
X135512003Y-95189225D01*
X130314802Y-89992025D01*
X130396185Y-89992025D01*
X130692744Y-89933036D01*
X130972096Y-89817324D01*
X131223506Y-89649337D01*
X131437313Y-89435530D01*
X131515001Y-89319262D01*
X131592689Y-89435530D01*
X131806496Y-89649337D01*
X132057906Y-89817324D01*
X132337258Y-89933036D01*
X132633817Y-89992025D01*
X132936185Y-89992025D01*
X133232744Y-89933036D01*
X133512096Y-89817324D01*
X133763506Y-89649337D01*
X133977313Y-89435530D01*
X134145300Y-89184120D01*
X134261012Y-88904768D01*
X134320001Y-88608209D01*
X134320001Y-88305841D01*
X134261012Y-88009282D01*
X134145300Y-87729930D01*
X133977313Y-87478520D01*
X133763506Y-87264713D01*
X133512096Y-87096726D01*
X133232744Y-86981014D01*
X132936185Y-86922025D01*
X132633817Y-86922025D01*
X132337258Y-86981014D01*
X132057906Y-87096726D01*
X131806496Y-87264713D01*
X131592689Y-87478520D01*
X131515001Y-87594788D01*
X131437313Y-87478520D01*
X131223506Y-87264713D01*
X130972096Y-87096726D01*
X130692744Y-86981014D01*
X130396185Y-86922025D01*
X130093817Y-86922025D01*
X129797258Y-86981014D01*
X129517906Y-87096726D01*
X129266496Y-87264713D01*
X129052689Y-87478520D01*
X128975001Y-87594788D01*
X128897313Y-87478520D01*
X128683506Y-87264713D01*
X128432096Y-87096726D01*
X128152744Y-86981014D01*
X127856185Y-86922025D01*
X127553817Y-86922025D01*
X127257258Y-86981014D01*
X126977906Y-87096726D01*
X126726496Y-87264713D01*
X126512689Y-87478520D01*
X126435001Y-87594788D01*
X126357313Y-87478520D01*
X126143506Y-87264713D01*
X125892096Y-87096726D01*
X125612744Y-86981014D01*
X125316185Y-86922025D01*
X125013817Y-86922025D01*
X124717258Y-86981014D01*
X124437906Y-87096726D01*
X124186496Y-87264713D01*
X123972689Y-87478520D01*
X123895001Y-87594788D01*
X123817313Y-87478520D01*
X123603506Y-87264713D01*
X123352096Y-87096726D01*
X123072744Y-86981014D01*
X122776185Y-86922025D01*
X122473817Y-86922025D01*
X122177258Y-86981014D01*
X121897906Y-87096726D01*
X121646496Y-87264713D01*
X121432689Y-87478520D01*
X121355001Y-87594788D01*
X121277313Y-87478520D01*
X121063506Y-87264713D01*
X120812096Y-87096726D01*
X120532744Y-86981014D01*
X120236185Y-86922025D01*
X119933817Y-86922025D01*
X119637258Y-86981014D01*
X119357906Y-87096726D01*
X119106496Y-87264713D01*
X118892689Y-87478520D01*
X118790050Y-87632130D01*
X118609081Y-87572550D01*
X117724606Y-88457025D01*
X118609081Y-89341500D01*
X118790050Y-89281920D01*
X118892689Y-89435530D01*
X119106496Y-89649337D01*
X119357906Y-89817324D01*
X119637258Y-89933036D01*
X119933817Y-89992025D01*
X120236185Y-89992025D01*
X120532744Y-89933036D01*
X120812096Y-89817324D01*
X121063506Y-89649337D01*
X121277313Y-89435530D01*
X121355001Y-89319262D01*
X121432689Y-89435530D01*
X121646496Y-89649337D01*
X121897906Y-89817324D01*
X122177258Y-89933036D01*
X122473817Y-89992025D01*
X122776185Y-89992025D01*
X123072744Y-89933036D01*
X123352096Y-89817324D01*
X123603506Y-89649337D01*
X123817313Y-89435530D01*
X123895001Y-89319262D01*
X123972689Y-89435530D01*
X124186496Y-89649337D01*
X124437906Y-89817324D01*
X124717258Y-89933036D01*
X125013817Y-89992025D01*
X125316185Y-89992025D01*
X125573931Y-89940756D01*
X131949997Y-96316823D01*
X131950003Y-96316828D01*
X131955001Y-96321826D01*
X131955001Y-96511821D01*
X131768368Y-96636525D01*
X131561525Y-96843368D01*
X131399010Y-97086589D01*
X131287068Y-97356842D01*
X131230000Y-97643740D01*
X131230000Y-97936260D01*
X131287068Y-98223158D01*
X131399010Y-98493411D01*
X131561525Y-98736632D01*
X131768368Y-98943475D01*
X132011589Y-99105990D01*
X132281842Y-99217932D01*
X132568740Y-99275000D01*
X132861260Y-99275000D01*
X133148158Y-99217932D01*
X133418411Y-99105990D01*
X133661632Y-98943475D01*
X133868475Y-98736632D01*
X133985000Y-98562240D01*
X134101525Y-98736632D01*
X134308368Y-98943475D01*
X134551589Y-99105990D01*
X134821842Y-99217932D01*
X135108740Y-99275000D01*
X135401260Y-99275000D01*
X135688158Y-99217932D01*
X135958411Y-99105990D01*
X136201632Y-98943475D01*
X136408475Y-98736632D01*
X136530195Y-98554466D01*
X136599822Y-98671355D01*
X136794731Y-98887588D01*
X137028080Y-99061641D01*
X137290901Y-99186825D01*
X137438110Y-99231476D01*
X137668000Y-99110155D01*
X137668000Y-97917000D01*
X137648000Y-97917000D01*
X137648000Y-97663000D01*
X137668000Y-97663000D01*
X137668000Y-97643000D01*
X137922000Y-97643000D01*
X137922000Y-97663000D01*
X137942000Y-97663000D01*
X137942000Y-97917000D01*
X137922000Y-97917000D01*
X137922000Y-99110155D01*
X138151890Y-99231476D01*
X138299099Y-99186825D01*
X138561920Y-99061641D01*
X138795269Y-98887588D01*
X138871034Y-98803534D01*
X138895498Y-98884180D01*
X138954463Y-98994494D01*
X139033815Y-99091185D01*
X139130506Y-99170537D01*
X139240820Y-99229502D01*
X139360518Y-99265812D01*
X139485000Y-99278072D01*
X141185000Y-99278072D01*
X141309482Y-99265812D01*
X141429180Y-99229502D01*
X141478000Y-99203407D01*
X141478000Y-100203000D01*
X113669267Y-100203000D01*
X113771680Y-100049727D01*
X113879853Y-99788574D01*
X113935000Y-99511335D01*
X113935000Y-99228665D01*
X113898688Y-99046113D01*
X115427887Y-97516914D01*
X117894815Y-97516914D01*
X117964227Y-97802633D01*
X118088046Y-98069321D01*
X118261514Y-98306729D01*
X118477965Y-98505733D01*
X118729081Y-98658686D01*
X119005211Y-98759709D01*
X119020974Y-98762358D01*
X119253000Y-98641217D01*
X119253000Y-97282000D01*
X118039075Y-97282000D01*
X117894815Y-97516914D01*
X115427887Y-97516914D01*
X116151715Y-96793086D01*
X117894815Y-96793086D01*
X118039075Y-97028000D01*
X119253000Y-97028000D01*
X119253000Y-95668783D01*
X119020974Y-95547642D01*
X119005211Y-95550291D01*
X118729081Y-95651314D01*
X118477965Y-95804267D01*
X118261514Y-96003271D01*
X118088046Y-96240679D01*
X117964227Y-96507367D01*
X117894815Y-96793086D01*
X116151715Y-96793086D01*
X117498799Y-95446003D01*
X117498804Y-95445997D01*
X117569801Y-95375000D01*
X123510199Y-95375000D01*
X123794351Y-95659153D01*
X123623395Y-95750531D01*
X123395203Y-95937803D01*
X123207931Y-96165994D01*
X123190000Y-96199541D01*
X123172069Y-96165994D01*
X122984797Y-95937803D01*
X122756606Y-95750531D01*
X122496264Y-95611375D01*
X122213777Y-95525684D01*
X121920000Y-95496749D01*
X121626224Y-95525684D01*
X121343737Y-95611375D01*
X121083395Y-95750531D01*
X120855203Y-95937803D01*
X120667931Y-96165994D01*
X120646576Y-96205947D01*
X120498486Y-96003271D01*
X120282035Y-95804267D01*
X120030919Y-95651314D01*
X119754789Y-95550291D01*
X119739026Y-95547642D01*
X119507000Y-95668783D01*
X119507000Y-97028000D01*
X119527000Y-97028000D01*
X119527000Y-97282000D01*
X119507000Y-97282000D01*
X119507000Y-98641217D01*
X119739026Y-98762358D01*
X119754789Y-98759709D01*
X120030919Y-98658686D01*
X120282035Y-98505733D01*
X120498486Y-98306729D01*
X120646576Y-98104053D01*
X120667931Y-98144005D01*
X120855203Y-98372197D01*
X121083394Y-98559469D01*
X121343736Y-98698625D01*
X121626223Y-98784316D01*
X121920000Y-98813251D01*
X122213776Y-98784316D01*
X122496263Y-98698625D01*
X122756605Y-98559469D01*
X122984797Y-98372197D01*
X123172069Y-98144006D01*
X123190000Y-98110459D01*
X123207931Y-98144005D01*
X123395203Y-98372197D01*
X123623394Y-98559469D01*
X123883736Y-98698625D01*
X124166223Y-98784316D01*
X124460000Y-98813251D01*
X124753776Y-98784316D01*
X125036263Y-98698625D01*
X125296605Y-98559469D01*
X125524797Y-98372197D01*
X125531414Y-98364135D01*
X125546898Y-98415180D01*
X125605863Y-98525494D01*
X125685215Y-98622185D01*
X125781906Y-98701537D01*
X125892220Y-98760502D01*
X126011918Y-98796812D01*
X126136400Y-98809072D01*
X127863600Y-98809072D01*
X127988082Y-98796812D01*
X128107780Y-98760502D01*
X128218094Y-98701537D01*
X128314785Y-98622185D01*
X128394137Y-98525494D01*
X128453102Y-98415180D01*
X128489412Y-98295482D01*
X128501672Y-98171000D01*
X128501672Y-96139000D01*
X128489412Y-96014518D01*
X128453102Y-95894820D01*
X128394137Y-95784506D01*
X128314785Y-95687815D01*
X128218094Y-95608463D01*
X128107780Y-95549498D01*
X127988082Y-95513188D01*
X127863600Y-95500928D01*
X126674730Y-95500928D01*
X124515799Y-93341997D01*
X123238303Y-92064502D01*
X123238299Y-92064497D01*
X122662803Y-91489002D01*
X122639001Y-91459999D01*
X122523276Y-91365026D01*
X122391247Y-91294454D01*
X122247986Y-91250997D01*
X122136333Y-91240000D01*
X122136322Y-91240000D01*
X122099000Y-91236324D01*
X122061678Y-91240000D01*
X118862778Y-91240000D01*
X117619643Y-89996865D01*
X117910908Y-89955422D01*
X118196200Y-89855247D01*
X118345793Y-89775286D01*
X118429476Y-89521105D01*
X117545001Y-88636630D01*
X117530859Y-88650773D01*
X117351254Y-88471168D01*
X117365396Y-88457025D01*
X116480921Y-87572550D01*
X116299952Y-87632130D01*
X116197313Y-87478520D01*
X116111738Y-87392945D01*
X116660526Y-87392945D01*
X117545001Y-88277420D01*
X118429476Y-87392945D01*
X118345793Y-87138764D01*
X118073226Y-87007867D01*
X117780359Y-86932660D01*
X117478448Y-86916034D01*
X117179094Y-86958628D01*
X116893802Y-87058803D01*
X116744209Y-87138764D01*
X116660526Y-87392945D01*
X116111738Y-87392945D01*
X115983506Y-87264713D01*
X115732096Y-87096726D01*
X115452744Y-86981014D01*
X115156185Y-86922025D01*
X114853817Y-86922025D01*
X114557258Y-86981014D01*
X114277906Y-87096726D01*
X114026496Y-87264713D01*
X113812689Y-87478520D01*
X113644702Y-87729930D01*
X113528990Y-88009282D01*
X113470001Y-88305841D01*
X113470001Y-88608209D01*
X113521270Y-88865954D01*
X111989003Y-90398222D01*
X111963889Y-90418832D01*
X111820273Y-90478320D01*
X111585241Y-90635363D01*
X111385363Y-90835241D01*
X111228320Y-91070273D01*
X111120147Y-91331426D01*
X111065000Y-91608665D01*
X111065000Y-91891335D01*
X111120147Y-92168574D01*
X111228320Y-92429727D01*
X111385363Y-92664759D01*
X111585241Y-92864637D01*
X111820273Y-93021680D01*
X112081426Y-93129853D01*
X112358665Y-93185000D01*
X112641335Y-93185000D01*
X112918574Y-93129853D01*
X113179727Y-93021680D01*
X113414759Y-92864637D01*
X113614637Y-92664759D01*
X113771680Y-92429727D01*
X113879853Y-92168574D01*
X113935000Y-91891335D01*
X113935000Y-91608665D01*
X113879853Y-91331426D01*
X113771680Y-91070273D01*
X113649464Y-90887363D01*
X114596072Y-89940756D01*
X114853817Y-89992025D01*
X115156185Y-89992025D01*
X115413931Y-89940756D01*
X117984176Y-92511002D01*
X118007975Y-92540001D01*
X118123700Y-92634974D01*
X118255729Y-92705546D01*
X118398990Y-92749003D01*
X118510643Y-92760000D01*
X118510652Y-92760000D01*
X118547975Y-92763676D01*
X118585298Y-92760000D01*
X121784199Y-92760000D01*
X122163497Y-93139299D01*
X122163502Y-93139303D01*
X122879198Y-93855000D01*
X117292322Y-93855000D01*
X117254999Y-93851324D01*
X117217676Y-93855000D01*
X117217667Y-93855000D01*
X117106014Y-93865997D01*
X116962753Y-93909454D01*
X116830724Y-93980026D01*
X116714999Y-94074999D01*
X116691196Y-94104003D01*
X116424003Y-94371196D01*
X116423997Y-94371201D01*
X113124562Y-97670637D01*
X113030000Y-97661323D01*
X112881015Y-97675997D01*
X112737754Y-97719454D01*
X112605725Y-97790026D01*
X112490000Y-97884999D01*
X112448965Y-97935000D01*
X112358665Y-97935000D01*
X112081426Y-97990147D01*
X111820273Y-98098320D01*
X111585241Y-98255363D01*
X111385363Y-98455241D01*
X111228320Y-98690273D01*
X111120147Y-98951426D01*
X111065000Y-99228665D01*
X111065000Y-99511335D01*
X111120147Y-99788574D01*
X111228320Y-100049727D01*
X111330733Y-100203000D01*
X105537000Y-100203000D01*
X105537000Y-92829117D01*
X105765000Y-92829117D01*
X105765000Y-93170883D01*
X105831675Y-93506081D01*
X105962463Y-93821831D01*
X106152337Y-94105998D01*
X106394002Y-94347663D01*
X106678169Y-94537537D01*
X106993919Y-94668325D01*
X107329117Y-94735000D01*
X107670883Y-94735000D01*
X108006081Y-94668325D01*
X108321831Y-94537537D01*
X108605998Y-94347663D01*
X108847663Y-94105998D01*
X109037537Y-93821831D01*
X109168325Y-93506081D01*
X109235000Y-93170883D01*
X109235000Y-92829117D01*
X109168325Y-92493919D01*
X109037537Y-92178169D01*
X108847663Y-91894002D01*
X108605998Y-91652337D01*
X108321831Y-91462463D01*
X108006081Y-91331675D01*
X107670883Y-91265000D01*
X107329117Y-91265000D01*
X106993919Y-91331675D01*
X106678169Y-91462463D01*
X106394002Y-91652337D01*
X106152337Y-91894002D01*
X105962463Y-92178169D01*
X105831675Y-92493919D01*
X105765000Y-92829117D01*
X105537000Y-92829117D01*
X105537000Y-55066553D01*
X112419009Y-55066553D01*
X112461603Y-55365907D01*
X112561778Y-55651199D01*
X112641739Y-55800792D01*
X112895920Y-55884475D01*
X113780395Y-55000000D01*
X112895920Y-54115525D01*
X112641739Y-54199208D01*
X112510842Y-54471775D01*
X112435635Y-54764642D01*
X112419009Y-55066553D01*
X105537000Y-55066553D01*
X105537000Y-52329117D01*
X105765000Y-52329117D01*
X105765000Y-52670883D01*
X105831675Y-53006081D01*
X105962463Y-53321831D01*
X106152337Y-53605998D01*
X106394002Y-53847663D01*
X106678169Y-54037537D01*
X106993919Y-54168325D01*
X107329117Y-54235000D01*
X107670883Y-54235000D01*
X108006081Y-54168325D01*
X108321831Y-54037537D01*
X108605998Y-53847663D01*
X108847663Y-53605998D01*
X109037537Y-53321831D01*
X109168325Y-53006081D01*
X109235000Y-52670883D01*
X109235000Y-52329117D01*
X137765000Y-52329117D01*
X137765000Y-52670883D01*
X137831675Y-53006081D01*
X137962463Y-53321831D01*
X138152337Y-53605998D01*
X138394002Y-53847663D01*
X138678169Y-54037537D01*
X138993919Y-54168325D01*
X139329117Y-54235000D01*
X139670883Y-54235000D01*
X140006081Y-54168325D01*
X140321831Y-54037537D01*
X140605998Y-53847663D01*
X140847663Y-53605998D01*
X141037537Y-53321831D01*
X141168325Y-53006081D01*
X141235000Y-52670883D01*
X141235000Y-52329117D01*
X141168325Y-51993919D01*
X141037537Y-51678169D01*
X140847663Y-51394002D01*
X140605998Y-51152337D01*
X140321831Y-50962463D01*
X140006081Y-50831675D01*
X139670883Y-50765000D01*
X139329117Y-50765000D01*
X138993919Y-50831675D01*
X138678169Y-50962463D01*
X138394002Y-51152337D01*
X138152337Y-51394002D01*
X137962463Y-51678169D01*
X137831675Y-51993919D01*
X137765000Y-52329117D01*
X109235000Y-52329117D01*
X109168325Y-51993919D01*
X109037537Y-51678169D01*
X108847663Y-51394002D01*
X108605998Y-51152337D01*
X108321831Y-50962463D01*
X108006081Y-50831675D01*
X107670883Y-50765000D01*
X107329117Y-50765000D01*
X106993919Y-50831675D01*
X106678169Y-50962463D01*
X106394002Y-51152337D01*
X106152337Y-51394002D01*
X105962463Y-51678169D01*
X105831675Y-51993919D01*
X105765000Y-52329117D01*
X105537000Y-52329117D01*
X105537000Y-50292000D01*
X141478000Y-50292000D01*
X141478000Y-96376593D01*
G04 #@! TA.AperFunction,Conductor*
D20*
G36*
X141478000Y-96376593D02*
G01*
X141429180Y-96350498D01*
X141309482Y-96314188D01*
X141185000Y-96301928D01*
X139921730Y-96301928D01*
X137285000Y-93665199D01*
X137285000Y-92829117D01*
X137765000Y-92829117D01*
X137765000Y-93170883D01*
X137831675Y-93506081D01*
X137962463Y-93821831D01*
X138152337Y-94105998D01*
X138394002Y-94347663D01*
X138678169Y-94537537D01*
X138993919Y-94668325D01*
X139329117Y-94735000D01*
X139670883Y-94735000D01*
X140006081Y-94668325D01*
X140321831Y-94537537D01*
X140605998Y-94347663D01*
X140847663Y-94105998D01*
X141037537Y-93821831D01*
X141168325Y-93506081D01*
X141235000Y-93170883D01*
X141235000Y-92829117D01*
X141168325Y-92493919D01*
X141037537Y-92178169D01*
X140847663Y-91894002D01*
X140605998Y-91652337D01*
X140321831Y-91462463D01*
X140006081Y-91331675D01*
X139670883Y-91265000D01*
X139329117Y-91265000D01*
X138993919Y-91331675D01*
X138678169Y-91462463D01*
X138394002Y-91652337D01*
X138152337Y-91894002D01*
X137962463Y-92178169D01*
X137831675Y-92493919D01*
X137765000Y-92829117D01*
X137285000Y-92829117D01*
X137285000Y-87154346D01*
X137288676Y-87117023D01*
X137285000Y-87079700D01*
X137285000Y-87079691D01*
X137274003Y-86968038D01*
X137230546Y-86824777D01*
X137159974Y-86692748D01*
X137146811Y-86676709D01*
X137088799Y-86606020D01*
X137088795Y-86606016D01*
X137065001Y-86577023D01*
X137036009Y-86553230D01*
X134710146Y-84227369D01*
X134690546Y-84162754D01*
X134619974Y-84030724D01*
X134525001Y-83914999D01*
X134409276Y-83820026D01*
X134277246Y-83749454D01*
X134212632Y-83729854D01*
X117614802Y-67132025D01*
X117696185Y-67132025D01*
X117992744Y-67073036D01*
X118272096Y-66957324D01*
X118523506Y-66789337D01*
X118737313Y-66575530D01*
X118815001Y-66459262D01*
X118892689Y-66575530D01*
X119106496Y-66789337D01*
X119357906Y-66957324D01*
X119637258Y-67073036D01*
X119933817Y-67132025D01*
X120236185Y-67132025D01*
X120532744Y-67073036D01*
X120812096Y-66957324D01*
X121063506Y-66789337D01*
X121277313Y-66575530D01*
X121355001Y-66459262D01*
X121432689Y-66575530D01*
X121646496Y-66789337D01*
X121897906Y-66957324D01*
X122177258Y-67073036D01*
X122473817Y-67132025D01*
X122776185Y-67132025D01*
X123072744Y-67073036D01*
X123352096Y-66957324D01*
X123603506Y-66789337D01*
X123817313Y-66575530D01*
X123895001Y-66459262D01*
X123972689Y-66575530D01*
X124186496Y-66789337D01*
X124437906Y-66957324D01*
X124717258Y-67073036D01*
X125013817Y-67132025D01*
X125316185Y-67132025D01*
X125612744Y-67073036D01*
X125892096Y-66957324D01*
X126143506Y-66789337D01*
X126357313Y-66575530D01*
X126435001Y-66459262D01*
X126512689Y-66575530D01*
X126726496Y-66789337D01*
X126977906Y-66957324D01*
X127257258Y-67073036D01*
X127553817Y-67132025D01*
X127856185Y-67132025D01*
X128152744Y-67073036D01*
X128432096Y-66957324D01*
X128683506Y-66789337D01*
X128897313Y-66575530D01*
X128975001Y-66459262D01*
X129052689Y-66575530D01*
X129266496Y-66789337D01*
X129517906Y-66957324D01*
X129797258Y-67073036D01*
X130093817Y-67132025D01*
X130396185Y-67132025D01*
X130692744Y-67073036D01*
X130972096Y-66957324D01*
X131223506Y-66789337D01*
X131437313Y-66575530D01*
X131515001Y-66459262D01*
X131592689Y-66575530D01*
X131806496Y-66789337D01*
X132057906Y-66957324D01*
X132337258Y-67073036D01*
X132633817Y-67132025D01*
X132936185Y-67132025D01*
X133232744Y-67073036D01*
X133512096Y-66957324D01*
X133763506Y-66789337D01*
X133977313Y-66575530D01*
X134145300Y-66324120D01*
X134261012Y-66044768D01*
X134320001Y-65748209D01*
X134320001Y-65445841D01*
X134261012Y-65149282D01*
X134145300Y-64869930D01*
X133977313Y-64618520D01*
X133763506Y-64404713D01*
X133512096Y-64236726D01*
X133232744Y-64121014D01*
X132936185Y-64062025D01*
X132633817Y-64062025D01*
X132337258Y-64121014D01*
X132057906Y-64236726D01*
X131806496Y-64404713D01*
X131592689Y-64618520D01*
X131515001Y-64734788D01*
X131437313Y-64618520D01*
X131223506Y-64404713D01*
X130972096Y-64236726D01*
X130692744Y-64121014D01*
X130396185Y-64062025D01*
X130093817Y-64062025D01*
X129797258Y-64121014D01*
X129517906Y-64236726D01*
X129266496Y-64404713D01*
X129052689Y-64618520D01*
X128975001Y-64734788D01*
X128897313Y-64618520D01*
X128683506Y-64404713D01*
X128440640Y-64242435D01*
X128562247Y-64205546D01*
X128694276Y-64134974D01*
X128810001Y-64040001D01*
X128833804Y-64010997D01*
X130967703Y-61877099D01*
X131165241Y-62074637D01*
X131400273Y-62231680D01*
X131661426Y-62339853D01*
X131938665Y-62395000D01*
X132221335Y-62395000D01*
X132498574Y-62339853D01*
X132759727Y-62231680D01*
X132994759Y-62074637D01*
X133194637Y-61874759D01*
X133351680Y-61639727D01*
X133459853Y-61378574D01*
X133515000Y-61101335D01*
X133515000Y-60818665D01*
X133459853Y-60541426D01*
X133351680Y-60280273D01*
X133194637Y-60045241D01*
X132994759Y-59845363D01*
X132759727Y-59688320D01*
X132498574Y-59580147D01*
X132221335Y-59525000D01*
X131938665Y-59525000D01*
X131661426Y-59580147D01*
X131400273Y-59688320D01*
X131165241Y-59845363D01*
X130965363Y-60045241D01*
X130861957Y-60200000D01*
X130847322Y-60200000D01*
X130809999Y-60196324D01*
X130772676Y-60200000D01*
X130772667Y-60200000D01*
X130661014Y-60210997D01*
X130517753Y-60254454D01*
X130385724Y-60325026D01*
X130385722Y-60325027D01*
X130385723Y-60325027D01*
X130298996Y-60396201D01*
X130298992Y-60396205D01*
X130269999Y-60419999D01*
X130246205Y-60448992D01*
X129705000Y-60990197D01*
X129705000Y-60818665D01*
X129649853Y-60541426D01*
X129541680Y-60280273D01*
X129384637Y-60045241D01*
X129184759Y-59845363D01*
X128949727Y-59688320D01*
X128688574Y-59580147D01*
X128411335Y-59525000D01*
X128128665Y-59525000D01*
X127946114Y-59561312D01*
X126490000Y-58105199D01*
X126490000Y-56402072D01*
X126630000Y-56402072D01*
X126754482Y-56389812D01*
X126874180Y-56353502D01*
X126984494Y-56294537D01*
X127081185Y-56215185D01*
X127160537Y-56118494D01*
X127219502Y-56008180D01*
X127255812Y-55888482D01*
X127268072Y-55764000D01*
X127268072Y-55066553D01*
X130919009Y-55066553D01*
X130961603Y-55365907D01*
X131061778Y-55651199D01*
X131141739Y-55800792D01*
X131395920Y-55884475D01*
X132280395Y-55000000D01*
X131395920Y-54115525D01*
X131141739Y-54199208D01*
X131010842Y-54471775D01*
X130935635Y-54764642D01*
X130919009Y-55066553D01*
X127268072Y-55066553D01*
X127268072Y-53964000D01*
X127265307Y-53935920D01*
X131575525Y-53935920D01*
X132460000Y-54820395D01*
X132474143Y-54806253D01*
X132653748Y-54985858D01*
X132639605Y-55000000D01*
X132653748Y-55014143D01*
X132474143Y-55193748D01*
X132460000Y-55179605D01*
X131575525Y-56064080D01*
X131659208Y-56318261D01*
X131931775Y-56449158D01*
X132224642Y-56524365D01*
X132526553Y-56540991D01*
X132825907Y-56498397D01*
X133111199Y-56398222D01*
X133260792Y-56318261D01*
X133344474Y-56064082D01*
X133460422Y-56180030D01*
X133507187Y-56133265D01*
X133510498Y-56144180D01*
X133569463Y-56254494D01*
X133648815Y-56351185D01*
X133745506Y-56430537D01*
X133855820Y-56489502D01*
X133975518Y-56525812D01*
X134100000Y-56538072D01*
X134290155Y-56538072D01*
X134294454Y-56552246D01*
X134365026Y-56684276D01*
X134436201Y-56771002D01*
X134460000Y-56800001D01*
X134488998Y-56823799D01*
X138301312Y-60636114D01*
X138265000Y-60818665D01*
X138265000Y-61101335D01*
X138320147Y-61378574D01*
X138428320Y-61639727D01*
X138585363Y-61874759D01*
X138785241Y-62074637D01*
X139020273Y-62231680D01*
X139281426Y-62339853D01*
X139558665Y-62395000D01*
X139841335Y-62395000D01*
X140118574Y-62339853D01*
X140379727Y-62231680D01*
X140614759Y-62074637D01*
X140814637Y-61874759D01*
X140971680Y-61639727D01*
X141079853Y-61378574D01*
X141135000Y-61101335D01*
X141135000Y-60818665D01*
X141079853Y-60541426D01*
X140971680Y-60280273D01*
X140814637Y-60045241D01*
X140614759Y-59845363D01*
X140379727Y-59688320D01*
X140118574Y-59580147D01*
X139841335Y-59525000D01*
X139558665Y-59525000D01*
X139376114Y-59561312D01*
X136248527Y-56433726D01*
X136254494Y-56430537D01*
X136351185Y-56351185D01*
X136430537Y-56254494D01*
X136489502Y-56144180D01*
X136525812Y-56024482D01*
X136538072Y-55900000D01*
X136538072Y-54100000D01*
X136525812Y-53975518D01*
X136489502Y-53855820D01*
X136430537Y-53745506D01*
X136351185Y-53648815D01*
X136254494Y-53569463D01*
X136144180Y-53510498D01*
X136024482Y-53474188D01*
X135900000Y-53461928D01*
X134100000Y-53461928D01*
X133975518Y-53474188D01*
X133855820Y-53510498D01*
X133745506Y-53569463D01*
X133648815Y-53648815D01*
X133569463Y-53745506D01*
X133510498Y-53855820D01*
X133507187Y-53866735D01*
X133460422Y-53819970D01*
X133344474Y-53935918D01*
X133260792Y-53681739D01*
X132988225Y-53550842D01*
X132695358Y-53475635D01*
X132393447Y-53459009D01*
X132094093Y-53501603D01*
X131808801Y-53601778D01*
X131659208Y-53681739D01*
X131575525Y-53935920D01*
X127265307Y-53935920D01*
X127255812Y-53839518D01*
X127219502Y-53719820D01*
X127160537Y-53609506D01*
X127081185Y-53512815D01*
X126984494Y-53433463D01*
X126874180Y-53374498D01*
X126754482Y-53338188D01*
X126630000Y-53325928D01*
X124830000Y-53325928D01*
X124705518Y-53338188D01*
X124585820Y-53374498D01*
X124475506Y-53433463D01*
X124378815Y-53512815D01*
X124299463Y-53609506D01*
X124240498Y-53719820D01*
X124237187Y-53730735D01*
X124190422Y-53683970D01*
X124074474Y-53799918D01*
X123990792Y-53545739D01*
X123718225Y-53414842D01*
X123425358Y-53339635D01*
X123123447Y-53323009D01*
X122824093Y-53365603D01*
X122538801Y-53465778D01*
X122389208Y-53545739D01*
X122305525Y-53799920D01*
X123190000Y-54684395D01*
X123204143Y-54670253D01*
X123383748Y-54849858D01*
X123369605Y-54864000D01*
X123383748Y-54878143D01*
X123204143Y-55057748D01*
X123190000Y-55043605D01*
X122305525Y-55928080D01*
X122389208Y-56182261D01*
X122661775Y-56313158D01*
X122954642Y-56388365D01*
X123256553Y-56404991D01*
X123555907Y-56362397D01*
X123841199Y-56262222D01*
X123990792Y-56182261D01*
X124074474Y-55928082D01*
X124190422Y-56044030D01*
X124237187Y-55997265D01*
X124240498Y-56008180D01*
X124299463Y-56118494D01*
X124378815Y-56215185D01*
X124475506Y-56294537D01*
X124585820Y-56353502D01*
X124705518Y-56389812D01*
X124830000Y-56402072D01*
X124970000Y-56402072D01*
X124970001Y-58382668D01*
X124966324Y-58420000D01*
X124980998Y-58568985D01*
X125024454Y-58712246D01*
X125095026Y-58844276D01*
X125166201Y-58931002D01*
X125190000Y-58960001D01*
X125218998Y-58983799D01*
X126871312Y-60636114D01*
X126835000Y-60818665D01*
X126835000Y-61101335D01*
X126890147Y-61378574D01*
X126998320Y-61639727D01*
X127155363Y-61874759D01*
X127355241Y-62074637D01*
X127590273Y-62231680D01*
X127851426Y-62339853D01*
X128128665Y-62395000D01*
X128300199Y-62395000D01*
X127955199Y-62740000D01*
X127299348Y-62740000D01*
X127262025Y-62736324D01*
X127224702Y-62740000D01*
X127224693Y-62740000D01*
X127113040Y-62750997D01*
X126969779Y-62794454D01*
X126837750Y-62865026D01*
X126722025Y-62959999D01*
X126698227Y-62988997D01*
X125573931Y-64113294D01*
X125316185Y-64062025D01*
X125013817Y-64062025D01*
X124717258Y-64121014D01*
X124437906Y-64236726D01*
X124186496Y-64404713D01*
X123972689Y-64618520D01*
X123895001Y-64734788D01*
X123817313Y-64618520D01*
X123603506Y-64404713D01*
X123352096Y-64236726D01*
X123072744Y-64121014D01*
X122776185Y-64062025D01*
X122473817Y-64062025D01*
X122177258Y-64121014D01*
X121897906Y-64236726D01*
X121646496Y-64404713D01*
X121432689Y-64618520D01*
X121355001Y-64734788D01*
X121277313Y-64618520D01*
X121063506Y-64404713D01*
X120845001Y-64258712D01*
X120845001Y-62384325D01*
X121068574Y-62339853D01*
X121329727Y-62231680D01*
X121564759Y-62074637D01*
X121764637Y-61874759D01*
X121921680Y-61639727D01*
X122029853Y-61378574D01*
X122085000Y-61101335D01*
X122085000Y-60818665D01*
X122029853Y-60541426D01*
X121921680Y-60280273D01*
X121764637Y-60045241D01*
X121564759Y-59845363D01*
X121329727Y-59688320D01*
X121068574Y-59580147D01*
X120791335Y-59525000D01*
X120508665Y-59525000D01*
X120231426Y-59580147D01*
X119970273Y-59688320D01*
X119735241Y-59845363D01*
X119535363Y-60045241D01*
X119378320Y-60280273D01*
X119270147Y-60541426D01*
X119215000Y-60818665D01*
X119215000Y-61101335D01*
X119270147Y-61378574D01*
X119323145Y-61506522D01*
X119321325Y-61524999D01*
X119325002Y-61562331D01*
X119325001Y-64258712D01*
X119106496Y-64404713D01*
X118892689Y-64618520D01*
X118815001Y-64734788D01*
X118737313Y-64618520D01*
X118523506Y-64404713D01*
X118272096Y-64236726D01*
X117992744Y-64121014D01*
X117696185Y-64062025D01*
X117393817Y-64062025D01*
X117136071Y-64113294D01*
X115415074Y-62392297D01*
X115428665Y-62395000D01*
X115711335Y-62395000D01*
X115988574Y-62339853D01*
X116249727Y-62231680D01*
X116484759Y-62074637D01*
X116684637Y-61874759D01*
X116841680Y-61639727D01*
X116949853Y-61378574D01*
X117005000Y-61101335D01*
X117005000Y-60818665D01*
X116949853Y-60541426D01*
X116841680Y-60280273D01*
X116684637Y-60045241D01*
X116484759Y-59845363D01*
X116330000Y-59741957D01*
X116330000Y-56538072D01*
X117400000Y-56538072D01*
X117524482Y-56525812D01*
X117644180Y-56489502D01*
X117754494Y-56430537D01*
X117851185Y-56351185D01*
X117930537Y-56254494D01*
X117989502Y-56144180D01*
X118025812Y-56024482D01*
X118038072Y-55900000D01*
X118038072Y-54930553D01*
X121649009Y-54930553D01*
X121691603Y-55229907D01*
X121791778Y-55515199D01*
X121871739Y-55664792D01*
X122125920Y-55748475D01*
X123010395Y-54864000D01*
X122125920Y-53979525D01*
X121871739Y-54063208D01*
X121740842Y-54335775D01*
X121665635Y-54628642D01*
X121649009Y-54930553D01*
X118038072Y-54930553D01*
X118038072Y-54100000D01*
X118025812Y-53975518D01*
X117989502Y-53855820D01*
X117930537Y-53745506D01*
X117851185Y-53648815D01*
X117754494Y-53569463D01*
X117644180Y-53510498D01*
X117524482Y-53474188D01*
X117400000Y-53461928D01*
X115600000Y-53461928D01*
X115475518Y-53474188D01*
X115355820Y-53510498D01*
X115245506Y-53569463D01*
X115148815Y-53648815D01*
X115069463Y-53745506D01*
X115010498Y-53855820D01*
X115007187Y-53866735D01*
X114960422Y-53819970D01*
X114844474Y-53935918D01*
X114760792Y-53681739D01*
X114488225Y-53550842D01*
X114195358Y-53475635D01*
X113893447Y-53459009D01*
X113594093Y-53501603D01*
X113308801Y-53601778D01*
X113159208Y-53681739D01*
X113075525Y-53935920D01*
X113960000Y-54820395D01*
X113974143Y-54806253D01*
X114153748Y-54985858D01*
X114139605Y-55000000D01*
X114153748Y-55014143D01*
X113974143Y-55193748D01*
X113960000Y-55179605D01*
X113075525Y-56064080D01*
X113159208Y-56318261D01*
X113431775Y-56449158D01*
X113724642Y-56524365D01*
X114026553Y-56540991D01*
X114325907Y-56498397D01*
X114611199Y-56398222D01*
X114760792Y-56318261D01*
X114810001Y-56168792D01*
X114810000Y-59741956D01*
X114655241Y-59845363D01*
X114455363Y-60045241D01*
X114298320Y-60280273D01*
X114190147Y-60541426D01*
X114135000Y-60818665D01*
X114135000Y-61101335D01*
X114137704Y-61114926D01*
X113471780Y-60449003D01*
X113447977Y-60419999D01*
X113332252Y-60325026D01*
X113200223Y-60254454D01*
X113056962Y-60210997D01*
X112945309Y-60200000D01*
X112945298Y-60200000D01*
X112907976Y-60196324D01*
X112870654Y-60200000D01*
X109168043Y-60200000D01*
X109064637Y-60045241D01*
X108864759Y-59845363D01*
X108629727Y-59688320D01*
X108368574Y-59580147D01*
X108091335Y-59525000D01*
X107808665Y-59525000D01*
X107531426Y-59580147D01*
X107270273Y-59688320D01*
X107035241Y-59845363D01*
X106835363Y-60045241D01*
X106678320Y-60280273D01*
X106570147Y-60541426D01*
X106515000Y-60818665D01*
X106515000Y-61101335D01*
X106570147Y-61378574D01*
X106678320Y-61639727D01*
X106835363Y-61874759D01*
X107035241Y-62074637D01*
X107270273Y-62231680D01*
X107531426Y-62339853D01*
X107808665Y-62395000D01*
X108091335Y-62395000D01*
X108368574Y-62339853D01*
X108629727Y-62231680D01*
X108864759Y-62074637D01*
X109064637Y-61874759D01*
X109168043Y-61720000D01*
X112593175Y-61720000D01*
X114935199Y-64062025D01*
X114853817Y-64062025D01*
X114557258Y-64121014D01*
X114277906Y-64236726D01*
X114026496Y-64404713D01*
X113812689Y-64618520D01*
X113644702Y-64869930D01*
X113528990Y-65149282D01*
X113470001Y-65445841D01*
X113470001Y-65748209D01*
X113528990Y-66044768D01*
X113644702Y-66324120D01*
X113812689Y-66575530D01*
X114026496Y-66789337D01*
X114277906Y-66957324D01*
X114557258Y-67073036D01*
X114853817Y-67132025D01*
X115156185Y-67132025D01*
X115413931Y-67080756D01*
X133360188Y-85027014D01*
X133383987Y-85056013D01*
X133412985Y-85079811D01*
X133412990Y-85079815D01*
X135765000Y-87431827D01*
X135765001Y-93942668D01*
X135761324Y-93980000D01*
X135765001Y-94017333D01*
X135775998Y-94128986D01*
X135788841Y-94171324D01*
X135819454Y-94272246D01*
X135890026Y-94404276D01*
X135958716Y-94487974D01*
X135985000Y-94520001D01*
X136013998Y-94543799D01*
X137775199Y-96305000D01*
X137667998Y-96305000D01*
X137667998Y-96469844D01*
X137438110Y-96348524D01*
X137290901Y-96393175D01*
X137028080Y-96518359D01*
X136794731Y-96692412D01*
X136599822Y-96908645D01*
X136530195Y-97025534D01*
X136408475Y-96843368D01*
X136201632Y-96636525D01*
X135958411Y-96474010D01*
X135761000Y-96392240D01*
X135761000Y-95790349D01*
X135764676Y-95753024D01*
X135761000Y-95715699D01*
X135761000Y-95715691D01*
X135750003Y-95604038D01*
X135706546Y-95460777D01*
X135635974Y-95328748D01*
X135541001Y-95213023D01*
X135512003Y-95189225D01*
X130314802Y-89992025D01*
X130396185Y-89992025D01*
X130692744Y-89933036D01*
X130972096Y-89817324D01*
X131223506Y-89649337D01*
X131437313Y-89435530D01*
X131515001Y-89319262D01*
X131592689Y-89435530D01*
X131806496Y-89649337D01*
X132057906Y-89817324D01*
X132337258Y-89933036D01*
X132633817Y-89992025D01*
X132936185Y-89992025D01*
X133232744Y-89933036D01*
X133512096Y-89817324D01*
X133763506Y-89649337D01*
X133977313Y-89435530D01*
X134145300Y-89184120D01*
X134261012Y-88904768D01*
X134320001Y-88608209D01*
X134320001Y-88305841D01*
X134261012Y-88009282D01*
X134145300Y-87729930D01*
X133977313Y-87478520D01*
X133763506Y-87264713D01*
X133512096Y-87096726D01*
X133232744Y-86981014D01*
X132936185Y-86922025D01*
X132633817Y-86922025D01*
X132337258Y-86981014D01*
X132057906Y-87096726D01*
X131806496Y-87264713D01*
X131592689Y-87478520D01*
X131515001Y-87594788D01*
X131437313Y-87478520D01*
X131223506Y-87264713D01*
X130972096Y-87096726D01*
X130692744Y-86981014D01*
X130396185Y-86922025D01*
X130093817Y-86922025D01*
X129797258Y-86981014D01*
X129517906Y-87096726D01*
X129266496Y-87264713D01*
X129052689Y-87478520D01*
X128975001Y-87594788D01*
X128897313Y-87478520D01*
X128683506Y-87264713D01*
X128432096Y-87096726D01*
X128152744Y-86981014D01*
X127856185Y-86922025D01*
X127553817Y-86922025D01*
X127257258Y-86981014D01*
X126977906Y-87096726D01*
X126726496Y-87264713D01*
X126512689Y-87478520D01*
X126435001Y-87594788D01*
X126357313Y-87478520D01*
X126143506Y-87264713D01*
X125892096Y-87096726D01*
X125612744Y-86981014D01*
X125316185Y-86922025D01*
X125013817Y-86922025D01*
X124717258Y-86981014D01*
X124437906Y-87096726D01*
X124186496Y-87264713D01*
X123972689Y-87478520D01*
X123895001Y-87594788D01*
X123817313Y-87478520D01*
X123603506Y-87264713D01*
X123352096Y-87096726D01*
X123072744Y-86981014D01*
X122776185Y-86922025D01*
X122473817Y-86922025D01*
X122177258Y-86981014D01*
X121897906Y-87096726D01*
X121646496Y-87264713D01*
X121432689Y-87478520D01*
X121355001Y-87594788D01*
X121277313Y-87478520D01*
X121063506Y-87264713D01*
X120812096Y-87096726D01*
X120532744Y-86981014D01*
X120236185Y-86922025D01*
X119933817Y-86922025D01*
X119637258Y-86981014D01*
X119357906Y-87096726D01*
X119106496Y-87264713D01*
X118892689Y-87478520D01*
X118790050Y-87632130D01*
X118609081Y-87572550D01*
X117724606Y-88457025D01*
X118609081Y-89341500D01*
X118790050Y-89281920D01*
X118892689Y-89435530D01*
X119106496Y-89649337D01*
X119357906Y-89817324D01*
X119637258Y-89933036D01*
X119933817Y-89992025D01*
X120236185Y-89992025D01*
X120532744Y-89933036D01*
X120812096Y-89817324D01*
X121063506Y-89649337D01*
X121277313Y-89435530D01*
X121355001Y-89319262D01*
X121432689Y-89435530D01*
X121646496Y-89649337D01*
X121897906Y-89817324D01*
X122177258Y-89933036D01*
X122473817Y-89992025D01*
X122776185Y-89992025D01*
X123072744Y-89933036D01*
X123352096Y-89817324D01*
X123603506Y-89649337D01*
X123817313Y-89435530D01*
X123895001Y-89319262D01*
X123972689Y-89435530D01*
X124186496Y-89649337D01*
X124437906Y-89817324D01*
X124717258Y-89933036D01*
X125013817Y-89992025D01*
X125316185Y-89992025D01*
X125573931Y-89940756D01*
X131949997Y-96316823D01*
X131950003Y-96316828D01*
X131955001Y-96321826D01*
X131955001Y-96511821D01*
X131768368Y-96636525D01*
X131561525Y-96843368D01*
X131399010Y-97086589D01*
X131287068Y-97356842D01*
X131230000Y-97643740D01*
X131230000Y-97936260D01*
X131287068Y-98223158D01*
X131399010Y-98493411D01*
X131561525Y-98736632D01*
X131768368Y-98943475D01*
X132011589Y-99105990D01*
X132281842Y-99217932D01*
X132568740Y-99275000D01*
X132861260Y-99275000D01*
X133148158Y-99217932D01*
X133418411Y-99105990D01*
X133661632Y-98943475D01*
X133868475Y-98736632D01*
X133985000Y-98562240D01*
X134101525Y-98736632D01*
X134308368Y-98943475D01*
X134551589Y-99105990D01*
X134821842Y-99217932D01*
X135108740Y-99275000D01*
X135401260Y-99275000D01*
X135688158Y-99217932D01*
X135958411Y-99105990D01*
X136201632Y-98943475D01*
X136408475Y-98736632D01*
X136530195Y-98554466D01*
X136599822Y-98671355D01*
X136794731Y-98887588D01*
X137028080Y-99061641D01*
X137290901Y-99186825D01*
X137438110Y-99231476D01*
X137668000Y-99110155D01*
X137668000Y-97917000D01*
X137648000Y-97917000D01*
X137648000Y-97663000D01*
X137668000Y-97663000D01*
X137668000Y-97643000D01*
X137922000Y-97643000D01*
X137922000Y-97663000D01*
X137942000Y-97663000D01*
X137942000Y-97917000D01*
X137922000Y-97917000D01*
X137922000Y-99110155D01*
X138151890Y-99231476D01*
X138299099Y-99186825D01*
X138561920Y-99061641D01*
X138795269Y-98887588D01*
X138871034Y-98803534D01*
X138895498Y-98884180D01*
X138954463Y-98994494D01*
X139033815Y-99091185D01*
X139130506Y-99170537D01*
X139240820Y-99229502D01*
X139360518Y-99265812D01*
X139485000Y-99278072D01*
X141185000Y-99278072D01*
X141309482Y-99265812D01*
X141429180Y-99229502D01*
X141478000Y-99203407D01*
X141478000Y-100203000D01*
X113669267Y-100203000D01*
X113771680Y-100049727D01*
X113879853Y-99788574D01*
X113935000Y-99511335D01*
X113935000Y-99228665D01*
X113898688Y-99046113D01*
X115427887Y-97516914D01*
X117894815Y-97516914D01*
X117964227Y-97802633D01*
X118088046Y-98069321D01*
X118261514Y-98306729D01*
X118477965Y-98505733D01*
X118729081Y-98658686D01*
X119005211Y-98759709D01*
X119020974Y-98762358D01*
X119253000Y-98641217D01*
X119253000Y-97282000D01*
X118039075Y-97282000D01*
X117894815Y-97516914D01*
X115427887Y-97516914D01*
X116151715Y-96793086D01*
X117894815Y-96793086D01*
X118039075Y-97028000D01*
X119253000Y-97028000D01*
X119253000Y-95668783D01*
X119020974Y-95547642D01*
X119005211Y-95550291D01*
X118729081Y-95651314D01*
X118477965Y-95804267D01*
X118261514Y-96003271D01*
X118088046Y-96240679D01*
X117964227Y-96507367D01*
X117894815Y-96793086D01*
X116151715Y-96793086D01*
X117498799Y-95446003D01*
X117498804Y-95445997D01*
X117569801Y-95375000D01*
X123510199Y-95375000D01*
X123794351Y-95659153D01*
X123623395Y-95750531D01*
X123395203Y-95937803D01*
X123207931Y-96165994D01*
X123190000Y-96199541D01*
X123172069Y-96165994D01*
X122984797Y-95937803D01*
X122756606Y-95750531D01*
X122496264Y-95611375D01*
X122213777Y-95525684D01*
X121920000Y-95496749D01*
X121626224Y-95525684D01*
X121343737Y-95611375D01*
X121083395Y-95750531D01*
X120855203Y-95937803D01*
X120667931Y-96165994D01*
X120646576Y-96205947D01*
X120498486Y-96003271D01*
X120282035Y-95804267D01*
X120030919Y-95651314D01*
X119754789Y-95550291D01*
X119739026Y-95547642D01*
X119507000Y-95668783D01*
X119507000Y-97028000D01*
X119527000Y-97028000D01*
X119527000Y-97282000D01*
X119507000Y-97282000D01*
X119507000Y-98641217D01*
X119739026Y-98762358D01*
X119754789Y-98759709D01*
X120030919Y-98658686D01*
X120282035Y-98505733D01*
X120498486Y-98306729D01*
X120646576Y-98104053D01*
X120667931Y-98144005D01*
X120855203Y-98372197D01*
X121083394Y-98559469D01*
X121343736Y-98698625D01*
X121626223Y-98784316D01*
X121920000Y-98813251D01*
X122213776Y-98784316D01*
X122496263Y-98698625D01*
X122756605Y-98559469D01*
X122984797Y-98372197D01*
X123172069Y-98144006D01*
X123190000Y-98110459D01*
X123207931Y-98144005D01*
X123395203Y-98372197D01*
X123623394Y-98559469D01*
X123883736Y-98698625D01*
X124166223Y-98784316D01*
X124460000Y-98813251D01*
X124753776Y-98784316D01*
X125036263Y-98698625D01*
X125296605Y-98559469D01*
X125524797Y-98372197D01*
X125531414Y-98364135D01*
X125546898Y-98415180D01*
X125605863Y-98525494D01*
X125685215Y-98622185D01*
X125781906Y-98701537D01*
X125892220Y-98760502D01*
X126011918Y-98796812D01*
X126136400Y-98809072D01*
X127863600Y-98809072D01*
X127988082Y-98796812D01*
X128107780Y-98760502D01*
X128218094Y-98701537D01*
X128314785Y-98622185D01*
X128394137Y-98525494D01*
X128453102Y-98415180D01*
X128489412Y-98295482D01*
X128501672Y-98171000D01*
X128501672Y-96139000D01*
X128489412Y-96014518D01*
X128453102Y-95894820D01*
X128394137Y-95784506D01*
X128314785Y-95687815D01*
X128218094Y-95608463D01*
X128107780Y-95549498D01*
X127988082Y-95513188D01*
X127863600Y-95500928D01*
X126674730Y-95500928D01*
X124515799Y-93341997D01*
X123238303Y-92064502D01*
X123238299Y-92064497D01*
X122662803Y-91489002D01*
X122639001Y-91459999D01*
X122523276Y-91365026D01*
X122391247Y-91294454D01*
X122247986Y-91250997D01*
X122136333Y-91240000D01*
X122136322Y-91240000D01*
X122099000Y-91236324D01*
X122061678Y-91240000D01*
X118862778Y-91240000D01*
X117619643Y-89996865D01*
X117910908Y-89955422D01*
X118196200Y-89855247D01*
X118345793Y-89775286D01*
X118429476Y-89521105D01*
X117545001Y-88636630D01*
X117530859Y-88650773D01*
X117351254Y-88471168D01*
X117365396Y-88457025D01*
X116480921Y-87572550D01*
X116299952Y-87632130D01*
X116197313Y-87478520D01*
X116111738Y-87392945D01*
X116660526Y-87392945D01*
X117545001Y-88277420D01*
X118429476Y-87392945D01*
X118345793Y-87138764D01*
X118073226Y-87007867D01*
X117780359Y-86932660D01*
X117478448Y-86916034D01*
X117179094Y-86958628D01*
X116893802Y-87058803D01*
X116744209Y-87138764D01*
X116660526Y-87392945D01*
X116111738Y-87392945D01*
X115983506Y-87264713D01*
X115732096Y-87096726D01*
X115452744Y-86981014D01*
X115156185Y-86922025D01*
X114853817Y-86922025D01*
X114557258Y-86981014D01*
X114277906Y-87096726D01*
X114026496Y-87264713D01*
X113812689Y-87478520D01*
X113644702Y-87729930D01*
X113528990Y-88009282D01*
X113470001Y-88305841D01*
X113470001Y-88608209D01*
X113521270Y-88865954D01*
X111989003Y-90398222D01*
X111963889Y-90418832D01*
X111820273Y-90478320D01*
X111585241Y-90635363D01*
X111385363Y-90835241D01*
X111228320Y-91070273D01*
X111120147Y-91331426D01*
X111065000Y-91608665D01*
X111065000Y-91891335D01*
X111120147Y-92168574D01*
X111228320Y-92429727D01*
X111385363Y-92664759D01*
X111585241Y-92864637D01*
X111820273Y-93021680D01*
X112081426Y-93129853D01*
X112358665Y-93185000D01*
X112641335Y-93185000D01*
X112918574Y-93129853D01*
X113179727Y-93021680D01*
X113414759Y-92864637D01*
X113614637Y-92664759D01*
X113771680Y-92429727D01*
X113879853Y-92168574D01*
X113935000Y-91891335D01*
X113935000Y-91608665D01*
X113879853Y-91331426D01*
X113771680Y-91070273D01*
X113649464Y-90887363D01*
X114596072Y-89940756D01*
X114853817Y-89992025D01*
X115156185Y-89992025D01*
X115413931Y-89940756D01*
X117984176Y-92511002D01*
X118007975Y-92540001D01*
X118123700Y-92634974D01*
X118255729Y-92705546D01*
X118398990Y-92749003D01*
X118510643Y-92760000D01*
X118510652Y-92760000D01*
X118547975Y-92763676D01*
X118585298Y-92760000D01*
X121784199Y-92760000D01*
X122163497Y-93139299D01*
X122163502Y-93139303D01*
X122879198Y-93855000D01*
X117292322Y-93855000D01*
X117254999Y-93851324D01*
X117217676Y-93855000D01*
X117217667Y-93855000D01*
X117106014Y-93865997D01*
X116962753Y-93909454D01*
X116830724Y-93980026D01*
X116714999Y-94074999D01*
X116691196Y-94104003D01*
X116424003Y-94371196D01*
X116423997Y-94371201D01*
X113124562Y-97670637D01*
X113030000Y-97661323D01*
X112881015Y-97675997D01*
X112737754Y-97719454D01*
X112605725Y-97790026D01*
X112490000Y-97884999D01*
X112448965Y-97935000D01*
X112358665Y-97935000D01*
X112081426Y-97990147D01*
X111820273Y-98098320D01*
X111585241Y-98255363D01*
X111385363Y-98455241D01*
X111228320Y-98690273D01*
X111120147Y-98951426D01*
X111065000Y-99228665D01*
X111065000Y-99511335D01*
X111120147Y-99788574D01*
X111228320Y-100049727D01*
X111330733Y-100203000D01*
X105537000Y-100203000D01*
X105537000Y-92829117D01*
X105765000Y-92829117D01*
X105765000Y-93170883D01*
X105831675Y-93506081D01*
X105962463Y-93821831D01*
X106152337Y-94105998D01*
X106394002Y-94347663D01*
X106678169Y-94537537D01*
X106993919Y-94668325D01*
X107329117Y-94735000D01*
X107670883Y-94735000D01*
X108006081Y-94668325D01*
X108321831Y-94537537D01*
X108605998Y-94347663D01*
X108847663Y-94105998D01*
X109037537Y-93821831D01*
X109168325Y-93506081D01*
X109235000Y-93170883D01*
X109235000Y-92829117D01*
X109168325Y-92493919D01*
X109037537Y-92178169D01*
X108847663Y-91894002D01*
X108605998Y-91652337D01*
X108321831Y-91462463D01*
X108006081Y-91331675D01*
X107670883Y-91265000D01*
X107329117Y-91265000D01*
X106993919Y-91331675D01*
X106678169Y-91462463D01*
X106394002Y-91652337D01*
X106152337Y-91894002D01*
X105962463Y-92178169D01*
X105831675Y-92493919D01*
X105765000Y-92829117D01*
X105537000Y-92829117D01*
X105537000Y-55066553D01*
X112419009Y-55066553D01*
X112461603Y-55365907D01*
X112561778Y-55651199D01*
X112641739Y-55800792D01*
X112895920Y-55884475D01*
X113780395Y-55000000D01*
X112895920Y-54115525D01*
X112641739Y-54199208D01*
X112510842Y-54471775D01*
X112435635Y-54764642D01*
X112419009Y-55066553D01*
X105537000Y-55066553D01*
X105537000Y-52329117D01*
X105765000Y-52329117D01*
X105765000Y-52670883D01*
X105831675Y-53006081D01*
X105962463Y-53321831D01*
X106152337Y-53605998D01*
X106394002Y-53847663D01*
X106678169Y-54037537D01*
X106993919Y-54168325D01*
X107329117Y-54235000D01*
X107670883Y-54235000D01*
X108006081Y-54168325D01*
X108321831Y-54037537D01*
X108605998Y-53847663D01*
X108847663Y-53605998D01*
X109037537Y-53321831D01*
X109168325Y-53006081D01*
X109235000Y-52670883D01*
X109235000Y-52329117D01*
X137765000Y-52329117D01*
X137765000Y-52670883D01*
X137831675Y-53006081D01*
X137962463Y-53321831D01*
X138152337Y-53605998D01*
X138394002Y-53847663D01*
X138678169Y-54037537D01*
X138993919Y-54168325D01*
X139329117Y-54235000D01*
X139670883Y-54235000D01*
X140006081Y-54168325D01*
X140321831Y-54037537D01*
X140605998Y-53847663D01*
X140847663Y-53605998D01*
X141037537Y-53321831D01*
X141168325Y-53006081D01*
X141235000Y-52670883D01*
X141235000Y-52329117D01*
X141168325Y-51993919D01*
X141037537Y-51678169D01*
X140847663Y-51394002D01*
X140605998Y-51152337D01*
X140321831Y-50962463D01*
X140006081Y-50831675D01*
X139670883Y-50765000D01*
X139329117Y-50765000D01*
X138993919Y-50831675D01*
X138678169Y-50962463D01*
X138394002Y-51152337D01*
X138152337Y-51394002D01*
X137962463Y-51678169D01*
X137831675Y-51993919D01*
X137765000Y-52329117D01*
X109235000Y-52329117D01*
X109168325Y-51993919D01*
X109037537Y-51678169D01*
X108847663Y-51394002D01*
X108605998Y-51152337D01*
X108321831Y-50962463D01*
X108006081Y-50831675D01*
X107670883Y-50765000D01*
X107329117Y-50765000D01*
X106993919Y-50831675D01*
X106678169Y-50962463D01*
X106394002Y-51152337D01*
X106152337Y-51394002D01*
X105962463Y-51678169D01*
X105831675Y-51993919D01*
X105765000Y-52329117D01*
X105537000Y-52329117D01*
X105537000Y-50292000D01*
X141478000Y-50292000D01*
X141478000Y-96376593D01*
G37*
G04 #@! TD.AperFunction*
M02*
