M48
INCH,TZ
T1C0.0315
T2C0.0354
T3C0.0394
T4C0.0400
%
G90
G05
T1
X44291Y-36122
X42500Y-24000
X47500Y-24000
X50500Y-24000
X44291Y-39122
X52000Y-24000
X55000Y-24000
X45500Y-24000
T2
X48500Y-21600
X49500Y-21600
X52150Y-21654
X53150Y-21654
X44866Y-21654
X45866Y-21654
T3
X52250Y-38500
X53250Y-38500
X54250Y-38500
X55250Y-38500
T4
X45278Y-25826
X45278Y-34826
X46278Y-25826
X46278Y-34826
X47278Y-25826
X47278Y-34826
X48278Y-25826
X48278Y-34826
X49278Y-25826
X49278Y-34826
X50278Y-25826
X50278Y-34826
X51278Y-25826
X51278Y-34826
X52278Y-25826
X52278Y-34826
X47000Y-38250
X48000Y-38250
X49000Y-38250
X50000Y-38250
T0
M30
